<svg xmlns="http://www.w3.org/2000/svg" width="98" height="218" fill="none" viewBox="0 0 98 218">
  <path fill="#F9CFAE" fill-rule="evenodd" d="M42.787 7c-5.34 1.91-5.72 9.66-4.2 15.39 2 7.589 5.83 9.229 8.16 10.289 2.33 1.06 4 6.34 1.5 18.12-1.18 5.51 2.32 7.35 7.16 6.39a12.2 12.2 0 009.75-10c1.29-9.12-3.73-10.74-4.17-17.76-.61-9.8-2.62-28.04-18.2-22.43z" clip-rule="evenodd"/>
  <path fill="#854C20" fill-rule="evenodd" d="M52.927 4.84c6-2.66 9.9 5.54 7.31 13.66 0 0-14.24-10.57-7.31-13.66z" clip-rule="evenodd"/>
  <path fill="#854C20" fill-rule="evenodd" d="M34.667 9.08s2.54 5.34 9.8 3.9c3.65-.72 10.39-4.74 10.56-6.2-11.12-11.45-20.71-2.84-25.6-5.86-1.97-1.22-2.22 8.75 5.24 8.16zM59.427 16.13c.44 2.12-1.58 4.32-1.58 4.32s-2.73-1.23-3.16-3.34c-.43-2.11 1.58-4.32 1.58-4.32s2.73 1.21 3.16 3.34z" clip-rule="evenodd"/>
  <path fill="#F9CFAE" fill-rule="evenodd" d="M61.747 20.11a3.09 3.09 0 11-6.18 0 3.09 3.09 0 016.18 0z" clip-rule="evenodd"/>
  <path fill="#1877BD" fill-rule="evenodd" d="M39.527 43.589c-7.22.4-11.06 25.9-11.8 26.64-.74.739-15.749-8-18.999-20-3.25-12-8.15-3.45-7.9 4.45s15 35.599 34.14 32.869c3.45-.5 7.57-17.08 9-26.95 1.43-9.87.03-17.25-4.44-17.01z" clip-rule="evenodd"/>
  <path fill="#393A3D" fill-rule="evenodd" d="M20.368 57.468a.78.78 0 01-1 1l-8.21-1.47a2.32 2.32 0 01-1.66-1.54l-6.26-23.46a.79.79 0 011-1.059l8.23 1.53a2.33 2.33 0 011.64 1.53l6.26 23.47z" clip-rule="evenodd"/>
  <path fill="#B07242" fill-rule="evenodd" d="M85.836 152.766c3.37-.12 11.06.67 11.33 3.1.27 2.43-2.17 14.13-2.56 22.13-.39 7.999-5 5.519-7.55-2.3-2.55-7.82-5.13-22.8-1.22-22.93zM26.368 202.795s-8.9-2.43-13.62-6.88c-4.72-4.45-6.07-3.37-2.16 4.72s13.76 16.45 20 16.72c6.24.27.67-15 .67-15l-4.89.44z" clip-rule="evenodd"/>
  <path fill="#393A3D" fill-rule="evenodd" d="M38.507 100.997c-5.67 11.06-13.58 42.529 8 54.359 16.52 9.07 35.9 8.64 39.24 7.81 8.22-1.53 6.47-9.71 6.47-9.71s-17.13-4-26-10c-8.87-5.999-4.72-36.679-4.72-36.679l-22.99-5.78z" clip-rule="evenodd"/>
  <path fill="#393A3D" fill-rule="evenodd" d="M60.477 98.827c-12.1 4.32-34.11 48.139-35.32 56.359-1.21 8.22-1.89 47.999-1.89 47.999s5.53 7 9.57 3.24c0 0 7.14-17.87 10-46.929.59-6 29-36.449 32.11-47.239 3.11-10.79-6.95-16.13-14.47-13.43z" clip-rule="evenodd"/>
  <path fill="#535556" fill-rule="evenodd" d="M25.158 155.186c-.1.67-.2 1.57-.29 2.62.22-.039.437-.092.65-.16 25.21-10.09 34.289-34.619 41.999-50.759l-15.84-.64c-11.68 13.96-25.57 42.469-26.52 48.939z" clip-rule="evenodd"/>
  <path fill="#3093D1" fill-rule="evenodd" d="M49.467 39.359s-.39 9 .76 10.58c2 2.65 14.07-11.6 14.07-11.6s17.75-.13 21.95 7.77c4.2 7.9-5.93 61.088-14.57 67.258-8.64 6.17-35.54 1.73-35.05-6.66.49-8.39 6.2-18 6.45-24.44 0 0-10-18.809-8.26-32.628 1.08-8.64 14.65-10.28 14.65-10.28z" clip-rule="evenodd"/>
  <path fill="#1877BD" fill-rule="evenodd" d="M77.087 40.079c-12.15 8-4.73 30.32-6.15 38.869-1.47 8.84-12.78 16.29-16.51 37.059 6.72.67 13.61 0 17.25-2.64 8.64-6.17 18.76-59.359 14.57-67.258-1.63-3.06-5.25-4.91-9.16-6.03z" clip-rule="evenodd"/>
  <path fill="#43A6DD" fill-rule="evenodd" d="M74.817 51.998a84.25 84.25 0 011.1 13.24 196.117 196.117 0 01-28.92-10.54l-1.37 8.48s27.69 23.57 41 20.86c13.309-2.71 5.28-24.76 1.57-33.89-3.71-9.13-15.99-12.81-13.38 1.85z" clip-rule="evenodd"/>
  <path fill="#F9CFAE" fill-rule="evenodd" d="M47.337 55.128s-8.15-5.75-11.45-6.17c-3.3-.42-7.79 2.04-10.89 2.36 3 3.1 9.73.38 9.73.38s-.6 6.22 1.74 8c2.34 1.78 10.43 3.53 10.43 3.53l.44-8.1zM1.998 42.859s6.2-5.19 7.07-6.32c1.36 1.8-3.83 5.78-3.83 5.78s3.7-.34 6.2-.41c.34 2-5.93 2.84-5.93 2.84s4.18-.34 6.81-.68c-.48 2.29-6.68 3.51-6.68 3.51s3.84.33 6 .27c.54 1.08-5.19 2-5.19 2s2.16 6.47-.68 6.88c-2.84.41-7.04-9.96-3.77-13.87z" clip-rule="evenodd"/>
  <path fill="#3093D1" fill-rule="evenodd" d="M54.407 47.219l-3.57 2.83-1.22-4.54-2.28.43 2.83 7.71 7.15-4.74-2.91-1.69z" clip-rule="evenodd"/>
  <path fill="#43A6DD" fill-rule="evenodd" d="M62.287 33.999a22 22 0 01-7.88 13.25l1.07 7.75s12.08-10.45 11.84-16.62a18.331 18.331 0 00-5.03-4.38zM49.347 37.899l.58 8.75-2.87 7s-1-9-1-13.57a22.19 22.19 0 013.29-2.18z" clip-rule="evenodd"/>
  <path fill="#BABEC5" fill-rule="evenodd" d="M50.859 53.038c.418.418.484 1.029.148 1.365-.335.336-.946.27-1.364-.149-.418-.417-.485-1.029-.149-1.364.336-.336.947-.27 1.365.148zM52.93 75.707c.418.418.484 1.029.148 1.365-.336.335-.947.269-1.364-.149-.418-.418-.485-1.029-.149-1.365.336-.335.947-.269 1.365.149zM50.816 90.58c.417.418.484 1.03.148 1.365-.336.336-.947.27-1.365-.148-.418-.418-.484-1.03-.148-1.365.336-.336.947-.27 1.364.148zM47.604 102.158c.418.418.484 1.029.149 1.365-.336.336-.947.269-1.365-.149-.418-.418-.484-1.029-.149-1.364.336-.336.947-.27 1.365.148z" clip-rule="evenodd"/>
</svg>
