<svg id="projet_dpdn01_svg__Layer_2" xmlns="http://www.w3.org/2000/svg" x="0" y="0" viewBox="0 0 1200 767" xml:space="preserve" enable-background="new 0 0 1200 767" data-di-res-id="234abfcd-6219fc01" data-di-rand="1642673165659"><style data-di-res-id="14b62d08-eef59171" data-di-rand="1642673165638">.projet_dpdn01_svg__st2{enable-background:new}.projet_dpdn01_svg__st3{fill:#393a3d}.projet_dpdn01_svg__st5{fill:#fff}.projet_dpdn01_svg__st7{fill:#108000}</style><path id="projet_dpdn01_svg__Rectangle-Copy" d="M284.4 122.8h471.9c2.9 0 5.2 2.3 5.2 5.2v576.7c0 2.9-2.3 5.2-5.2 5.2H284.4c-2.9 0-5.2-2.3-5.2-5.2V128c0-2.8 2.3-5.2 5.2-5.2z" fill="#9b9b9b" fill-opacity="0.471"></path><path id="projet_dpdn01_svg__Rectangle" d="M285.6 118.9h469.3c2.9 0 5.2 2.3 5.2 5.2v574.1c0 2.9-2.3 5.2-5.2 5.2H285.6c-2.9 0-5.2-2.3-5.2-5.2V124.1c-.1-2.9 2.3-5.2 5.2-5.2z" fill="#fff" stroke="#d4d7dc"></path><g class="projet_dpdn01_svg__st2"><path class="projet_dpdn01_svg__st3" d="M317.4 177.2h-3.6v-26H330v3.2h-12.6v8.1h11.8v3.1h-11.8v11.6zM343.5 165.9c0-2.6-1.7-3.8-4.3-3.8-1.9 0-3.8.8-5 2l-1.8-2.2c1.7-1.6 4.3-2.6 7.1-2.6 5 0 7.3 3 7.3 6.8v7.6c0 1.2.1 2.6.3 3.5H344c-.2-.8-.3-1.7-.3-2.5h-.1c-1.2 1.9-3.2 2.9-5.8 2.9-2.8 0-6.3-1.4-6.3-5.4 0-5.3 6.2-5.9 12.1-5.9v-.4zm-.8 3c-3.4 0-7.7.4-7.7 3.3 0 2.1 1.8 2.7 3.6 2.7 3.2 0 5-2.2 5-5.1v-.9h-.9zM364.8 164.2c-.7-1.1-2.4-2-4-2-3.6 0-5.7 2.9-5.7 6.3 0 3.3 2.1 6.3 5.7 6.3 1.8 0 3.3-.7 4.2-1.9l2.3 2.1c-1.5 1.7-3.7 2.7-6.5 2.7-5.4 0-9.4-3.6-9.4-9.2 0-5.5 4-9.2 9.3-9.2 2.5 0 5.1 1 6.5 2.9l-2.4 2zM379.2 162.6h-4.6v9.1c0 2.1.7 2.9 2.5 2.9.6 0 1.4-.1 2-.4l.1 2.8c-.8.3-1.9.5-2.9.5-3.3 0-5.1-1.8-5.1-5.4v-9.4h-3.3v-2.8h3.3v-5h3.4v5h4.6v2.7zM395 177.2c-.1-.9-.1-2.1-.1-2.9h-.1c-.9 1.8-3.2 3.3-5.7 3.3-4.5 0-6.5-3.2-6.5-7.1v-10.8h3.5v9.6c0 2.9.8 5.4 4 5.4 2.8 0 4.7-2.3 4.7-5.7v-9.3h3.5v13.7c0 .9 0 2.6.1 3.7H395zM404 159.8h3.3c.1.9.1 2.2.1 2.9h.1c1-2 3-3.4 5.3-3.4.5 0 1 0 1.4.1l-.1 3.2c-.4-.1-1-.2-1.6-.2-3.3 0-4.9 2.7-4.9 5.6v9.1h-3.5v-13.7c0-.8 0-2.4-.1-3.6zM433 169.5h-13.8c.1 3 2.6 5.3 5.7 5.3 2.4 0 4.1-1.2 5.1-2.6l2.4 1.9c-1.9 2.4-4.4 3.6-7.5 3.6-5.3 0-9.2-3.7-9.2-9.1 0-5.4 3.9-9.2 9-9.2s8.4 3.5 8.4 9c-.1.3-.1.7-.1 1.1zm-3.5-2.5c-.1-2.8-1.7-4.9-4.9-4.9-3 0-5.3 2.2-5.5 4.9h10.4z"></path></g><defs><filter id="projet_dpdn01_svg__Adobe_OpacityMaskFilter" filterUnits="userSpaceOnUse" x="261.2" y="189.8" width="518.3" height="110.1"><feColorMatrix values="1 0 0 0 0 0 1 0 0 0 0 0 1 0 0 0 0 0 1 0"></feColorMatrix></filter></defs><mask maskUnits="userSpaceOnUse" x="261.2" y="189.8" width="518.3" height="110.1" id="projet_dpdn01_svg__mask-2_2_"><g filter="url(#projet_dpdn01_svg__Adobe_OpacityMaskFilter)"><path id="projet_dpdn01_svg__path-1_2_" class="projet_dpdn01_svg__st5" d="M281.8 202.9h477.1v83.9H281.8z"></path></g></mask><path id="projet_dpdn01_svg__Fill-10" mask="url(#projet_dpdn01_svg__mask-2_2_)" fill="#eceef1" d="M261.2 299.9h518.3V189.8H261.2z"></path><g class="projet_dpdn01_svg__st2"><path class="projet_dpdn01_svg__st7" d="M317.4 254h-3.6v-26h8.3c5 0 9.3 1.9 9.3 7.2 0 3.8-2.6 6.2-6.3 6.9l7.3 11.9H328l-6.6-11.6h-3.9V254zm0-14.6h4.2c3.4 0 6.1-1.1 6.1-4.2s-2.7-4.1-5.8-4.1h-4.4v8.3zM351.9 246.3h-13.8c.1 3 2.6 5.3 5.7 5.3 2.4 0 4.1-1.2 5.1-2.6l2.4 1.9c-1.9 2.4-4.4 3.6-7.5 3.6-5.3 0-9.2-3.7-9.2-9.1 0-5.4 3.9-9.2 9-9.2s8.4 3.5 8.4 9c-.1.3-.1.7-.1 1.1zm-3.5-2.6c-.1-2.8-1.7-4.9-4.9-4.9-3 0-5.3 2.2-5.5 4.9h10.4zM368.9 241c-.7-1.1-2.4-2-4-2-3.6 0-5.7 2.9-5.7 6.3 0 3.3 2.1 6.3 5.7 6.3 1.8 0 3.3-.7 4.2-1.9l2.3 2.1c-1.5 1.7-3.7 2.7-6.5 2.7-5.4 0-9.4-3.6-9.4-9.2 0-5.5 4-9.2 9.3-9.2 2.5 0 5.1 1 6.5 2.9l-2.4 2zM391 246.3h-13.8c.1 3 2.6 5.3 5.7 5.3 2.4 0 4.1-1.2 5.1-2.6l2.4 1.9c-1.9 2.4-4.4 3.6-7.5 3.6-5.3 0-9.2-3.7-9.2-9.1 0-5.4 3.9-9.2 9-9.2s8.4 3.5 8.4 9c0 .3 0 .7-.1 1.1zm-3.4-2.6c-.1-2.8-1.7-4.9-4.9-4.9-3 0-5.3 2.2-5.5 4.9h10.4zM404.1 254h-3.7l-7.1-17.4h3.8l5.1 13.7h.1l5.1-13.7h3.7l-7 17.4zM422.6 254.4c-5.3 0-9.4-3.9-9.4-9.2s4-9.1 9.4-9.1c5.3 0 9.4 3.8 9.4 9.1s-4.1 9.2-9.4 9.2zm0-15.5c-3.7 0-5.8 3-5.8 6.3s2.1 6.3 5.8 6.3c3.7 0 5.8-3 5.8-6.3s-2-6.3-5.8-6.3zM438.5 232.5c-1.2 0-2.3-1-2.3-2.2 0-1.2 1-2.2 2.3-2.2 1.2 0 2.3 1 2.3 2.2 0 1.2-1 2.2-2.3 2.2zm1.8 21.5h-3.5v-17.4h3.5V254zM446.1 236.6h3.3c.1.9.1 2.2.1 2.9h.1c1-2 3-3.4 5.3-3.4.5 0 1 0 1.4.1l-.1 3.2c-.4-.1-1-.2-1.6-.2-3.3 0-4.9 2.7-4.9 5.6v9.1h-3.5v-13.7c.1-.8 0-2.5-.1-3.6zM481 254c-.1-.9-.1-2.1-.1-2.9h-.1c-.9 1.8-3.2 3.3-5.7 3.3-4.5 0-6.5-3.2-6.5-7.1v-10.8h3.5v9.6c0 2.9.8 5.4 4 5.4 2.8 0 4.7-2.3 4.7-5.7v-9.3h3.5v13.7c0 .9 0 2.6.1 3.7H481zM493.2 236.6c.1.9.1 2.1.1 2.9h.1c.8-1.9 3.2-3.3 5.7-3.3 4.5 0 6.5 3.2 6.5 7.1V254h-3.5v-9.7c0-2.8-.8-5.3-4-5.3-2.7 0-4.7 2.3-4.7 5.7v9.3h-3.5v-13.7c0-.9 0-2.6-.1-3.7h3.4zM524.1 262.8h-3.4v-26.2h3.4v2.7h.1c1.1-1.8 3.4-3.2 6.3-3.2 5.2 0 8.7 4 8.7 9.1s-3.4 9.2-8.8 9.2c-2.5 0-4.8-1.1-6.1-3.1h-.1v11.5zm5.6-23.9c-3.5 0-5.9 3-5.9 6.3s2.4 6.3 5.9 6.3c3.8 0 5.8-3 5.8-6.3 0-3.2-2-6.3-5.8-6.3zM554.7 242.7c0-2.6-1.7-3.8-4.3-3.8-1.9 0-3.8.8-5 2l-1.8-2.2c1.7-1.6 4.3-2.6 7.1-2.6 5 0 7.3 3 7.3 6.8v7.6c0 1.2.1 2.6.3 3.5h-3.1c-.2-.8-.3-1.7-.3-2.5h-.1c-1.2 1.9-3.2 2.9-5.8 2.9-2.8 0-6.3-1.4-6.3-5.4 0-5.3 6.2-5.9 12.1-5.9v-.4zm-.8 3c-3.4 0-7.7.4-7.7 3.3 0 2.1 1.8 2.7 3.6 2.7 3.2 0 5-2.2 5-5.1v-.9h-.9zM565.6 232.5c-1.2 0-2.3-1-2.3-2.2 0-1.2 1-2.2 2.3-2.2 1.2 0 2.3 1 2.3 2.2 0 1.2-1.1 2.2-2.3 2.2zm1.7 21.5h-3.5v-17.4h3.5V254zM589.5 246.3h-13.8c.1 3 2.6 5.3 5.7 5.3 2.4 0 4.1-1.2 5.1-2.6l2.4 1.9c-1.9 2.4-4.4 3.6-7.5 3.6-5.3 0-9.2-3.7-9.2-9.1 0-5.4 3.9-9.2 9-9.2s8.4 3.5 8.4 9c-.1.3-.1.7-.1 1.1zm-3.5-2.6c-.1-2.8-1.7-4.9-4.9-4.9-3 0-5.3 2.2-5.5 4.9H586zM603.3 236.1c2.3 0 4.3 1 5.4 3.5 1.2-2.2 3.5-3.5 5.9-3.5 4.5 0 6.5 3.2 6.5 7.1V254h-3.5v-9.7c0-2.8-.8-5.3-3.9-5.3-3.2 0-4.4 2.9-4.4 5.6v9.4h-3.5v-10.4c0-2.7-.9-4.6-3.7-4.6-2.5 0-4.4 2.3-4.4 5.7v9.3h-3.5v-13.7c0-.9 0-2.6-.1-3.7h3.3c.1.9.1 2.1.1 2.9h.1c1-1.9 3-3.4 5.7-3.4zM643.1 246.3h-13.8c.1 3 2.6 5.3 5.7 5.3 2.4 0 4.1-1.2 5.1-2.6l2.4 1.9c-1.9 2.4-4.4 3.6-7.5 3.6-5.3 0-9.2-3.7-9.2-9.1 0-5.4 3.9-9.2 9-9.2s8.4 3.5 8.4 9c-.1.3-.1.7-.1 1.1zm-3.5-2.6c-.1-2.8-1.7-4.9-4.9-4.9-3 0-5.3 2.2-5.5 4.9h10.4zM651 236.6c.1.9.1 2.1.1 2.9h.1c.8-1.9 3.2-3.3 5.7-3.3 4.5 0 6.5 3.2 6.5 7.1V254H660v-9.7c0-2.8-.8-5.3-4-5.3-2.7 0-4.7 2.3-4.7 5.7v9.3h-3.5v-13.7c0-.9 0-2.6-.1-3.7h3.3zM677.8 239.4h-4.6v9.1c0 2.1.7 2.9 2.5 2.9.6 0 1.4-.1 2-.4l.1 2.8c-.8.3-1.9.5-2.9.5-3.3 0-5.1-1.8-5.1-5.4v-9.4h-3.3v-2.8h3.3v-5h3.4v5h4.6v2.7z"></path></g><g class="projet_dpdn01_svg__st2"><path class="projet_dpdn01_svg__st3" d="M314.8 336h-4l11.3-26h3.3l11.2 26h-4.1l-2.6-6.4h-12.3l-2.8 6.4zm3.9-9.6h9.7l-4.8-12.2-4.9 12.2zM351.9 323c-.7-1.1-2.4-2-4-2-3.6 0-5.7 2.9-5.7 6.3 0 3.3 2.1 6.3 5.7 6.3 1.8 0 3.3-.7 4.2-1.9l2.3 2.1c-1.5 1.7-3.7 2.7-6.5 2.7-5.4 0-9.4-3.6-9.4-9.2 0-5.5 4-9.2 9.3-9.2 2.5 0 5.1 1 6.5 2.9l-2.4 2zM361.4 321.2c.8-1.7 3-3.1 5.5-3.1 4.5 0 6.5 3.2 6.5 7.1V336H370v-9.6c0-2.8-.7-5.3-3.9-5.3-2.7 0-4.7 2.3-4.7 5.7v9.2h-3.5v-27.8h3.5v13zM390.1 324.7c0-2.6-1.7-3.8-4.3-3.8-1.9 0-3.8.8-5 2l-1.8-2.2c1.7-1.6 4.3-2.6 7.1-2.6 5 0 7.3 3 7.3 6.8v7.6c0 1.2.1 2.6.3 3.5h-3.1c-.2-.8-.3-1.7-.3-2.5h-.1c-1.2 1.9-3.2 2.9-5.8 2.9-2.8 0-6.3-1.4-6.3-5.4 0-5.3 6.2-5.9 12.1-5.9v-.4zm-.9 3c-3.4 0-7.7.4-7.7 3.3 0 2.1 1.8 2.7 3.6 2.7 3.2 0 5-2.2 5-5.1v-.9h-.9zM407.3 321.4h-4.6v9.1c0 2.1.7 2.9 2.5 2.9.6 0 1.4-.1 2-.4l.1 2.8c-.8.3-1.9.5-2.9.5-3.3 0-5.1-1.8-5.1-5.4v-9.4H396v-2.8h3.3v-5h3.4v5h4.6v2.7zM432.2 323c-.7-1.1-2.4-2-4-2-3.6 0-5.7 2.9-5.7 6.3 0 3.3 2.1 6.3 5.7 6.3 1.8 0 3.3-.7 4.2-1.9l2.3 2.1c-1.5 1.7-3.7 2.7-6.5 2.7-5.4 0-9.4-3.6-9.4-9.2 0-5.5 4-9.2 9.3-9.2 2.5 0 5.1 1 6.5 2.9l-2.4 2zM446.4 336.4c-5.3 0-9.4-3.9-9.4-9.2s4-9.1 9.4-9.1c5.3 0 9.4 3.8 9.4 9.1s-4.1 9.2-9.4 9.2zm0-15.5c-3.7 0-5.8 3-5.8 6.3s2.1 6.3 5.8 6.3c3.7 0 5.8-3 5.8-6.3s-2.1-6.3-5.8-6.3zM469.5 318.1c2.3 0 4.3 1 5.4 3.5 1.2-2.2 3.5-3.5 5.9-3.5 4.5 0 6.5 3.2 6.5 7.1V336h-3.5v-9.7c0-2.8-.8-5.3-3.9-5.3-3.2 0-4.4 2.9-4.4 5.6v9.4H472v-10.4c0-2.7-.9-4.6-3.7-4.6-2.5 0-4.4 2.3-4.4 5.7v9.3h-3.5v-13.7c0-.9 0-2.6-.1-3.7h3.3c.1.9.1 2.1.1 2.9h.1c1-1.9 3-3.4 5.7-3.4zM496.6 344.8h-3.5v-26.2h3.4v2.7h.1c1.1-1.8 3.4-3.2 6.3-3.2 5.2 0 8.7 4 8.7 9.1s-3.4 9.2-8.8 9.2c-2.5 0-4.8-1.1-6.1-3.1h-.1v11.5zm5.6-23.9c-3.5 0-5.9 3-5.9 6.3s2.4 6.3 5.9 6.3c3.8 0 5.8-3 5.8-6.3 0-3.2-2-6.3-5.8-6.3zM524.9 321.4h-4.6v9.1c0 2.1.7 2.9 2.5 2.9.6 0 1.4-.1 2-.4l.1 2.8c-.8.3-1.9.5-2.9.5-3.3 0-5.1-1.8-5.1-5.4v-9.4h-3.3v-2.8h3.3v-5h3.4v5h4.6v2.7zM539.3 324.7c0-2.6-1.7-3.8-4.3-3.8-1.9 0-3.8.8-5 2l-1.8-2.2c1.7-1.6 4.3-2.6 7.1-2.6 5 0 7.3 3 7.3 6.8v7.6c0 1.2.1 2.6.3 3.5h-3.1c-.2-.8-.3-1.7-.3-2.5h-.1c-1.2 1.9-3.2 2.9-5.8 2.9-2.8 0-6.3-1.4-6.3-5.4 0-5.3 6.2-5.9 12.1-5.9v-.4zm-.9 3c-3.4 0-7.7.4-7.7 3.3 0 2.1 1.8 2.7 3.6 2.7 3.2 0 5-2.2 5-5.1v-.9h-.9zM551.5 318.6c.1.9.1 2.1.1 2.9h.1c.8-1.9 3.2-3.3 5.7-3.3 4.5 0 6.5 3.2 6.5 7.1V336h-3.5v-9.7c0-2.8-.8-5.3-4-5.3-2.7 0-4.7 2.3-4.7 5.7v9.3h-3.5v-13.7c0-.9 0-2.6-.1-3.7h3.4zM578.2 321.4h-4.6v9.1c0 2.1.7 2.9 2.5 2.9.6 0 1.4-.1 2-.4l.1 2.8c-.8.3-1.9.5-2.9.5-3.3 0-5.1-1.8-5.1-5.4v-9.4h-3.3v-2.8h3.3v-5h3.4v5h4.6v2.7z"></path></g><g class="projet_dpdn01_svg__st2"><path class="projet_dpdn01_svg__st3" d="M313.8 389.3h8.9c6.6 0 14 3.8 14 13 0 8.9-7.4 13-14 13h-8.9v-26zm3.6 22.8h4.6c6.3 0 10.9-3.6 10.9-9.8 0-6.4-4.6-9.8-10.9-9.8h-4.6v19.6zM357.7 407.7h-13.8c.1 3 2.6 5.3 5.7 5.3 2.4 0 4.1-1.2 5.1-2.6l2.4 1.9c-1.9 2.4-4.4 3.6-7.5 3.6-5.3 0-9.2-3.7-9.2-9.1 0-5.4 3.9-9.2 9-9.2s8.4 3.5 8.4 9c0 .3 0 .7-.1 1.1zm-3.4-2.6c-.1-2.8-1.7-4.9-4.9-4.9-3 0-5.3 2.2-5.5 4.9h10.4zM370.7 415.3H367l-7.1-17.4h3.8l5.1 13.7h.1l5.1-13.7h3.7l-7 17.4zM382.8 393.9c-1.2 0-2.3-1-2.3-2.2 0-1.2 1-2.2 2.3-2.2 1.2 0 2.3 1 2.3 2.2 0 1.2-1 2.2-2.3 2.2zm1.7 21.4H381v-17.4h3.5v17.4zM400 402.3c-.8-1.2-2.3-2.2-4-2.2-1.6 0-3.2.6-3.2 2.3 0 1.5 1.3 2 4 2.6 3.3.7 5.8 2.1 5.8 5.1 0 4.1-3.4 5.6-6.9 5.6-2.6 0-5.4-1-7-3.1l2.5-2.1c.9 1.4 2.7 2.4 4.6 2.4 1.7 0 3.5-.6 3.5-2.5 0-1.6-1.6-2.2-4.6-2.9-2.3-.6-5.1-1.5-5.1-4.8 0-3.7 3.3-5.3 6.6-5.3 2.5 0 5.1 1 6.3 2.9l-2.5 2z"></path></g><g class="projet_dpdn01_svg__st2"><path class="projet_dpdn01_svg__st3" d="M313.8 468.7h3.6v10.9h13.1v-10.9h3.7v26h-3.7v-11.9h-13.1v11.9h-3.6v-26zM356.6 487h-13.8c.1 3 2.6 5.3 5.7 5.3 2.4 0 4.1-1.2 5.1-2.6l2.4 1.9c-1.9 2.4-4.4 3.6-7.5 3.6-5.3 0-9.2-3.7-9.2-9.1 0-5.4 3.9-9.2 9-9.2s8.4 3.5 8.4 9c-.1.3-.1.7-.1 1.1zm-3.5-2.5c-.1-2.8-1.7-4.9-4.9-4.9-3 0-5.3 2.2-5.5 4.9h10.4zM373.7 494.7c-.1-.9-.1-2.1-.1-2.9h-.1c-.9 1.8-3.2 3.3-5.7 3.3-4.5 0-6.5-3.2-6.5-7.1v-10.8h3.5v9.6c0 2.9.8 5.4 4 5.4 2.8 0 4.7-2.3 4.7-5.7v-9.3h3.5V491c0 .9 0 2.6.1 3.7h-3.4zM382.6 477.3h3.3c.1.9.1 2.2.1 2.9h.1c1-2 3-3.4 5.3-3.4.5 0 1 0 1.4.1l-.1 3.2c-.4-.1-1-.2-1.6-.2-3.3 0-4.9 2.7-4.9 5.6v9.1h-3.5V481c0-.9 0-2.6-.1-3.7zM411.6 487h-13.8c.1 3 2.6 5.3 5.7 5.3 2.4 0 4.1-1.2 5.1-2.6l2.4 1.9c-1.9 2.4-4.4 3.6-7.5 3.6-5.3 0-9.2-3.7-9.2-9.1 0-5.4 3.9-9.2 9-9.2s8.4 3.5 8.4 9c-.1.3-.1.7-.1 1.1zm-3.5-2.5c-.1-2.8-1.7-4.9-4.9-4.9-3 0-5.3 2.2-5.5 4.9h10.4zM425.8 481.7c-.8-1.2-2.3-2.2-4-2.2-1.6 0-3.2.6-3.2 2.3 0 1.5 1.3 2 4 2.6 3.3.7 5.8 2.1 5.8 5.1 0 4.1-3.4 5.6-6.9 5.6-2.6 0-5.4-1-7-3.1l2.5-2.1c.9 1.4 2.7 2.4 4.6 2.4 1.7 0 3.5-.6 3.5-2.5 0-1.6-1.6-2.2-4.6-2.9-2.3-.6-5.1-1.5-5.1-4.8 0-3.7 3.3-5.3 6.6-5.3 2.5 0 5.1 1 6.3 2.9l-2.5 2zM450.4 480.1h-4.6v9.1c0 2.1.7 2.9 2.5 2.9.6 0 1.4-.1 2-.4l.1 2.8c-.8.3-1.9.5-2.9.5-3.3 0-5.1-1.8-5.1-5.4v-9.4H439v-2.8h3.3v-5h3.4v5h4.6v2.7zM453.8 477.3h3.3c.1.9.1 2.2.1 2.9h.1c1-2 3-3.4 5.3-3.4.5 0 1 0 1.4.1l-.1 3.2c-.4-.1-1-.2-1.6-.2-3.3 0-4.9 2.7-4.9 5.6v9.1h-3.5V481c0-.9 0-2.6-.1-3.7zM477.6 483.4c0-2.6-1.7-3.8-4.3-3.8-1.9 0-3.8.8-5 2l-1.8-2.2c1.7-1.6 4.3-2.6 7.1-2.6 5 0 7.3 3 7.3 6.8v7.6c0 1.2.1 2.6.3 3.5H478c-.2-.8-.3-1.7-.3-2.5h-.1c-1.2 1.9-3.2 2.9-5.8 2.9-2.8 0-6.3-1.4-6.3-5.4 0-5.3 6.2-5.9 12.1-5.9v-.4zm-.9 3c-3.4 0-7.7.4-7.7 3.3 0 2.1 1.8 2.7 3.6 2.7 3.2 0 5-2.2 5-5.1v-.9h-.9zM494.8 494.7h-3.7l-7.1-17.4h3.8l5.1 13.7h.1l5.1-13.7h3.7l-7 17.4zM516 483.4c0-2.6-1.7-3.8-4.3-3.8-1.9 0-3.8.8-5 2l-1.8-2.2c1.7-1.6 4.3-2.6 7.1-2.6 5 0 7.3 3 7.3 6.8v7.6c0 1.2.1 2.6.3 3.5h-3.1c-.2-.8-.3-1.7-.3-2.5h-.2c-1.2 1.9-3.2 2.9-5.8 2.9-2.8 0-6.3-1.4-6.3-5.4 0-5.3 6.2-5.9 12.1-5.9v-.4zm-.9 3c-3.4 0-7.7.4-7.7 3.3 0 2.1 1.8 2.7 3.6 2.7 3.2 0 5-2.2 5-5.1v-.9h-.9zM526.8 473.2c-1.2 0-2.3-1-2.3-2.2 0-1.2 1-2.2 2.3-2.2 1.2 0 2.3 1 2.3 2.2 0 1.3-1.1 2.2-2.3 2.2zm1.7 21.5H525v-17.4h3.5v17.4zM538.1 494.7h-3.5v-27.8h3.5v27.8zM547.6 494.7h-3.5v-27.8h3.5v27.8zM569.8 487H556c.1 3 2.6 5.3 5.7 5.3 2.4 0 4.1-1.2 5.1-2.6l2.4 1.9c-1.9 2.4-4.4 3.6-7.5 3.6-5.3 0-9.2-3.7-9.2-9.1 0-5.4 3.9-9.2 9-9.2s8.4 3.5 8.4 9c0 .3 0 .7-.1 1.1zm-3.4-2.5c-.1-2.8-1.7-4.9-4.9-4.9-3 0-5.3 2.2-5.5 4.9h10.4zm-3.9-10.5h-2.8l3.7-5.3h4.1l-5 5.3zM590.8 487H577c.1 3 2.6 5.3 5.7 5.3 2.4 0 4.1-1.2 5.1-2.6l2.4 1.9c-1.9 2.4-4.4 3.6-7.5 3.6-5.3 0-9.2-3.7-9.2-9.1 0-5.4 3.9-9.2 9-9.2s8.4 3.5 8.4 9c0 .3 0 .7-.1 1.1zm-3.4-2.5c-.1-2.8-1.7-4.9-4.9-4.9-3 0-5.3 2.2-5.5 4.9h10.4zM605.1 481.7c-.8-1.2-2.3-2.2-4-2.2-1.6 0-3.2.6-3.2 2.3 0 1.5 1.3 2 4 2.6 3.3.7 5.8 2.1 5.8 5.1 0 4.1-3.4 5.6-6.9 5.6-2.6 0-5.4-1-7-3.1l2.5-2.1c.9 1.4 2.7 2.4 4.6 2.4 1.7 0 3.5-.6 3.5-2.5 0-1.6-1.6-2.2-4.6-2.9-2.3-.6-5.1-1.5-5.1-4.8 0-3.7 3.3-5.3 6.6-5.3 2.5 0 5.1 1 6.3 2.9l-2.5 2z"></path></g><g class="projet_dpdn01_svg__st2"><path class="projet_dpdn01_svg__st3" d="M317.4 574.1h-3.6v-26H330v3.2h-12.6v8.1h11.8v3.1h-11.8v11.6zM343.5 562.8c0-2.6-1.7-3.8-4.3-3.8-1.9 0-3.8.8-5 2l-1.8-2.2c1.7-1.6 4.3-2.6 7.1-2.6 5 0 7.3 3 7.3 6.8v7.6c0 1.2.1 2.6.3 3.5H344c-.2-.8-.3-1.7-.3-2.5h-.1c-1.2 1.9-3.2 2.9-5.8 2.9-2.8 0-6.3-1.4-6.3-5.4 0-5.3 6.2-5.9 12.1-5.9v-.4zm-.8 3c-3.4 0-7.7.4-7.7 3.3 0 2.1 1.8 2.7 3.6 2.7 3.2 0 5-2.2 5-5.1v-.9h-.9zM364.8 561.1c-.7-1.1-2.4-2-4-2-3.6 0-5.7 2.9-5.7 6.3 0 3.3 2.1 6.3 5.7 6.3 1.8 0 3.3-.7 4.2-1.9l2.3 2.1c-1.5 1.7-3.7 2.7-6.5 2.7-5.4 0-9.4-3.6-9.4-9.2 0-5.5 4-9.2 9.3-9.2 2.5 0 5.1 1 6.5 2.9l-2.4 2zM379.2 559.5h-4.6v9.1c0 2.1.7 2.9 2.5 2.9.6 0 1.4-.1 2-.4l.1 2.8c-.8.3-1.9.5-2.9.5-3.3 0-5.1-1.8-5.1-5.4v-9.4h-3.3v-2.8h3.3v-5h3.4v5h4.6v2.7zM395 574.1c-.1-.9-.1-2.1-.1-2.9h-.1c-.9 1.8-3.2 3.3-5.7 3.3-4.5 0-6.5-3.2-6.5-7.1v-10.8h3.5v9.6c0 2.9.8 5.4 4 5.4 2.8 0 4.7-2.3 4.7-5.7v-9.3h3.5v13.7c0 .9 0 2.6.1 3.7H395zM404 556.7h3.3c.1.9.1 2.2.1 2.9h.1c1-2 3-3.4 5.3-3.4.5 0 1 0 1.4.1l-.1 3.2c-.4-.1-1-.2-1.6-.2-3.3 0-4.9 2.7-4.9 5.6v9.1h-3.5v-13.7c0-.8 0-2.5-.1-3.6zM433 566.4h-13.8c.1 3 2.6 5.3 5.7 5.3 2.4 0 4.1-1.2 5.1-2.6l2.4 1.9c-1.9 2.4-4.4 3.6-7.5 3.6-5.3 0-9.2-3.7-9.2-9.1 0-5.4 3.9-9.2 9-9.2s8.4 3.5 8.4 9c-.1.3-.1.7-.1 1.1zm-3.5-2.6c-.1-2.8-1.7-4.9-4.9-4.9-3 0-5.3 2.2-5.5 4.9h10.4zM455.2 559.5h-4v14.6h-3.5v-14.6h-3.5v-2.8h3.5V553c0-4.1 1.8-7.2 6.5-7.2.8 0 1.5.1 2.2.3l-.4 3c-.5-.1-1.1-.3-1.7-.3-2.6 0-3.1 2.1-3.1 4.2v3.6h4v2.9zM466.6 574.6c-5.3 0-9.4-3.9-9.4-9.2s4-9.1 9.4-9.1c5.3 0 9.4 3.8 9.4 9.1s-4.1 9.2-9.4 9.2zm0-15.5c-3.7 0-5.8 3-5.8 6.3s2.1 6.3 5.8 6.3c3.7 0 5.8-3 5.8-6.3 0-3.4-2.1-6.3-5.8-6.3zM493 574.1c-.1-.9-.1-2.1-.1-2.9h-.1c-.9 1.8-3.2 3.3-5.7 3.3-4.5 0-6.5-3.2-6.5-7.1v-10.8h3.5v9.6c0 2.9.8 5.4 4 5.4 2.8 0 4.7-2.3 4.7-5.7v-9.3h3.5v13.7c0 .9 0 2.6.1 3.7H493zM502 556.7h3.3c.1.9.1 2.2.1 2.9h.1c1-2 3-3.4 5.3-3.4.5 0 1 0 1.4.1l-.1 3.2c-.4-.1-1-.2-1.6-.2-3.3 0-4.9 2.7-4.9 5.6v9.1h-3.5v-13.7c0-.8 0-2.5-.1-3.6zM518.5 556.7c.1.9.1 2.1.1 2.9h.1c.8-1.9 3.2-3.3 5.7-3.3 4.5 0 6.5 3.2 6.5 7.1v10.8h-3.5v-9.7c0-2.8-.8-5.3-4-5.3-2.7 0-4.7 2.3-4.7 5.7v9.3h-3.5v-13.7c0-.9 0-2.6-.1-3.7h3.4zM538.5 552.6c-1.2 0-2.3-1-2.3-2.2 0-1.2 1-2.2 2.3-2.2s2.3 1 2.3 2.2c0 1.2-1 2.2-2.3 2.2zm1.7 21.5h-3.5v-17.4h3.5v17.4zM555.6 561.1c-.8-1.2-2.3-2.2-4-2.2-1.6 0-3.2.6-3.2 2.3 0 1.5 1.3 2 4 2.6 3.3.7 5.8 2.1 5.8 5.1 0 4.1-3.4 5.6-6.9 5.6-2.6 0-5.4-1-7-3.1l2.5-2.1c.9 1.4 2.7 2.4 4.6 2.4 1.7 0 3.5-.6 3.5-2.5 0-1.6-1.6-2.2-4.6-2.9-2.3-.6-5.1-1.5-5.1-4.8 0-3.7 3.3-5.3 6.6-5.3 2.5 0 5.1 1 6.3 2.9l-2.5 2zM571.9 561.1c-.8-1.2-2.3-2.2-4-2.2-1.6 0-3.2.6-3.2 2.3 0 1.5 1.3 2 4 2.6 3.3.7 5.8 2.1 5.8 5.1 0 4.1-3.4 5.6-6.9 5.6-2.6 0-5.4-1-7-3.1l2.5-2.1c.9 1.4 2.7 2.4 4.6 2.4 1.7 0 3.5-.6 3.5-2.5 0-1.6-1.6-2.2-4.6-2.9-2.3-.6-5.1-1.5-5.1-4.8 0-3.7 3.3-5.3 6.6-5.3 2.5 0 5.1 1 6.3 2.9l-2.5 2zM595 566.4h-13.8c.1 3 2.6 5.3 5.7 5.3 2.4 0 4.1-1.2 5.1-2.6l2.4 1.9c-1.9 2.4-4.4 3.6-7.5 3.6-5.3 0-9.2-3.7-9.2-9.1 0-5.4 3.9-9.2 9-9.2s8.4 3.5 8.4 9c0 .3 0 .7-.1 1.1zm-3.4-2.6c-.1-2.8-1.7-4.9-4.9-4.9-3 0-5.3 2.2-5.5 4.9h10.4zM612.1 574.1c-.1-.9-.1-2.1-.1-2.9h-.1c-.9 1.8-3.2 3.3-5.7 3.3-4.5 0-6.5-3.2-6.5-7.1v-10.8h3.5v9.6c0 2.9.8 5.4 4 5.4 2.8 0 4.7-2.3 4.7-5.7v-9.3h3.5v13.7c0 .9 0 2.6.1 3.7h-3.4zM621.1 556.7h3.3c.1.9.1 2.2.1 2.9h.1c1-2 3-3.4 5.3-3.4.5 0 1 0 1.4.1l-.1 3.2c-.4-.1-1-.2-1.6-.2-3.3 0-4.9 2.7-4.9 5.6v9.1h-3.5v-13.7c0-.8 0-2.5-.1-3.6z"></path></g><g class="projet_dpdn01_svg__st2"><path class="projet_dpdn01_svg__st3" d="M313.8 627.4h9c3.9 0 8.2 1.6 8.2 6.6 0 2.9-1.8 4.9-4.6 5.7v.1c3.3.4 5.8 2.7 5.8 6.3 0 5-4.3 7.4-9.8 7.4h-8.6v-26.1zm3.6 11h4.7c2.8 0 5.1-1.2 5.1-4s-2.2-3.9-5.7-3.9h-4.1v7.9zm0 12h4.6c3.1 0 6.5-1 6.5-4.5 0-3-2.2-4.4-6.1-4.4h-4.9v8.9zM345.4 653.9c-5.3 0-9.4-3.9-9.4-9.2s4-9.1 9.4-9.1c5.3 0 9.4 3.8 9.4 9.1s-4.1 9.2-9.4 9.2zm0-15.5c-3.7 0-5.8 3-5.8 6.3s2.1 6.3 5.8 6.3c3.7 0 5.8-3 5.8-6.3s-2.1-6.3-5.8-6.3zM362.7 636c.1.9.1 2.1.1 2.9h.1c.8-1.9 3.2-3.3 5.7-3.3 4.5 0 6.5 3.2 6.5 7.1v10.8h-3.5v-9.7c0-2.8-.8-5.3-4-5.3-2.7 0-4.7 2.3-4.7 5.7v9.3h-3.5v-13.7c0-.9 0-2.6-.1-3.7h3.4zM397.7 653.9c-5.4 0-8.8-4.1-8.8-9.2s3.5-9.1 8.7-9.1c2.8 0 5 1.4 6.2 3.1h.1v-13h3.5v27.8H404v-2.8c-1.4 2.1-3.9 3.2-6.3 3.2zm.6-2.9c3.5 0 5.9-2.9 5.9-6.3 0-3.3-2.4-6.3-5.9-6.3-3.8 0-5.8 3-5.8 6.3s2 6.3 5.8 6.3zM429.6 645.8h-13.8c.1 3 2.6 5.3 5.7 5.3 2.4 0 4.1-1.2 5.1-2.6l2.4 1.9c-1.9 2.4-4.4 3.6-7.5 3.6-5.3 0-9.2-3.7-9.2-9.1 0-5.4 3.9-9.2 9-9.2s8.4 3.5 8.4 9c-.1.3-.1.7-.1 1.1zm-3.5-2.6c-.1-2.8-1.7-4.9-4.9-4.9-3 0-5.3 2.2-5.5 4.9h10.4zM455.8 640.4c-.7-1.1-2.4-2-4-2-3.6 0-5.7 2.9-5.7 6.3 0 3.3 2.1 6.3 5.7 6.3 1.8 0 3.3-.7 4.2-1.9l2.3 2.1c-1.5 1.7-3.7 2.7-6.5 2.7-5.4 0-9.4-3.6-9.4-9.2 0-5.5 4-9.2 9.3-9.2 2.5 0 5.1 1 6.5 2.9l-2.4 2zM470 653.9c-5.3 0-9.4-3.9-9.4-9.2s4-9.1 9.4-9.1c5.3 0 9.4 3.8 9.4 9.1s-4.1 9.2-9.4 9.2zm0-15.5c-3.7 0-5.8 3-5.8 6.3s2.1 6.3 5.8 6.3c3.7 0 5.8-3 5.8-6.3s-2.1-6.3-5.8-6.3zM493 635.6c2.3 0 4.3 1 5.4 3.5 1.2-2.2 3.5-3.5 5.9-3.5 4.5 0 6.5 3.2 6.5 7.1v10.8h-3.5v-9.7c0-2.8-.8-5.3-3.9-5.3-3.2 0-4.4 2.9-4.4 5.6v9.4h-3.5v-10.4c0-2.7-.9-4.6-3.7-4.6-2.5 0-4.4 2.3-4.4 5.7v9.3h-3.5v-13.7c0-.9 0-2.6-.1-3.7h3.3c.1.9.1 2.1.1 2.9h.1c1.1-1.9 3.1-3.4 5.7-3.4zM525.6 635.6c2.3 0 4.3 1 5.4 3.5 1.2-2.2 3.5-3.5 5.9-3.5 4.5 0 6.5 3.2 6.5 7.1v10.8h-3.5v-9.7c0-2.8-.8-5.3-3.9-5.3-3.2 0-4.4 2.9-4.4 5.6v9.4h-3.5v-10.4c0-2.7-.9-4.6-3.7-4.6-2.5 0-4.4 2.3-4.4 5.7v9.3h-3.5v-13.7c0-.9 0-2.6-.1-3.7h3.3c.1.9.1 2.1.1 2.9h.1c1-1.9 3-3.4 5.7-3.4zM560.1 642.2c0-2.6-1.7-3.8-4.3-3.8-1.9 0-3.8.8-5 2l-1.8-2.2c1.7-1.6 4.3-2.6 7.1-2.6 5 0 7.3 3 7.3 6.8v7.6c0 1.2.1 2.6.3 3.5h-3.1c-.2-.8-.3-1.7-.3-2.5h-.1c-1.2 1.9-3.2 2.9-5.8 2.9-2.8 0-6.3-1.4-6.3-5.4 0-5.3 6.2-5.9 12.1-5.9v-.4zm-.9 2.9c-3.4 0-7.7.4-7.7 3.3 0 2.1 1.8 2.7 3.6 2.7 3.2 0 5-2.2 5-5.1v-.9h-.9zM572.2 636c.1.9.1 2.1.1 2.9h.1c.8-1.9 3.2-3.3 5.7-3.3 4.5 0 6.5 3.2 6.5 7.1v10.8h-3.5v-9.7c0-2.8-.8-5.3-4-5.3-2.7 0-4.7 2.3-4.7 5.7v9.3h-3.5v-13.7c0-.9 0-2.6-.1-3.7h3.4zM598.1 653.9c-5.4 0-8.8-4.1-8.8-9.2s3.5-9.1 8.7-9.1c2.8 0 5 1.4 6.2 3.1h.1v-13h3.5v27.8h-3.3v-2.8h-.1c-1.4 2.1-3.9 3.2-6.3 3.2zm.6-2.9c3.5 0 5.9-2.9 5.9-6.3 0-3.3-2.4-6.3-5.9-6.3-3.8 0-5.8 3-5.8 6.3s2 6.3 5.8 6.3zM630 645.8h-13.8c.1 3 2.6 5.3 5.7 5.3 2.4 0 4.1-1.2 5.1-2.6l2.4 1.9c-1.9 2.4-4.4 3.6-7.5 3.6-5.3 0-9.2-3.7-9.2-9.1 0-5.4 3.9-9.2 9-9.2s8.4 3.5 8.4 9c-.1.3-.1.7-.1 1.1zm-3.5-2.6c-.1-2.8-1.7-4.9-4.9-4.9-3 0-5.3 2.2-5.5 4.9h10.4z"></path></g><defs><filter id="projet_dpdn01_svg__Adobe_OpacityMaskFilter_1_" filterUnits="userSpaceOnUse" x="256" y="3.7" width="526.1" height="110.1"><feColorMatrix values="1 0 0 0 0 0 1 0 0 0 0 0 1 0 0 0 0 0 1 0"></feColorMatrix></filter></defs><mask maskUnits="userSpaceOnUse" x="256" y="3.7" width="526.1" height="110.1" id="projet_dpdn01_svg__mask-4_2_"><g filter="url(#projet_dpdn01_svg__Adobe_OpacityMaskFilter_1_)"><path id="projet_dpdn01_svg__path-3_2_" class="projet_dpdn01_svg__st5" d="M284.8 16.8c-4.5 0-8.2 2.3-8.2 5.2v73.4c0 2.9 3.7 5.2 8.2 5.2h468.6c4.5 0 8.2-2.3 8.2-5.2V22.1c0-2.9-3.7-5.2-8.2-5.2H284.8z"></path></g></mask><path id="projet_dpdn01_svg__Fill-14" mask="url(#projet_dpdn01_svg__mask-4_2_)" fill="#108000" d="M256 113.8h526.1V3.7H256z"></path><defs><filter id="projet_dpdn01_svg__Adobe_OpacityMaskFilter_2_" filterUnits="userSpaceOnUse" x="661.9" y="37.8" width="47.2" height="39.3"><feColorMatrix values="1 0 0 0 0 0 1 0 0 0 0 0 1 0 0 0 0 0 1 0"></feColorMatrix></filter></defs><mask maskUnits="userSpaceOnUse" x="661.9" y="37.8" width="47.2" height="39.3" id="projet_dpdn01_svg__mask-6_2_"><g filter="url(#projet_dpdn01_svg__Adobe_OpacityMaskFilter_2_)"><path id="projet_dpdn01_svg__path-5_2_" class="projet_dpdn01_svg__st5" d="M685.5 64L675 50.9h21z"></path></g></mask><path id="projet_dpdn01_svg__Fill-17" mask="url(#projet_dpdn01_svg__mask-6_2_)" fill="#fff" d="M661.9 77.1h47.2V37.8h-47.2z"></path><path class="projet_dpdn01_svg__st5" d="M317.5 66.6h-4l11.3-26h3.3l11.2 26h-4.1l-2.6-6.4h-12.3l-2.8 6.4zm3.9-9.6h9.7l-4.8-12.2-4.9 12.2zM338.6 72.3c.4.1 1 .2 1.4.2 2.1 0 2.4-1.6 2.4-3.7V49.2h3.5v19.6c0 3.5-1.1 6.6-5.7 6.6-.6 0-1.4-.1-2-.2l.4-2.9zm5.5-27.2c-1.3 0-2.3-1-2.3-2.2 0-1.2 1-2.2 2.3-2.2 1.2 0 2.3 1 2.3 2.2 0 1.3-1 2.2-2.3 2.2zM360.1 67.1c-5.3 0-9.4-3.9-9.4-9.2s4-9.1 9.4-9.1c5.3 0 9.4 3.8 9.4 9.1s-4.1 9.2-9.4 9.2zm0-15.5c-3.7 0-5.8 3-5.8 6.3s2.1 6.3 5.8 6.3c3.7 0 5.8-3 5.8-6.3s-2.1-6.3-5.8-6.3zM386.5 66.6c-.1-.9-.1-2.1-.1-2.9h-.1c-.9 1.8-3.2 3.3-5.7 3.3-4.5 0-6.5-3.2-6.5-7.1V49.2h3.5v9.6c0 2.9.8 5.4 4 5.4 2.8 0 4.7-2.3 4.7-5.7v-9.3h3.5v13.7c0 .9 0 2.6.1 3.7h-3.4zM404.1 52h-4.6v9.1c0 2.1.7 2.9 2.5 2.9.6 0 1.4-.1 2-.4l.1 2.8c-.8.3-1.9.5-2.9.5-3.3 0-5.1-1.8-5.1-5.4V52h-3.3v-2.8h3.3v-5h3.4v5h4.6V52zM423.9 59h-13.8c.1 3 2.6 5.3 5.7 5.3 2.4 0 4.1-1.2 5.1-2.6l2.4 1.9c-1.9 2.4-4.4 3.6-7.5 3.6-5.3 0-9.2-3.7-9.2-9.1 0-5.4 3.9-9.2 9-9.2s8.4 3.5 8.4 9c-.1.2-.1.6-.1 1.1zm-3.5-2.6c-.1-2.8-1.7-4.9-4.9-4.9-3 0-5.3 2.2-5.5 4.9h10.4zM428.6 49.2h3.3c.1.9.1 2.2.1 2.9h.1c1-2 3-3.4 5.3-3.4.5 0 1 0 1.4.1l-.1 3.2c-.4-.1-1-.2-1.6-.2-3.3 0-4.9 2.7-4.9 5.6v9.1h-3.5V53c0-1 0-2.6-.1-3.8zM462 55.4c0-2.6-1.7-3.8-4.3-3.8-1.9 0-3.8.8-5 2l-1.8-2.2c1.7-1.6 4.3-2.6 7.1-2.6 5 0 7.3 3 7.3 6.8v7.6c0 1.2.1 2.6.3 3.5h-3.1c-.2-.8-.3-1.7-.3-2.5h-.2c-1.2 1.9-3.2 2.9-5.8 2.9-2.8 0-6.3-1.4-6.3-5.4 0-5.3 6.2-5.9 12.1-5.9v-.4zm-.8 2.9c-3.4 0-7.7.4-7.7 3.3 0 2.1 1.8 2.7 3.6 2.7 3.2 0 5-2.2 5-5.1v-.9h-.9zM483.3 66.6c-.1-.9-.1-2.1-.1-2.9h-.1c-.9 1.8-3.2 3.3-5.7 3.3-4.5 0-6.5-3.2-6.5-7.1V49.2h3.5v9.6c0 2.9.8 5.4 4 5.4 2.8 0 4.7-2.3 4.7-5.7v-9.3h3.5v13.7c0 .9 0 2.6.1 3.7h-3.4zM505.1 75.4h-3.5V49.2h3.4v2.7h.1c1.1-1.8 3.4-3.2 6.3-3.2 5.2 0 8.7 4 8.7 9.1s-3.4 9.2-8.8 9.2c-2.5 0-4.8-1.1-6.1-3.1h-.1v11.5zm5.6-23.8c-3.5 0-5.9 3-5.9 6.3s2.4 6.3 5.9 6.3c3.8 0 5.8-3 5.8-6.3s-2-6.3-5.8-6.3zM524.7 49.2h3.3c.1.9.1 2.2.1 2.9h.1c1-2 3-3.4 5.3-3.4.5 0 1 0 1.4.1l-.1 3.2c-.4-.1-1-.2-1.6-.2-3.3 0-4.9 2.7-4.9 5.6v9.1h-3.5V53c.1-1 0-2.6-.1-3.8zM545.7 67.1c-5.3 0-9.4-3.9-9.4-9.2s4-9.1 9.4-9.1 9.4 3.8 9.4 9.1-4.1 9.2-9.4 9.2zm0-15.5c-3.7 0-5.8 3-5.8 6.3s2.1 6.3 5.8 6.3c3.7 0 5.8-3 5.8-6.3s-2-6.3-5.8-6.3zM556.1 72.3c.4.1 1 .2 1.4.2 2.1 0 2.4-1.6 2.4-3.7V49.2h3.5v19.6c0 3.5-1.1 6.6-5.7 6.6-.6 0-1.4-.1-2-.2l.4-2.9zm5.6-27.2c-1.3 0-2.3-1-2.3-2.2 0-1.2 1-2.2 2.3-2.2 1.2 0 2.3 1 2.3 2.2 0 1.3-1.1 2.2-2.3 2.2zM585.6 59h-13.8c.1 3 2.6 5.3 5.7 5.3 2.4 0 4.1-1.2 5.1-2.6l2.4 1.9c-1.9 2.4-4.4 3.6-7.5 3.6-5.3 0-9.2-3.7-9.2-9.1 0-5.4 3.9-9.2 9-9.2s8.4 3.5 8.4 9c0 .2 0 .6-.1 1.1zm-3.4-2.6c-.1-2.8-1.7-4.9-4.9-4.9-3 0-5.3 2.2-5.5 4.9h10.4zM599 52h-4.6v9.1c0 2.1.7 2.9 2.5 2.9.6 0 1.4-.1 2-.4l.1 2.8c-.8.3-1.9.5-2.9.5-3.3 0-5.1-1.8-5.1-5.4V52h-3.3v-2.8h3.3v-5h3.4v5h4.6V52z"></path></svg>