<svg xmlns="http://www.w3.org/2000/svg" viewBox="0 0 314.65 246.47"><defs><linearGradient id="Dégradé_sans_nom_19" x1="232.5" y1="47.85" x2="314.65" y2="47.85" gradientUnits="userSpaceOnUse"><stop offset="0" stop-color="#45c473"/><stop offset=".4" stop-color="#4ee588"/><stop offset=".42" stop-color="#4ee588"/></linearGradient><style>.cls-1{fill:#4ee588}</style></defs><g id="Calque_2" data-name="Calque 2"><g id="Finexkap-Refresh-01_-_copie_3" data-name="Finexkap-Refresh-01 - copie 3"><path class="cls-1" d="M122.59 75.09v69.47a1.93 1.93 0 003.22 1.48c2.8-2.6 16.58-15.85 16.58-15.85a8.15 8.15 0 0111.2-.56 7.31 7.31 0 01.7 10.31l-.25.27-13.78 14.31L157 187.26a7.22 7.22 0 01-2.5 9.91l-.47.26a8.12 8.12 0 01-10.39-2.21l-14.8-29.52-6.5 6.52v18.65a7.5 7.5 0 01-7.48 7.53 6.72 6.72 0 01-6.52-6.86V77.38m116.15 51.19a7.36 7.36 0 00-7.31 6.92 34.55 34.55 0 10-21.08 62.16c7.76 0 16.07-2.55 20.3-6.89v.24a7.76 7.76 0 1015.51 0v-55a7.45 7.45 0 00-7.42-7.43zm-28.14 54.15a19.6 19.6 0 1119.6-19.6 19.6 19.6 0 01-19.6 19.6zM306.19 142a34.8 34.8 0 00-48.91-5.56 7.06 7.06 0 10-14 0v102.08a7.06 7.06 0 1014 0v-48.13a34.8 34.8 0 0056.48-27 34.8 34.8 0 00-7.57-21.39zm-27 41a19.6 19.6 0 1119.6-19.6 19.6 19.6 0 01-19.61 19.6z"/><path class="cls-1" d="M108.31 77.38c0-7.53-7.36-13.66-15.09-13.66a14.14 14.14 0 00-13 8.88 13.13 13.13 0 00-1 5.18v33.15a7.11 7.11 0 01-6.67 7.52h-.16a7.39 7.39 0 01-7-7.53v-56.3a7.62 7.62 0 013.22-6.22 6.13 6.13 0 015.26-1.06l.45.14h.31a6.83 6.83 0 014.37 4.7 29.34 29.34 0 0143.57 22.9v35.84a7.32 7.32 0 01-6.87 7.74h-.16a7.6 7.6 0 01-7.23-7.75V82.52zM51.77 26.6a7.82 7.82 0 00-11.06 11.06l.39.39a7.87 7.87 0 0011.06-11.2zm-5.6 22H14.09V37.39c0-8.85 2-15.09 6.33-18.62 6.94-5.6 24.67-3.42 24.89-3.39a7.45 7.45 0 008.88-5.6 7.56 7.56 0 00-5.6-9c-.73-.17-24.22-3.86-36.9 6.3C3.36 13.42 0 23.72 0 37.39v73.54a7.39 7.39 0 007 7.53 7.14 7.14 0 007.09-7.19V62.8h23a2.32 2.32 0 012.32 2.3v45.84a7.14 7.14 0 006.74 7.52h.35a7.39 7.39 0 007-7.53V56.1a7.42 7.42 0 00-7.39-7.42zm130.88 66.28a33 33 0 005.57-2.69A33.85 33.85 0 00193.95 101a7.31 7.31 0 00-12.43-7.69 19.18 19.18 0 11-9.29-27.92l-11.81 11.76a7.31 7.31 0 007.86 12 7.53 7.53 0 002.72-1.77l17.48-17.7a8.74 8.74 0 001.59-8.19 8 8 0 00-2.59-3.72 33.8 33.8 0 10-10.41 57.12zm88.88-10.99l-20.6-20.58-25.23.11-18.84 18.76a9 9 0 000 12.74 9.46 9.46 0 0013.08 0l18.28-19 20.44 20.66a9.18 9.18 0 0013 0 8.82 8.82 0 00.19-12.47z"/><path class="cls-1" d="M230 93.34a4.4 4.4 0 002.52 1 7.42 7.42 0 002.8-.9l10.16-10.16L311.74 17q.27-.25.52-.52A9 9 0 00299 4.22l-66.27 66.33-19-19A9 9 0 00201 64.28l19.1 19.29z"/><path d="M245.47 83.32L311.74 17q.27-.25.52-.52A9 9 0 00299 4.22l-66.27 66.33-.22 23.83a5.75 5.75 0 002.8-.9c.51-.37 10.16-10.16 10.16-10.16" fill="url(#Dégradé_sans_nom_19)"/></g></g></svg>