<svg id="projets_heures_travaillees_svg__Layer_1" xmlns="http://www.w3.org/2000/svg" x="0" y="0" viewBox="0 0 987 598" xml:space="preserve" enable-background="new 0 0 987 598" data-di-res-id="89c7c320-5834ef21" data-di-rand="1642164198373"><style data-di-res-id="53b08149-f53c52fa" data-di-rand="1642164198344">.projets_heures_travaillees_svg__st0{fill:#f4f5f8}.projets_heures_travaillees_svg__st2{fill:#393a3d}.projets_heures_travaillees_svg__st3{fill:#fffffe}.projets_heures_travaillees_svg__st4{fill:#2ca01c}.projets_heures_travaillees_svg__st5{fill:#babec5}.projets_heures_travaillees_svg__st6{fill:#6b6c72}.projets_heures_travaillees_svg__st7{fill:#eceef1}.projets_heures_travaillees_svg__st10{fill:#fff}.projets_heures_travaillees_svg__st11{enable-background:new}.projets_heures_travaillees_svg__st12{fill:none;stroke:#e4e2e7;stroke-linecap:square}.projets_heures_travaillees_svg__st19{fill:#008481}.projets_heures_travaillees_svg__st20{fill:none;stroke:#00c1bf;stroke-width:1.51;stroke-linecap:round;stroke-linejoin:round}.projets_heures_travaillees_svg__st22{fill:#00c1bf}.projets_heures_travaillees_svg__st52{fill:none;stroke:#00c1bf;stroke-width:2;stroke-linecap:round;stroke-linejoin:round}</style><path class="projets_heures_travaillees_svg__st0" d="M0 0h987.6v600.1H0z"/><path d="M0 31h987.2" opacity=".217" fill="none" stroke="#fff" stroke-linecap="square" enable-background="new"/><path class="projets_heures_travaillees_svg__st2" d="M0 0h987.6v49H0z"/><path id="projets_heures_travaillees_svg__Fill-1" class="projets_heures_travaillees_svg__st3" d="M146 33.5c-.5 0-.8-.4-.8-.9s.4-.9.8-.9c.5 0 .8.4.8.9s-.3.9-.8.9zm0-1.9c-.6 0-1 .5-1 1s.4 1 1 1 1-.4 1-1-.4-1-1-1zm-.2 1v-.3h.2c.1 0 .2 0 .2.2 0 .1-.1.2-.2.2h-.2v-.1zm.6-.2c0-.2-.2-.3-.4-.3h-.4v1.2h.2v-.5h.1l.3.5h.2l-.3-.5c.2-.1.3-.2.3-.4z"/><path id="projets_heures_travaillees_svg__Fill-2" class="projets_heures_travaillees_svg__st3" d="M119.1 32.8c-1.7 0-2.5-1.5-2.5-3 0-1.4.8-2.9 2.5-2.9s2.5 1.5 2.5 2.9c0 1.5-.8 3-2.5 3zm0-8.2c-3 0-5.3 2.2-5.3 5.2 0 3.1 2.3 5.3 5.3 5.3s5.3-2.2 5.3-5.3c-.1-3-2.3-5.2-5.3-5.2zm-29.8.3h-3.5L82.4 29h-.1v-9.7h-2.7v15.5h2.7V30h.1l3.6 4.9h3.5l-4.2-5.5 4-4.5zm6.2 7.9c-1.6 0-2.6-1.5-2.6-2.9s1-3 2.6-3c1.7 0 2.6 1.5 2.6 2.9 0 1.5-1 3-2.6 3zm.5-8.2c-1.2 0-2.1.6-3 1.4v-6.6h-2.7v15.5h2.6v-1.4c.6 1 1.8 1.7 3 1.7 2.8 0 4.9-2.2 4.9-5.3 0-3.1-2.1-5.3-4.8-5.3zm39.7.3h-3.5l-3.5 4.1h-.1v-9.7h-2.7v15.5h2.7V30h.1l3.6 4.9h3.5l-4.2-5.5 4.1-4.5zm5 3.8c-1.4-.3-1.9-.5-1.9-1.1 0-.8 1-1 1.4-1 .8 0 1.8.5 2.1 1l1.6-1.6c-.7-.9-2.2-1.5-3.7-1.5-1.9 0-4 1-4 3.2 0 1.9 1.5 2.5 2.9 2.9 1.5.4 2 .6 2 1.3 0 .9-1 1.1-1.4 1.1-.9 0-1.9-.5-2.4-1.2l-1.6 1.7c.9 1 2.4 1.6 4 1.6 2.6 0 4.2-1.3 4.2-3.4.1-1.9-1.8-2.6-3.2-3zm-33.4 4.1c-1.7 0-2.5-1.5-2.5-3 0-1.4.8-2.9 2.5-2.9s2.5 1.5 2.5 2.9c0 1.5-.8 3-2.5 3zm0-8.2c-3 0-5.3 2.2-5.3 5.2 0 3.1 2.3 5.3 5.3 5.3s5.3-2.2 5.3-5.3c0-3-2.3-5.2-5.3-5.2zm-60.9 8.2c-1.7 0-2.6-1.5-2.6-3 0-1.4.9-2.9 2.6-2.9 1.6 0 2.6 1.5 2.6 3-.1 1.4-1 2.9-2.6 2.9zm2.6-6.6c-.4-.4-1.5-1.5-3.1-1.5-2.7 0-4.8 2.2-4.8 5.2 0 3.1 1.9 5.3 4.7 5.3 1.3 0 2.4-.7 3.1-1.5v6.1h2.7V24.9H49v1.3zm11.2 4.2c0 1.2-.7 2.4-2.1 2.4-1.1 0-1.6-.8-1.6-2.4v-5.5h-2.7v6.2c0 2.1 1 4.1 3.7 4.1 1.3 0 2.3-1 2.8-1.8v1.5h2.6v-10h-2.7v5.5zm4.9 4.5h2.7v-10h-2.7v10zm9.6-2.1c-1.6 0-2.5-1.5-2.5-3s.9-2.9 2.4-2.9c.7 0 1.6.4 1.9.9l1.7-1.8c-.8-.9-2.2-1.4-3.6-1.4-3 0-5.2 2.2-5.2 5.3 0 3.1 2.2 5.3 5.2 5.3 1.5 0 2.8-.4 3.6-1.3L76.7 32c-.4.5-1.2.8-2 .8z"/><path id="projets_heures_travaillees_svg__Fill-3" class="projets_heures_travaillees_svg__st4" d="M27 12.3c6.1 0 11 5 11 11.2 0 6.2-4.9 11.2-11 11.2s-11-5-11-11.2c0-6.2 4.9-11.2 11-11.2z"/><path id="projets_heures_travaillees_svg__Fill-4" class="projets_heures_travaillees_svg__st3" d="M31.4 19.4h-.7v1.7h.7c1.6 0 2.9 1.3 2.9 2.9 0 1.6-1.3 2.9-2.9 2.9h-1.6V18c0-.9-.8-1.7-1.7-1.7v12.2h3.3c2.5 0 4.6-2 4.6-4.5s-2-4.6-4.6-4.6zM19 24c0 2.5 2 4.5 4.6 4.5h.7v-1.7h-.7c-1.6 0-2.9-1.3-2.9-2.9 0-1.6 1.3-2.9 2.9-2.9h1.6v9c0 .9.8 1.7 1.7 1.7V19.4h-3.3C21 19.4 19 21.5 19 24z"/><path id="projets_heures_travaillees_svg__Fill-5" class="projets_heures_travaillees_svg__st3" d="M57.6 18.1c0 .7-.4 1.3-1.1 1.3-.8 0-.9-.7-.9-1.3v-2.7h-1.2v3.1c0 1 .5 2 1.8 2 .7 0 1.3-.4 1.5-.9v.8h1.2v-4.9h-1.2v2.6h-.1zm-8.1-1.6h1.4v3.8h1.2v-3.8h1.4v-1.1h-3.9v1.1h-.1zM60 20.3h1.2v-4.9H60v4.9zm2.1-4.9v1.1h1.4v3.8h1.2v-3.8H66v-1.1h-3.9zm1.9-.7c.4 0 .7-.3.7-.7 0-.4-.3-.7-.7-.7-.4 0-.7.3-.7.7 0 .4.3.7.7.7zm-22 5.6h1.2v-4.9H42v4.9zm5.1-5.1c-.7 0-1.3.4-1.5.9v-.8h-1.2v4.9h1.2v-2.7c0-.7.4-1.3 1.1-1.3.8 0 .9.7.9 1.3v2.7h1.2v-3.1c.1-.9-.4-1.9-1.7-1.9zm4.4-.5c.4 0 .7-.3.7-.7 0-.4-.3-.7-.7-.7-.4 0-.7.3-.7.7 0 .4.3.7.7.7z"/><path id="projets_heures_travaillees_svg__Rectangle-2" class="projets_heures_travaillees_svg__st5" d="M206 18.4h14v2h-14z"/><path id="projets_heures_travaillees_svg__Rectangle-2_1_" class="projets_heures_travaillees_svg__st5" d="M206 23.5h14v2h-14z"/><path id="projets_heures_travaillees_svg__Rectangle-2_2_" class="projets_heures_travaillees_svg__st5" d="M206 28.6h14v2h-14z"/><path id="projets_heures_travaillees_svg__Divider-1" class="projets_heures_travaillees_svg__st6" d="M185 7.1h1v34.7h-1z"/><path class="projets_heures_travaillees_svg__st0" d="M0 49h170v551.1H0z"/><path id="projets_heures_travaillees_svg__menu-Highlight-Gray" class="projets_heures_travaillees_svg__st7" d="M0 286.4h170v50H0z"/><path id="projets_heures_travaillees_svg__Hover-Highlight" fill="#2da01c" d="M0 286.5h6v50H0z"/><path id="projets_heures_travaillees_svg__Tableau-de-bord-Banq" d="M40.5 86v9h-1v-9h-3.3v-.9h7.6v.9h-3.3zm7.8 5v-.2c0-1.1-.6-1.7-1.8-1.7-.8 0-1.5.3-1.9.8l-.6-.7c.5-.5 1.5-.9 2.6-.9 1.4 0 2.5.8 2.5 2.4v2.9c0 .5 0 1.1.1 1.5h-.9c-.1-.3-.1-.7-.1-1.1-.6.9-1.3 1.2-2.4 1.2-1 0-2.3-.5-2.3-2 .2-2.1 2.4-2.2 4.8-2.2zm0 .7H48c-1.6 0-3.4.2-3.4 1.4 0 .9.8 1.2 1.5 1.2 1.3 0 2.1-1 2.1-2.2v-.4zm4.6 2.2V95h-1V84.4h1v5.2c.6-.9 1.5-1.3 2.5-1.3 2 0 3.4 1.5 3.4 3.4s-1.3 3.4-3.4 3.4c-1 0-2-.4-2.5-1.2zm4.8-2.2c0-1.5-.9-2.6-2.5-2.6-1.5 0-2.5 1.1-2.5 2.6s1 2.6 2.5 2.6c1.6 0 2.5-1.1 2.5-2.6zm4.3-7.3V95h-1V84.4h1zm3.3 6.8h4.5c-.1-1.2-.8-2.1-2.2-2.1-1.2 0-2.2 1-2.3 2.1zm5.5.3v.4h-5.4c0 1.3 1.1 2.4 2.4 2.4 1 0 1.7-.5 2.1-1.1l.7.6c-.8 1-1.7 1.4-2.8 1.4-1.9 0-3.4-1.5-3.4-3.4s1.4-3.4 3.3-3.4c2-.1 3.1 1.3 3.1 3.1zm6.3-.5v-.2c0-1.1-.6-1.7-1.8-1.7-.8 0-1.5.3-1.9.8l-.5-.6c.5-.5 1.5-.9 2.6-.9 1.4 0 2.5.8 2.5 2.4v2.9c0 .5 0 1.1.1 1.5h-.9c-.1-.3-.1-.7-.1-1.1-.6.9-1.3 1.2-2.4 1.2-1 0-2.3-.5-2.3-2 .1-2.2 2.3-2.3 4.7-2.3zm0 .7h-.3c-1.6 0-3.4.2-3.4 1.4 0 .9.8 1.2 1.5 1.2 1.3 0 2.1-1 2.1-2.2v-.4zm9.3 3.3h-.9c0-.4-.1-.8-.1-1.1-.4.8-1.3 1.3-2.2 1.3-1.7 0-2.5-1.1-2.5-2.7v-4h1v3.6c0 1.4.4 2.3 1.8 2.3 1 0 2-.8 2-2.6v-3.4h1v5.1c-.2.4-.2 1-.1 1.5zm11.8-1.1c-.6.8-1.5 1.3-2.5 1.3-2 0-3.4-1.5-3.4-3.4s1.3-3.4 3.4-3.4c.9 0 1.9.4 2.5 1.3v-5.2h1V95h-1v-1.1zm-4.8-2.2c0 1.5.9 2.6 2.5 2.6 1.5 0 2.5-1.1 2.5-2.6s-1.1-2.6-2.5-2.6c-1.6 0-2.5 1.1-2.5 2.6zm9.2-.5h4.5c-.1-1.2-.8-2.1-2.2-2.1-1.3 0-2.3 1-2.3 2.1zm5.4.3v.4h-5.4c0 1.3 1 2.4 2.4 2.4 1 0 1.7-.5 2.1-1.1l.7.6c-.8 1-1.7 1.4-2.8 1.4-1.9 0-3.4-1.5-3.4-3.4s1.4-3.4 3.3-3.4c2-.1 3.1 1.3 3.1 3.1zm-69.7 22.4v1.1h-1v-10.6h1v5.2c.6-.9 1.5-1.3 2.5-1.3 2 0 3.4 1.5 3.4 3.4s-1.3 3.4-3.4 3.4c-1 0-2-.4-2.5-1.2zm4.8-2.2c0-1.5-.9-2.6-2.5-2.6-1.5 0-2.5 1.1-2.5 2.6s1.1 2.6 2.5 2.6c1.6 0 2.5-1.1 2.5-2.6zm9.8 0c0 2-1.5 3.4-3.5 3.4s-3.5-1.5-3.5-3.4 1.5-3.4 3.5-3.4c2.1 0 3.5 1.4 3.5 3.4zm-1 0c0-1.5-1-2.6-2.5-2.6s-2.5 1.2-2.5 2.6c0 1.5 1 2.6 2.5 2.6 1.6 0 2.5-1.1 2.5-2.6zm3.3-1.8c0-.4 0-1-.1-1.4h.9c0 .3.1.8.1 1.1.4-.8 1.2-1.3 2.1-1.3.2 0 .4 0 .6.1l-.1.9c-.1 0-.4-.1-.7-.1-1 0-1.9.7-1.9 2.5v3.4h-1v-5.2zm10.5 4c-.6.8-1.5 1.3-2.5 1.3-2 0-3.4-1.5-3.4-3.4s1.3-3.4 3.4-3.4c.9 0 1.9.4 2.5 1.3v-5.2h1V115h-1v-1.1zm-4.9-2.2c0 1.5.9 2.6 2.5 2.6 1.5 0 2.5-1.1 2.5-2.6s-1.1-2.6-2.5-2.6c-1.6 0-2.5 1.1-2.5 2.6zM37.3 165v-9.9h3c1.5 0 3.2.5 3.2 2.5 0 1-.7 1.9-1.8 2.1 1.3.1 2.2 1 2.2 2.5 0 1.7-1.4 2.7-3.7 2.7h-2.9zm1-9.1v3.5h2c1 0 2.1-.4 2.1-1.7 0-1.3-1.1-1.7-2.4-1.7h-1.7zm0 4.3v3.9h1.9c1.5 0 2.7-.5 2.7-1.9 0-1.3-.9-1.9-2.5-1.9h-2.1zm12.2.8v-.2c0-1.1-.6-1.7-1.8-1.7-.8 0-1.5.3-1.9.8l-.5-.6c.5-.5 1.5-.9 2.6-.9 1.4 0 2.5.8 2.5 2.4v2.9c0 .5 0 1.1.1 1.5h-.9c-.1-.3-.1-.7-.1-1.1-.6.9-1.3 1.2-2.4 1.2-1 0-2.3-.5-2.3-2 .1-2.2 2.4-2.3 4.7-2.3zm0 .7h-.3c-1.6 0-3.4.2-3.4 1.4 0 .9.8 1.2 1.5 1.2 1.3 0 2.1-1 2.1-2.2v-.4zm3.6-3.3h.9c0 .4.1.8.1 1.1.4-.8 1.3-1.3 2.2-1.3 1.7 0 2.5 1.1 2.5 2.7v4h-1v-3.6c0-1.4-.4-2.3-1.8-2.3-1 0-2 .8-2 2.6v3.4h-1v-5.1c.1-.4.1-1 .1-1.5zm13.8 5.5c-.6.8-1.6 1.3-2.5 1.3-2 0-3.4-1.5-3.4-3.4s1.3-3.4 3.4-3.4c.9 0 1.9.4 2.5 1.3v-1.1h1v9.9h-1v-4.6zm-4.8-2.2c0 1.5.9 2.6 2.5 2.6 1.5 0 2.5-1.1 2.5-2.6s-1.1-2.6-2.5-2.6c-1.6 0-2.5 1.1-2.5 2.6zm14.2 3.3h-.9c0-.4-.1-.8-.1-1.1-.4.8-1.3 1.3-2.2 1.3-1.7 0-2.5-1.1-2.5-2.7v-4h1v3.6c0 1.4.4 2.3 1.8 2.3 1 0 2-.8 2-2.6v-3.4h1v5.1c-.1.4-.1 1-.1 1.5zm3.3-3.8H85c-.1-1.2-.8-2.1-2.2-2.1-1.2 0-2.1 1-2.2 2.1zm5.4.3v.4h-5.4c0 1.3 1 2.4 2.4 2.4 1 0 1.7-.5 2.1-1.1l.7.6c-.8 1-1.7 1.4-2.8 1.4-1.9 0-3.4-1.5-3.4-3.4s1.4-3.4 3.3-3.4c2-.1 3.1 1.3 3.1 3.1zm-48.9 43.6 3.2 8.6 3.2-8.6h1.1l-3.8 9.9h-1.1l-3.8-9.9h1.2zm9.1 6.1h4.5c-.1-1.2-.8-2.1-2.2-2.1-1.3 0-2.2 1-2.3 2.1zm5.4.3v.4h-5.4c0 1.3 1.1 2.4 2.4 2.4 1 0 1.7-.5 2.1-1.1l.7.6c-.8 1-1.7 1.4-2.8 1.4-1.9 0-3.4-1.5-3.4-3.4s1.4-3.4 3.3-3.4c2-.1 3.1 1.3 3.1 3.1zm2.2-3.1h.9c0 .3.1.8.1 1.1.4-.8 1.3-1.3 2.2-1.3 1.7 0 2.5 1.1 2.5 2.7v4h-1v-3.6c0-1.4-.4-2.3-1.8-2.3-1 0-2 .8-2 2.6v3.4h-1v-5.1c.2-.4.2-1 .1-1.5zm11.4 0v.8h-1.8v3.8c0 1 .4 1.2 1 1.2.3 0 .6-.1.8-.2v.8c-.3.1-.7.2-1.1.2-.7 0-1.7-.3-1.7-1.8v-4.1H61v-.8h1.4v-1.8h1v1.8h1.8zm2.3 2.8H72c-.1-1.2-.8-2.1-2.2-2.1-1.3 0-2.2 1-2.3 2.1zm5.4.3v.4h-5.4c0 1.3 1.1 2.4 2.4 2.4 1 0 1.7-.5 2.1-1.1l.7.6c-.8 1-1.7 1.4-2.8 1.4-1.9 0-3.4-1.5-3.4-3.4s1.4-3.4 3.3-3.4c2.1-.1 3.1 1.3 3.1 3.1zm6.5-2.1-.7.5c-.3-.5-.9-.9-1.6-.9-.7 0-1.4.3-1.4 1 0 .6.5.9 1.6 1.1 1.5.3 2.3.9 2.3 1.9 0 1.5-1.3 2-2.5 2-1 0-2-.4-2.6-1.3l.8-.6c.3.6 1 1 1.8 1s1.5-.3 1.5-1.1c0-.7-.7-1-1.9-1.3-.8-.2-1.9-.5-1.9-1.8s1.1-1.9 2.3-1.9c1 .3 1.9.7 2.3 1.4zM37.3 265v-9.9h3.3c2.5 0 5.2 1.7 5.2 5s-2.7 5-5.2 5h-3.3zm1-9v8.1h2c3 0 4.4-2 4.4-4.1 0-2-1.4-4.1-4.4-4.1h-2zm10.3 5.2h4.5c-.1-1.2-.8-2.1-2.2-2.1-1.2 0-2.2 1-2.3 2.1zm5.5.3v.4h-5.4c0 1.3 1 2.4 2.4 2.4 1 0 1.7-.5 2.1-1.1l.7.6c-.8 1-1.7 1.4-2.8 1.4-1.9 0-3.4-1.5-3.4-3.4s1.4-3.4 3.3-3.4c2-.1 3.1 1.3 3.1 3.1zm-1.1-6.4-1.8 2h-.8l1.4-2H53zm4.3 8.8v4.5h-1v-9.9h1v1.1c.5-.9 1.5-1.3 2.5-1.3 2 0 3.4 1.5 3.4 3.4s-1.3 3.4-3.4 3.4c-.9 0-1.9-.4-2.5-1.2zm4.9-2.2c0-1.5-.9-2.6-2.5-2.6-1.5 0-2.5 1.1-2.5 2.6s1 2.6 2.5 2.6c1.6 0 2.5-1.1 2.5-2.6zm3.8-.5h4.5c-.1-1.2-.8-2.1-2.2-2.1-1.2 0-2.2 1-2.3 2.1zm5.5.3v.4H66c0 1.3 1 2.4 2.4 2.4 1 0 1.7-.5 2.1-1.1l.7.6c-.8 1-1.7 1.4-2.8 1.4-1.9 0-3.4-1.5-3.4-3.4s1.4-3.4 3.3-3.4c2.1-.1 3.2 1.3 3.2 3.1zm2.2-3.1h.9c0 .4.1.8.1 1.1.4-.8 1.3-1.3 2.2-1.3 1.7 0 2.5 1.1 2.5 2.7v4h-1v-3.6c0-1.4-.4-2.3-1.8-2.3-1 0-2 .8-2 2.6v3.4h-1v-5.1c.2-.4.2-1 .1-1.5zm12.7 1-.7.5c-.3-.5-.9-.9-1.6-.9-.7 0-1.4.3-1.4 1 0 .6.5.9 1.6 1.1 1.5.3 2.3.9 2.3 1.9 0 1.5-1.3 2-2.5 2-1 0-2-.4-2.6-1.3l.8-.6c.3.6 1 1 1.8 1s1.5-.3 1.5-1.1c0-.7-.7-1-1.9-1.3-.8-.2-1.9-.5-1.9-1.8s1.1-1.9 2.3-1.9c.9.3 1.8.7 2.3 1.4zm2.7 1.8h4.5c-.1-1.2-.8-2.1-2.2-2.1-1.2 0-2.2 1-2.3 2.1zm5.5.3v.4h-5.4c0 1.3 1 2.4 2.4 2.4 1 0 1.7-.5 2.1-1.1l.7.6c-.8 1-1.7 1.4-2.8 1.4-1.9 0-3.4-1.5-3.4-3.4s1.4-3.4 3.3-3.4c2-.1 3.1 1.3 3.1 3.1zm6.5-2.1-.7.5c-.3-.5-.9-.9-1.6-.9-.7 0-1.4.3-1.4 1 0 .6.5.9 1.6 1.1 1.5.3 2.3.9 2.3 1.9 0 1.5-1.3 2-2.5 2-1 0-2-.4-2.6-1.3l.8-.6c.3.6 1 1 1.8 1s1.5-.3 1.5-1.1c0-.7-.7-1-1.9-1.3-.8-.2-1.9-.5-1.9-1.8s1.1-1.9 2.3-1.9c.9.3 1.9.7 2.3 1.4zm-64 55.6v-9.9h3.2c2.3 0 3.7.8 3.7 2.9 0 2.2-1.8 2.9-3.8 2.9h-1.4v4.1h-1.7zm1.8-5.6h1.2c1.1 0 2.2-.3 2.2-1.5s-1-1.4-2.1-1.4h-1.3v2.9zm6.3 5.6v-6.7h1.6v1.1c.4-.8 1.1-1.3 2-1.3h.4v1.5c-.2-.1-.4-.1-.5-.1-1.5 0-1.8 1.3-1.8 1.8v3.6h-1.7zm4.7-3.4c0-2.1 1.6-3.5 3.7-3.5 2 0 3.7 1.4 3.7 3.5s-1.6 3.6-3.7 3.6-3.7-1.5-3.7-3.6zm1.7 0c0 1 .6 2.2 1.9 2.2 1.3 0 1.9-1.1 1.9-2.2s-.6-2.2-1.9-2.2c-1.3 0-1.9 1.1-1.9 2.2zm7.5-3.3h1.7v7.1c0 1.6-.4 3-2.4 3-.3 0-.6 0-.8-.1l.1-1.4c.2 0 .3.1.5.1.8 0 .9-.7.9-1.4v-7.3zm-.3-2.3c0-.5.4-1 1.1-1 .6 0 1.1.4 1.1 1s-.5 1-1.1 1c-.6 0-1.1-.5-1.1-1zm5.5 4.9h3.4c0-.9-.5-1.6-1.6-1.6-.9 0-1.7.7-1.8 1.6zm5.2.8v.4h-5.1c.1 1 .9 1.7 1.9 1.7.8 0 1.4-.3 1.8-.9l1.1.9c-.7.9-1.6 1.3-2.9 1.3-2.1 0-3.6-1.3-3.6-3.5s1.5-3.6 3.6-3.6c1.8.1 3.2 1.3 3.2 3.7zm2-2.1h-1.2v-1.3h1.2v-1.9h1.7v1.9h1.7v1.3h-1.7v3.1c0 .6.1 1 .9 1 .2 0 .5 0 .7-.1l.1 1.3c-.3.1-.7.2-1.1.2-1.8 0-2.2-1.1-2.2-2.4v-3.1zm9.6-.5-1.1 1c-.3-.4-.9-.7-1.5-.7-.5 0-1.1.2-1.1.7 0 .5.5.7 1.5.9 1 .2 2.2.7 2.2 2 0 1.6-1.3 2.2-2.8 2.2-1 0-2.1-.4-2.8-1.1l1.1-1c.4.5 1 .8 1.7.8.5 0 1.1-.2 1.1-.8 0-.6-.5-.7-1.5-1-1-.2-2-.6-2-1.9 0-1.5 1.3-2.1 2.7-2.1 1 0 2 .3 2.5 1zm-42.8 51.2v3.8h5.3v.9h-6.3v-9.9h6.1v.9h-5.1v3.4h4.8v.9h-4.8zm8.4-.8c.4-.8 1.2-1.3 2.2-1.3.7 0 1.6.3 2 1.4.4-.9 1.2-1.4 2.3-1.4 1.7 0 2.5 1.1 2.5 2.7v4h-1v-3.6c0-1.4-.5-2.3-1.7-2.3-1.4 0-1.9 1.2-1.9 2.4v3.5h-1v-3.8c0-1.3-.3-2.1-1.6-2.1-.9 0-1.9.8-1.9 2.6v3.4h-1v-5.1c0-.3 0-1-.1-1.4h.9c.3.3.3.8.3 1zm12.7 4.4v4.5h-1v-9.9h1v1.1c.5-.9 1.5-1.3 2.5-1.3 2 0 3.4 1.5 3.4 3.4s-1.3 3.4-3.4 3.4c-1 0-1.9-.4-2.5-1.2zm4.8-2.2c0-1.5-.9-2.6-2.5-2.6-1.5 0-2.5 1.1-2.5 2.6s1 2.6 2.5 2.6c1.7 0 2.5-1.1 2.5-2.6zm4.3-7.3V365h-1v-10.6h1zm9.3 7.3c0 2-1.5 3.4-3.5 3.4s-3.5-1.5-3.5-3.4 1.5-3.4 3.5-3.4c2.1 0 3.5 1.4 3.5 3.4zm-1 0c0-1.5-1-2.6-2.5-2.6s-2.5 1.2-2.5 2.6 1 2.6 2.5 2.6c1.6 0 2.5-1.1 2.5-2.6zm3.4-3.3 2.2 5.5 2-5.5h1l-3.3 8.2c-.4 1-.9 1.7-2.1 1.7-.3 0-.6 0-.9-.1l.1-.9c.2.1.4.1.7.1.6 0 1-.4 1.3-1.2l.5-1.4-2.8-6.5h1.3zm7.5 2.8h4.5c-.1-1.2-.8-2.1-2.2-2.1-1.2 0-2.2 1-2.3 2.1zm5.5.3v.4h-5.4c0 1.3 1 2.4 2.4 2.4 1 0 1.7-.5 2.1-1.1l.7.6c-.8 1-1.7 1.4-2.8 1.4-1.9 0-3.4-1.5-3.4-3.4s1.4-3.4 3.3-3.4c2-.1 3.1 1.3 3.1 3.1zm-1.1-6.4-1.8 2h-.8l1.4-2h1.2zm7.6 4.3-.7.6c-.3-.5-.9-.9-1.6-.9-.7 0-1.4.3-1.4 1 0 .6.5.9 1.6 1.1 1.5.3 2.3.9 2.3 1.9 0 1.5-1.3 2-2.5 2-1 0-2-.4-2.6-1.3l.8-.6c.3.6 1.1 1 1.8 1 .8 0 1.5-.3 1.5-1.1 0-.7-.7-1-1.9-1.3-.8-.2-1.9-.5-1.9-1.8s1.1-1.9 2.3-1.9c.9.2 1.9.6 2.3 1.3zm-61.4 50.9v4.6h-1V405h2.9c2 0 3.4.7 3.4 2.6 0 1.5-1.1 2.4-2.5 2.5L44 415h-1.2l-2.7-4.6h-1.8zm0-4.4v3.5h1.8c1.6 0 2.5-.6 2.5-1.8 0-1.3-1-1.8-2.5-1.8h-1.8zm11.6 5.1v-.2c0-1.1-.6-1.7-1.8-1.7-.8 0-1.5.3-1.9.8l-.5-.6c.5-.5 1.5-.9 2.6-.9 1.4 0 2.5.8 2.5 2.4v2.9c0 .5 0 1.1.1 1.5H50c-.1-.3-.1-.7-.1-1.1-.6.9-1.3 1.2-2.4 1.2-1 0-2.3-.5-2.3-2 0-2.2 2.3-2.3 4.7-2.3zm0 .7h-.3c-1.6 0-3.4.2-3.4 1.4 0 .9.8 1.2 1.5 1.2 1.3 0 2.1-1 2.1-2.2v-.4zm4.5 2.2v4.5h-1v-9.9h1v1.1c.5-.9 1.5-1.3 2.5-1.3 2 0 3.4 1.5 3.4 3.4s-1.3 3.4-3.4 3.4c-.9 0-1.9-.4-2.5-1.2zm4.9-2.2c0-1.5-.9-2.6-2.5-2.6-1.5 0-2.5 1.1-2.5 2.6s1.1 2.6 2.5 2.6c1.6 0 2.5-1.1 2.5-2.6zm4.2 2.2v4.5h-1v-9.9h1v1.1c.5-.9 1.5-1.3 2.5-1.3 2 0 3.4 1.5 3.4 3.4s-1.3 3.4-3.4 3.4c-.9 0-1.9-.4-2.5-1.2zm4.9-2.2c0-1.5-.9-2.6-2.5-2.6-1.5 0-2.5 1.1-2.5 2.6s1.1 2.6 2.5 2.6c1.6 0 2.5-1.1 2.5-2.6zm9.8 0c0 2-1.5 3.4-3.5 3.4s-3.5-1.5-3.5-3.4 1.5-3.4 3.5-3.4c2.1 0 3.5 1.4 3.5 3.4zm-1 0c0-1.5-1-2.6-2.5-2.6s-2.5 1.2-2.5 2.6 1 2.6 2.5 2.6c1.6 0 2.5-1.1 2.5-2.6zm3.3-1.8c0-.3 0-1-.1-1.4h.9c0 .4.1.8.1 1.1.4-.8 1.2-1.3 2.1-1.3.2 0 .4 0 .6.1l-.1.9c-.1 0-.4-.1-.7-.1-1 0-1.9.7-1.9 2.5v3.4h-1v-5.2zm8.1-1.5v.8h-1.8v3.8c0 1 .4 1.2 1 1.2.3 0 .6-.1.8-.2v.8c-.3.1-.7.2-1.1.2-.7 0-1.7-.3-1.7-1.8v-4.1h-1.4v-.8h1.4v-1.8h1v1.8h1.8zm6 1-.7.5c-.3-.5-.9-.9-1.6-.9-.7 0-1.4.3-1.4 1 0 .6.5.9 1.6 1.1 1.5.3 2.3.9 2.3 1.9 0 1.5-1.3 2-2.5 2-1 0-2-.4-2.6-1.3l.8-.6c.3.6 1.1 1 1.8 1 .8 0 1.5-.3 1.5-1.1 0-.7-.7-1-1.9-1.3-.8-.2-1.9-.5-1.9-1.8s1.1-1.9 2.3-1.9c.9.3 1.8.7 2.3 1.4zM40.5 456v9h-1v-9h-3.3v-.9h7.6v.9h-3.3zm4.9-.9 3.2 8.6 3.2-8.6h1.1l-3.8 9.9H48l-3.8-9.9h1.2zm9.7 7.3L54 465h-1.1l4.3-9.9h1l4.3 9.9h-1.1l-1.1-2.6h-5.2zm2.6-6.2-2.2 5.3h4.4l-2.2-5.3zM37.3 515v-9.9h2.8c2 0 3.3.9 3.3 2.6 0 1.8-1.4 2.7-3.4 2.7h-1.8v4.6h-.9zm1-9.1v3.6H40c1.6 0 2.4-.6 2.4-1.8 0-1.2-.9-1.8-2.4-1.8h-1.7zm8.3-1.5V515h-1v-10.6h1zm6.9 6.6v-.2c0-1.1-.6-1.7-1.8-1.7-.8 0-1.5.3-1.9.8l-.5-.6c.5-.5 1.5-.9 2.6-.9 1.4 0 2.5.8 2.5 2.4v2.9c0 .5 0 1.1.1 1.5h-.9c-.1-.3-.1-.7-.1-1.1-.6.9-1.3 1.2-2.4 1.2-1 0-2.3-.5-2.3-2 .1-2.2 2.3-2.3 4.7-2.3zm0 .7h-.3c-1.6 0-3.4.2-3.4 1.4 0 .9.8 1.2 1.5 1.2 1.3 0 2.1-1 2.1-2.2v-.4zm3.6-3.3h.9c0 .4.1.8.1 1.1.4-.8 1.3-1.3 2.2-1.3 1.7 0 2.5 1.1 2.5 2.7v4h-1v-3.6c0-1.4-.4-2.3-1.8-2.3-1 0-2 .8-2 2.6v3.4h-1v-5.1c.1-.4.1-1 .1-1.5zm17.6 1-.7.5c-.3-.5-1-.9-1.7-.9-1.5 0-2.5 1.1-2.5 2.6s1 2.6 2.5 2.6c.8 0 1.4-.4 1.8-.9l.7.5c-.6.7-1.4 1.1-2.5 1.1-2.1 0-3.5-1.5-3.5-3.4 0-2 1.4-3.4 3.5-3.4.9.2 1.9.5 2.4 1.3zm8.3 2.3c0 2-1.5 3.4-3.5 3.4s-3.5-1.5-3.5-3.4c0-2 1.5-3.4 3.5-3.4 2.1 0 3.5 1.4 3.5 3.4zm-1 0c0-1.5-1-2.6-2.5-2.6s-2.5 1.2-2.5 2.6 1 2.6 2.5 2.6c1.6 0 2.5-1.1 2.5-2.6zm4.3-2.2c.4-.8 1.2-1.3 2.2-1.3.7 0 1.6.3 2 1.4.4-.9 1.2-1.4 2.3-1.4 1.7 0 2.5 1.1 2.5 2.7v4h-1v-3.6c0-1.4-.5-2.3-1.7-2.3-1.4 0-1.9 1.2-1.9 2.4v3.5h-1v-3.8c0-1.3-.3-2.1-1.6-2.1-.9 0-1.9.8-1.9 2.6v3.4h-1v-5.1c0-.3 0-1-.1-1.4h.9c.2.3.2.8.3 1zm12.6 4.4v4.5h-1v-9.9h1v1.1c.5-.9 1.5-1.3 2.5-1.3 2 0 3.4 1.5 3.4 3.4s-1.3 3.4-3.4 3.4c-.9 0-1.9-.4-2.5-1.2zm4.9-2.2c0-1.5-.9-2.6-2.5-2.6-1.5 0-2.5 1.1-2.5 2.6s1 2.6 2.5 2.6c1.6 0 2.5-1.1 2.5-2.6zm6.2-3.3v.8h-1.8v3.8c0 1 .4 1.2 1 1.2.3 0 .6-.1.8-.2v.8c-.3.1-.7.2-1.1.2-.7 0-1.7-.3-1.7-1.8v-4.1h-1.4v-.8h1.4v-1.8h1v1.8h1.8zm5.9 2.6v-.2c0-1.1-.6-1.7-1.8-1.7-.8 0-1.5.3-1.9.8l-.5-.6c.5-.5 1.5-.9 2.6-.9 1.4 0 2.5.8 2.5 2.4v2.9c0 .5 0 1.1.1 1.5h-.9c-.1-.3-.1-.7-.1-1.1-.6.9-1.3 1.2-2.4 1.2-1 0-2.3-.5-2.3-2 .1-2.2 2.3-2.3 4.7-2.3zm0 .7h-.3c-1.6 0-3.4.2-3.4 1.4 0 .9.8 1.2 1.5 1.2 1.3 0 2.1-1 2.1-2.2v-.4zm4.6 2.2v1.1h-1v-10.6h1v5.2c.6-.9 1.5-1.3 2.5-1.3 2 0 3.4 1.5 3.4 3.4s-1.3 3.4-3.4 3.4c-1 0-1.9-.4-2.5-1.2zm4.9-2.2c0-1.5-.9-2.6-2.5-2.6-1.5 0-2.5 1.1-2.5 2.6s1 2.6 2.5 2.6c1.6 0 2.5-1.1 2.5-2.6zm4.2-7.3V515h-1v-10.6h1zm3.4 6.8h4.5c-.1-1.2-.8-2.1-2.2-2.1-1.3 0-2.2 1-2.3 2.1zm5.4.3v.4H133c0 1.3 1.1 2.4 2.4 2.4 1 0 1.7-.5 2.1-1.1l.7.6c-.8 1-1.7 1.4-2.8 1.4-1.9 0-3.4-1.5-3.4-3.4 0-2 1.4-3.4 3.3-3.4 2-.1 3.1 1.3 3.1 3.1zm-99.5 43.6 3.4 8.2 3.3-8.2h1.5v9.9h-1v-8.6l-3.6 8.6H42l-3.6-8.6v8.6h-1v-9.9h1.5zm17.5 6.6c0 2-1.5 3.4-3.5 3.4s-3.5-1.5-3.5-3.4 1.5-3.4 3.5-3.4c2.1 0 3.5 1.4 3.5 3.4zm-1 0c0-1.5-1-2.6-2.5-2.6s-2.5 1.2-2.5 2.6c0 1.5 1 2.6 2.5 2.6 1.6 0 2.5-1.1 2.5-2.6zm3.3-3.3h.9c0 .4.1.8.1 1.1.4-.8 1.3-1.3 2.2-1.3 1.7 0 2.5 1.1 2.5 2.7v4h-1v-3.6c0-1.4-.4-2.3-1.8-2.3-1 0-2 .8-2 2.6v3.4h-1v-5.1c.1-.4.1-1 .1-1.5zm12.7 2.8h4.5c-.1-1.2-.8-2.1-2.2-2.1-1.3 0-2.2 1-2.3 2.1zm5.4.3v.4h-5.4c0 1.3 1 2.4 2.4 2.4 1 0 1.7-.5 2.1-1.1l.7.6c-.8 1-1.7 1.4-2.8 1.4-1.9 0-3.4-1.5-3.4-3.4s1.4-3.4 3.3-3.4c2-.1 3.1 1.3 3.1 3.1zM78 565l2.6-3.4-2.4-3.2h1.2l1.8 2.5 1.8-2.5h1.1l-2.4 3.1 2.6 3.4h-1.2l-1.9-2.7-2 2.7H78zm9-1.1v4.5h-1v-9.9h1v1.1c.5-.9 1.5-1.3 2.5-1.3 2 0 3.4 1.5 3.4 3.4s-1.3 3.4-3.4 3.4c-.9 0-1.9-.4-2.5-1.2zm4.9-2.2c0-1.5-.9-2.6-2.5-2.6-1.5 0-2.5 1.1-2.5 2.6s1.1 2.6 2.5 2.6c1.6 0 2.5-1.1 2.5-2.6zm3.8-.5h4.5c-.1-1.2-.8-2.1-2.2-2.1-1.3 0-2.2 1-2.3 2.1zm5.5.3v.4h-5.4c0 1.3 1.1 2.4 2.4 2.4 1 0 1.7-.5 2.1-1.1l.7.6c-.8 1-1.7 1.4-2.8 1.4-1.9 0-3.4-1.5-3.4-3.4s1.4-3.4 3.3-3.4c2-.1 3.1 1.3 3.1 3.1zm2.2-1.6c0-.3 0-1-.1-1.4h.9c0 .4.1.8.1 1.1.4-.8 1.2-1.3 2.1-1.3.2 0 .4 0 .6.1l-.1.9c-.1 0-.4-.1-.7-.1-1 0-1.9.7-1.9 2.5v3.4h-1v-5.2zm8.1-1.5v.8h-1.8v3.8c0 1 .4 1.2 1 1.2.3 0 .6-.1.8-.2v.8c-.3.1-.7.2-1.1.2-.7 0-1.7-.3-1.7-1.8v-4.1h-1.4v-.8h1.4v-1.8h1v1.8h1.8zm4.3 2.8v.8h-3.1v-.8h3.1zm-73.1 18.2-.7.5c-.3-.5-1-.9-1.7-.9-1.5 0-2.5 1.1-2.5 2.6s1 2.6 2.5 2.6c.8 0 1.4-.3 1.8-.9l.7.5c-.6.7-1.4 1.1-2.5 1.1-2.1 0-3.5-1.5-3.5-3.4s1.4-3.4 3.5-3.4c.9.2 1.9.5 2.4 1.3zm8.3 2.3c0 2-1.5 3.4-3.5 3.4s-3.5-1.5-3.5-3.4 1.5-3.4 3.5-3.4c2.1 0 3.5 1.4 3.5 3.4zm-1 0c0-1.5-1-2.6-2.5-2.6s-2.5 1.2-2.5 2.6c0 1.5 1 2.6 2.5 2.6s2.5-1.1 2.5-2.6zm4.3-2.2c.4-.8 1.2-1.3 2.2-1.3.7 0 1.6.3 2 1.4.4-.9 1.2-1.4 2.3-1.4 1.7 0 2.5 1.1 2.5 2.7v4h-1v-3.6c0-1.4-.5-2.3-1.7-2.3-1.4 0-1.9 1.2-1.9 2.4v3.5h-1v-3.8c0-1.3-.3-2.1-1.6-2.1-.9 0-1.9.8-1.9 2.6v3.4h-1v-5.1c0-.3 0-1-.1-1.4h.9c.2.3.2.8.3 1zm12.6 4.4v4.5h-1v-9.9h1v1.1c.5-.9 1.5-1.3 2.5-1.3 2 0 3.4 1.5 3.4 3.4s-1.3 3.4-3.4 3.4c-1 0-1.9-.4-2.5-1.2zm4.9-2.2c0-1.5-.9-2.6-2.5-2.6-1.5 0-2.5 1.1-2.5 2.6s1.1 2.6 2.5 2.6c1.6 0 2.5-1.1 2.5-2.6zm6.2-3.3v.8h-1.8v3.8c0 1 .4 1.2 1 1.2.3 0 .6-.1.8-.2v.8c-.3.1-.7.2-1.1.2-.7 0-1.7-.3-1.7-1.8v-4.1h-1.4v-.8h1.4v-1.8h1v1.8H78zm5.9 2.6v-.2c0-1.1-.6-1.7-1.8-1.7-.8 0-1.5.3-1.9.8l-.5-.6c.5-.5 1.5-.9 2.6-.9 1.4 0 2.5.8 2.5 2.4v2.9c0 .5 0 1.1.1 1.5H84c-.1-.3-.1-.7-.1-1.1-.6.9-1.3 1.2-2.4 1.2-1 0-2.3-.5-2.3-2 .1-2.2 2.3-2.3 4.7-2.3zm0 .7h-.3c-1.6 0-3.4.2-3.4 1.4 0 .9.8 1.2 1.5 1.2 1.3 0 2.1-1 2.1-2.2v-.4zm4.6 2.2v1.1h-1v-10.6h1v5.2c.6-.9 1.5-1.3 2.5-1.3 2 0 3.4 1.5 3.4 3.4s-1.3 3.4-3.4 3.4c-1 0-2-.4-2.5-1.2zm4.8-2.2c0-1.5-.9-2.6-2.5-2.6-1.5 0-2.5 1.1-2.5 2.6s1.1 2.6 2.5 2.6c1.6 0 2.5-1.1 2.5-2.6zm4.3-7.3V585h-1v-10.6h1zm3.4 6.8h4.5c-.1-1.2-.8-2.1-2.2-2.1-1.3 0-2.3 1-2.3 2.1zm5.4.3v.4H101c0 1.3 1.1 2.4 2.4 2.4 1 0 1.7-.5 2.1-1.1l.7.6c-.8 1-1.7 1.4-2.8 1.4-1.9 0-3.4-1.5-3.4-3.4s1.4-3.4 3.3-3.4c2-.1 3.1 1.3 3.1 3.1z" fill="#393a3c"/><path id="projets_heures_travaillees_svg__Projets" class="projets_heures_travaillees_svg__st2" d="M190.7 93.4H188v5.1c0 .1 0 .3-.1.3-.1.1-.2.1-.3.1h-1.3c-.1 0-.2 0-.3-.1s-.1-.2-.1-.3v-14c0-.1 0-.3.1-.3s.2-.1.3-.1h4.5c1.9 0 3.2.3 3.9 1 .7.7 1.1 1.5 1.1 2.4V90c0 .9-.4 1.7-1.1 2.4-.9.7-2.2 1-4 1zm0-7.5H188v5.7h2.7c1 0 1.7-.2 2.2-.5.5-.3.7-.8.7-1.4v-1.9c0-.6-.2-1.1-.7-1.4-.5-.4-1.3-.5-2.2-.5zm12.9 2c.1 0 .3 0 .3.1s.1.2.1.3v1c0 .1 0 .3-.1.3-.1.1-.2.1-.3.1-.8 0-1.5.2-2.1.6-.6.3-1 .6-1.3.8v7.4c0 .1 0 .3-.1.3-.1.1-.2.1-.3.1h-1.3c-.1 0-.3 0-.3-.1-.1-.1-.1-.2-.1-.3v-10c0-.1 0-.3.1-.3.1-.1.2-.1.3-.1h1.2c.1 0 .2 0 .3.1.1.1.1.2.1.3l.1.9c.3-.3.7-.6 1.3-1s1.3-.5 2.1-.5zm2 8.3V91c0-.9.3-1.6 1-2.2s1.8-.8 3.4-.8c1.5 0 2.7.3 3.4.8s1 1.3 1 2.2v5.2c0 .9-.3 1.6-1 2.2-.7.6-1.8.8-3.4.8-1.5 0-2.7-.3-3.4-.8-.7-.6-1-1.3-1-2.2zm6.7-.2v-4.9c0-.5-.2-.8-.5-1.1-.4-.3-.9-.4-1.8-.4-.8 0-1.4.1-1.8.4-.4.3-.5.6-.5 1.1V96c0 .5.2.8.5 1.1.4.3.9.4 1.8.4.8 0 1.4-.1 1.8-.4.3-.3.5-.6.5-1.1zm7-11.9v2c0 .1 0 .3-.1.3s-.2.1-.3.1h-1.3c-.1 0-.2 0-.3-.1s-.1-.2-.1-.3v-2c0-.1 0-.3.1-.3s.2-.1.3-.1h1.3c.1 0 .2 0 .3.1s.1.1.1.3zm0 4.4v11.9c0 .9-.3 1.6-1 2.2s-1.8.8-3.3.8h-.2c-.1 0-.3 0-.3-.1-.1-.1-.1-.2-.1-.3v-.9c0-.1 0-.3.1-.3.1-.1.2-.1.3-.1h.2c.8 0 1.4-.1 1.7-.4s.5-.6.5-1.1V88.5c0-.1 0-.3.1-.3s.2-.1.3-.1h1.3c.1 0 .3 0 .3.1.1.1.1.2.1.3zm11.3 2.4v2.7c0 .1 0 .2-.1.3-.1.1-.2.1-.3.1h-6v2c0 .5.1.8.4 1.1.3.3.9.4 1.8.4s1.5-.1 1.8-.4c.3-.3.4-.6.4-1.1v-.2c0-.1 0-.3.1-.3.1-.1.2-.1.3-.1h1.1c.1 0 .3 0 .3.1.1.1.1.2.1.3v.4c0 .9-.3 1.6-.9 2.2-.6.6-1.7.8-3.3.8-1.6 0-2.6-.3-3.3-.8-.6-.6-.9-1.3-.9-2.2V91c0-.9.3-1.6 1-2.2.6-.6 1.7-.8 3.3-.8 1.5 0 2.6.3 3.2.8.6.5 1 1.2 1 2.1zm-6.4.2v1.4h4.4v-1.4c0-.4-.2-.8-.5-1.1-.3-.3-.9-.4-1.7-.4-.8 0-1.4.1-1.7.4-.3.3-.5.6-.5 1.1zm11.8-3h2.3c.1 0 .3 0 .3.1s.1.2.1.3v.9c0 .1 0 .3-.1.3s-.2.1-.3.1H236v5.9c0 .5.2.8.5 1.1s.9.4 1.7.4h.4c.1 0 .3 0 .3.1.1.1.1.2.1.3v.9c0 .1 0 .3-.1.3-.1.1-.2.1-.3.1h-.7c-1.5 0-2.6-.3-3.2-.8-.6-.5-.9-1.3-.9-2.2v-6.1h-1.2c-.1 0-.3 0-.3-.1-.1-.1-.1-.2-.1-.3v-.8c0-.1 0-.2.1-.3.1-.1.2-.1.3-.1l1.1-.1h.1v-2.2c0-.1 0-.3.1-.3.1-.1.2-.1.3-.1h1.3c.1 0 .2 0 .3.1s.1.2.1.3v2.2zm10.7 3v-.5c0-.4-.2-.7-.5-.9s-.9-.3-1.6-.3-1.2.1-1.5.3-.5.5-.5.9v.4c0 .3.1.5.3.7.2.2.4.3.6.3l3.3 1.1c.6.2 1.1.5 1.4.8.4.4.5.8.5 1.3v1.2c0 .7-.3 1.3-1 1.8s-1.7.8-3.2.8-2.5-.3-3.2-.8-1-1.2-1-1.8V96c0-.1 0-.2.1-.3.1-.1.2-.1.3-.1h1.2c.1 0 .2 0 .3.1.1.1.1.2.1.3v.5c0 .4.2.7.6.9.4.2.9.3 1.7.3.7 0 1.2-.1 1.6-.3.4-.2.6-.5.6-.9v-.6c0-.3-.1-.5-.3-.6-.2-.2-.5-.3-.9-.4l-3.3-1.1c-.4-.1-.8-.4-1.2-.8-.4-.4-.6-.9-.6-1.4v-.8c0-.7.3-1.3.9-1.9.6-.6 1.6-.8 3.1-.8s2.5.3 3.1.8c.6.6.9 1.2.9 1.9v.5c0 .1 0 .2-.1.3-.1.1-.2.1-.3.1H247c-.1 0-.2 0-.3-.1.1-.2 0-.3 0-.5z"/><path class="projets_heures_travaillees_svg__st10" d="M184 217.2h803.6v381H184z"/><path id="projets_heures_travaillees_svg__Vos-gains-ou-pertes" class="projets_heures_travaillees_svg__st2" d="m291.3 278.9 3.2 8.6 3.2-8.6h1.1l-3.8 9.9h-1l-3.8-9.9h1.1zm14.8 6.7c0 2-1.5 3.4-3.5 3.4s-3.5-1.5-3.5-3.4 1.5-3.4 3.5-3.4c2-.1 3.5 1.4 3.5 3.4zm-1.1 0c0-1.5-1-2.6-2.5-2.6s-2.5 1.2-2.5 2.6 1 2.6 2.5 2.6c1.6 0 2.5-1.1 2.5-2.6zm7.3-2.3-.7.5c-.3-.5-.9-.9-1.6-.9-.7 0-1.4.3-1.4 1 0 .6.5.9 1.6 1.1 1.5.3 2.3.9 2.3 1.9 0 1.5-1.3 2-2.5 2-1 0-2-.4-2.6-1.3l.8-.6c.3.6 1 1 1.8 1s1.5-.3 1.5-1.1c0-.7-.7-1-1.9-1.3-.8-.2-1.9-.5-1.9-1.8s1.1-1.9 2.3-1.9c.9.2 1.9.7 2.3 1.4zm5.2 7.6.7-.7c.5.7 1.5 1.2 2.5 1.2 1.9 0 2.6-1.2 2.6-2.6v-1.2c-.5.8-1.5 1.3-2.5 1.3-2 0-3.4-1.4-3.4-3.3s1.3-3.4 3.4-3.4c1 0 2 .5 2.5 1.3v-1.1h1v6.5c0 1.4-.7 3.4-3.6 3.4-1.3-.1-2.4-.6-3.2-1.4zm.8-5.4c0 1.4.9 2.5 2.5 2.5 1.5 0 2.5-1 2.5-2.5 0-1.4-1.1-2.6-2.5-2.6-1.6 0-2.5 1.2-2.5 2.6zm12.5-.7v-.2c0-1.1-.6-1.7-1.8-1.7-.8 0-1.5.3-1.9.8l-.5-.6c.5-.5 1.5-.9 2.6-.9 1.4 0 2.5.8 2.5 2.4v2.9c0 .5 0 1.1.1 1.5h-.9c-.1-.3-.1-.7-.1-1.1-.6.9-1.3 1.2-2.4 1.2-1 0-2.3-.5-2.3-2 .1-2.1 2.3-2.3 4.7-2.3zm0 .8h-.3c-1.6 0-3.4.2-3.4 1.4 0 .9.8 1.2 1.5 1.2 1.3 0 2.1-1 2.1-2.2v-.4zm4.3-3.3v6.6h-1v-6.6h1zm.2-2.5c0 .4-.3.7-.7.7s-.7-.3-.7-.7.3-.7.7-.7.7.3.7.7zm2.3 2.5h.9c0 .4.1.8.1 1.1.4-.8 1.3-1.3 2.2-1.3 1.7 0 2.5 1.1 2.5 2.7v4h-1v-3.6c0-1.4-.4-2.3-1.8-2.3-1 0-2 .8-2 2.6v3.4h-1v-5.1c.1-.4.1-1 .1-1.5zm12.4 1-.7.5c-.3-.5-.9-.9-1.6-.9-.7 0-1.4.3-1.4 1 0 .6.5.9 1.6 1.1 1.5.3 2.3.9 2.3 1.9 0 1.5-1.3 2-2.5 2-1 0-2-.4-2.6-1.3l.8-.6c.3.6 1.1 1 1.8 1 .8 0 1.5-.3 1.5-1.1 0-.7-.7-1-1.9-1.3-.8-.2-1.9-.5-1.9-1.8s1.1-1.9 2.3-1.9c.9.2 1.9.7 2.3 1.4zm12 2.3c0 2-1.5 3.4-3.5 3.4s-3.5-1.5-3.5-3.4 1.5-3.4 3.5-3.4c2-.1 3.5 1.4 3.5 3.4zm-1 0c0-1.5-1-2.6-2.5-2.6s-2.5 1.2-2.5 2.6 1 2.6 2.5 2.6 2.5-1.1 2.5-2.6zm8.7 3.3h-.9c0-.4-.1-.8-.1-1.1-.4.8-1.3 1.3-2.2 1.3-1.7 0-2.5-1.1-2.5-2.7v-4h1v3.6c0 1.4.4 2.3 1.8 2.3 1 0 2-.8 2-2.6v-3.4h1v5.1c-.1.4-.1 1-.1 1.5zm6.9-1.1v4.5h-1v-9.9h1v1.1c.5-.9 1.5-1.3 2.5-1.3 2 0 3.4 1.5 3.4 3.4s-1.3 3.4-3.4 3.4c-.9 0-1.9-.4-2.5-1.2zm4.9-2.2c0-1.5-.9-2.6-2.5-2.6-1.5 0-2.5 1.1-2.5 2.6s1.1 2.6 2.5 2.6c1.6 0 2.5-1.2 2.5-2.6zm3.6-.5h4.5c-.1-1.2-.8-2.1-2.2-2.1-1.3-.1-2.2 1-2.3 2.1zm5.4.3v.4h-5.4c0 1.3 1 2.4 2.4 2.4 1 0 1.7-.5 2.1-1.1l.7.6c-.8 1-1.7 1.4-2.8 1.4-1.9 0-3.4-1.5-3.4-3.4s1.4-3.4 3.3-3.4c2.1-.2 3.1 1.3 3.1 3.1zm2.1-1.6c0-.4 0-1-.1-1.4h.9c0 .4.1.8.1 1.1.4-.8 1.2-1.3 2.1-1.3.2 0 .4 0 .6.1l-.1.9c-.1 0-.4-.1-.7-.1-1 0-1.9.7-1.9 2.5v3.4h-1v-5.2zm7.8-1.5v.8h-1.8v3.8c0 1 .4 1.2 1 1.2.3 0 .6-.1.8-.2v.8c-.3.1-.7.2-1.1.2-.7 0-1.7-.3-1.7-1.8V283h-1.4v-.8h1.4v-1.8h1v1.8h1.8zm2 2.8h4.5c-.1-1.2-.8-2.1-2.2-2.1-1.3-.1-2.2 1-2.3 2.1zm5.5.3v.4h-5.4c0 1.3 1 2.4 2.4 2.4 1 0 1.7-.5 2.1-1.1l.7.6c-.8 1-1.7 1.4-2.8 1.4-1.9 0-3.4-1.5-3.4-3.4s1.4-3.4 3.3-3.4c2-.2 3.1 1.3 3.1 3.1zm6.2-2.1-.7.5c-.3-.5-.9-.9-1.6-.9-.7 0-1.4.3-1.4 1 0 .6.5.9 1.6 1.1 1.5.3 2.3.9 2.3 1.9 0 1.5-1.3 2-2.5 2-1 0-2-.4-2.6-1.3l.8-.6c.3.6 1 1 1.8 1s1.5-.3 1.5-1.1c0-.7-.7-1-1.9-1.3-.8-.2-1.9-.5-1.9-1.8s1.1-1.9 2.3-1.9c.9.2 1.9.7 2.3 1.4zm6.5 4.5v4.5h-1v-9.9h1v1.1c.5-.9 1.5-1.3 2.5-1.3 2 0 3.4 1.5 3.4 3.4s-1.3 3.4-3.4 3.4c-1 0-1.9-.4-2.5-1.2zm4.8-2.2c0-1.5-.9-2.6-2.5-2.6-1.5 0-2.5 1.1-2.5 2.6s1.1 2.6 2.5 2.6c1.7 0 2.5-1.2 2.5-2.6zm9.6 0c0 2-1.5 3.4-3.5 3.4s-3.5-1.5-3.5-3.4 1.5-3.4 3.5-3.4c2.1-.1 3.5 1.4 3.5 3.4zm-1 0c0-1.5-1-2.6-2.5-2.6s-2.5 1.2-2.5 2.6 1 2.6 2.5 2.6 2.5-1.1 2.5-2.6zm8.7 3.3h-.9c0-.4-.1-.8-.1-1.1-.4.8-1.3 1.3-2.2 1.3-1.7 0-2.5-1.1-2.5-2.7v-4h1v3.6c0 1.4.4 2.3 1.8 2.3 1 0 2-.8 2-2.6v-3.4h1v5.1c-.1.4-.1 1-.1 1.5zm2.5-5.1c0-.4 0-1-.1-1.4h.9c0 .4.1.8.1 1.1.4-.8 1.2-1.3 2.1-1.3.2 0 .4 0 .6.1l-.1.9c-.1 0-.4-.1-.7-.1-1 0-1.9.7-1.9 2.5v3.4h-1v-5.2zm14-.5-.7.5c-.3-.5-1-.9-1.7-.9-1.5 0-2.5 1.1-2.5 2.6s1 2.6 2.5 2.6c.8 0 1.4-.4 1.8-.9l.7.5c-.6.7-1.4 1.1-2.5 1.1-2.1 0-3.5-1.5-3.5-3.4s1.4-3.4 3.5-3.4c.8.1 1.8.5 2.4 1.3zm2.1 1.8h4.5c-.1-1.2-.8-2.1-2.2-2.1-1.3-.1-2.3 1-2.3 2.1zm5.4.3v.4h-5.4c0 1.3 1.1 2.4 2.4 2.4 1 0 1.7-.5 2.1-1.1l.7.6c-.8 1-1.7 1.4-2.8 1.4-1.9 0-3.4-1.5-3.4-3.4s1.4-3.4 3.3-3.4c2-.2 3.1 1.3 3.1 3.1zm6.5 2.4v4.5h-1v-9.9h1v1.1c.5-.9 1.5-1.3 2.5-1.3 2 0 3.4 1.5 3.4 3.4s-1.3 3.4-3.4 3.4c-.9 0-1.9-.4-2.5-1.2zm4.9-2.2c0-1.5-.9-2.6-2.5-2.6-1.5 0-2.5 1.1-2.5 2.6s1 2.6 2.5 2.6c1.6 0 2.5-1.2 2.5-2.6zm3-1.8c0-.4 0-1-.1-1.4h.9c0 .4.1.8.1 1.1.4-.8 1.2-1.3 2.1-1.3.2 0 .4 0 .6.1l-.1.9c-.1 0-.4-.1-.7-.1-1 0-1.9.7-1.9 2.5v3.4h-1v-5.2zm11.3 1.8c0 2-1.5 3.4-3.5 3.4s-3.5-1.5-3.5-3.4 1.5-3.4 3.5-3.4c2.1-.1 3.5 1.4 3.5 3.4zm-1 0c0-1.5-1-2.6-2.5-2.6s-2.5 1.2-2.5 2.6 1 2.6 2.5 2.6c1.6 0 2.5-1.1 2.5-2.6zm1.4 6.5.1-.8c.2.1.4.1.6.1.8 0 .9-.6.9-1.4v-7.7h1v7.9c0 1-.4 2.1-1.9 2.1-.1-.1-.4-.1-.7-.2zm2.8-12.3c0 .4-.3.7-.7.7s-.7-.3-.7-.7.3-.7.7-.7.7.3.7.7zm2.9 5.3h4.5c-.1-1.2-.8-2.1-2.2-2.1-1.3-.1-2.2 1-2.3 2.1zm5.4.3v.4h-5.4c0 1.3 1.1 2.4 2.4 2.4 1 0 1.7-.5 2.1-1.1l.7.6c-.8 1-1.7 1.4-2.8 1.4-1.9 0-3.4-1.5-3.4-3.4s1.4-3.4 3.3-3.4c2.1-.2 3.1 1.3 3.1 3.1zm5-3.1v.8h-1.8v3.8c0 1 .4 1.2 1 1.2.3 0 .6-.1.8-.2v.8c-.3.1-.7.2-1.1.2-.7 0-1.7-.3-1.7-1.8V283h-1.4v-.8h1.4v-1.8h1v1.8h1.8z"/><g class="projets_heures_travaillees_svg__st11"><path class="projets_heures_travaillees_svg__st2" d="M291.8 264.6H290v-12.7h4.1c2.5 0 4.5.9 4.5 3.5 0 1.9-1.3 3.1-3.1 3.4l3.6 5.9H297l-3.2-5.7h-1.9v5.6zm0-7.2h2.1c1.7 0 3-.5 3-2.1s-1.3-2-2.9-2h-2.2v4.1zm16.9 3.4H302c.1 1.5 1.3 2.6 2.8 2.6 1.2 0 2-.6 2.5-1.3l1.2 1c-.9 1.2-2.2 1.7-3.7 1.7-2.6 0-4.5-1.8-4.5-4.5s1.9-4.5 4.4-4.5c2.5 0 4.1 1.7 4.1 4.4 0 .3 0 .4-.1.6zm-1.7-1.2c0-1.4-.8-2.4-2.4-2.4-1.5 0-2.6 1.1-2.7 2.4h5.1zm5.6-3.5c0 .4.1 1 .1 1.4h.1c.4-.9 1.5-1.6 2.8-1.6 2.2 0 3.2 1.6 3.2 3.5v5.3H317V260c0-1.4-.4-2.6-1.9-2.6-1.3 0-2.3 1.1-2.3 2.8v4.5h-1.7V258c0-.5 0-1.3-.1-1.8h1.6zm13.2 1.4h-2.3v4.4c0 1 .4 1.4 1.2 1.4.3 0 .7-.1 1-.2l.1 1.4c-.4.1-.9.2-1.4.2-1.6 0-2.5-.9-2.5-2.7v-4.6h-1.6V256h1.6v-2.4h1.7v2.4h2.3v1.5zm7 1.6c0-1.3-.8-1.9-2.1-1.9-1 0-1.9.4-2.4 1l-.9-1.1c.8-.8 2.1-1.3 3.5-1.3 2.4 0 3.6 1.5 3.6 3.3v3.7c0 .6 0 1.3.1 1.7H333c-.1-.4-.1-.8-.1-1.2h-.1c-.6.9-1.6 1.4-2.9 1.4-1.4 0-3.1-.7-3.1-2.6 0-2.6 3.1-2.9 5.9-2.9v-.1zm-.4 1.4c-1.7 0-3.8.2-3.8 1.6 0 1 .9 1.3 1.7 1.3 1.6 0 2.5-1.1 2.5-2.5v-.5h-.4zm6.5 2.8v1.4h-1.6V251h1.7v6.4h.1c.6-.8 1.6-1.5 3-1.5 2.5 0 4.3 2 4.3 4.5s-1.7 4.5-4.3 4.5c-1.3-.1-2.5-.6-3.2-1.6zm2.9-6.1c-1.7 0-2.9 1.5-2.9 3.1s1.2 3.1 2.9 3.1c1.9 0 2.8-1.5 2.8-3.1s-1-3.1-2.8-3.1zm7.8-3.1c-.6 0-1.1-.5-1.1-1.1 0-.6.5-1.1 1.1-1.1s1.1.5 1.1 1.1c0 .6-.5 1.1-1.1 1.1zm.8 10.5h-1.7v-8.5h1.7v8.5zm4.7 0h-1.7V251h1.7v13.6zm3.8-10.5c-.6 0-1.1-.5-1.1-1.1 0-.6.5-1.1 1.1-1.1s1.1.5 1.1 1.1c0 .6-.5 1.1-1.1 1.1zm.9 10.5h-1.7v-8.5h1.7v8.5zm7.1-7.1h-2.3v4.4c0 1 .4 1.4 1.2 1.4.3 0 .7-.1 1-.2l.1 1.4c-.4.1-.9.2-1.4.2-1.6 0-2.5-.9-2.5-2.7v-4.6h-1.6V256h1.6v-2.4h1.7v2.4h2.3v1.5zm9.7 3.3h-6.8c.1 1.5 1.3 2.6 2.8 2.6 1.2 0 2-.6 2.5-1.3l1.2 1c-.9 1.2-2.2 1.7-3.7 1.7-2.6 0-4.5-1.8-4.5-4.5s1.9-4.5 4.4-4.5c2.5 0 4.1 1.7 4.1 4.4v.6zm-1.7-1.2c0-1.4-.8-2.4-2.4-2.4-1.5 0-2.6 1.1-2.7 2.4h5.1zm-1.9-5.1h-1.4l1.8-2.6h2l-2.4 2.6zm14.2 10.3c-2.6 0-4.3-2-4.3-4.5s1.7-4.5 4.3-4.5c1.4 0 2.4.7 3 1.5V251h1.7v13.6h-1.6v-1.4c-.7 1.1-1.9 1.6-3.1 1.6zm.3-1.4c1.7 0 2.9-1.4 2.9-3.1s-1.2-3.1-2.9-3.1c-1.9 0-2.8 1.5-2.8 3.1s.9 3.1 2.8 3.1zm13.4 1.2c0-.4-.1-1-.1-1.4-.4.9-1.5 1.6-2.8 1.6-2.2 0-3.2-1.6-3.2-3.5V256h1.7v4.7c0 1.4.4 2.6 1.9 2.6 1.4 0 2.3-1.1 2.3-2.8V256h1.7v6.7c0 .5 0 1.3.1 1.8h-1.6zm10.6 4.3h-1.7V256h1.7v1.3h.1c.6-.9 1.7-1.6 3.1-1.6 2.5 0 4.3 2 4.3 4.5s-1.7 4.5-4.3 4.5c-1.2 0-2.4-.6-3-1.5h-.1v5.7zm2.8-11.7c-1.7 0-2.9 1.5-2.9 3.1s1.2 3.1 2.9 3.1c1.9 0 2.8-1.5 2.8-3.1s-.9-3.1-2.8-3.1zm6.9-1.1h1.6c0 .4.1 1.1.1 1.4h.1c.5-1 1.5-1.7 2.6-1.7.2 0 .5 0 .7.1l-.1 1.6c-.2-.1-.5-.1-.8-.1-1.6 0-2.4 1.3-2.4 2.7v4.5h-1.7v-6.7c0-.4-.1-1.3-.1-1.8zm10.3 8.7c-2.6 0-4.6-1.9-4.6-4.5s2-4.5 4.6-4.5 4.6 1.9 4.6 4.5-2 4.5-4.6 4.5zm0-7.6c-1.8 0-2.8 1.5-2.8 3.1s1 3.1 2.8 3.1c1.8 0 2.8-1.5 2.8-3.1s-1-3.1-2.8-3.1zm5.1 10.2c.2.1.5.1.7.1 1 0 1.2-.8 1.2-1.8v-9.6h1.7v9.6c0 1.7-.5 3.2-2.8 3.2-.3 0-.7-.1-1-.1l.2-1.4zm2.7-13.3c-.6 0-1.1-.5-1.1-1.1 0-.6.5-1.1 1.1-1.1.6 0 1.1.5 1.1 1.1.1.6-.5 1.1-1.1 1.1zm11.8 6.7h-6.8c.1 1.5 1.3 2.6 2.8 2.6 1.2 0 2-.6 2.5-1.3l1.2 1c-.9 1.2-2.2 1.7-3.7 1.7-2.6 0-4.5-1.8-4.5-4.5s1.9-4.5 4.4-4.5c2.5 0 4.1 1.7 4.1 4.4v.6zm-1.7-1.2c0-1.4-.8-2.4-2.4-2.4-1.5 0-2.6 1.1-2.7 2.4h5.1zm8.2-2.1h-2.3v4.4c0 1 .4 1.4 1.2 1.4.3 0 .7-.1 1-.2l.1 1.4c-.4.1-.9.2-1.4.2-1.6 0-2.5-.9-2.5-2.7v-4.6H452V256h1.6v-2.4h1.7v2.4h2.3v1.5z"/></g><path id="projets_heures_travaillees_svg__Divider" class="projets_heures_travaillees_svg__st12" d="M204 310.1h771.5"/><path id="projets_heures_travaillees_svg__Toutes-les-heures-tr" class="projets_heures_travaillees_svg__st2" d="M294.6 360.5v9h-1v-9h-3.3v-.9h7.6v.9h-3.3zm10 5.8c0 2-1.5 3.4-3.5 3.4s-3.5-1.5-3.5-3.4 1.5-3.4 3.5-3.4c2-.1 3.5 1.4 3.5 3.4zm-1 0c0-1.5-1-2.6-2.5-2.6s-2.5 1.2-2.5 2.6 1 2.6 2.5 2.6 2.5-1.2 2.5-2.6zm8.7 3.2h-.9c0-.4-.1-.8-.1-1.1-.4.8-1.3 1.3-2.2 1.3-1.7 0-2.5-1.1-2.5-2.7v-4h1v3.6c0 1.4.4 2.3 1.8 2.3 1 0 2-.8 2-2.6V363h1v5.1c-.2.3-.2 1-.1 1.4zm5.4-6.5v.8h-1.8v3.8c0 1 .4 1.2 1 1.2.3 0 .6-.1.8-.2v.8c-.3.1-.7.2-1.1.2-.7 0-1.7-.3-1.7-1.8v-4.1h-1.4v-.7h1.4v-1.8h1v1.8h1.8zm2 2.8h4.5c-.1-1.2-.8-2.1-2.2-2.1-1.3-.1-2.2.9-2.3 2.1zm5.4.3v.4h-5.4c0 1.3 1 2.4 2.4 2.4 1 0 1.7-.5 2.1-1.1l.7.6c-.8 1-1.7 1.4-2.8 1.4-1.9 0-3.4-1.5-3.4-3.4s1.4-3.4 3.3-3.4c2.1-.2 3.1 1.3 3.1 3.1zm6.3-2.1-.7.5c-.3-.5-.9-.9-1.6-.9-.7 0-1.4.3-1.4 1 0 .6.5.9 1.6 1.1 1.5.3 2.3.9 2.3 1.9 0 1.5-1.3 2-2.5 2-1 0-2-.4-2.6-1.3l.8-.6c.3.6 1.1 1 1.8 1 .8 0 1.5-.3 1.5-1.1 0-.7-.7-1-1.9-1.3-.8-.2-1.9-.5-1.9-1.8s1.1-1.9 2.3-1.9c.9.2 1.9.7 2.3 1.4zm6.5-5v10.6h-1V359h1zm3.1 6.8h4.5c-.1-1.2-.8-2.1-2.2-2.1-1.3-.1-2.3.9-2.3 2.1zm5.4.3v.4H341c0 1.3 1 2.4 2.4 2.4 1 0 1.7-.5 2.1-1.1l.7.6c-.8 1-1.7 1.4-2.8 1.4-1.9 0-3.4-1.5-3.4-3.4s1.4-3.4 3.3-3.4c2-.2 3.1 1.3 3.1 3.1zm6.2-2.1-.7.5c-.3-.5-.9-.9-1.6-.9-.7 0-1.4.3-1.4 1 0 .6.5.9 1.6 1.1 1.5.3 2.3.9 2.3 1.9 0 1.5-1.3 2-2.5 2-1 0-2-.4-2.6-1.3l.8-.6c.3.6 1 1 1.8 1s1.5-.3 1.5-1.1c0-.7-.7-1-1.9-1.3-.8-.2-1.9-.5-1.9-1.8s1.1-1.9 2.3-1.9c1 .2 1.9.7 2.3 1.4zm6.5.1c.4-.8 1.3-1.2 2.2-1.2 1.7 0 2.5 1.1 2.5 2.7v4h-1V366c0-1.4-.4-2.3-1.8-2.3-1 0-2 .8-2 2.6v3.4h-1V359h1v5.1zm7.7 1.7h4.5c-.1-1.2-.8-2.1-2.2-2.1-1.2-.1-2.2.9-2.3 2.1zm5.5.3v.4h-5.4c0 1.3 1.1 2.4 2.4 2.4 1 0 1.7-.5 2.1-1.1l.7.6c-.8 1-1.7 1.4-2.8 1.4-1.9 0-3.4-1.5-3.4-3.4s1.4-3.4 3.3-3.4c2-.2 3.1 1.3 3.1 3.1zm7.7 3.4h-.9c0-.4-.1-.8-.1-1.1-.4.8-1.3 1.3-2.2 1.3-1.7 0-2.5-1.1-2.5-2.7v-4h1v3.6c0 1.4.4 2.3 1.8 2.3 1 0 2-.8 2-2.6V363h1v5.1c-.2.3-.2 1-.1 1.4zm2.5-5.1c0-.4 0-1-.1-1.4h.9c0 .3.1.8.1 1.1.4-.8 1.2-1.3 2.1-1.3.2 0 .4 0 .6.1l-.1.9c-.1 0-.4-.1-.7-.1-1 0-1.9.7-1.9 2.5v3.4h-1v-5.2zm5.3 1.4h4.5c-.1-1.2-.8-2.1-2.2-2.1-1.3-.1-2.2.9-2.3 2.1zm5.4.3v.4h-5.4c0 1.3 1.1 2.4 2.4 2.4 1 0 1.7-.5 2.1-1.1l.7.6c-.8 1-1.7 1.4-2.8 1.4-1.9 0-3.4-1.5-3.4-3.4s1.4-3.4 3.3-3.4c2-.2 3.1 1.3 3.1 3.1zm6.3-2.1-.7.5c-.3-.5-.9-.9-1.6-.9-.7 0-1.4.3-1.4 1 0 .6.5.9 1.6 1.1 1.5.3 2.3.9 2.3 1.9 0 1.5-1.3 2-2.5 2-1 0-2-.4-2.6-1.3l.8-.6c.3.6 1 1 1.8 1s1.5-.3 1.5-1.1c0-.7-.7-1-1.9-1.3-.8-.2-1.9-.5-1.9-1.8s1.1-1.9 2.3-1.9c.9.2 1.8.7 2.3 1.4zm8.4-1v.8h-1.8v3.8c0 1 .4 1.2 1 1.2.3 0 .6-.1.8-.2v.8c-.3.1-.7.2-1.1.2-.7 0-1.7-.3-1.7-1.8v-4.1h-1.4v-.7h1.4v-1.8h1v1.8h1.8zm1.5 1.4c0-.4 0-1-.1-1.4h.9c0 .3.1.8.1 1.1.4-.8 1.2-1.3 2.1-1.3.2 0 .4 0 .6.1l-.1.9c-.1 0-.4-.1-.7-.1-1 0-1.9.7-1.9 2.5v3.4h-1v-5.2zm9 1.1v-.2c0-1.1-.6-1.7-1.8-1.7-.8 0-1.5.3-1.9.8l-.5-.6c.5-.5 1.5-.9 2.6-.9 1.4 0 2.5.8 2.5 2.4v2.9c0 .5 0 1.1.1 1.5h-.9c-.1-.3-.1-.7-.1-1.1-.6.9-1.3 1.2-2.4 1.2-1 0-2.3-.5-2.3-2 .1-2.1 2.3-2.3 4.7-2.3zm0 .8h-.3c-1.6 0-3.4.2-3.4 1.4 0 .9.8 1.2 1.5 1.2 1.3 0 2.1-1 2.1-2.2v-.4zm8.7-3.3-2.7 6.6h-1l-2.7-6.6h1.1l2.1 5.5 2.1-5.5h1.1zm5.6 2.5v-.2c0-1.1-.6-1.7-1.8-1.7-.8 0-1.5.3-1.9.8l-.5-.6c.5-.5 1.5-.9 2.6-.9 1.4 0 2.5.8 2.5 2.4v2.9c0 .5 0 1.1.1 1.5h-.9c-.1-.3-.1-.7-.1-1.1-.6.9-1.3 1.2-2.4 1.2-1 0-2.3-.5-2.3-2 .1-2.1 2.3-2.3 4.7-2.3zm0 .8h-.3c-1.6 0-3.4.2-3.4 1.4 0 .9.8 1.2 1.5 1.2 1.3 0 2.1-1 2.1-2.2v-.4zm4.3-3.3v6.6h-1V363h1zm.2-2.5c0 .4-.3.7-.7.7s-.7-.3-.7-.7.3-.7.7-.7.7.3.7.7zm3.3-1.5v10.6h-1V359h1zm3.6 0v10.6h-1V359h1zm3 6.8h4.5c-.1-1.2-.8-2.1-2.2-2.1-1.2-.1-2.2.9-2.3 2.1zm5.5.3v.4h-5.4c0 1.3 1 2.4 2.4 2.4 1 0 1.7-.5 2.1-1.1l.7.6c-.8 1-1.7 1.4-2.8 1.4-1.9 0-3.4-1.5-3.4-3.4s1.4-3.4 3.3-3.4c2-.2 3.1 1.3 3.1 3.1zm-1.1-6.5-1.8 2h-.8l1.4-2h1.2zm3.7 6.2h4.5c-.1-1.2-.8-2.1-2.2-2.1-1.3-.1-2.3.9-2.3 2.1zm5.4.3v.4h-5.4c0 1.3 1 2.4 2.4 2.4 1 0 1.7-.5 2.1-1.1l.7.6c-.8 1-1.7 1.4-2.8 1.4-1.9 0-3.4-1.5-3.4-3.4s1.4-3.4 3.3-3.4c2-.2 3.1 1.3 3.1 3.1zm6.2-2.1-.7.5c-.3-.5-.9-.9-1.6-.9-.7 0-1.4.3-1.4 1 0 .6.5.9 1.6 1.1 1.5.3 2.3.9 2.3 1.9 0 1.5-1.3 2-2.5 2-1 0-2-.4-2.6-1.3l.8-.6c.3.6 1.1 1 1.8 1 .8 0 1.5-.3 1.5-1.1 0-.7-.7-1-1.9-1.3-.8-.2-1.9-.5-1.9-1.8s1.1-1.9 2.3-1.9c1 .2 1.9.7 2.3 1.4zm11 4.4c-.6.8-1.6 1.3-2.5 1.3-2 0-3.4-1.5-3.4-3.4s1.3-3.4 3.4-3.4c.9 0 1.9.4 2.5 1.3V363h1v9.9h-1v-4.5zm-4.9-2.1c0 1.5.9 2.6 2.5 2.6 1.5 0 2.5-1.1 2.5-2.6s-1.1-2.6-2.5-2.6c-1.6-.1-2.5 1.1-2.5 2.6zm14 3.2h-.9c0-.4-.1-.8-.1-1.1-.4.8-1.3 1.3-2.2 1.3-1.7 0-2.5-1.1-2.5-2.7v-4h1v3.6c0 1.4.4 2.3 1.8 2.3 1 0 2-.8 2-2.6V363h1v5.1c-.1.3-.1 1-.1 1.4zm3-3.7h4.5c-.1-1.2-.8-2.1-2.2-2.1-1.3-.1-2.2.9-2.3 2.1zm5.4.3v.4h-5.4c0 1.3 1 2.4 2.4 2.4 1 0 1.7-.5 2.1-1.1l.7.6c-.8 1-1.7 1.4-2.8 1.4-1.9 0-3.4-1.5-3.4-3.4s1.4-3.4 3.3-3.4c2.1-.2 3.1 1.3 3.1 3.1zm10.9-3.1-2.7 6.6h-1l-2.7-6.6h1.1l2.1 5.5 2.1-5.5h1.1zm8 3.3c0 2-1.5 3.4-3.5 3.4s-3.5-1.5-3.5-3.4 1.5-3.4 3.5-3.4c2.1-.1 3.5 1.4 3.5 3.4zm-1 0c0-1.5-1-2.6-2.5-2.6s-2.5 1.2-2.5 2.6 1 2.6 2.5 2.6 2.5-1.2 2.5-2.6zm8.7 3.2h-.9c0-.4-.1-.8-.1-1.1-.4.8-1.3 1.3-2.2 1.3-1.7 0-2.5-1.1-2.5-2.7v-4h1v3.6c0 1.4.4 2.3 1.8 2.3 1 0 2-.8 2-2.6V363h1v5.1c-.1.3-.1 1-.1 1.4zm6.7-5.5-.7.5c-.3-.5-.9-.9-1.6-.9-.7 0-1.4.3-1.4 1 0 .6.5.9 1.6 1.1 1.5.3 2.3.9 2.3 1.9 0 1.5-1.3 2-2.5 2-1 0-2-.4-2.6-1.3l.8-.6c.3.6 1 1 1.8 1s1.5-.3 1.5-1.1c0-.7-.7-1-1.9-1.3-.8-.2-1.9-.5-1.9-1.8s1.1-1.9 2.3-1.9c.9.2 1.9.7 2.3 1.4zm5.5-1h.9c0 .3.1.8.1 1.1.4-.8 1.3-1.3 2.2-1.3 1.7 0 2.5 1.1 2.5 2.7v4h-1v-3.6c0-1.4-.4-2.3-1.8-2.3-1 0-2 .8-2 2.6v3.4h-1v-5.1c.1-.4.1-1.1.1-1.5zm8.7 2.8h4.5c-.1-1.2-.8-2.1-2.2-2.1-1.3-.1-2.2.9-2.3 2.1zm5.4.3v.4h-5.4c0 1.3 1.1 2.4 2.4 2.4 1 0 1.7-.5 2.1-1.1l.7.6c-.8 1-1.7 1.4-2.8 1.4-1.9 0-3.4-1.5-3.4-3.4s1.4-3.4 3.3-3.4c2-.2 3.1 1.3 3.1 3.1zm11-2.1-.7.5c-.3-.5-1-.9-1.7-.9-1.5 0-2.5 1.1-2.5 2.6s1 2.6 2.5 2.6c.8 0 1.4-.4 1.8-.9l.7.5c-.6.7-1.4 1.1-2.5 1.1-2.1 0-3.5-1.5-3.5-3.4s1.4-3.4 3.5-3.4c.9.1 1.9.5 2.4 1.3zm8.1 2.3c0 2-1.5 3.4-3.5 3.4s-3.5-1.5-3.5-3.4 1.5-3.4 3.5-3.4c2-.1 3.5 1.4 3.5 3.4zm-1 0c0-1.5-1-2.6-2.5-2.6s-2.5 1.2-2.5 2.6 1 2.6 2.5 2.6 2.5-1.2 2.5-2.6zm4-2.2c.4-.8 1.2-1.3 2.2-1.3.7 0 1.6.3 2 1.4.4-.9 1.2-1.4 2.3-1.4 1.7 0 2.5 1.1 2.5 2.7v4h-1v-3.6c0-1.4-.5-2.3-1.7-2.3-1.4 0-1.9 1.2-1.9 2.4v3.5h-1v-3.8c0-1.3-.3-2.1-1.6-2.1-.9 0-1.9.8-1.9 2.6v3.4h-1v-5.1c0-.4 0-1-.1-1.4h.9c.2.2.2.7.3 1zm12.3 4.3v4.5h-1V363h1v1.1c.5-.9 1.5-1.3 2.5-1.3 2 0 3.4 1.5 3.4 3.4s-1.3 3.4-3.4 3.4c-.9.1-1.9-.4-2.5-1.2zm4.9-2.1c0-1.5-.9-2.6-2.5-2.6-1.5 0-2.5 1.1-2.5 2.6s1 2.6 2.5 2.6c1.6 0 2.5-1.2 2.5-2.6zm6-3.3v.8h-1.8v3.8c0 1 .4 1.2 1 1.2.3 0 .6-.1.8-.2v.8c-.3.1-.7.2-1.1.2-.7 0-1.7-.3-1.7-1.8v-4.1h-1.4v-.7h1.4v-1.8h1v1.8h1.8zm2 2.8h4.5c-.1-1.2-.8-2.1-2.2-2.1-1.2-.1-2.2.9-2.3 2.1zm5.5.3v.4h-5.4c0 1.3 1 2.4 2.4 2.4 1 0 1.7-.5 2.1-1.1l.7.6c-.8 1-1.7 1.4-2.8 1.4-1.9 0-3.4-1.5-3.4-3.4s1.4-3.4 3.3-3.4c2-.2 3.1 1.3 3.1 3.1zm6.4-3.1v.7l-3.9 5.1h4.1v.8h-5.3v-.7l3.9-5.1h-3.7v-.8h4.9zm6.3 5.4v4.5h-1V363h1v1.1c.5-.9 1.5-1.3 2.5-1.3 2 0 3.4 1.5 3.4 3.4s-1.3 3.4-3.4 3.4c-1 .1-2-.4-2.5-1.2zm4.8-2.1c0-1.5-.9-2.6-2.5-2.6-1.5 0-2.5 1.1-2.5 2.6s1.1 2.6 2.5 2.6c1.6 0 2.5-1.2 2.5-2.6zm7.2-.8v-.2c0-1.1-.6-1.7-1.8-1.7-.8 0-1.5.3-1.9.8l-.5-.6c.5-.5 1.5-.9 2.6-.9 1.4 0 2.5.8 2.5 2.4v2.9c0 .5 0 1.1.1 1.5h-.9c-.1-.3-.1-.7-.1-1.1-.6.9-1.3 1.2-2.4 1.2-1 0-2.3-.5-2.3-2 .1-2.1 2.3-2.3 4.7-2.3zm0 .8h-.3c-1.6 0-3.4.2-3.4 1.4 0 .9.8 1.2 1.5 1.2 1.3 0 2.1-1 2.1-2.2v-.4zm7.6-2.3-.7.5c-.3-.5-.9-.9-1.6-.9-.7 0-1.4.3-1.4 1 0 .6.5.9 1.6 1.1 1.5.3 2.3.9 2.3 1.9 0 1.5-1.3 2-2.5 2-1 0-2-.4-2.6-1.3l.8-.6c.3.6 1 1 1.8 1s1.5-.3 1.5-1.1c0-.7-.7-1-1.9-1.3-.8-.2-1.9-.5-1.9-1.8s1.1-1.9 2.3-1.9c.9.2 1.9.7 2.3 1.4zm8.3-1v.8H640v5.8h-1v-5.8h-1.4v-.8h1.4v-1.8c0-1.5.7-2.4 2.2-2.4.2 0 .5 0 .8.1l-.2.8c-.2-.1-.4-.1-.7-.1-1 0-1.2.7-1.2 1.7v1.7h1.7zm5.4 2.5v-.2c0-1.1-.6-1.7-1.8-1.7-.8 0-1.5.3-1.9.8l-.5-.6c.5-.5 1.5-.9 2.6-.9 1.4 0 2.5.8 2.5 2.4v2.9c0 .5 0 1.1.1 1.5h-.9c-.1-.3-.1-.7-.1-1.1-.6.9-1.3 1.2-2.4 1.2-1 0-2.3-.5-2.3-2 .1-2.1 2.3-2.3 4.7-2.3zm0 .8h-.3c-1.6 0-3.4.2-3.4 1.4 0 .9.8 1.2 1.5 1.2 1.3 0 2.1-1 2.1-2.2v-.4zm8.8-2.3-.7.5c-.3-.5-1-.9-1.7-.9-1.5 0-2.5 1.1-2.5 2.6s1 2.6 2.5 2.6c.8 0 1.4-.4 1.8-.9l.7.5c-.6.7-1.4 1.1-2.5 1.1-2.1 0-3.5-1.5-3.5-3.4s1.4-3.4 3.5-3.4c.9.1 1.9.5 2.4 1.3zm4.5-1v.8h-1.8v3.8c0 1 .4 1.2 1 1.2.3 0 .6-.1.8-.2v.8c-.3.1-.7.2-1.1.2-.7 0-1.7-.3-1.7-1.8v-4.1h-1.4v-.7h1.4v-1.8h1v1.8h1.8zm7.2 6.5h-.9c0-.4-.1-.8-.1-1.1-.4.8-1.3 1.3-2.2 1.3-1.7 0-2.5-1.1-2.5-2.7v-4h1v3.6c0 1.4.4 2.3 1.8 2.3 1 0 2-.8 2-2.6V363h1v5.1c-.2.3-.1 1-.1 1.4zm2.5-5.1c0-.4 0-1-.1-1.4h.9c0 .3.1.8.1 1.1.4-.8 1.2-1.3 2.1-1.3.2 0 .4 0 .6.1l-.1.9c-.1 0-.4-.1-.7-.1-1 0-1.9.7-1.9 2.5v3.4h-1v-5.2zm5.3 1.4h4.5c-.1-1.2-.8-2.1-2.2-2.1-1.3-.1-2.2.9-2.3 2.1zm5.4.3v.4h-5.4c0 1.3 1 2.4 2.4 2.4 1 0 1.7-.5 2.1-1.1l.7.6c-.8 1-1.7 1.4-2.8 1.4-1.9 0-3.4-1.5-3.4-3.4s1.4-3.4 3.3-3.4c2-.2 3.1 1.3 3.1 3.1zm2.1-1.7c0-.4 0-1-.1-1.4h.9c0 .3.1.8.1 1.1.4-.8 1.2-1.3 2.1-1.3.2 0 .4 0 .6.1l-.1.9c-.1 0-.4-.1-.7-.1-1 0-1.9.7-1.9 2.5v3.4h-1v-5.2zm9.4 4v4.5h-1V363h1v1.1c.5-.9 1.5-1.3 2.5-1.3 2 0 3.4 1.5 3.4 3.4s-1.3 3.4-3.4 3.4c-.9.1-1.9-.4-2.5-1.2zm4.9-2.1c0-1.5-.9-2.6-2.5-2.6-1.5 0-2.5 1.1-2.5 2.6s1 2.6 2.5 2.6c1.6 0 2.5-1.2 2.5-2.6zm9.6 0c0 2-1.5 3.4-3.5 3.4s-3.5-1.5-3.5-3.4 1.5-3.4 3.5-3.4c2-.1 3.5 1.4 3.5 3.4zm-1 0c0-1.5-1-2.6-2.5-2.6s-2.5 1.2-2.5 2.6 1 2.6 2.5 2.6 2.5-1.2 2.5-2.6zm8.7 3.2h-.9c0-.4-.1-.8-.1-1.1-.4.8-1.3 1.3-2.2 1.3-1.7 0-2.5-1.1-2.5-2.7v-4h1v3.6c0 1.4.4 2.3 1.8 2.3 1 0 2-.8 2-2.6V363h1v5.1c-.1.3-.1 1-.1 1.4zm2.5-5.1c0-.4 0-1-.1-1.4h.9c0 .3.1.8.1 1.1.4-.8 1.2-1.3 2.1-1.3.2 0 .4 0 .6.1l-.1.9c-.1 0-.4-.1-.7-.1-1 0-1.9.7-1.9 2.5v3.4h-1v-5.2zm14-.4-.7.5c-.3-.5-1-.9-1.7-.9-1.5 0-2.5 1.1-2.5 2.6s1 2.6 2.5 2.6c.8 0 1.4-.4 1.8-.9l.7.5c-.6.7-1.4 1.1-2.5 1.1-2.1 0-3.5-1.5-3.5-3.4s1.4-3.4 3.5-3.4c.8.1 1.8.5 2.4 1.3zm2 1.8h4.5c-.1-1.2-.8-2.1-2.2-2.1-1.2-.1-2.2.9-2.3 2.1zm5.5.3v.4H733c0 1.3 1 2.4 2.4 2.4 1 0 1.7-.5 2.1-1.1l.7.6c-.8 1-1.7 1.4-2.8 1.4-1.9 0-3.4-1.5-3.4-3.4s1.4-3.4 3.3-3.4c2-.2 3.1 1.3 3.1 3.1zm6.5 2.3v4.5h-1V363h1v1.1c.5-.9 1.5-1.3 2.5-1.3 2 0 3.4 1.5 3.4 3.4s-1.3 3.4-3.4 3.4c-1 .1-1.9-.4-2.5-1.2zm4.9-2.1c0-1.5-.9-2.6-2.5-2.6-1.5 0-2.5 1.1-2.5 2.6s1.1 2.6 2.5 2.6c1.6 0 2.5-1.2 2.5-2.6zm3-1.9c0-.4 0-1-.1-1.4h.9c0 .3.1.8.1 1.1.4-.8 1.2-1.3 2.1-1.3.2 0 .4 0 .6.1l-.1.9c-.1 0-.4-.1-.7-.1-1 0-1.9.7-1.9 2.5v3.4h-1v-5.2zm11.3 1.9c0 2-1.5 3.4-3.5 3.4s-3.5-1.5-3.5-3.4 1.5-3.4 3.5-3.4c2.1-.1 3.5 1.4 3.5 3.4zm-1 0c0-1.5-1-2.6-2.5-2.6s-2.5 1.2-2.5 2.6 1 2.6 2.5 2.6 2.5-1.2 2.5-2.6zm1.4 6.5.1-.8c.2.1.4.1.6.1.8 0 .9-.6.9-1.4V363h1v7.9c0 1-.4 2.1-1.9 2.1-.1-.1-.4-.1-.7-.2zm2.8-12.3c0 .4-.3.7-.7.7s-.7-.3-.7-.7.3-.7.7-.7.7.3.7.7zm2.9 5.3h4.5c-.1-1.2-.8-2.1-2.2-2.1-1.3-.1-2.2.9-2.3 2.1zm5.4.3v.4h-5.4c0 1.3 1 2.4 2.4 2.4 1 0 1.7-.5 2.1-1.1l.7.6c-.8 1-1.7 1.4-2.8 1.4-1.9 0-3.4-1.5-3.4-3.4s1.4-3.4 3.3-3.4c2.1-.2 3.1 1.3 3.1 3.1zm5-3.1v.8h-1.8v3.8c0 1 .4 1.2 1 1.2.3 0 .6-.1.8-.2v.8c-.3.1-.7.2-1.1.2-.7 0-1.7-.3-1.7-1.8v-4.1h-1.4v-.7h1.4v-1.8h1v1.8h1.8z"/><g class="projets_heures_travaillees_svg__st11"><path class="projets_heures_travaillees_svg__st2" d="M290 332.5h1.8v5.3h6.4v-5.3h1.8v12.7h-1.8v-5.8h-6.4v5.8H290v-12.7zm21 9h-6.8c.1 1.5 1.3 2.6 2.8 2.6 1.2 0 2-.6 2.5-1.3l1.2 1c-.9 1.2-2.2 1.7-3.7 1.7-2.6 0-4.5-1.8-4.5-4.5s1.9-4.5 4.4-4.5c2.5 0 4.1 1.7 4.1 4.4v.6zm-1.7-1.2c0-1.4-.8-2.4-2.4-2.4-1.5 0-2.6 1.1-2.7 2.4h5.1zm10.1 5c0-.4-.1-1-.1-1.4-.4.9-1.5 1.6-2.8 1.6-2.2 0-3.2-1.6-3.2-3.5v-5.3h1.7v4.7c0 1.4.4 2.6 1.9 2.6 1.4 0 2.3-1.1 2.3-2.8v-4.5h1.7v6.7c0 .5 0 1.3.1 1.8h-1.6zm4.4-8.5h1.6c0 .4.1 1.1.1 1.4h.1c.5-1 1.5-1.7 2.6-1.7.2 0 .5 0 .7.1l-.1 1.6c-.2-.1-.5-.1-.8-.1-1.6 0-2.4 1.3-2.4 2.7v4.5h-1.7v-6.7c0-.5 0-1.3-.1-1.8zm14.2 4.7h-6.8c.1 1.5 1.3 2.6 2.8 2.6 1.2 0 2-.6 2.5-1.3l1.2 1c-.9 1.2-2.2 1.7-3.7 1.7-2.6 0-4.5-1.8-4.5-4.5s1.9-4.5 4.4-4.5c2.5 0 4.1 1.7 4.1 4.4v.6zm-1.7-1.2c0-1.4-.8-2.4-2.4-2.4-1.5 0-2.6 1.1-2.7 2.4h5.1zm8.7-1.4c-.4-.6-1.1-1.1-2-1.1-.8 0-1.6.3-1.6 1.1 0 .7.6 1 1.9 1.3 1.6.4 2.9 1 2.9 2.5 0 2-1.7 2.8-3.4 2.8-1.3 0-2.6-.5-3.4-1.5l1.2-1c.5.7 1.3 1.2 2.3 1.2.8 0 1.7-.3 1.7-1.2 0-.8-.8-1.1-2.2-1.4-1.1-.3-2.5-.8-2.5-2.4 0-1.8 1.6-2.6 3.2-2.6 1.2 0 2.5.5 3.1 1.4l-1.2.9zm12-.8h-2.3v4.4c0 1 .4 1.4 1.2 1.4.3 0 .7-.1 1-.2l.1 1.4c-.4.1-.9.2-1.4.2-1.6 0-2.5-.9-2.5-2.7V338h-1.6v-1.4h1.6v-2.4h1.7v2.4h2.3v1.5zm1.7-1.3h1.6c0 .4.1 1.1.1 1.4h.1c.5-1 1.5-1.7 2.6-1.7.2 0 .5 0 .7.1l-.1 1.6c-.2-.1-.5-.1-.8-.1-1.6 0-2.4 1.3-2.4 2.7v4.5h-1.7v-6.7c0-.5 0-1.3-.1-1.8zm11.7 3c0-1.3-.8-1.9-2.1-1.9-1 0-1.9.4-2.4 1l-.9-1.1c.8-.8 2.1-1.3 3.5-1.3 2.4 0 3.6 1.5 3.6 3.3v3.7c0 .6 0 1.3.1 1.7h-1.5c-.1-.4-.1-.8-.1-1.2h-.1c-.6.9-1.6 1.4-2.9 1.4-1.4 0-3.1-.7-3.1-2.6 0-2.6 3.1-2.9 5.9-2.9v-.1zm-.4 1.4c-1.7 0-3.8.2-3.8 1.6 0 1 .9 1.3 1.7 1.3 1.6 0 2.5-1.1 2.5-2.5v-.5h-.4zm8.8 4.1H377l-3.5-8.5h1.9l2.5 6.7 2.5-6.7h1.8l-3.4 8.5zm10.4-5.5c0-1.3-.8-1.9-2.1-1.9-1 0-1.9.4-2.4 1l-.9-1.1c.8-.8 2.1-1.3 3.5-1.3 2.4 0 3.6 1.5 3.6 3.3v3.7c0 .6 0 1.3.1 1.7h-1.5c-.1-.4-.1-.8-.1-1.2h-.1c-.6.9-1.6 1.4-2.9 1.4-1.4 0-3.1-.7-3.1-2.6 0-2.6 3.1-2.9 5.9-2.9v-.1zm-.4 1.4c-1.7 0-3.8.2-3.8 1.6 0 1 .9 1.3 1.7 1.3 1.6 0 2.5-1.1 2.5-2.5v-.5h-.4zm5.7-6.4c-.6 0-1.1-.5-1.1-1.1 0-.6.5-1.1 1.1-1.1s1.1.5 1.1 1.1c.1.6-.5 1.1-1.1 1.1zm.9 10.5h-1.7v-8.5h1.7v8.5zm4.6 0h-1.7v-13.6h1.7v13.6zm4.7 0H403v-13.6h1.7v13.6zm10.9-3.8h-6.8c.1 1.5 1.3 2.6 2.8 2.6 1.2 0 2-.6 2.5-1.3l1.2 1c-.9 1.2-2.2 1.7-3.7 1.7-2.6 0-4.5-1.8-4.5-4.5s1.9-4.5 4.4-4.5c2.5 0 4.1 1.7 4.1 4.4v.6zm-1.7-1.2c0-1.4-.8-2.4-2.4-2.4-1.5 0-2.6 1.1-2.7 2.4h5.1zm-1.9-5.2h-1.4l1.8-2.6h2l-2.4 2.6zm13.9 6.4h-6.8c.1 1.5 1.3 2.6 2.8 2.6 1.2 0 2-.6 2.5-1.3l1.2 1c-.9 1.2-2.2 1.7-3.7 1.7-2.6 0-4.5-1.8-4.5-4.5s1.9-4.5 4.4-4.5c2.5 0 4.1 1.7 4.1 4.4v.6zm-1.7-1.2c0-1.4-.8-2.4-2.4-2.4-1.5 0-2.6 1.1-2.7 2.4h5.1zm8.7-1.4c-.4-.6-1.1-1.1-2-1.1-.8 0-1.6.3-1.6 1.1 0 .7.6 1 1.9 1.3 1.6.4 2.9 1 2.9 2.5 0 2-1.7 2.8-3.4 2.8-1.3 0-2.6-.5-3.4-1.5l1.2-1c.5.7 1.3 1.2 2.3 1.2.8 0 1.7-.3 1.7-1.2 0-.8-.8-1.1-2.2-1.4-1.1-.3-2.5-.8-2.5-2.4 0-1.8 1.6-2.6 3.2-2.6 1.2 0 2.5.5 3.1 1.4l-1.2.9zm9.4-2.1c0 .4.1 1 .1 1.4h.1c.4-.9 1.5-1.6 2.8-1.6 2.2 0 3.2 1.6 3.2 3.5v5.3h-1.7v-4.7c0-1.4-.4-2.6-1.9-2.6-1.3 0-2.3 1.1-2.3 2.8v4.5h-1.7v-6.7c0-.5 0-1.3-.1-1.8h1.5zm13 8.7c-2.6 0-4.6-1.9-4.6-4.5s2-4.5 4.6-4.5 4.6 1.9 4.6 4.5-2 4.5-4.6 4.5zm0-7.6c-1.8 0-2.8 1.5-2.8 3.1s1 3.1 2.8 3.1c1.8 0 2.8-1.5 2.8-3.1.1-1.6-1-3.1-2.8-3.1zm8.5-1.1c0 .4.1 1 .1 1.4h.1c.4-.9 1.5-1.6 2.8-1.6 2.2 0 3.2 1.6 3.2 3.5v5.3h-1.7v-4.7c0-1.4-.4-2.6-1.9-2.6-1.3 0-2.3 1.1-2.3 2.8v4.5h-1.7v-6.7c0-.5 0-1.3-.1-1.8h1.5zm17.4 1.3h-2v7.1h-1.7v-7.1h-1.7v-1.4h1.7V335c0-2 .9-3.5 3.2-3.5.4 0 .7 0 1.1.1l-.2 1.5c-.3-.1-.5-.1-.8-.1-1.3 0-1.5 1-1.5 2.1v1.8h2v1.2zm6.9 1.7c0-1.3-.8-1.9-2.1-1.9-1 0-1.9.4-2.4 1l-.9-1.1c.8-.8 2.1-1.3 3.5-1.3 2.4 0 3.6 1.5 3.6 3.3v3.7c0 .6 0 1.3.1 1.7h-1.5c-.1-.4-.1-.8-.1-1.2h-.1c-.6.9-1.6 1.4-2.9 1.4-1.4 0-3.1-.7-3.1-2.6 0-2.6 3.1-2.9 5.9-2.9v-.1zm-.4 1.4c-1.7 0-3.8.2-3.8 1.6 0 1 .9 1.3 1.7 1.3 1.6 0 2.5-1.1 2.5-2.5v-.5h-.4zm10.8-2.3c-.4-.6-1.2-1-2-1-1.8 0-2.8 1.4-2.8 3.1 0 1.6 1 3.1 2.8 3.1.9 0 1.6-.4 2.1-.9l1.1 1c-.7.8-1.8 1.3-3.2 1.3-2.6 0-4.6-1.8-4.6-4.5s1.9-4.5 4.6-4.5c1.2 0 2.5.5 3.2 1.4l-1.2 1zm7.1-.8h-2.3v4.4c0 1 .4 1.4 1.2 1.4.3 0 .7-.1 1-.2l.1 1.4c-.4.1-.9.2-1.4.2-1.6 0-2.5-.9-2.5-2.7V338h-1.6v-1.4h1.6v-2.4h1.7v2.4h2.3v1.5zm7.8 7.2c0-.4-.1-1-.1-1.4-.4.9-1.5 1.6-2.8 1.6-2.2 0-3.2-1.6-3.2-3.5v-5.3h1.7v4.7c0 1.4.4 2.6 1.9 2.6 1.4 0 2.3-1.1 2.3-2.8v-4.5h1.7v6.7c0 .5 0 1.3.1 1.8h-1.6zm4.4-8.5h1.6c0 .4.1 1.1.1 1.4h.1c.5-1 1.5-1.7 2.6-1.7.2 0 .5 0 .7.1l-.1 1.6c-.2-.1-.5-.1-.8-.1-1.6 0-2.4 1.3-2.4 2.7v4.5h-1.7v-6.7c0-.5-.1-1.3-.1-1.8zm11.6 3c0-1.3-.8-1.9-2.1-1.9-1 0-1.9.4-2.4 1l-.9-1.1c.8-.8 2.1-1.3 3.5-1.3 2.4 0 3.6 1.5 3.6 3.3v3.7c0 .6 0 1.3.1 1.7h-1.5c-.1-.4-.1-.8-.1-1.2h-.1c-.6.9-1.6 1.4-2.9 1.4-1.4 0-3.1-.7-3.1-2.6 0-2.6 3.1-2.9 5.9-2.9v-.1zm-.4 1.4c-1.7 0-3.8.2-3.8 1.6 0 1 .9 1.3 1.7 1.3 1.6 0 2.5-1.1 2.5-2.5v-.5h-.4zm6.6 2.7v1.4H534v-13.6h1.7v6.4h.1c.6-.8 1.6-1.5 3-1.5 2.5 0 4.3 2 4.3 4.5s-1.7 4.5-4.3 4.5c-1.3-.1-2.5-.6-3.2-1.7zm2.8-6c-1.7 0-2.9 1.5-2.9 3.1s1.2 3.1 2.9 3.1c1.9 0 2.8-1.5 2.8-3.1s-1-3.1-2.8-3.1zm8.7 7.4h-1.7v-13.6h1.7v13.6zm10.9-3.8h-6.8c.1 1.5 1.3 2.6 2.8 2.6 1.2 0 2-.6 2.5-1.3l1.2 1c-.9 1.2-2.2 1.7-3.7 1.7-2.6 0-4.5-1.8-4.5-4.5s1.9-4.5 4.4-4.5c2.5 0 4.1 1.7 4.1 4.4v.6zm-1.7-1.2c0-1.4-.8-2.4-2.4-2.4-1.5 0-2.6 1.1-2.7 2.4h5.1zm8.6-1.4c-.4-.6-1.1-1.1-2-1.1-.8 0-1.6.3-1.6 1.1 0 .7.6 1 1.9 1.3 1.6.4 2.9 1 2.9 2.5 0 2-1.7 2.8-3.4 2.8-1.3 0-2.6-.5-3.4-1.5l1.2-1c.5.7 1.3 1.2 2.3 1.2.8 0 1.7-.3 1.7-1.2 0-.8-.8-1.1-2.2-1.4-1.1-.3-2.5-.8-2.5-2.4 0-1.8 1.6-2.6 3.2-2.6 1.2 0 2.5.5 3.1 1.4l-1.2.9z"/></g><path id="projets_heures_travaillees_svg__Divider_1_" class="projets_heures_travaillees_svg__st12" d="M204 390.8h771.7"/><path id="projets_heures_travaillees_svg__Toutes-les-d\xE9penses" class="projets_heures_travaillees_svg__st2" d="M294.6 437.8v9h-1v-9h-3.3v-.9h7.6v.9h-3.3zm10 5.7c0 2-1.5 3.4-3.5 3.4s-3.5-1.5-3.5-3.4 1.5-3.4 3.5-3.4 3.5 1.4 3.5 3.4zm-1 0c0-1.5-1-2.6-2.5-2.6s-2.5 1.2-2.5 2.6 1 2.6 2.5 2.6 2.5-1.1 2.5-2.6zm8.7 3.3h-.9c0-.4-.1-.8-.1-1.1-.4.8-1.3 1.3-2.2 1.3-1.7 0-2.5-1.1-2.5-2.7v-4h1v3.6c0 1.4.4 2.3 1.8 2.3 1 0 2-.8 2-2.6v-3.4h1v5.1c-.2.4-.2 1-.1 1.5zm5.4-6.6v.8h-1.8v3.8c0 1 .4 1.2 1 1.2.3 0 .6-.1.8-.2v.8c-.3.1-.7.2-1.1.2-.7 0-1.7-.3-1.7-1.8v-4h-1.4v-.8h1.4v-1.8h1v1.8h1.8zm2 2.8h4.5c-.1-1.2-.8-2.1-2.2-2.1-1.3 0-2.2 1-2.3 2.1zm5.4.3v.4h-5.4c0 1.3 1 2.4 2.4 2.4 1 0 1.7-.5 2.1-1.1l.7.6c-.8 1-1.7 1.4-2.8 1.4-1.9 0-3.4-1.5-3.4-3.4s1.4-3.4 3.3-3.4c2.1-.1 3.1 1.3 3.1 3.1zm6.3-2.1-.7.5c-.3-.5-.9-.9-1.6-.9-.7 0-1.4.3-1.4 1 0 .6.5.9 1.6 1.1 1.5.3 2.3.9 2.3 1.9 0 1.5-1.3 2-2.5 2-1 0-2-.4-2.6-1.3l.8-.6c.3.6 1.1 1 1.8 1 .8 0 1.5-.3 1.5-1.1 0-.7-.7-1-1.9-1.3-.8-.2-1.9-.5-1.9-1.8s1.1-1.9 2.3-1.9c.9.3 1.9.7 2.3 1.4zm6.5-5v10.6h-1v-10.6h1zm3.1 6.8h4.5c-.1-1.2-.8-2.1-2.2-2.1-1.3 0-2.3 1-2.3 2.1zm5.4.3v.4H341c0 1.3 1 2.4 2.4 2.4 1 0 1.7-.5 2.1-1.1l.7.6c-.8 1-1.7 1.4-2.8 1.4-1.9 0-3.4-1.5-3.4-3.4s1.4-3.4 3.3-3.4c2-.1 3.1 1.3 3.1 3.1zm6.2-2.1-.7.5c-.3-.5-.9-.9-1.6-.9-.7 0-1.4.3-1.4 1 0 .6.5.9 1.6 1.1 1.5.3 2.3.9 2.3 1.9 0 1.5-1.3 2-2.5 2-1 0-2-.4-2.6-1.3l.8-.6c.3.6 1 1 1.8 1s1.5-.3 1.5-1.1c0-.7-.7-1-1.9-1.3-.8-.2-1.9-.5-1.9-1.8s1.1-1.9 2.3-1.9c1 .3 1.9.7 2.3 1.4zm10.9 4.5c-.6.8-1.5 1.3-2.5 1.3-2 0-3.4-1.5-3.4-3.4s1.3-3.4 3.4-3.4c.9 0 1.9.4 2.5 1.3v-5.2h1v10.6h-1v-1.2zm-4.8-2.2c0 1.5.9 2.6 2.5 2.6 1.5 0 2.5-1.1 2.5-2.6s-1.1-2.6-2.5-2.6c-1.6 0-2.5 1.2-2.5 2.6zm8.9-.5h4.5c-.1-1.2-.8-2.1-2.2-2.1-1.3 0-2.2 1-2.3 2.1zm5.4.3v.4h-5.4c0 1.3 1 2.4 2.4 2.4 1 0 1.7-.5 2.1-1.1l.7.6c-.8 1-1.7 1.4-2.8 1.4-1.9 0-3.4-1.5-3.4-3.4s1.4-3.4 3.3-3.4c2.1-.1 3.1 1.3 3.1 3.1zm-1-6.4-1.8 2h-.8l1.4-2h1.2zm4 8.8v4.5h-1v-9.9h1v1.1c.5-.9 1.5-1.3 2.5-1.3 2 0 3.4 1.5 3.4 3.4s-1.3 3.4-3.4 3.4c-.9.1-1.9-.4-2.5-1.2zm4.9-2.2c0-1.5-.9-2.6-2.5-2.6-1.5 0-2.5 1.1-2.5 2.6s1.1 2.6 2.5 2.6c1.6 0 2.5-1.1 2.5-2.6zm3.6-.5h4.5c-.1-1.2-.8-2.1-2.2-2.1-1.3 0-2.2 1-2.3 2.1zm5.4.3v.4h-5.4c0 1.3 1.1 2.4 2.4 2.4 1 0 1.7-.5 2.1-1.1l.7.6c-.8 1-1.7 1.4-2.8 1.4-1.9 0-3.4-1.5-3.4-3.4s1.4-3.4 3.3-3.4c2.1-.1 3.1 1.3 3.1 3.1zm2-3.1h.9c0 .3.1.8.1 1.1.4-.8 1.3-1.3 2.2-1.3 1.7 0 2.5 1.1 2.5 2.7v4h-1v-3.6c0-1.4-.4-2.3-1.8-2.3-1 0-2 .8-2 2.6v3.4h-1v-5.1c.2-.4.2-1 .1-1.5zm12.4 1-.7.5c-.3-.5-.9-.9-1.6-.9-.7 0-1.4.3-1.4 1 0 .6.5.9 1.6 1.1 1.5.3 2.3.9 2.3 1.9 0 1.5-1.3 2-2.5 2-1 0-2-.4-2.6-1.3l.8-.6c.3.6 1 1 1.8 1s1.5-.3 1.5-1.1c0-.7-.7-1-1.9-1.3-.8-.2-1.9-.5-1.9-1.8s1.1-1.9 2.3-1.9c.9.3 1.9.7 2.3 1.4zm2.6 1.8h4.5c-.1-1.2-.8-2.1-2.2-2.1-1.3 0-2.3 1-2.3 2.1zm5.4.3v.4h-5.4c0 1.3 1 2.4 2.4 2.4 1 0 1.7-.5 2.1-1.1l.7.6c-.8 1-1.7 1.4-2.8 1.4-1.9 0-3.4-1.5-3.4-3.4s1.4-3.4 3.3-3.4c2-.1 3.1 1.3 3.1 3.1zm6.2-2.1-.7.5c-.3-.5-.9-.9-1.6-.9-.7 0-1.4.3-1.4 1 0 .6.5.9 1.6 1.1 1.5.3 2.3.9 2.3 1.9 0 1.5-1.3 2-2.5 2-1 0-2-.4-2.6-1.3l.8-.6c.3.6 1 1 1.8 1s1.5-.3 1.5-1.1c0-.7-.7-1-1.9-1.3-.8-.2-1.9-.5-1.9-1.8s1.1-1.9 2.3-1.9c1 .3 1.9.7 2.3 1.4zm6.1 1.8h4.5c-.1-1.2-.8-2.1-2.2-2.1-1.3 0-2.2 1-2.3 2.1zm5.4.3v.4h-5.4c0 1.3 1 2.4 2.4 2.4 1 0 1.7-.5 2.1-1.1l.7.6c-.8 1-1.7 1.4-2.8 1.4-1.9 0-3.4-1.5-3.4-3.4s1.4-3.4 3.3-3.4c2-.1 3.1 1.3 3.1 3.1zm5-3.1v.8h-1.8v3.8c0 1 .4 1.2 1 1.2.3 0 .6-.1.8-.2v.8c-.3.1-.7.2-1.1.2-.7 0-1.7-.3-1.7-1.8v-4h-1.4v-.8h1.4v-1.8h1v1.8h1.8zm6 1.1c.4-.8 1.3-1.2 2.2-1.2 1.7 0 2.5 1.1 2.5 2.7v4h-1v-3.6c0-1.4-.4-2.3-1.8-2.3-1 0-2 .8-2 2.6v3.4h-1v-10.6h1v5zm7.7 1.7h4.5c-.1-1.2-.8-2.1-2.2-2.1-1.3 0-2.2 1-2.3 2.1zm5.4.3v.4h-5.4c0 1.3 1.1 2.4 2.4 2.4 1 0 1.7-.5 2.1-1.1l.7.6c-.8 1-1.7 1.4-2.8 1.4-1.9 0-3.4-1.5-3.4-3.4s1.4-3.4 3.3-3.4c2-.1 3.1 1.3 3.1 3.1zm7.7 3.5h-.9c0-.4-.1-.8-.1-1.1-.4.8-1.3 1.3-2.2 1.3-1.7 0-2.5-1.1-2.5-2.7v-4h1v3.6c0 1.4.4 2.3 1.8 2.3 1 0 2-.8 2-2.6v-3.4h1v5.1c-.1.4-.1 1-.1 1.5zm2.5-5.1c0-.4 0-1-.1-1.4h.9c0 .3.1.8.1 1.1.4-.8 1.2-1.3 2.1-1.3.2 0 .4 0 .6.1l-.1.9c-.1 0-.4-.1-.7-.1-1 0-1.9.7-1.9 2.5v3.4h-1v-5.2zm5.3 1.3h4.5c-.1-1.2-.8-2.1-2.2-2.1-1.3 0-2.2 1-2.3 2.1zm5.5.3v.4h-5.4c0 1.3 1.1 2.4 2.4 2.4 1 0 1.7-.5 2.1-1.1l.7.6c-.8 1-1.7 1.4-2.8 1.4-1.9 0-3.4-1.5-3.4-3.4s1.4-3.4 3.3-3.4c2-.1 3.1 1.3 3.1 3.1zm6.2-2.1-.7.5c-.3-.5-.9-.9-1.6-.9-.7 0-1.4.3-1.4 1 0 .6.5.9 1.6 1.1 1.5.3 2.3.9 2.3 1.9 0 1.5-1.3 2-2.5 2-1 0-2-.4-2.6-1.3l.8-.6c.3.6 1 1 1.8 1s1.5-.3 1.5-1.1c0-.7-.7-1-1.9-1.3-.8-.2-1.9-.5-1.9-1.8s1.1-1.9 2.3-1.9c.9.3 1.9.7 2.3 1.4zm8.5-1v.8H488v3.8c0 1 .4 1.2 1 1.2.3 0 .6-.1.8-.2v.8c-.3.1-.7.2-1.1.2-.7 0-1.7-.3-1.7-1.8v-4h-1.4v-.8h1.4v-1.8h1v1.8h1.8zm1.4 1.5c0-.4 0-1-.1-1.4h.9c0 .3.1.8.1 1.1.4-.8 1.2-1.3 2.1-1.3.2 0 .4 0 .6.1l-.1.9c-.1 0-.4-.1-.7-.1-1 0-1.9.7-1.9 2.5v3.4h-1v-5.2zm9.1 1.1v-.2c0-1.1-.6-1.7-1.8-1.7-.8 0-1.5.3-1.9.8l-.6-.7c.5-.5 1.5-.9 2.6-.9 1.4 0 2.5.8 2.5 2.4v2.9c0 .5 0 1.1.1 1.5h-.9c-.1-.3-.1-.7-.1-1.1-.6.9-1.3 1.2-2.4 1.2-1 0-2.3-.5-2.3-2 .1-2 2.4-2.2 4.8-2.2zm0 .7h-.3c-1.6 0-3.4.2-3.4 1.4 0 .9.8 1.2 1.5 1.2 1.3 0 2.1-1 2.1-2.2v-.4zm8.6-3.3-2.7 6.6h-1l-2.7-6.6h1.1l2.1 5.5 2.1-5.5h1.1zm5.7 2.6v-.2c0-1.1-.6-1.7-1.8-1.7-.8 0-1.5.3-1.9.8l-.5-.6c.5-.5 1.5-.9 2.6-.9 1.4 0 2.5.8 2.5 2.4v2.9c0 .5 0 1.1.1 1.5h-.9c-.1-.3-.1-.7-.1-1.1-.6.9-1.3 1.2-2.4 1.2-1 0-2.3-.5-2.3-2 0-2.1 2.3-2.3 4.7-2.3zm0 .7h-.3c-1.6 0-3.4.2-3.4 1.4 0 .9.8 1.2 1.5 1.2 1.3 0 2.1-1 2.1-2.2v-.4zm4.3-3.3v6.6h-1v-6.6h1zm.2-2.5c0 .4-.3.7-.7.7s-.7-.3-.7-.7.3-.7.7-.7.7.3.7.7zm3.3-1.5v10.6h-1v-10.6h1zm3.5 0v10.6h-1v-10.6h1zm3.1 6.8h4.5c-.1-1.2-.8-2.1-2.2-2.1-1.3 0-2.2 1-2.3 2.1zm5.4.3v.4H529c0 1.3 1 2.4 2.4 2.4 1 0 1.7-.5 2.1-1.1l.7.6c-.8 1-1.7 1.4-2.8 1.4-1.9 0-3.4-1.5-3.4-3.4s1.4-3.4 3.3-3.4c2-.1 3.1 1.3 3.1 3.1zm-1-6.4-1.8 2h-.8l1.4-2h1.2zm3.6 6.1h4.5c-.1-1.2-.8-2.1-2.2-2.1-1.3 0-2.2 1-2.3 2.1zm5.4.3v.4H537c0 1.3 1.1 2.4 2.4 2.4 1 0 1.7-.5 2.1-1.1l.7.6c-.8 1-1.7 1.4-2.8 1.4-1.9 0-3.4-1.5-3.4-3.4s1.4-3.4 3.3-3.4c2.1-.1 3.1 1.3 3.1 3.1zm6.3-2.1-.7.5c-.3-.5-.9-.9-1.6-.9-.7 0-1.4.3-1.4 1 0 .6.5.9 1.6 1.1 1.5.3 2.3.9 2.3 1.9 0 1.5-1.3 2-2.5 2-1 0-2-.4-2.6-1.3l.8-.6c.3.6 1 1 1.8 1s1.5-.3 1.5-1.1c0-.7-.7-1-1.9-1.3-.8-.2-1.9-.5-1.9-1.8s1.1-1.9 2.3-1.9c.9.3 1.9.7 2.3 1.4zm9.6 1.6v-.2c0-1.1-.6-1.7-1.8-1.7-.8 0-1.5.3-1.9.8l-.5-.6c.5-.5 1.5-.9 2.6-.9 1.4 0 2.5.8 2.5 2.4v2.9c0 .5 0 1.1.1 1.5h-.9c-.1-.3-.1-.7-.1-1.1-.6.9-1.3 1.2-2.4 1.2-1 0-2.3-.5-2.3-2 .1-2.1 2.3-2.3 4.7-2.3zm0 .7h-.3c-1.6 0-3.4.2-3.4 1.4 0 .9.8 1.2 1.5 1.2 1.3 0 2.1-1 2.1-2.2v-.4zm7.6-2.3-.7.5c-.3-.5-.9-.9-1.6-.9-.7 0-1.4.3-1.4 1 0 .6.5.9 1.6 1.1 1.5.3 2.3.9 2.3 1.9 0 1.5-1.3 2-2.5 2-1 0-2-.4-2.6-1.3l.8-.6c.3.6 1 1 1.8 1s1.5-.3 1.5-1.1c0-.7-.7-1-1.9-1.3-.8-.2-1.9-.5-1.9-1.8s1.1-1.9 2.3-1.9c.9.3 1.9.7 2.3 1.4zm6.2 0-.7.5c-.3-.5-.9-.9-1.6-.9-.7 0-1.4.3-1.4 1 0 .6.5.9 1.6 1.1 1.5.3 2.3.9 2.3 1.9 0 1.5-1.3 2-2.5 2-1 0-2-.4-2.6-1.3l.8-.6c.3.6 1 1 1.8 1s1.5-.3 1.5-1.1c0-.7-.7-1-1.9-1.3-.8-.2-1.9-.5-1.9-1.8s1.1-1.9 2.3-1.9c.9.3 1.9.7 2.3 1.4zm8.5 2.3c0 2-1.5 3.4-3.5 3.4s-3.5-1.5-3.5-3.4 1.5-3.4 3.5-3.4c2.1 0 3.5 1.4 3.5 3.4zm-1 0c0-1.5-1-2.6-2.5-2.6s-2.5 1.2-2.5 2.6 1 2.6 2.5 2.6 2.5-1.1 2.5-2.6zm8.5-2.3-.7.5c-.3-.5-1-.9-1.7-.9-1.5 0-2.5 1.1-2.5 2.6s1 2.6 2.5 2.6c.8 0 1.4-.4 1.8-.9l.7.5c-.6.7-1.4 1.1-2.5 1.1-2.1 0-3.5-1.5-3.5-3.4s1.4-3.4 3.5-3.4c.9.2 1.9.5 2.4 1.3zm2.5-1v6.6h-1v-6.6h1zm.2-2.5c0 .4-.3.7-.7.7s-.7-.3-.7-.7.3-.7.7-.7.7.3.7.7zm2.9 5.3h4.5c-.1-1.2-.8-2.1-2.2-2.1-1.3 0-2.2 1-2.3 2.1zm5.4.3v.4h-5.4c0 1.3 1 2.4 2.4 2.4 1 0 1.7-.5 2.1-1.1l.7.6c-.8 1-1.7 1.4-2.8 1.4-1.9 0-3.4-1.5-3.4-3.4s1.4-3.4 3.3-3.4c2-.1 3.1 1.3 3.1 3.1zm-1-6.4-1.8 2h-.8l1.4-2h1.2zm3.6 6.1h4.5c-.1-1.2-.8-2.1-2.2-2.1-1.3 0-2.2 1-2.3 2.1zm5.4.3v.4h-5.4c0 1.3 1.1 2.4 2.4 2.4 1 0 1.7-.5 2.1-1.1l.7.6c-.8 1-1.7 1.4-2.8 1.4-1.9 0-3.4-1.5-3.4-3.4s1.4-3.4 3.3-3.4c2-.1 3.1 1.3 3.1 3.1zm6.3-2.1-.7.5c-.3-.5-.9-.9-1.6-.9-.7 0-1.4.3-1.4 1 0 .6.5.9 1.6 1.1 1.5.3 2.3.9 2.3 1.9 0 1.5-1.3 2-2.5 2-1 0-2-.4-2.6-1.3l.8-.6c.3.6 1 1 1.8 1s1.5-.3 1.5-1.1c0-.7-.7-1-1.9-1.3-.8-.2-1.9-.5-1.9-1.8s1.1-1.9 2.3-1.9c.9.3 1.9.7 2.3 1.4zm9.6 1.6v-.2c0-1.1-.6-1.7-1.8-1.7-.8 0-1.5.3-1.9.8l-.5-.6c.5-.5 1.5-.9 2.6-.9 1.4 0 2.5.8 2.5 2.4v2.9c0 .5 0 1.1.1 1.5h-.9c-.1-.3-.1-.7-.1-1.1-.6.9-1.3 1.2-2.4 1.2-1 0-2.3-.5-2.3-2 .1-2.1 2.3-2.3 4.7-2.3zm0 .7h-.3c-1.6 0-3.4.2-3.4 1.4 0 .9.8 1.2 1.5 1.2 1.3 0 2.1-1 2.1-2.2v-.4zm-1.5-4.6-1.8-2h1.3l1.4 2h-.9zm13.8 2.3-.7.5c-.3-.5-1-.9-1.7-.9-1.5 0-2.5 1.1-2.5 2.6s1 2.6 2.5 2.6c.8 0 1.4-.4 1.8-.9l.7.5c-.6.7-1.4 1.1-2.5 1.1-2.1 0-3.5-1.5-3.5-3.4s1.4-3.4 3.5-3.4c.9.2 1.9.5 2.4 1.3zm2.1 1.8h4.5c-.1-1.2-.8-2.1-2.2-2.1-1.3 0-2.2 1-2.3 2.1zm5.4.3v.4h-5.4c0 1.3 1 2.4 2.4 2.4 1 0 1.7-.5 2.1-1.1l.7.6c-.8 1-1.7 1.4-2.8 1.4-1.9 0-3.4-1.5-3.4-3.4s1.4-3.4 3.3-3.4c2-.1 3.1 1.3 3.1 3.1zm6.5 2.4v4.5h-1v-9.9h1v1.1c.5-.9 1.5-1.3 2.5-1.3 2 0 3.4 1.5 3.4 3.4s-1.3 3.4-3.4 3.4c-.9.1-1.9-.4-2.5-1.2zm4.9-2.2c0-1.5-.9-2.6-2.5-2.6-1.5 0-2.5 1.1-2.5 2.6s1.1 2.6 2.5 2.6c1.6 0 2.5-1.1 2.5-2.6zm3.1-1.8c0-.4 0-1-.1-1.4h.9c0 .3.1.8.1 1.1.4-.8 1.2-1.3 2.1-1.3.2 0 .4 0 .6.1l-.1.9c-.1 0-.4-.1-.7-.1-1 0-1.9.7-1.9 2.5v3.4h-1v-5.2zm11.3 1.8c0 2-1.5 3.4-3.5 3.4s-3.5-1.5-3.5-3.4 1.5-3.4 3.5-3.4 3.5 1.4 3.5 3.4zm-1 0c0-1.5-1-2.6-2.5-2.6s-2.5 1.2-2.5 2.6 1 2.6 2.5 2.6 2.5-1.1 2.5-2.6zm1.4 6.5.1-.8c.2.1.4.1.6.1.8 0 .9-.6.9-1.4v-7.7h1v7.9c0 1-.4 2.1-1.9 2.1-.2-.1-.5-.1-.7-.2zm2.8-12.3c0 .4-.3.7-.7.7-.3 0-.7-.3-.7-.7s.3-.7.7-.7c.3 0 .7.3.7.7zm2.8 5.3h4.5c-.1-1.2-.8-2.1-2.2-2.1-1.2 0-2.2 1-2.3 2.1zm5.5.3v.4h-5.4c0 1.3 1 2.4 2.4 2.4 1 0 1.7-.5 2.1-1.1l.7.6c-.8 1-1.7 1.4-2.8 1.4-1.9 0-3.4-1.5-3.4-3.4s1.4-3.4 3.3-3.4c2-.1 3.1 1.3 3.1 3.1zm5-3.1v.8h-1.8v3.8c0 1 .4 1.2 1 1.2.3 0 .6-.1.8-.2v.8c-.3.1-.7.2-1.1.2-.7 0-1.7-.3-1.7-1.8v-4h-1.4v-.8h1.4v-1.8h1v1.8h1.8zm5.5 2.8h4.5c-.1-1.2-.8-2.1-2.2-2.1-1.3 0-2.2 1-2.3 2.1zm5.4.3v.4h-5.4c0 1.3 1.1 2.4 2.4 2.4 1 0 1.7-.5 2.1-1.1l.7.6c-.8 1-1.7 1.4-2.8 1.4-1.9 0-3.4-1.5-3.4-3.4s1.4-3.4 3.3-3.4c2-.1 3.1 1.3 3.1 3.1zm5-3.1v.8h-1.8v3.8c0 1 .4 1.2 1 1.2.3 0 .6-.1.8-.2v.8c-.3.1-.7.2-1.1.2-.7 0-1.7-.3-1.7-1.8v-4h-1.4v-.8h1.4v-1.8h1v1.8h1.8zm10.4 5.5c-.6.8-1.6 1.3-2.5 1.3-2 0-3.4-1.5-3.4-3.4s1.3-3.4 3.4-3.4c.9 0 1.9.4 2.5 1.3v-1.1h1v9.9h-1v-4.6zm-4.9-2.2c0 1.5.9 2.6 2.5 2.6 1.5 0 2.5-1.1 2.5-2.6s-1-2.6-2.5-2.6c-1.6 0-2.5 1.2-2.5 2.6zm14.1 3.3h-.9c0-.4-.1-.8-.1-1.1-.4.8-1.3 1.3-2.2 1.3-1.7 0-2.5-1.1-2.5-2.7v-4h1v3.6c0 1.4.4 2.3 1.8 2.3 1 0 2-.8 2-2.6v-3.4h1v5.1c-.2.4-.2 1-.1 1.5zm3.4-6.6v6.6h-1v-6.6h1zm.2-2.5c0 .4-.3.7-.7.7s-.7-.3-.7-.7.3-.7.7-.7.7.3.7.7zm5.8 2.5h.9c0 .3.1.8.1 1.1.4-.8 1.3-1.3 2.2-1.3 1.7 0 2.5 1.1 2.5 2.7v4h-1v-3.6c0-1.4-.4-2.3-1.8-2.3-1 0-2 .8-2 2.6v3.4h-1v-5.1c.1-.4.1-1 .1-1.5zm8.3 0v-3.3h.8v3.3h-.8zm10 3.3c0 2-1.5 3.4-3.5 3.4s-3.5-1.5-3.5-3.4 1.5-3.4 3.5-3.4c2.1 0 3.5 1.4 3.5 3.4zm-1 0c0-1.5-1-2.6-2.5-2.6s-2.5 1.2-2.5 2.6 1 2.6 2.5 2.6 2.5-1.1 2.5-2.6zm3-3.3h.9c0 .3.1.8.1 1.1.4-.8 1.3-1.3 2.2-1.3 1.7 0 2.5 1.1 2.5 2.7v4h-1v-3.6c0-1.4-.4-2.3-1.8-2.3-1 0-2 .8-2 2.6v3.4h-1v-5.1c.2-.4.1-1 .1-1.5zm11.1 0v.8h-1.8v3.8c0 1 .4 1.2 1 1.2.3 0 .6-.1.8-.2v.8c-.3.1-.7.2-1.1.2-.7 0-1.7-.3-1.7-1.8v-4h-1.4v-.8h1.4v-1.8h1v1.8h1.8zm6 5.5v4.5h-1v-9.9h1v1.1c.5-.9 1.5-1.3 2.5-1.3 2 0 3.4 1.5 3.4 3.4s-1.3 3.4-3.4 3.4c-.9.1-1.9-.4-2.5-1.2zm4.9-2.2c0-1.5-.9-2.6-2.5-2.6-1.5 0-2.5 1.1-2.5 2.6s1 2.6 2.5 2.6c1.6 0 2.5-1.1 2.5-2.6zm7.2-.7v-.2c0-1.1-.6-1.7-1.8-1.7-.8 0-1.5.3-1.9.8l-.5-.6c.5-.5 1.5-.9 2.6-.9 1.4 0 2.5.8 2.5 2.4v2.9c0 .5 0 1.1.1 1.5h-.9c-.1-.3-.1-.7-.1-1.1-.6.9-1.3 1.2-2.4 1.2-1 0-2.3-.5-2.3-2 0-2.1 2.3-2.3 4.7-2.3zm0 .7h-.3c-1.6 0-3.4.2-3.4 1.4 0 .9.8 1.2 1.5 1.2 1.3 0 2.1-1 2.1-2.2v-.4zm7.5-2.3-.7.5c-.3-.5-.9-.9-1.6-.9-.7 0-1.4.3-1.4 1 0 .6.5.9 1.6 1.1 1.5.3 2.3.9 2.3 1.9 0 1.5-1.3 2-2.5 2-1 0-2-.4-2.6-1.3l.8-.6c.3.6 1 1 1.8 1s1.5-.3 1.5-1.1c0-.7-.7-1-1.9-1.3-.8-.2-1.9-.5-1.9-1.8s1.1-1.9 2.3-1.9c.9.3 1.9.7 2.3 1.4zm6 1.8h4.5c-.1-1.2-.8-2.1-2.2-2.1-1.2 0-2.2 1-2.3 2.1zm5.5.3v.4H793c0 1.3 1 2.4 2.4 2.4 1 0 1.7-.5 2.1-1.1l.7.6c-.8 1-1.7 1.4-2.8 1.4-1.9 0-3.4-1.5-3.4-3.4s1.4-3.4 3.3-3.4c2.1-.1 3.2 1.3 3.2 3.1zm2-3.1h.9c0 .3.1.8.1 1.1.4-.8 1.3-1.3 2.2-1.3 1.7 0 2.5 1.1 2.5 2.7v4h-1v-3.6c0-1.4-.4-2.3-1.8-2.3-1 0-2 .8-2 2.6v3.4h-1v-5.1c.1-.4.1-1 .1-1.5zm13.6 1-.7.5c-.3-.5-1-.9-1.7-.9-1.5 0-2.5 1.1-2.5 2.6s1 2.6 2.5 2.6c.8 0 1.4-.4 1.8-.9l.7.5c-.6.7-1.4 1.1-2.5 1.1-2.1 0-3.5-1.5-3.5-3.4s1.4-3.4 3.5-3.4c.9.2 1.9.5 2.4 1.3zm8.1 2.3c0 2-1.5 3.4-3.5 3.4s-3.5-1.5-3.5-3.4 1.5-3.4 3.5-3.4 3.5 1.4 3.5 3.4zm-1 0c0-1.5-1-2.6-2.5-2.6s-2.5 1.2-2.5 2.6 1 2.6 2.5 2.6 2.5-1.1 2.5-2.6zm3-1.8c0-.4 0-1-.1-1.4h.9c0 .3.1.8.1 1.1.4-.8 1.2-1.3 2.1-1.3.2 0 .4 0 .6.1l-.1.9c-.1 0-.4-.1-.7-.1-1 0-1.9.7-1.9 2.5v3.4h-1v-5.2zm5.3 1.3h4.5c-.1-1.2-.8-2.1-2.2-2.1-1.2 0-2.2 1-2.3 2.1zm5.5.3v.4h-5.4c0 1.3 1 2.4 2.4 2.4 1 0 1.7-.5 2.1-1.1l.7.6c-.8 1-1.7 1.4-2.8 1.4-1.9 0-3.4-1.5-3.4-3.4s1.4-3.4 3.3-3.4c2-.1 3.1 1.3 3.1 3.1zm6-.3h4.5c-.1-1.2-.8-2.1-2.2-2.1-1.2 0-2.2 1-2.3 2.1zm5.5.3v.4H841c0 1.3 1 2.4 2.4 2.4 1 0 1.7-.5 2.1-1.1l.7.6c-.8 1-1.7 1.4-2.8 1.4-1.9 0-3.4-1.5-3.4-3.4s1.4-3.4 3.3-3.4c2.1-.1 3.2 1.3 3.2 3.1zm-1.1-6.4-1.8 2h-.8l1.4-2h1.2zm6.1 3.3v.8h-1.8v3.8c0 1 .4 1.2 1 1.2.3 0 .6-.1.8-.2v.8c-.3.1-.7.2-1.1.2-.7 0-1.7-.3-1.7-1.8v-4h-1.4v-.8h1.4v-1.8h1v1.8h1.8zm2 2.8h4.5c-.1-1.2-.8-2.1-2.2-2.1-1.3 0-2.2 1-2.3 2.1zm5.4.3v.4h-5.4c0 1.3 1 2.4 2.4 2.4 1 0 1.7-.5 2.1-1.1l.7.6c-.8 1-1.7 1.4-2.8 1.4-1.9 0-3.4-1.5-3.4-3.4s1.4-3.4 3.3-3.4c2-.1 3.1 1.3 3.1 3.1zm-1-6.4-1.8 2h-.8l1.4-2h1.2zm9.3 3.3v.8h-1.5v5.8h-1V441h-1.4v-.8h1.4v-1.8c0-1.5.7-2.4 2.2-2.4.2 0 .5 0 .8.1l-.2.8c-.2-.1-.4-.1-.7-.1-1 0-1.2.7-1.2 1.7v1.7h1.6zm5.5 2.6v-.2c0-1.1-.6-1.7-1.8-1.7-.8 0-1.5.3-1.9.8l-.5-.6c.5-.5 1.5-.9 2.6-.9 1.4 0 2.5.8 2.5 2.4v2.9c0 .5 0 1.1.1 1.5h-.9c-.1-.3-.1-.7-.1-1.1-.6.9-1.3 1.2-2.4 1.2-1 0-2.3-.5-2.3-2 .1-2.1 2.3-2.3 4.7-2.3zm0 .7h-.3c-1.6 0-3.4.2-3.4 1.4 0 .9.8 1.2 1.5 1.2 1.3 0 2.1-1 2.1-2.2v-.4zm8.8-2.3-.7.5c-.3-.5-1-.9-1.7-.9-1.5 0-2.5 1.1-2.5 2.6s1 2.6 2.5 2.6c.8 0 1.4-.4 1.8-.9l.7.5c-.6.7-1.4 1.1-2.5 1.1-2.1 0-3.5-1.5-3.5-3.4s1.4-3.4 3.5-3.4c.9.2 1.9.5 2.4 1.3zm4.5-1v.8h-1.8v3.8c0 1 .4 1.2 1 1.2.3 0 .6-.1.8-.2v.8c-.3.1-.7.2-1.1.2-.7 0-1.7-.3-1.7-1.8v-4h-1.4v-.8h1.4v-1.8h1v1.8h1.8zm7.2 6.6h-.9c0-.4-.1-.8-.1-1.1-.4.8-1.3 1.3-2.2 1.3-1.7 0-2.5-1.1-2.5-2.7v-4h1v3.6c0 1.4.4 2.3 1.8 2.3 1 0 2-.8 2-2.6v-3.4h1v5.1c-.2.4-.2 1-.1 1.5zm2.4-5.1c0-.4 0-1-.1-1.4h.9c0 .3.1.8.1 1.1.4-.8 1.2-1.3 2.1-1.3.2 0 .4 0 .6.1l-.1.9c-.1 0-.4-.1-.7-.1-1 0-1.9.7-1.9 2.5v3.4h-1v-5.2zm5.4 1.3h4.5c-.1-1.2-.8-2.1-2.2-2.1-1.3 0-2.3 1-2.3 2.1zm5.4.3v.4H901c0 1.3 1 2.4 2.4 2.4 1 0 1.7-.5 2.1-1.1l.7.6c-.8 1-1.7 1.4-2.8 1.4-1.9 0-3.4-1.5-3.4-3.4s1.4-3.4 3.3-3.4c2-.1 3.1 1.3 3.1 3.1zm-1-6.4-1.8 2h-.8l1.4-2h1.2zm3.6 6.1h4.5c-.1-1.2-.8-2.1-2.2-2.1-1.3 0-2.2 1-2.3 2.1zm5.4.3v.4H909c0 1.3 1 2.4 2.4 2.4 1 0 1.7-.5 2.1-1.1l.7.6c-.8 1-1.7 1.4-2.8 1.4-1.9 0-3.4-1.5-3.4-3.4s1.4-3.4 3.3-3.4c2-.1 3.1 1.3 3.1 3.1zm6.3-2.1-.7.5c-.3-.5-.9-.9-1.6-.9-.7 0-1.4.3-1.4 1 0 .6.5.9 1.6 1.1 1.5.3 2.3.9 2.3 1.9 0 1.5-1.3 2-2.5 2-1 0-2-.4-2.6-1.3l.8-.6c.3.6 1 1 1.8 1s1.5-.3 1.5-1.1c0-.7-.7-1-1.9-1.3-.8-.2-1.9-.5-1.9-1.8s1.1-1.9 2.3-1.9c.9.3 1.8.7 2.3 1.4z"/><g class="projets_heures_travaillees_svg__st11"><path class="projets_heures_travaillees_svg__st2" d="M290 409.8h4.4c3.3 0 6.9 1.9 6.9 6.4 0 4.4-3.6 6.4-6.9 6.4H290v-12.8zm1.8 11.2h2.2c3.1 0 5.3-1.8 5.3-4.8 0-3.2-2.3-4.8-5.3-4.8h-2.2v9.6zm19.8-2.2h-6.8c.1 1.5 1.3 2.6 2.8 2.6 1.2 0 2-.6 2.5-1.3l1.2 1c-.9 1.2-2.2 1.7-3.7 1.7-2.6 0-4.5-1.8-4.5-4.5s1.9-4.5 4.4-4.5c2.5 0 4.1 1.7 4.1 4.4v.6zm-1.7-1.3c0-1.4-.8-2.4-2.4-2.4-1.5 0-2.6 1.1-2.7 2.4h5.1zm-1.9-5.1h-1.4l1.8-2.6h2l-2.4 2.6zm7.7 14.5H314V414h1.7v1.3h.1c.6-.9 1.7-1.6 3.1-1.6 2.5 0 4.3 2 4.3 4.5s-1.7 4.5-4.3 4.5c-1.2 0-2.4-.6-3-1.5h-.1v5.7zm2.7-11.7c-1.7 0-2.9 1.5-2.9 3.1s1.2 3.1 2.9 3.1c1.9 0 2.8-1.5 2.8-3.1s-.9-3.1-2.8-3.1zm14.9 3.6h-6.8c.1 1.5 1.3 2.6 2.8 2.6 1.2 0 2-.6 2.5-1.3l1.2 1c-.9 1.2-2.2 1.7-3.7 1.7-2.6 0-4.5-1.8-4.5-4.5s1.9-4.5 4.4-4.5c2.5 0 4.1 1.7 4.1 4.4v.6zm-1.7-1.3c0-1.4-.8-2.4-2.4-2.4-1.5 0-2.6 1.1-2.7 2.4h5.1zm5.6-3.5c0 .4.1 1 .1 1.4h.1c.4-.9 1.5-1.6 2.8-1.6 2.2 0 3.2 1.6 3.2 3.5v5.3h-1.7v-4.7c0-1.4-.4-2.6-1.9-2.6-1.3 0-2.3 1.1-2.3 2.8v4.5h-1.7v-6.7c0-.5 0-1.3-.1-1.8h1.5zm13.6 2.2c-.4-.6-1.1-1.1-2-1.1-.8 0-1.6.3-1.6 1.1 0 .7.6 1 1.9 1.3 1.6.4 2.9 1 2.9 2.5 0 2-1.7 2.8-3.4 2.8-1.3 0-2.6-.5-3.4-1.5l1.2-1c.5.7 1.3 1.2 2.3 1.2.8 0 1.7-.3 1.7-1.2 0-.8-.8-1.1-2.2-1.4-1.1-.3-2.5-.8-2.5-2.4 0-1.8 1.6-2.6 3.2-2.6 1.2 0 2.5.5 3.1 1.4l-1.2.9zm11.3 2.6h-6.8c.1 1.5 1.3 2.6 2.8 2.6 1.2 0 2-.6 2.5-1.3l1.2 1c-.9 1.2-2.2 1.7-3.7 1.7-2.6 0-4.5-1.8-4.5-4.5s1.9-4.5 4.4-4.5c2.5 0 4.1 1.7 4.1 4.4v.6zm-1.7-1.3c0-1.4-.8-2.4-2.4-2.4-1.5 0-2.6 1.1-2.7 2.4h5.1zm8.7-1.3c-.4-.6-1.1-1.1-2-1.1-.8 0-1.6.3-1.6 1.1 0 .7.6 1 1.9 1.3 1.6.4 2.9 1 2.9 2.5 0 2-1.7 2.8-3.4 2.8-1.3 0-2.6-.5-3.4-1.5l1.2-1c.5.7 1.3 1.2 2.3 1.2.8 0 1.7-.3 1.7-1.2 0-.8-.8-1.1-2.2-1.4-1.1-.3-2.5-.8-2.5-2.4 0-1.8 1.6-2.6 3.2-2.6 1.2 0 2.5.5 3.1 1.4l-1.2.9zm15.8 2.6h-6.8c.1 1.5 1.3 2.6 2.8 2.6 1.2 0 2-.6 2.5-1.3l1.2 1c-.9 1.2-2.2 1.7-3.7 1.7-2.6 0-4.5-1.8-4.5-4.5s1.9-4.5 4.4-4.5c2.5 0 4.1 1.7 4.1 4.4v.6zm-1.7-1.3c0-1.4-.8-2.4-2.4-2.4-1.5 0-2.6 1.1-2.7 2.4h5.1zm8.3-2.1h-2.3v4.4c0 1 .4 1.4 1.2 1.4.3 0 .7-.1 1-.2l.1 1.4c-.4.1-.9.2-1.4.2-1.6 0-2.5-.9-2.5-2.7v-4.6H386V414h1.6v-2.4h1.7v2.4h2.3v1.4zm8-.1c.4-.8 1.5-1.5 2.7-1.5 2.2 0 3.2 1.6 3.2 3.5v5.3h-1.7v-4.7c0-1.4-.4-2.6-1.9-2.6-1.3 0-2.3 1.1-2.3 2.8v4.5h-1.7V409h1.7v6.3zm16.7 3.5h-6.8c.1 1.5 1.3 2.6 2.8 2.6 1.2 0 2-.6 2.5-1.3l1.2 1c-.9 1.2-2.2 1.7-3.7 1.7-2.6 0-4.5-1.8-4.5-4.5s1.9-4.5 4.4-4.5c2.5 0 4.1 1.7 4.1 4.4v.6zm-1.7-1.3c0-1.4-.8-2.4-2.4-2.4-1.5 0-2.6 1.1-2.7 2.4h5.1zm10 5c0-.4-.1-1-.1-1.4-.4.9-1.5 1.6-2.8 1.6-2.2 0-3.2-1.6-3.2-3.5V414h1.7v4.7c0 1.4.4 2.6 1.9 2.6 1.4 0 2.3-1.1 2.3-2.8V414h1.7v6.7c0 .5 0 1.3.1 1.8h-1.6zm4.4-8.5h1.6c0 .4.1 1.1.1 1.4h.1c.5-1 1.5-1.7 2.6-1.7.2 0 .5 0 .7.1l-.1 1.6c-.2-.1-.5-.1-.8-.1-1.6 0-2.4 1.3-2.4 2.7v4.5H429v-6.7c0-.4 0-1.2-.1-1.8zm14.2 4.8h-6.8c.1 1.5 1.3 2.6 2.8 2.6 1.2 0 2-.6 2.5-1.3l1.2 1c-.9 1.2-2.2 1.7-3.7 1.7-2.6 0-4.5-1.8-4.5-4.5s1.9-4.5 4.4-4.5c2.5 0 4.1 1.7 4.1 4.4.1.2.1.4 0 .6zm-1.7-1.3c0-1.4-.8-2.4-2.4-2.4-1.5 0-2.6 1.1-2.7 2.4h5.1zm8.7-1.3c-.4-.6-1.1-1.1-2-1.1-.8 0-1.6.3-1.6 1.1 0 .7.6 1 1.9 1.3 1.6.4 2.9 1 2.9 2.5 0 2-1.7 2.8-3.4 2.8-1.3 0-2.6-.5-3.4-1.5l1.2-1c.5.7 1.3 1.2 2.3 1.2.8 0 1.7-.3 1.7-1.2 0-.8-.8-1.1-2.2-1.4-1.1-.3-2.5-.8-2.5-2.4 0-1.8 1.6-2.6 3.2-2.6 1.2 0 2.5.5 3.1 1.4l-1.2.9zm12.1-.8h-2.3v4.4c0 1 .4 1.4 1.2 1.4.3 0 .7-.1 1-.2l.1 1.4c-.4.1-.9.2-1.4.2-1.6 0-2.5-.9-2.5-2.7v-4.6h-1.6V414h1.6v-2.4h1.7v2.4h2.3v1.4zm1.7-1.4h1.6c0 .4.1 1.1.1 1.4h.1c.5-1 1.5-1.7 2.6-1.7.2 0 .5 0 .7.1l-.1 1.6c-.2-.1-.5-.1-.8-.1-1.6 0-2.4 1.3-2.4 2.7v4.5H464v-6.7c-.1-.4-.1-1.2-.1-1.8zm11.6 3c0-1.3-.8-1.9-2.1-1.9-1 0-1.9.4-2.4 1l-.9-1.1c.8-.8 2.1-1.3 3.5-1.3 2.4 0 3.6 1.5 3.6 3.3v3.7c0 .6 0 1.3.1 1.7h-1.5c-.1-.4-.1-.8-.1-1.2h-.1c-.6.9-1.6 1.4-2.9 1.4-1.4 0-3.1-.7-3.1-2.6 0-2.6 3.1-2.9 5.9-2.9v-.1zm-.4 1.5c-1.7 0-3.8.2-3.8 1.6 0 1 .9 1.3 1.7 1.3 1.6 0 2.5-1.1 2.5-2.5v-.5h-.4zm8.9 4h-1.8l-3.5-8.5h1.9l2.5 6.7 2.5-6.7h1.8l-3.4 8.5zm10.3-5.5c0-1.3-.8-1.9-2.1-1.9-1 0-1.9.4-2.4 1l-.9-1.1c.8-.8 2.1-1.3 3.5-1.3 2.4 0 3.6 1.5 3.6 3.3v3.7c0 .6 0 1.3.1 1.7h-1.5c-.1-.4-.1-.8-.1-1.2h-.1c-.6.9-1.6 1.4-2.9 1.4-1.4 0-3.1-.7-3.1-2.6 0-2.6 3.1-2.9 5.9-2.9v-.1zm-.4 1.5c-1.7 0-3.8.2-3.8 1.6 0 1 .9 1.3 1.7 1.3 1.6 0 2.5-1.1 2.5-2.5v-.5h-.4zm5.8-6.5c-.6 0-1.1-.5-1.1-1.1 0-.6.5-1.1 1.1-1.1.6 0 1.1.5 1.1 1.1 0 .6-.5 1.1-1.1 1.1zm.8 10.5h-1.7V414h1.7v8.5zm4.7 0h-1.7v-13.6h1.7v13.6zm4.7 0h-1.7v-13.6h1.7v13.6zm10.9-3.7H514c.1 1.5 1.3 2.6 2.8 2.6 1.2 0 2-.6 2.5-1.3l1.2 1c-.9 1.2-2.2 1.7-3.7 1.7-2.6 0-4.5-1.8-4.5-4.5s1.9-4.5 4.4-4.5c2.5 0 4.1 1.7 4.1 4.4v.6zm-1.7-1.3c0-1.4-.8-2.4-2.4-2.4-1.5 0-2.6 1.1-2.7 2.4h5.1zm-1.9-5.1h-1.4l1.8-2.6h2l-2.4 2.6zm13.9 6.4h-6.8c.1 1.5 1.3 2.6 2.8 2.6 1.2 0 2-.6 2.5-1.3l1.2 1c-.9 1.2-2.2 1.7-3.7 1.7-2.6 0-4.5-1.8-4.5-4.5s1.9-4.5 4.4-4.5c2.5 0 4.1 1.7 4.1 4.4v.6zm-1.7-1.3c0-1.4-.8-2.4-2.4-2.4-1.5 0-2.6 1.1-2.7 2.4h5.1zm8.7-1.3c-.4-.6-1.1-1.1-2-1.1-.8 0-1.6.3-1.6 1.1 0 .7.6 1 1.9 1.3 1.6.4 2.9 1 2.9 2.5 0 2-1.7 2.8-3.4 2.8-1.3 0-2.6-.5-3.4-1.5l1.2-1c.4.7 1.3 1.2 2.3 1.2.8 0 1.7-.3 1.7-1.2 0-.8-.8-1.1-2.2-1.4-1.1-.3-2.5-.8-2.5-2.4 0-1.8 1.6-2.6 3.2-2.6 1.2 0 2.5.5 3.1 1.4l-1.2.9zm9.4-2.2c0 .4.1 1 .1 1.4h.1c.4-.9 1.5-1.6 2.8-1.6 2.2 0 3.2 1.6 3.2 3.5v5.3H552v-4.7c0-1.4-.4-2.6-1.9-2.6-1.3 0-2.3 1.1-2.3 2.8v4.5h-1.7v-6.7c0-.5 0-1.3-.1-1.8h1.5zm12.9 8.8c-2.6 0-4.6-1.9-4.6-4.5s2-4.5 4.6-4.5 4.6 1.9 4.6 4.5-1.9 4.5-4.6 4.5zm0-7.6c-1.8 0-2.8 1.5-2.8 3.1s1 3.1 2.8 3.1c1.8 0 2.8-1.5 2.8-3.1.1-1.7-.9-3.1-2.8-3.1zm8.5-1.2c0 .4.1 1 .1 1.4h.1c.4-.9 1.5-1.6 2.8-1.6 2.2 0 3.2 1.6 3.2 3.5v5.3h-1.7v-4.7c0-1.4-.4-2.6-1.9-2.6-1.3 0-2.3 1.1-2.3 2.8v4.5h-1.7v-6.7c0-.5 0-1.3-.1-1.8h1.5zm17.5 1.4h-2v7.1h-1.7v-7.1H581V414h1.7v-1.8c0-2 .9-3.5 3.2-3.5.4 0 .7 0 1.1.1l-.2 1.5c-.3-.1-.5-.1-.8-.1-1.3 0-1.5 1-1.5 2.1v1.8h2v1.3zm6.9 1.6c0-1.3-.8-1.9-2.1-1.9-1 0-1.9.4-2.4 1l-.9-1.1c.8-.8 2.1-1.3 3.5-1.3 2.4 0 3.6 1.5 3.6 3.3v3.7c0 .6 0 1.3.1 1.7h-1.5c-.1-.4-.1-.8-.1-1.2h-.1c-.6.9-1.6 1.4-2.9 1.4-1.4 0-3.1-.7-3.1-2.6 0-2.6 3.1-2.9 5.9-2.9v-.1zm-.5 1.5c-1.7 0-3.8.2-3.8 1.6 0 1 .9 1.3 1.7 1.3 1.6 0 2.5-1.1 2.5-2.5v-.5h-.4zm10.9-2.3c-.4-.6-1.2-1-2-1-1.8 0-2.8 1.4-2.8 3.1 0 1.6 1 3.1 2.8 3.1.9 0 1.6-.4 2.1-.9l1.1 1c-.7.8-1.8 1.3-3.2 1.3-2.6 0-4.6-1.8-4.6-4.5s1.9-4.5 4.6-4.5c1.2 0 2.5.5 3.2 1.4l-1.2 1zm7.1-.8h-2.3v4.4c0 1 .4 1.4 1.2 1.4.3 0 .7-.1 1-.2l.1 1.4c-.4.1-.9.2-1.4.2-1.6 0-2.5-.9-2.5-2.7v-4.6h-1.6V414h1.6v-2.4h1.7v2.4h2.3v1.4zm7.7 7.1c0-.4-.1-1-.1-1.4-.4.9-1.5 1.6-2.8 1.6-2.2 0-3.2-1.6-3.2-3.5V414h1.7v4.7c0 1.4.4 2.6 1.9 2.6 1.4 0 2.3-1.1 2.3-2.8V414h1.7v6.7c0 .5 0 1.3.1 1.8h-1.6zm4.4-8.5h1.6c0 .4.1 1.1.1 1.4h.1c.5-1 1.5-1.7 2.6-1.7.2 0 .5 0 .7.1l-.1 1.6c-.2-.1-.5-.1-.8-.1-1.6 0-2.4 1.3-2.4 2.7v4.5H623v-6.7c0-.4 0-1.2-.1-1.8zm14.2 4.8h-6.8c.1 1.5 1.3 2.6 2.8 2.6 1.2 0 2-.6 2.5-1.3l1.2 1c-.9 1.2-2.2 1.7-3.7 1.7-2.6 0-4.5-1.8-4.5-4.5s1.9-4.5 4.4-4.5c2.5 0 4.1 1.7 4.1 4.4v.6zm-1.7-1.3c0-1.4-.8-2.4-2.4-2.4-1.5 0-2.6 1.1-2.7 2.4h5.1zm-1.9-5.1h-1.4l1.8-2.6h2l-2.4 2.6zm13.9 6.4h-6.8c.1 1.5 1.3 2.6 2.8 2.6 1.2 0 2-.6 2.5-1.3l1.2 1c-.9 1.2-2.2 1.7-3.7 1.7-2.6 0-4.5-1.8-4.5-4.5s1.9-4.5 4.4-4.5c2.5 0 4.1 1.7 4.1 4.4.1.2.1.4 0 .6zm-1.7-1.3c0-1.4-.8-2.4-2.4-2.4-1.5 0-2.6 1.1-2.7 2.4h5.1zm8.7-1.3c-.4-.6-1.1-1.1-2-1.1-.8 0-1.6.3-1.6 1.1 0 .7.6 1 1.9 1.3 1.6.4 2.9 1 2.9 2.5 0 2-1.7 2.8-3.4 2.8-1.3 0-2.6-.5-3.4-1.5l1.2-1c.5.7 1.3 1.2 2.3 1.2.8 0 1.7-.3 1.7-1.2 0-.8-.8-1.1-2.2-1.4-1.1-.3-2.5-.8-2.5-2.4 0-1.8 1.6-2.6 3.2-2.6 1.2 0 2.5.5 3.1 1.4l-1.2.9z"/></g><path id="projets_heures_travaillees_svg__Divider_2_" class="projets_heures_travaillees_svg__st12" d="M204 468h777.1"/><path d="M184 199.8h803.6v5.2H184z"/><path class="projets_heures_travaillees_svg__st7" d="M184 199.8h803.6v5.2H184z"/><path id="projets_heures_travaillees_svg__Tab-Highlight-2-Copy-2" class="projets_heures_travaillees_svg__st4" d="M180.9 194.8h169v5.2h-169z"/><path id="projets_heures_travaillees_svg__Mappings-Copy-2" class="projets_heures_travaillees_svg__st6" d="M412.6 177c0 3-2.2 5.2-5.2 5.2s-5.2-2.2-5.2-5.2 2.2-5.2 5.2-5.2 5.2 2.2 5.2 5.2zm-1.1 0c0-2.3-1.6-4.3-4.1-4.3-2.5 0-4.1 2-4.1 4.3s1.6 4.3 4.1 4.3c2.6.1 4.1-1.9 4.1-4.3zm4.4 3.9v4.5h-1v-9.9h1v1.1c.5-.9 1.5-1.3 2.5-1.3 2 0 3.4 1.5 3.4 3.4s-1.3 3.4-3.4 3.4c-1 .1-1.9-.4-2.5-1.2zm4.8-2.2c0-1.5-.9-2.6-2.5-2.6-1.5 0-2.5 1.1-2.5 2.6s1.1 2.6 2.5 2.6c1.7.1 2.5-1.1 2.5-2.6zm3.9-.5h4.5c-.1-1.2-.8-2.1-2.2-2.1-1.2 0-2.2 1-2.3 2.1zm5.5.3v.4h-5.4c0 1.3 1 2.4 2.4 2.4 1 0 1.7-.5 2.1-1.1l.7.6c-.8 1-1.7 1.4-2.8 1.4-1.9 0-3.4-1.5-3.4-3.4s1.4-3.4 3.3-3.4c2-.1 3.1 1.3 3.1 3.1zm-1.1-6.4-1.8 2h-.8l1.4-2h1.2zm3.4 4.8c0-.4 0-1-.1-1.4h.9c0 .4.1.8.1 1.1.4-.8 1.2-1.3 2.1-1.3.2 0 .4 0 .6.1l-.1.9c-.1 0-.4-.1-.7-.1-1 0-1.9.7-1.9 2.5v3.4h-1v-5.2zm9.3 1.1v-.2c0-1.1-.6-1.7-1.8-1.7-.8 0-1.5.3-1.9.8l-.5-.6c.5-.5 1.5-.9 2.6-.9 1.4 0 2.5.8 2.5 2.4v2.9c0 .5 0 1.1.1 1.5h-.9c-.1-.3-.1-.7-.1-1.1-.6.9-1.3 1.2-2.4 1.2-1 0-2.3-.5-2.3-2 .1-2.1 2.3-2.3 4.7-2.3zm0 .7h-.3c-1.6 0-3.4.2-3.4 1.4 0 .9.8 1.2 1.5 1.2 1.3 0 2.1-1 2.1-2.2v-.4zm6.5-3.3v.8h-1.8v3.8c0 1 .4 1.2 1 1.2.3 0 .6-.1.8-.2v.8c-.3.1-.7.2-1.1.2-.7 0-1.7-.3-1.7-1.8v-4.1H444v-.8h1.4v-1.8h1v1.8h1.8zm2.7 0v6.6h-1v-6.6h1zm.2-2.5c0 .4-.3.7-.7.7s-.7-.3-.7-.7c0-.4.3-.7.7-.7s.7.3.7.7zm9.1 5.8c0 2-1.5 3.4-3.5 3.4s-3.5-1.5-3.5-3.4 1.5-3.4 3.5-3.4c2.1 0 3.5 1.5 3.5 3.4zm-1 0c0-1.5-1-2.6-2.5-2.6s-2.5 1.2-2.5 2.6 1 2.6 2.5 2.6c1.6.1 2.5-1.1 2.5-2.6zm3.3-3.3h.9c0 .4.1.8.1 1.1.4-.8 1.3-1.3 2.2-1.3 1.7 0 2.5 1.1 2.5 2.7v4h-1v-3.6c0-1.4-.4-2.3-1.8-2.3-1 0-2 .8-2 2.6v3.4h-1v-5.1c.2-.4.2-1 .1-1.5zm12.7 1.1-.7.5c-.3-.5-.9-.9-1.6-.9-.7 0-1.4.3-1.4 1 0 .6.5.9 1.6 1.1 1.5.3 2.3.9 2.3 1.9 0 1.5-1.3 2-2.5 2-1 0-2-.4-2.6-1.3l.8-.6c.3.6 1.1 1 1.8 1 .8 0 1.5-.3 1.5-1.1 0-.7-.7-1-1.9-1.3-.8-.2-1.9-.5-1.9-1.8s1.1-1.9 2.3-1.9c.9.2 1.9.6 2.3 1.4z"/><path id="projets_heures_travaillees_svg__Rapports-sur-les-pro" class="projets_heures_travaillees_svg__st2" d="M193.5 182v-9.9h3.4c1.9 0 3.7.7 3.7 2.8 0 1.4-.9 2.4-2.3 2.7l2.6 4.4h-2.1l-2.3-4.2h-1.3v4.2h-1.7zm1.8-5.6h1.4c1 0 2.1-.2 2.1-1.4 0-1.1-1.1-1.3-2-1.3h-1.6v2.7zm11 5.6v-.9c-.3.6-1.1 1-2.1 1-1.1 0-2.5-.5-2.5-2.1 0-2 2.5-2.3 4.6-2.3v-.2c0-.8-.7-1.2-1.5-1.2-.7 0-1.4.3-1.8.8l-.9-1c.8-.7 1.8-1.1 2.8-1.1 2.4 0 3 1.5 3 2.8v4.1h-1.6zm0-2.8v-.2h-.4c-1.1 0-2.6.1-2.6 1.1 0 .6.6.8 1.2.8 1.1 0 1.8-.7 1.8-1.7zm3.5-3.9h1.6v.9c.3-.5 1.1-1.1 2.3-1.1 1.9 0 3.3 1.5 3.3 3.5s-1.3 3.6-3.3 3.6c-.9 0-1.8-.4-2.2-1.1v4.3h-1.7v-10.1zm5.6 3.3c0-1.1-.6-2.2-1.9-2.2-1.2 0-2 1.1-2 2.2s.7 2.2 2 2.2c1.2 0 1.9-1.1 1.9-2.2zm3.3-3.3h1.6v.9c.3-.5 1.1-1.1 2.3-1.1 1.9 0 3.3 1.5 3.3 3.5s-1.3 3.6-3.3 3.6c-.9 0-1.8-.4-2.2-1.1v4.3h-1.7v-10.1zm5.6 3.3c0-1.1-.6-2.2-1.9-2.2-1.2 0-2 1.1-2 2.2s.7 2.2 2 2.2c1.2 0 1.9-1.1 1.9-2.2zm2.9 0c0-2.1 1.6-3.5 3.7-3.5s3.7 1.4 3.7 3.5-1.6 3.6-3.7 3.6-3.7-1.5-3.7-3.6zm1.7 0c0 1.1.6 2.2 1.9 2.2s1.9-1.1 1.9-2.2-.6-2.2-1.9-2.2-1.9 1.2-1.9 2.2zm7.3 3.4v-6.7h1.6v1.1c.4-.8 1.1-1.3 2-1.3h.4v1.5c-.2-.1-.4-.1-.5-.1-1.5 0-1.8 1.3-1.8 1.8v3.6h-1.7zm5.1-5.4h-1.2v-1.3h1.2v-1.9h1.7v1.9h1.7v1.3H243v3.1c0 .6.1 1 .9 1 .2 0 .5 0 .7-.1l.1 1.3c-.3.1-.7.2-1.1.2-1.8 0-2.2-1.1-2.2-2.4v-3.1zm9.4-.5-1.1 1c-.3-.4-.9-.7-1.5-.7-.5 0-1.1.2-1.1.7 0 .5.5.7 1.5.9 1 .2 2.2.7 2.2 2 0 1.6-1.3 2.2-2.8 2.2-1 0-2.1-.4-2.8-1.1l1.1-1c.4.5 1 .8 1.7.8.5 0 1.1-.2 1.1-.8 0-.6-.5-.7-1.5-1-1-.2-2-.6-2-1.9 0-1.5 1.3-2.1 2.7-2.1.9 0 2 .3 2.5 1zm9.8 0-1.1 1c-.3-.4-.9-.7-1.5-.7-.5 0-1.1.2-1.1.7 0 .5.5.7 1.5.9 1 .2 2.2.7 2.2 2 0 1.6-1.3 2.2-2.8 2.2-1 0-2.1-.4-2.8-1.1l1.1-1c.4.5 1 .8 1.7.8.5 0 1.1-.2 1.1-.8 0-.6-.5-.7-1.5-1-1-.2-2-.6-2-1.9 0-1.5 1.3-2.1 2.7-2.1.9 0 1.9.3 2.5 1zm7.6-.8v6.7h-1.6v-1.1c-.3.7-1.1 1.3-2.1 1.3-1.8 0-2.5-1.3-2.5-2.7v-4.2h1.7v3.7c0 .8.2 1.8 1.3 1.8s1.6-.9 1.6-1.8v-3.7h1.6zm2 6.7v-6.7h1.6v1.1c.4-.8 1.1-1.3 2-1.3h.4v1.5c-.2-.1-.4-.1-.5-.1-1.5 0-1.8 1.3-1.8 1.8v3.6h-1.7zm8.7 0v-10.6h1.7V182h-1.7zm5-4h3.4c0-.9-.5-1.6-1.6-1.6-.9-.1-1.7.6-1.8 1.6zm5.2.7v.4h-5.1c.1 1 .9 1.7 1.9 1.7.8 0 1.4-.3 1.8-.9l1.1.9c-.7.9-1.6 1.3-2.9 1.3-2.1 0-3.6-1.3-3.6-3.5s1.5-3.6 3.6-3.6c1.8.1 3.2 1.3 3.2 3.7zm6.4-2.6-1.1 1c-.3-.4-.9-.7-1.5-.7-.5 0-1.1.2-1.1.7 0 .5.5.7 1.5.9 1 .2 2.2.7 2.2 2 0 1.6-1.3 2.2-2.8 2.2-1 0-2.1-.4-2.8-1.1l1.1-1c.4.5 1 .8 1.7.8.5 0 1.1-.2 1.1-.8 0-.6-.5-.7-1.5-1-1-.2-2-.6-2-1.9 0-1.5 1.3-2.1 2.7-2.1.9 0 1.9.3 2.5 1zm5-.8h1.6v.9c.3-.5 1.1-1.1 2.3-1.1 1.9 0 3.3 1.5 3.3 3.5s-1.3 3.6-3.3 3.6c-.9 0-1.8-.4-2.2-1.1v4.3h-1.7v-10.1zm5.5 3.3c0-1.1-.6-2.2-1.9-2.2-1.2 0-2 1.1-2 2.2s.7 2.2 2 2.2 1.9-1.1 1.9-2.2zm3.4 3.4v-6.7h1.6v1.1c.4-.8 1.1-1.3 2-1.3h.4v1.5c-.2-.1-.4-.1-.5-.1-1.5 0-1.8 1.3-1.8 1.8v3.6h-1.7zm4.4-3.4c0-2.1 1.6-3.5 3.7-3.5 2 0 3.7 1.4 3.7 3.5s-1.6 3.6-3.7 3.6c-2 0-3.7-1.5-3.7-3.6zm1.7 0c0 1.1.6 2.2 1.9 2.2 1.3 0 1.9-1.1 1.9-2.2s-.6-2.2-1.9-2.2c-1.2.1-1.9 1.2-1.9 2.2zm7.3-3.3h1.7v7.1c0 1.6-.4 3-2.4 3-.3 0-.6 0-.8-.1l.1-1.4c.2 0 .3.1.5.1.8 0 .9-.7.9-1.4v-7.3zm-.2-2.3c0-.5.4-1 1.1-1 .6 0 1.1.4 1.1 1s-.5 1-1.1 1c-.7 0-1.1-.5-1.1-1zm5.3 5h3.4c0-.9-.5-1.6-1.6-1.6-1-.1-1.8.6-1.8 1.6zm5.1.7v.4h-5.1c.1 1 .9 1.7 1.9 1.7.8 0 1.4-.3 1.8-.9l1.1.9c-.7.9-1.6 1.3-2.9 1.3-2.1 0-3.6-1.3-3.6-3.5s1.5-3.6 3.6-3.6c1.8.1 3.2 1.3 3.2 3.7zm1.9-2.1h-1.2v-1.3h1.2v-1.9h1.7v1.9h1.7v1.3h-1.7v3.1c0 .6.1 1 .9 1 .2 0 .5 0 .7-.1l.1 1.3c-.3.1-.7.2-1.1.2-1.8 0-2.2-1.1-2.2-2.4v-3.1zm9.3-.5-1.1 1c-.3-.4-.9-.7-1.5-.7-.5 0-1.1.2-1.1.7 0 .5.5.7 1.5.9 1 .2 2.2.7 2.2 2 0 1.6-1.3 2.2-2.8 2.2-1 0-2.1-.4-2.8-1.1l1.1-1c.4.5 1 .8 1.7.8.5 0 1.1-.2 1.1-.8 0-.6-.5-.7-1.5-1-1-.2-2-.6-2-1.9 0-1.5 1.3-2.1 2.7-2.1.9 0 2 .3 2.5 1z"/><defs><filter id="projets_heures_travaillees_svg__Adobe_OpacityMaskFilter" filterUnits="userSpaceOnUse" x="209.4" y="240.9" width="44.2" height="55.3"><feColorMatrix values="1 0 0 0 0 0 1 0 0 0 0 0 1 0 0 0 0 0 1 0"/></filter></defs><mask maskUnits="userSpaceOnUse" x="209.4" y="240.9" width="44.2" height="55.3" id="projets_heures_travaillees_svg__mask-4_1_"><g filter="url(#projets_heures_travaillees_svg__Adobe_OpacityMaskFilter)"><path id="projets_heures_travaillees_svg__path-3_1_" class="projets_heures_travaillees_svg__st10" d="M208 239.5h47v58h-47z"/></g></mask><path id="projets_heures_travaillees_svg__Fill-1_1_" d="M210.8 296.1c-.8 0-1.4-.6-1.4-1.4v-52.5c0-.8.6-1.4 1.4-1.4h32.3c.4 0 .7.1 1 .4l9.1 9.1c.3.3.4.6.4 1v43.4c0 .8-.6 1.4-1.4 1.4h-41.4z" mask="url(#projets_heures_travaillees_svg__mask-4_1_)" fill="#fff"/><defs><filter id="projets_heures_travaillees_svg__Adobe_OpacityMaskFilter_1_" filterUnits="userSpaceOnUse" x="208" y="239.5" width="47" height="58"><feColorMatrix values="1 0 0 0 0 0 1 0 0 0 0 0 1 0 0 0 0 0 1 0"/></filter></defs><mask maskUnits="userSpaceOnUse" x="208" y="239.5" width="47" height="58" id="projets_heures_travaillees_svg__mask-4_2_"><g filter="url(#projets_heures_travaillees_svg__Adobe_OpacityMaskFilter_1_)"><path id="projets_heures_travaillees_svg__path-3_2_" class="projets_heures_travaillees_svg__st10" d="M208 239.5h47v58h-47z"/></g></mask><path id="projets_heures_travaillees_svg__Fill-3_1_" d="m243.1 242.3 9.1 9.1v43.4h-41.4v-52.5h32.3zm0-2.8h-32.3c-1.5 0-2.8 1.2-2.8 2.8v52.5c0 1.5 1.2 2.8 2.8 2.8h41.4c1.5 0 2.8-1.2 2.8-2.8v-43.4c0-.7-.3-1.4-.8-1.9l-9.1-9.1c-.6-.6-1.3-.9-2-.9z" mask="url(#projets_heures_travaillees_svg__mask-4_2_)" fill="#008481"/><defs><filter id="projets_heures_travaillees_svg__Adobe_OpacityMaskFilter_2_" filterUnits="userSpaceOnUse" x="212.2" y="254.8" width="38.6" height="38.6"><feColorMatrix values="1 0 0 0 0 0 1 0 0 0 0 0 1 0 0 0 0 0 1 0"/></filter></defs><mask maskUnits="userSpaceOnUse" x="212.2" y="254.8" width="38.6" height="38.6" id="projets_heures_travaillees_svg__mask-6_1_"><g filter="url(#projets_heures_travaillees_svg__Adobe_OpacityMaskFilter_2_)"><path id="projets_heures_travaillees_svg__path-5_1_" class="projets_heures_travaillees_svg__st10" d="M212.2 254.8h38.6v38.6h-38.6z"/></g></mask><path id="projets_heures_travaillees_svg__Fill-5_1_" mask="url(#projets_heures_travaillees_svg__mask-6_1_)" fill="#00c1bf" fill-opacity=".15" d="M250.8 254.8v38.6h-38.6z"/><path id="projets_heures_travaillees_svg__Fill-8" class="projets_heures_travaillees_svg__st19" d="M244.2 251.8c-.4 0-.9-.2-1.2-.5-.3-.3-.5-.7-.5-1.2v-7.8c0-.4.3-.8.7-1s.9-.1 1.2.2l8.3 8.3c.3.3.4.8.2 1.2-.2.4-.6.7-1 .7h-7.7z"/><path id="projets_heures_travaillees_svg__Fill-10" class="projets_heures_travaillees_svg__st19" d="M243.7 241.6c.2 0 .4.1.5.2l8.3 8.3c.2.2.3.5.2.8-.1.3-.4.5-.7.5h-7.7c-.7 0-1.3-.6-1.3-1.3v-7.7c0-.2.1-.4.2-.5.1-.2.3-.3.5-.3zm0-.7c-.8 0-1.5.7-1.5 1.5v7.8c0 1.1.9 2 2 2h7.8c.6 0 1.1-.4 1.3-.9.2-.5.1-1.2-.3-1.6l-8.3-8.3c-.3-.4-.6-.5-1-.5z"/><path id="projets_heures_travaillees_svg__Stroke-11" class="projets_heures_travaillees_svg__st20" d="M240.7 257.2h6v5.9"/><path id="projets_heures_travaillees_svg__Fill-12" d="M240.5 270.7h5.7c.5 0 .9.4.9.9v16.2c0 .5-.4.9-.9.9h-5.7c-.5 0-.9-.4-.9-.9v-16.2c0-.5.4-.9.9-.9z" fill="#57b520"/><path id="projets_heures_travaillees_svg__Fill-13" class="projets_heures_travaillees_svg__st22" d="M228.9 275.9h5.7c.5 0 .9.4.9.9v10.9c0 .5-.4.9-.9.9h-5.7c-.5 0-.9-.4-.9-.9v-10.9c0-.5.4-.9.9-.9z"/><path id="projets_heures_travaillees_svg__Fill-14" class="projets_heures_travaillees_svg__st22" d="M217.3 281.9h5.7c.5 0 .9.4.9.9v5c0 .5-.4.9-.9.9h-5.7c-.5 0-.9-.4-.9-.9v-5c-.1-.5.4-.9.9-.9z"/><path id="projets_heures_travaillees_svg__Stroke-15" class="projets_heures_travaillees_svg__st20" d="m246.7 257.2-12.4 11.2-3.3-3.6-14.1 12.9"/><defs><filter id="projets_heures_travaillees_svg__Adobe_OpacityMaskFilter_3_" filterUnits="userSpaceOnUse" x="209.2" y="327.2" width="46.5" height="46.5"><feColorMatrix values="1 0 0 0 0 0 1 0 0 0 0 0 1 0 0 0 0 0 1 0"/></filter></defs><mask maskUnits="userSpaceOnUse" x="209.2" y="327.2" width="46.5" height="46.5" id="projets_heures_travaillees_svg__mask-8_1_"><g filter="url(#projets_heures_travaillees_svg__Adobe_OpacityMaskFilter_3_)"><path id="projets_heures_travaillees_svg__path-7_1_" class="projets_heures_travaillees_svg__st10" d="M208 326h49v49h-49z"/></g></mask><path id="projets_heures_travaillees_svg__Fill-1_2_" d="M255.8 350.5c0 12.8-10.4 23.3-23.3 23.3s-23.3-10.4-23.3-23.3c0-12.8 10.4-23.3 23.3-23.3s23.3 10.5 23.3 23.3z" mask="url(#projets_heures_travaillees_svg__mask-8_1_)" fill="#fff"/><defs><filter id="projets_heures_travaillees_svg__Adobe_OpacityMaskFilter_4_" filterUnits="userSpaceOnUse" x="208" y="326" width="49" height="49"><feColorMatrix values="1 0 0 0 0 0 1 0 0 0 0 0 1 0 0 0 0 0 1 0"/></filter></defs><mask maskUnits="userSpaceOnUse" x="208" y="326" width="49" height="49" id="projets_heures_travaillees_svg__mask-8_2_"><g filter="url(#projets_heures_travaillees_svg__Adobe_OpacityMaskFilter_4_)"><path id="projets_heures_travaillees_svg__path-7_2_" class="projets_heures_travaillees_svg__st10" d="M208 326h49v49h-49z"/></g></mask><path id="projets_heures_travaillees_svg__Fill-3_2_" d="M232.5 328.5c12.2 0 22 9.9 22 22 0 12.2-9.9 22-22 22-12.2 0-22-9.9-22-22s9.8-22 22-22zm0-2.5c-13.5 0-24.5 11-24.5 24.5s11 24.5 24.5 24.5 24.5-11 24.5-24.5-11-24.5-24.5-24.5z" mask="url(#projets_heures_travaillees_svg__mask-8_2_)" fill="#008481"/><defs><filter id="projets_heures_travaillees_svg__Adobe_OpacityMaskFilter_5_" filterUnits="userSpaceOnUse" x="212.2" y="349.2" width="5.6" height="2.6"><feColorMatrix values="1 0 0 0 0 0 1 0 0 0 0 0 1 0 0 0 0 0 1 0"/></filter></defs><mask maskUnits="userSpaceOnUse" x="212.2" y="349.2" width="5.6" height="2.6" id="projets_heures_travaillees_svg__mask-8_3_"><g filter="url(#projets_heures_travaillees_svg__Adobe_OpacityMaskFilter_5_)"><path id="projets_heures_travaillees_svg__path-7_3_" class="projets_heures_travaillees_svg__st10" d="M208 326h49v49h-49z"/></g></mask><path id="projets_heures_travaillees_svg__Fill-4_1_" d="M217.8 350.5c0-.7-.6-1.3-1.3-1.3h-2.9c-.5 0-.9.2-1.2.6-.3.4-.3.9 0 1.4.3.4.7.7 1.2.6h2.9c.7 0 1.3-.6 1.3-1.3z" mask="url(#projets_heures_travaillees_svg__mask-8_3_)" fill="#00c1bf"/><defs><filter id="projets_heures_travaillees_svg__Adobe_OpacityMaskFilter_6_" filterUnits="userSpaceOnUse" x="218.3" y="336.3" width="3.2" height="3.2"><feColorMatrix values="1 0 0 0 0 0 1 0 0 0 0 0 1 0 0 0 0 0 1 0"/></filter></defs><mask maskUnits="userSpaceOnUse" x="218.3" y="336.3" width="3.2" height="3.2" id="projets_heures_travaillees_svg__mask-8_4_"><g filter="url(#projets_heures_travaillees_svg__Adobe_OpacityMaskFilter_6_)"><path id="projets_heures_travaillees_svg__path-7_4_" class="projets_heures_travaillees_svg__st10" d="M208 326h49v49h-49z"/></g></mask><path id="projets_heures_travaillees_svg__Fill-5_2_" d="M221.5 337.9c0 .9-.7 1.6-1.6 1.6s-1.6-.7-1.6-1.6.7-1.6 1.6-1.6 1.6.7 1.6 1.6z" mask="url(#projets_heures_travaillees_svg__mask-8_4_)" fill="#57b520"/><defs><filter id="projets_heures_travaillees_svg__Adobe_OpacityMaskFilter_7_" filterUnits="userSpaceOnUse" x="230.9" y="348.9" width="3.2" height="3.2"><feColorMatrix values="1 0 0 0 0 0 1 0 0 0 0 0 1 0 0 0 0 0 1 0"/></filter></defs><mask maskUnits="userSpaceOnUse" x="230.9" y="348.9" width="3.2" height="3.2" id="projets_heures_travaillees_svg__mask-8_5_"><g filter="url(#projets_heures_travaillees_svg__Adobe_OpacityMaskFilter_7_)"><path id="projets_heures_travaillees_svg__path-7_5_" class="projets_heures_travaillees_svg__st10" d="M208 326h49v49h-49z"/></g></mask><path id="projets_heures_travaillees_svg__Fill-6" d="M234.1 350.5c0 .9-.7 1.6-1.6 1.6s-1.6-.7-1.6-1.6c0-.9.7-1.6 1.6-1.6s1.6.7 1.6 1.6z" mask="url(#projets_heures_travaillees_svg__mask-8_5_)" fill="#57b520"/><defs><filter id="projets_heures_travaillees_svg__Adobe_OpacityMaskFilter_8_" filterUnits="userSpaceOnUse" x="218.8" y="336.8" width="14.8" height="14.8"><feColorMatrix values="1 0 0 0 0 0 1 0 0 0 0 0 1 0 0 0 0 0 1 0"/></filter></defs><mask maskUnits="userSpaceOnUse" x="218.8" y="336.8" width="14.8" height="14.8" id="projets_heures_travaillees_svg__mask-8_6_"><g filter="url(#projets_heures_travaillees_svg__Adobe_OpacityMaskFilter_8_)"><path id="projets_heures_travaillees_svg__path-7_6_" class="projets_heures_travaillees_svg__st10" d="M208 326h49v49h-49z"/></g></mask><path id="projets_heures_travaillees_svg__Fill-7" mask="url(#projets_heures_travaillees_svg__mask-8_6_)" fill="#57b520" d="m218.8 339 2.2-2.2 12.6 12.6-2.2 2.2z"/><defs><filter id="projets_heures_travaillees_svg__Adobe_OpacityMaskFilter_9_" filterUnits="userSpaceOnUse" x="239.9" y="345.6" width="3.2" height="3.2"><feColorMatrix values="1 0 0 0 0 0 1 0 0 0 0 0 1 0 0 0 0 0 1 0"/></filter></defs><mask maskUnits="userSpaceOnUse" x="239.9" y="345.6" width="3.2" height="3.2" id="projets_heures_travaillees_svg__mask-8_7_"><g filter="url(#projets_heures_travaillees_svg__Adobe_OpacityMaskFilter_9_)"><path id="projets_heures_travaillees_svg__path-7_7_" class="projets_heures_travaillees_svg__st10" d="M208 326h49v49h-49z"/></g></mask><path id="projets_heures_travaillees_svg__Fill-8_1_" d="M243.1 347.2c0 .9-.7 1.6-1.6 1.6-.9 0-1.6-.7-1.6-1.6s.7-1.6 1.6-1.6c.9 0 1.6.7 1.6 1.6z" mask="url(#projets_heures_travaillees_svg__mask-8_7_)" fill="#57b520"/><defs><filter id="projets_heures_travaillees_svg__Adobe_OpacityMaskFilter_10_" filterUnits="userSpaceOnUse" x="230.9" y="348.9" width="3.2" height="3.2"><feColorMatrix values="1 0 0 0 0 0 1 0 0 0 0 0 1 0 0 0 0 0 1 0"/></filter></defs><mask maskUnits="userSpaceOnUse" x="230.9" y="348.9" width="3.2" height="3.2" id="projets_heures_travaillees_svg__mask-8_8_"><g filter="url(#projets_heures_travaillees_svg__Adobe_OpacityMaskFilter_10_)"><path id="projets_heures_travaillees_svg__path-7_8_" class="projets_heures_travaillees_svg__st10" d="M208 326h49v49h-49z"/></g></mask><path id="projets_heures_travaillees_svg__Fill-9" d="M234.1 350.5c0 .9-.7 1.6-1.6 1.6s-1.6-.7-1.6-1.6c0-.9.7-1.6 1.6-1.6s1.6.7 1.6 1.6z" mask="url(#projets_heures_travaillees_svg__mask-8_8_)" fill="#57b520"/><defs><filter id="projets_heures_travaillees_svg__Adobe_OpacityMaskFilter_11_" filterUnits="userSpaceOnUse" x="232" y="345.7" width="10.1" height="6.3"><feColorMatrix values="1 0 0 0 0 0 1 0 0 0 0 0 1 0 0 0 0 0 1 0"/></filter></defs><mask maskUnits="userSpaceOnUse" x="232" y="345.7" width="10.1" height="6.3" id="projets_heures_travaillees_svg__mask-8_9_"><g filter="url(#projets_heures_travaillees_svg__Adobe_OpacityMaskFilter_11_)"><path id="projets_heures_travaillees_svg__path-7_9_" class="projets_heures_travaillees_svg__st10" d="M208 326h49v49h-49z"/></g></mask><path id="projets_heures_travaillees_svg__Fill-10_1_" mask="url(#projets_heures_travaillees_svg__mask-8_9_)" fill="#57b520" d="m232 349 9-3.3 1.1 3-9.1 3.3z"/><defs><filter id="projets_heures_travaillees_svg__Adobe_OpacityMaskFilter_12_" filterUnits="userSpaceOnUse" x="229.3" y="347.3" width="6.4" height="6.4"><feColorMatrix values="1 0 0 0 0 0 1 0 0 0 0 0 1 0 0 0 0 0 1 0"/></filter></defs><mask maskUnits="userSpaceOnUse" x="229.3" y="347.3" width="6.4" height="6.4" id="projets_heures_travaillees_svg__mask-8_10_"><g filter="url(#projets_heures_travaillees_svg__Adobe_OpacityMaskFilter_12_)"><path id="projets_heures_travaillees_svg__path-7_10_" class="projets_heures_travaillees_svg__st10" d="M208 326h49v49h-49z"/></g></mask><path id="projets_heures_travaillees_svg__Fill-11" d="M235.7 350.5c0 1.8-1.4 3.2-3.2 3.2s-3.2-1.4-3.2-3.2c0-1.8 1.4-3.2 3.2-3.2s3.2 1.4 3.2 3.2z" mask="url(#projets_heures_travaillees_svg__mask-8_10_)" fill="#57b520"/><defs><filter id="projets_heures_travaillees_svg__Adobe_OpacityMaskFilter_13_" filterUnits="userSpaceOnUse" x="215.1" y="333.1" width="38.3" height="38.3"><feColorMatrix values="1 0 0 0 0 0 1 0 0 0 0 0 1 0 0 0 0 0 1 0"/></filter></defs><mask maskUnits="userSpaceOnUse" x="215.1" y="333.1" width="38.3" height="38.3" id="projets_heures_travaillees_svg__mask-10_1_"><g filter="url(#projets_heures_travaillees_svg__Adobe_OpacityMaskFilter_13_)"><path id="projets_heures_travaillees_svg__path-9_1_" class="projets_heures_travaillees_svg__st10" d="M215.1 333.1h38.3v38.3h-38.3z"/></g></mask><path id="projets_heures_travaillees_svg__Fill-13_1_" d="M243.9 333.1c5.3 8.2 4.2 19.1-2.7 26-6.9 6.9-17.8 8.1-26 2.7 4.6 7.1 13.1 10.7 21.4 9.1s14.8-8.1 16.5-16.5-2.1-16.6-9.2-21.3z" mask="url(#projets_heures_travaillees_svg__mask-10_1_)" fill="#00c1bf" fill-opacity=".15"/><path id="projets_heures_travaillees_svg__Fill-16" class="projets_heures_travaillees_svg__st22" d="M252.7 350.5c0-.7-.6-1.3-1.3-1.3h-2.9c-.7 0-1.2.6-1.2 1.3s.5 1.3 1.2 1.3h2.9c.7 0 1.3-.6 1.3-1.3z"/><path id="projets_heures_travaillees_svg__Fill-18" class="projets_heures_travaillees_svg__st22" d="M232.5 370.7c.7 0 1.3-.6 1.3-1.3v-2.9c0-.7-.6-1.2-1.3-1.2-.7 0-1.3.5-1.3 1.2v2.9c0 .7.6 1.3 1.3 1.3z"/><path id="projets_heures_travaillees_svg__Fill-19" class="projets_heures_travaillees_svg__st22" d="M232.5 335.8c.7 0 1.3-.6 1.3-1.3v-2.9c0-.5-.2-.9-.6-1.2-.4-.3-.9-.3-1.4 0-.4.3-.7.7-.6 1.2v2.9c0 .7.6 1.3 1.3 1.3z"/><defs><filter id="projets_heures_travaillees_svg__Adobe_OpacityMaskFilter_14_" filterUnits="userSpaceOnUse" x="212.4" y="403.1" width="43.3" height="54.1"><feColorMatrix values="1 0 0 0 0 0 1 0 0 0 0 0 1 0 0 0 0 0 1 0"/></filter></defs><mask maskUnits="userSpaceOnUse" x="212.4" y="403.1" width="43.3" height="54.1" id="projets_heures_travaillees_svg__mask-12_1_"><g filter="url(#projets_heures_travaillees_svg__Adobe_OpacityMaskFilter_14_)"><path id="projets_heures_travaillees_svg__path-11_1_" class="projets_heures_travaillees_svg__st10" d="M211 401.8h45.9v56.7H211z"/></g></mask><path id="projets_heures_travaillees_svg__Fill-1_3_" d="M213.7 457.2c-.7 0-1.4-.6-1.4-1.4v-51.4c0-.7.6-1.4 1.4-1.4h31.6c.4 0 .7.1 1 .4l8.9 8.9c.3.3.4.6.4 1v42.5c0 .7-.6 1.4-1.4 1.4h-40.5z" mask="url(#projets_heures_travaillees_svg__mask-12_1_)" fill="#fff"/><defs><filter id="projets_heures_travaillees_svg__Adobe_OpacityMaskFilter_15_" filterUnits="userSpaceOnUse" x="211" y="401.8" width="46" height="56.8"><feColorMatrix values="1 0 0 0 0 0 1 0 0 0 0 0 1 0 0 0 0 0 1 0"/></filter></defs><mask maskUnits="userSpaceOnUse" x="211" y="401.8" width="46" height="56.8" id="projets_heures_travaillees_svg__mask-12_2_"><g filter="url(#projets_heures_travaillees_svg__Adobe_OpacityMaskFilter_15_)"><path id="projets_heures_travaillees_svg__path-11_2_" class="projets_heures_travaillees_svg__st10" d="M211 401.8h45.9v56.7H211z"/></g></mask><path id="projets_heures_travaillees_svg__Fill-3_3_" d="m245.3 404.5 8.9 8.9v42.5h-40.6v-51.4h31.7zm0-2.7h-31.6c-1.5 0-2.7 1.2-2.7 2.7v51.4c0 1.5 1.2 2.7 2.7 2.7h40.6c1.5 0 2.7-1.2 2.7-2.7v-42.5c0-.7-.3-1.4-.8-1.9l-8.9-8.9c-.6-.6-1.3-.8-2-.8z" mask="url(#projets_heures_travaillees_svg__mask-12_2_)" fill="#008481"/><defs><filter id="projets_heures_travaillees_svg__Adobe_OpacityMaskFilter_16_" filterUnits="userSpaceOnUse" x="215.1" y="416.7" width="37.8" height="37.8"><feColorMatrix values="1 0 0 0 0 0 1 0 0 0 0 0 1 0 0 0 0 0 1 0"/></filter></defs><mask maskUnits="userSpaceOnUse" x="215.1" y="416.7" width="37.8" height="37.8" id="projets_heures_travaillees_svg__mask-14_1_"><g filter="url(#projets_heures_travaillees_svg__Adobe_OpacityMaskFilter_16_)"><path id="projets_heures_travaillees_svg__path-13_1_" class="projets_heures_travaillees_svg__st10" d="M215.1 416.7h37.8v37.8h-37.8z"/></g></mask><path id="projets_heures_travaillees_svg__Fill-5_3_" mask="url(#projets_heures_travaillees_svg__mask-14_1_)" fill="#00c1bf" fill-opacity=".15" d="M252.9 416.7v37.8h-37.8z"/><path id="projets_heures_travaillees_svg__Fill-8_2_" class="projets_heures_travaillees_svg__st19" d="M246.4 413.7c-.4 0-.8-.2-1.1-.5-.3-.3-.5-.7-.5-1.1v-7.6c0-.6.5-1.1 1.1-1.1.3 0 .6.1.8.3l8.1 8.1c.3.3.4.8.2 1.2-.2.4-.6.7-1 .7h-7.6z"/><path id="projets_heures_travaillees_svg__Fill-10_2_" class="projets_heures_travaillees_svg__st19" d="M245.9 403.8c.2 0 .4.1.5.2l8.1 8.1c.2.2.3.5.2.8-.1.3-.4.5-.7.5h-7.6c-.7 0-1.3-.6-1.3-1.3v-7.6c0-.2.1-.4.2-.5s.4-.2.6-.2zm0-.7c-.8 0-1.4.6-1.4 1.4v7.6c0 1.1.9 2 2 2h7.6c.6 0 1.1-.4 1.3-.9s.1-1.1-.3-1.5l-8.1-8.1c-.3-.3-.7-.5-1.1-.5z"/><path id="projets_heures_travaillees_svg__Stroke-11_1_" d="M218.5 430.8h31.4" fill="none" stroke="#57b520" stroke-width="2" stroke-linecap="round"/><path id="projets_heures_travaillees_svg__Stroke-12" class="projets_heures_travaillees_svg__st52" d="M218.5 437.3h31.4"/><path id="projets_heures_travaillees_svg__Stroke-13" class="projets_heures_travaillees_svg__st52" d="M218.5 424.1h31.4"/></svg>