<svg id="il_life_gardener_02_svg__Layer_1" xmlns="http://www.w3.org/2000/svg" x="0" y="0" viewBox="0 0 246 246" xml:space="preserve" data-di-res-id="19e28a97-bfb2bb84" data-di-rand="1642673165660"><style data-di-res-id="14b62d08-19ac55de" data-di-rand="1642673165638">.il_life_gardener_02_svg__st1{fill:#dca174}.il_life_gardener_02_svg__st3{fill:#7a60aa}.il_life_gardener_02_svg__st6{fill:#2d170c}.il_life_gardener_02_svg__st8{opacity:.1;fill:#fff;enable-background:new}.il_life_gardener_02_svg__st9{fill:#d3d6db}.il_life_gardener_02_svg__st11{fill:#b9bdc4}.il_life_gardener_02_svg__st12{fill:none;stroke:#b9bdc4;stroke-width:1.49;stroke-linecap:round;stroke-miterlimit:10}.il_life_gardener_02_svg__st13{fill:#032b46}.il_life_gardener_02_svg__st15{fill:#ffca05}</style><g id="il_life_gardener_02_svg__art"><path d="M72.3 25.1c.3-1.1 1.4-1.7 2.5-1.4.2 0 .3.1.4.2l3 1.4c1.3.7 2 2.1 1.7 3.5L76.6 42c-.2 1.2-1.4 2-2.6 1.7-.1 0-.2-.1-.3-.1l-3.9-1.5c-1.3-.5-2-1.9-1.6-3.2l4.1-13.8z" fill="#6d6e75"></path><path class="il_life_gardener_02_svg__st1" d="M89 47.7c-6.3-2.8-26.3 21.6-27.5 23.5-1.2 2-4.2 20.3 1.8 20.3s32.1-41 25.7-43.8z"></path><path d="M89 47.7c-6.3-2.8-26.3 21.6-27.5 23.5-1.2 2-4.2 20.3 1.8 20.3s32.1-41 25.7-43.8z" opacity="0.4" fill="#dca174"></path><path class="il_life_gardener_02_svg__st3" d="M95.2 44.2c-7.6-4.3-22.1 9.3-27.7 18.1 0 0-.5 1.8 5.6.7 0 0-.9 6.2.3 7.4s5.2.8 5.2.8.5 5.5 2.4 7.4c1.8 2 3.9-.4 3.9-.4s-.4 3.7 5.2 8.2c0 .1 17.6-35.2 5.1-42.2z"></path><path d="M95.2 44.2c-7.6-4.3-22.1 9.3-27.7 18.1 0 0-.5 1.8 5.6.7 0 0-.9 6.2.3 7.4s5.2.8 5.2.8.5 5.5 2.4 7.4c1.8 2 3.9-.4 3.9-.4s-.4 3.7 5.2 8.2c0 .1 17.6-35.2 5.1-42.2z" opacity="0.24" fill="#7a60aa"></path><path class="il_life_gardener_02_svg__st1" d="M67 43.3C62.7 49.4 50.1 65.8 48.4 73c-1.4 5.8 8.1 19.5 14.3 18.8 9.5-1.1 2.6-26.5 9.9-44.1L67 43.3z"></path><path class="il_life_gardener_02_svg__st1" d="M79.9 37.3c-2-.7-1.6 4.3-4 5.1l-7-3.2s-1.2 9 1.3 9.7c6.6-.3 8.4-8.4 9.7-11.6z"></path><path d="M79.9 37.3c-2-.7-1.6 4.3-4 5.1l-7-3.2s-1.2 9 1.3 9.7c6.6-.3 8.4-8.4 9.7-11.6z" opacity="0.33" fill="#dca174"></path><path class="il_life_gardener_02_svg__st1" d="M71 29.4c.7 2.2-2.3 4.4-2.3 4.4l4.7.1c.3.8-.1 1.6-.8 2-1.1.8-2.9.3-3.8 1.1-1 1.8 1.4 7.8-1.2 9.6 0 0-5-6.5-1.1-13.7 1.7-1 3.2-2.1 4.5-3.5z"></path><path class="il_life_gardener_02_svg__st6" d="M97.1 16.9s17.5-.3 14.9 11.4c0 0 11.4-6.7 11.7 6.1 0 0 5 6.9 13.2-3.6 1.2 11.7-15.6 19.3-15.8 9.1-.1-4.3-31.8-20.2-31.8-20.2l7.8-2.8z"></path><path class="il_life_gardener_02_svg__st3" d="M95.8 17.1c4.3-1.9 9.1-1.9 13.5-.1-4.2 2.4-9.3 2.4-13.5.1z"></path><path d="M68.6 9.3c14.2-18 27.5-1.6 41.1-3.5 0 0-13.7 17.7-27.5 19.3C68.5 26.8 68.6 9.3 68.6 9.3z" fill="#ec6b77"></path><path class="il_life_gardener_02_svg__st3" d="M68.6 9.3c14.2-18 27.5-1.6 41.1-3.5 0 0-13.7 17.7-27.5 19.3C68.5 26.8 68.6 9.3 68.6 9.3z"></path><path class="il_life_gardener_02_svg__st8" d="M101.3 5.1C90.5 2.3 79.8-5 68.6 9.3c0 1.5.2 2.9.5 4.4 2.5 0 4.9-.2 7.4-.6 12-2.2 20-5.5 24.8-8z"></path><path class="il_life_gardener_02_svg__st1" d="M83.4 11.3c-7-8.3-20.1-.1-16.8 10.1C70 31.6 79 34.5 83.8 33.8c5.5 6-2.9 23.5-3.1 28.7-.3 5.2 36.4-7.7 39.2-13.3 2.8-5.6-4.6-16.4-15.1-21.8S91 20.3 83.4 11.3z"></path><path class="il_life_gardener_02_svg__st6" d="M88.2 15.1s-13.6 7.3-19-.8c0 0 1.5 6.5-1.2 10.2 0 0-7.9-8.9 1-15.6s19.2 6.2 19.2 6.2z"></path><ellipse transform="scale(.99996) rotate(-4.77 87.903 16.55)" class="il_life_gardener_02_svg__st1" cx="87.9" cy="16.6" rx="2.9" ry="3"></ellipse><path class="il_life_gardener_02_svg__st9" d="M172.2 46.5c37.6.7 65.8 95.3 65.8 95.3H137.3s7-95.9 34.9-95.3z"></path><path d="M199.4 63.6c0 1.6-.5 175.8-.5 175.8" fill="none" stroke="#b9bdc4" stroke-width="2.24" stroke-linecap="round" stroke-miterlimit="10"></path><path class="il_life_gardener_02_svg__st11" d="M203.4 240.5c-.1 1.1-1 1.9-2.1 1.9h-20.4c-1.1 0-1.9-.9-1.9-1.9V192c0-1.1.9-1.9 1.9-1.9h26.3c.9 0 1.7.7 1.7 1.7v.3l-5.5 48.4z"></path><path class="il_life_gardener_02_svg__st12" d="M160.7 53.5L199.4 158M199.8 127.6l18-34.1M180.8 107.1l8-53.9M187.3 127.8l-38.4-50"></path><path class="il_life_gardener_02_svg__st13" d="M154.6 173.6c17.7 18.3 12.5 66 12.5 66l-16.2 4.4 3.4-6.2s-26.6-62.3-39.1-94.4 32.7-37.9 40.9-20.7c8.2 17.2-15.9 36-1.5 50.9z"></path><path d="M154.6 173.6c17.7 18.3 12.5 66 12.5 66l-16.2 4.4 3.4-6.2s-26.6-62.3-39.1-94.4 32.7-37.9 40.9-20.7c8.2 17.2-15.9 36-1.5 50.9z" opacity="0.26" fill="#032b46"></path><path class="il_life_gardener_02_svg__st13" d="M114 124.1c-.9 3.9-40.9 103.5-40.9 103.5s3.6 9.9 7.4 9.1c9.8-2.1 38.1-26 39.3-58 .8-23.8 34.8-30.9 33.9-49.6-1.5-30.7-35.4-23.4-39.7-5z"></path><path class="il_life_gardener_02_svg__st3" d="M112 31.7c-5.3-1.5-15.9 7.6-15.9 25.8 0 0-8.9 3.7-14.9 3.2 0 0-5.3 13.8-4.2 20.5s11.9 15.6 11.9 15.6 3.5 43.4 6.1 45.8c45.8 14.6 77.9-24.2 77.9-24.2s-13.2-11-19-33.8c-9.6-38-41.9-52.9-41.9-52.9z"></path><path class="il_life_gardener_02_svg__st3" d="M153.9 84.6c-4.9-19-16.4-35.6-32.3-47-12.5 12.7-21.2 56.5-13.1 72 6.4 12.3-3.2 26.9-9.2 34.2 43.5 11 73.6-25.4 73.6-25.4s-13.2-11-19-33.8z"></path><path class="il_life_gardener_02_svg__st11" d="M118.2 97.1c13.3 1.1 26.7-1.2 39-6.5l1.9 3.7s-19.2 10.3-42.2 10.5"></path><path class="il_life_gardener_02_svg__st9" d="M88.9 96.8s-10.8-4.2-12.6-15.7S84 50.6 84 50.6c-.9 3.1-4.2 14.7-3.9 22.5 4.4-.3 12.6-.6 13.9-1.6-5-22.4 9.9-43.2 17.9-39.7l.2.1c-6.2 2.8-17.9 11.7-13.3 39.1 0 0 26.6 19.5 25.4 32.9 4 10.4 11.4 19.2 21 25-14.1 9.6-29.5 17.2-45.7 22.6-14.6-24-10.6-54.7-10.6-54.7z"></path><path class="il_life_gardener_02_svg__st1" d="M119.9 50.6c8.2 3.2 1.2 49.1-8 59.2s-31.5 9.4-42.8 10.2c-9.5.6-10.7-7.8-4.1-8.7 6.6-.9 26.1-8.7 30.4-15.1 4.4-6.4 12.7-50.2 24.5-45.6z"></path><path class="il_life_gardener_02_svg__st3" d="M116.1 45.8C104 42.3 95.7 80 95.7 80s-.2 2.5 6-2c0 0 1.6 6.8 3.1 7.7 1.5.9 4.4-5.2 4.4-5.2s2.9 9.3 7.3 9.2c2.7-.1 5.2-8 5.2-8 .1 4.2 2.8 7.9 6.7 9.3-.2.1 1.5-41.2-12.3-45.2z"></path><path class="il_life_gardener_02_svg__st8" d="M116.1 45.8C104 42.3 95.7 80 95.7 80s-.2 2.5 6-2c0 0 1.6 6.8 3.1 7.7 1.5.9 4.4-5.2 4.4-5.2s2.9 9.3 7.3 9.2c2.7-.1 5.2-8 5.2-8 .1 4.2 2.8 7.9 6.7 9.3-.2.1 1.5-41.2-12.3-45.2z"></path><path class="il_life_gardener_02_svg__st15" d="M86.4 193.4s13.6 11.9 24.9 15.7c-5.9 13.9-33.2 35.6-36.1 36.1-2.9.6-16.2-10.6-14.3-13.1 1.8-2.5 9.3-1.2 9.3-1.2l16.2-37.5zM138.7 200.7c8.6 20.5 15.7 37.1 15.7 37.1s-5.8 5.5-4.3 7c9 2.1 18.8-3.7 19.4-5.7s1.3-23-4.6-46.4c-9.7 5.2-21.5 7.3-26.2 8z"></path><path class="il_life_gardener_02_svg__st11" d="M124.4 104.2h-.1s.7 26.8-7.3 40.4c9.9-4.4 19.3-9.7 28.3-15.8-9.5-5.6-16.8-14.3-20.9-24.6z"></path><path class="il_life_gardener_02_svg__st1" d="M63.5 111.2c-3.9-1.6-8.2-2.2-12.4-1.9-2 .1-9.8 6.5-13.6 7.3 0 0 4.1 5.9 14.2-.5-1.4 1.7-2.9 3.3-4.5 4.7 1.8.8 4.7-1.2 7.6-4.1 4.3-.4 11.3 7.2 16.7.5 4.3-5.6-8-6-8-6z"></path><path class="il_life_gardener_02_svg__st11" d="M70.3 130.9H46.1L35.5 96.7c-.5-1.4-1.8-2.3-3.2-2.4h-22c-.9-.1-1.8.6-1.9 1.6 0 .3 0 .5.1.8L20 133.6c.5 1.4 1.8 2.3 3.2 2.4h47.1c1.4 0 2.5-1.1 2.5-2.5v-.1c.1-1.4-1.1-2.5-2.5-2.5.1 0 0 0 0 0z"></path><path class="il_life_gardener_02_svg__st9" d="M29.7 114.8c-.5-2.1-2.1-3.8-3.5-3.8s-2.1 1.7-1.6 3.8c.5 2.1 2.1 3.8 3.5 3.8 1.5 0 2.2-1.7 1.6-3.8z"></path></g></svg>