<?xml version="1.0" encoding="utf-8"?>
<!-- Generator: Adobe Illustrator 24.1.0, SVG Export Plug-In . SVG Version: 6.00 Build 0)  -->
<svg version="1.1" id="Layer_1" xmlns="http://www.w3.org/2000/svg" xmlns:xlink="http://www.w3.org/1999/xlink" x="0px" y="0px"
	 viewBox="0 0 247.8 247.8" style="enable-background:new 0 0 247.8 247.8;" xml:space="preserve">
<style type="text/css">
	.st0{fill:#221F1F;}
	.st1{fill:#F9CFAE;}
	.st2{fill:#032B46;}
	.st3{opacity:0.38;fill:#8D9097;enable-background:new    ;}
	.st4{opacity:0.57;fill:#F9CFAE;enable-background:new    ;}
	.st5{fill:#BABEC5;}
	.st6{opacity:0.24;fill:#BABEC5;enable-background:new    ;}
	.st7{fill:#D4D7DC;}
	.st8{fill:none;stroke:#393A3D;stroke-width:1.19;stroke-linecap:round;stroke-linejoin:round;}
	.st9{fill:#854C20;}
	.st10{fill:none;stroke:#393A3D;stroke-width:1.19;stroke-miterlimit:10;}
	.st11{fill:#52B748;}
</style>
<g>
	<g id="art">
		<g>
			<path class="st0" d="M129.9,188c4.3-1.2,10.7,1.7,9,7.2s-5,21.9-10.1,21.4S125.6,189.3,129.9,188z"/>
			<path class="st1" d="M118.7,188.4c-0.6,7-0.9,14.1-0.6,21.1c0.3,5,1.3,6.8,3.1,7.1c5.1,0.8,11.4-16.7,13-22.2
				c1.5-5.5-10.8-11.9-10.8-11.9L118.7,188.4z"/>
			<path class="st2" d="M117.9,117c-10.3,1.1-34.2,10.5-37,23.8c-2.8,13.3,32.6,61.2,36.5,62.6s8.6-18.9,8.6-18.9
				s-19.3-25.2-16.8-28.8c2.4-3.6,37.4,0,46.4-18C164.6,119.6,128.3,116,117.9,117z"/>
			<path class="st0" d="M116.1,207.8c-0.2-6.7,17.9-0.9,18.3,2.2c0.4,3.1-7.8,17.7-14.5,16.6S116.1,207.8,116.1,207.8z"/>
			<path class="st3" d="M117.9,117c-10.3,1.1-34.2,10.5-37,23.8c-2.8,13.3,32.6,61.2,36.5,62.6s8.6-18.9,8.6-18.9
				s-19.3-25.2-16.8-28.8c2.4-3.6,37.4,0,46.4-18C164.6,119.6,128.3,116,117.9,117z"/>
			<path class="st0" d="M86.9,222c3.7-2.8,15.7,0.8,15,4.1c-0.7,3.3-17.1,17-24.4,17.5C70.1,244,86.9,222,86.9,222z"/>
			<path class="st1" d="M84.9,215.7c0,0-17.6,19.8-12.1,22.3c5.5,2.5,23.2-10,24-14.1c0.8-4.1,3.2-21.9,0.9-20.5
				C95.4,204.9,84.9,215.7,84.9,215.7z"/>
			<path class="st2" d="M145.9,126.2c-18.8,3.2-38.5,11.8-48.2,29.1s-13.9,61.5-16.3,63.5c-2.4,2,15.3-5.6,19.8-8.3
				c4.5-2.6,8.9-42.5,16.9-47.4s41.4,5.2,50-6.6c5.8-8,2.8-19,3.2-27C171.6,124.1,153.6,124.9,145.9,126.2z"/>
			<path class="st0" d="M73.7,228.8c4.5-7.6,18.9,4.7,17.1,7.6c-1.7,3-19.5,14-24.9,10.9S73.7,228.8,73.7,228.8z"/>
			<path class="st1" d="M128.9,48c-10.1-1.2-11.1,27.2-17.7,34.4c-6.6,7.2,11.8,10.2,16.3,4.9C132.1,82,134.8,48.6,128.9,48z"/>
			<path class="st1" d="M90.4,84.5c11.6,0.6,20.6-1.4,23.5-3.9c2.9-2.5,13.5-1.2,15.1,4.2s-6.2,10.8-9.7,11.4
				c-3.5,0.6-23.9-4.1-29-6.8C85.3,86.8,90.4,84.5,90.4,84.5z"/>
			<path class="st4" d="M128.9,84.7c3.6-9.3,5.3-36.2,0-36.7c-10-1.2-11.1,26.5-17.5,34.1c-4.1,1.8-11.7,2.9-21.1,2.5
				c0,0-5.1,2.3,0,5s25.5,7.3,29,6.8s11.2-6,9.6-11.4C128.9,84.8,128.9,84.8,128.9,84.7z"/>
			<path class="st5" d="M115,73.3c3.8,4.4,13.6,7.3,19.3,8.2c1.6-11.4-0.2-35.1-4.1-35.5C123.6,45.3,118,63,115,73.3z"/>
			<path class="st6" d="M115,73.3c3.8,4.4,13.6,7.3,19.3,8.2c1.6-11.4-0.2-35.1-4.1-35.5C123.6,45.3,118,63,115,73.3z"/>
			<path class="st7" d="M62.2,82.6l-7.4-31c-0.3-1.5,0.7-2.9,2.1-3.2c0.4-0.1,0.9-0.1,1.3,0.1l37.3,10.4c1.9,0.5,3.4,2,3.9,4
				l6.6,30.6l16.3,5.2c2.7,0.8,4.3,3.6,3.6,6.3c0,0.1,0,0.2-0.1,0.2l0,0L65.9,86.4C64.1,85.8,62.7,84.4,62.2,82.6z"/>
			<path class="st1" d="M143.3,9.6c4.2-4.2,17.8-5.8,18.3,5.2s-0.6,12.2-0.5,19.2c0.1,7,5.4,9,7.9,15.1c2.5,6.1-8.1,11-19.3,10.7
				C138.7,59.6,127,47,132.6,45.3c9-2.7,8.6-8.2,9.3-12.9C142,32.4,137.2,15.5,143.3,9.6z"/>
			<path class="st5" d="M178.7,54c-4.7-5.3-12-9.3-14.8-13c-2.3,6.3-8.7,10-15.3,9c-8.4-1.5-9-5.8-9.2-9.2
				c-2.6,2.7-8.6,0.9-13.9,8.1c-9.3,12.8,6.2,44.6,5.2,53.1s-14.9,5.2-13.5,13.7c1.4,8.5,49.2,34,57.5,13.7S188.4,65.1,178.7,54z"/>
			<path class="st6" d="M157.5,116c1.5,4.6-8.8,12.7-15,17.1c13.4,5.2,27.9,6.7,32.2-3.6c7.5-18.5,12.7-56.5,6.4-71.7l-13-6.4
				C154.9,59.6,155.3,109.6,157.5,116z"/>
			<path class="st1" d="M180.9,57.1c-7.6-9.8-13.2-6.2-14.2,0c-2.7,15.9,9.7,36.8,6.4,39c-3.3,2.2-28.9-10.3-35.2-10.4
				c-20.6-2.5-23.5,8-29.9,8c0.1,0.7,3.3,2.6,6.5,2.6s6.2-2.3,9.4-2.5c0,0-4.1,4.2-5.5,5.3c3.2,0.7,5.5-2,8.5-2.3s6,3.2,13.8-2.5
				c2,0.3,29.9,22.1,42.1,18.4C203,106.6,188.6,67,180.9,57.1z"/>
			<path class="st5" d="M191.5,84.8c-1.2-11.3-6.6-24.8-13.3-31c-9.2-8.5-15.2-1.9-14.2,5.5c1.4,10.2,3.8,21.4,4.8,27
				C173.4,87.9,184.4,87.5,191.5,84.8z"/>
			<ellipse class="st1" cx="162" cy="23.4" rx="3.8" ry="4.3"/>
			<path class="st8" d="M136.7,16.1l9.3,1.6c0,0,0.4,5.7-3.8,5.9c-4.2,0.2-3.6-6.6-3.6-6.6"/>
			<path class="st9" d="M158.9,7.8c-1.2-0.8-5.6,1.5-2.4,4c1.9,1.4,3.5,3.6,3.4,7.8s-1.5,8.4-2.8,9.3c-1.3,0.9-4.5-1.6-9-2.2
				c-3.5-0.5-6.8-0.2-7.8,1.6s-0.6,13.6,9.2,14.2c9.9,0.6,12.8-16.5,13-23.6C162.8,10.5,158.9,7.8,158.9,7.8z"/>
			<path class="st8" d="M159,19.1c0,0-1.7,6.3-5.6,5.7c-3.8-0.6-2.6-6.8-2.6-6.8l10.5,1.2"/>
			<path class="st10" d="M146.1,18.9c1.4-0.9,3.2-0.7,4.5,0.3"/>
			<ellipse transform="matrix(0.5487 -0.836 0.836 0.5487 -23.9863 99.1755)" class="st11" cx="79.9" cy="71.8" rx="3.9" ry="5.4"/>
			<path class="st9" d="M161.1,10.6c-6.2-12.6-17.5-7-20.1-7.5c-2.7-0.5-2.3-3.5-4.2-3.1c-1.9,0.4-2.1,2.5,0.8,4.4
				c-2.3,2-3.9-2.6-6-1.8c-2,0.8,1.3,8.4,11.2,10.3C150.1,14.2,162.4,13.4,161.1,10.6z"/>
		</g>
	</g>
</g>
</svg>
