<svg width="170" height="27" viewBox="0 0 170 27" fill="none" xmlns="http://www.w3.org/2000/svg">
<g clip-path="url(#clip0_5_7)">
<path d="M35.4276 7.89295H38.9147V10.3294H35.4276V7.89295ZM35.498 11.1845H38.8363V20.6008H35.498V11.1845Z" fill="#00B62C"/>
<path d="M40.7001 11.1819H44.0384V12.506C44.6525 11.7233 45.5317 10.9728 46.8843 10.9728C48.9051 10.9728 50.1306 12.2969 50.1306 14.4386V20.6035H46.7788V15.5107C46.7788 14.4841 46.2378 13.9266 45.4424 13.9266C44.6471 13.9266 44.0357 14.4841 44.0357 15.5107V20.6035H40.7001V11.1819Z" fill="#00B62C"/>
<path d="M51.4887 15.9342V15.8993C51.4887 12.8356 53.423 10.9727 55.671 10.9727C56.2299 10.9617 56.7837 11.0786 57.2896 11.3143C57.7954 11.55 58.2395 11.8982 58.5873 12.3317V7.89295H61.9256V20.6008H58.5873V19.349C57.938 20.1317 57.1102 20.8125 55.6873 20.8125C53.4392 20.8099 51.4887 18.947 51.4887 15.9342ZM58.6414 15.8993V15.8645C58.6414 14.6288 57.7811 13.7416 56.7071 13.7416C55.6332 13.7416 54.7567 14.6127 54.7567 15.8645V15.8993C54.7567 17.1538 55.6359 18.0437 56.7071 18.0437C57.7784 18.0437 58.6387 17.1538 58.6387 15.902L58.6414 15.8993Z" fill="#00B62C"/>
<path d="M63.3323 15.9342V15.8994C63.3323 13.1493 65.3179 10.9728 68.1287 10.9728C71.4156 10.9728 72.9251 13.3584 72.9251 16.1272C72.9251 16.3363 72.9251 16.5802 72.9089 16.8054H66.5461C66.8166 17.832 67.566 18.3546 68.6021 18.3546C69.392 18.3546 70.0251 18.0571 70.7095 17.3977L72.5545 18.9122C71.6401 20.0621 70.3226 20.826 68.4263 20.826C65.4397 20.8287 63.3323 18.8612 63.3323 15.9342ZM69.7978 15.1301C69.6761 14.0848 69.0593 13.4227 68.1449 13.4227C67.2305 13.4227 66.6678 14.1008 66.492 15.1301H69.7978Z" fill="#00B62C"/>
<path d="M74.3534 11.1819H77.6917V12.4363C78.3409 11.6536 79.1498 10.9728 80.5728 10.9728C82.8398 10.9728 84.7903 12.8491 84.7903 15.8485V15.8833C84.7903 18.947 82.8398 20.8099 80.5917 20.8099C80.0348 20.8232 79.4826 20.7072 78.979 20.4713C78.4755 20.2353 78.0346 19.8859 77.6917 19.4509V23.3885H74.3534V11.1819ZM81.5061 15.8994V15.8645C81.5061 14.6289 80.6458 13.7417 79.5556 13.7417C78.4654 13.7417 77.6213 14.6289 77.6213 15.8645V15.8994C77.6213 17.1538 78.4816 18.0437 79.5556 18.0437C80.6296 18.0437 81.5007 17.1726 81.5007 15.9021L81.5061 15.8994Z" fill="#00B62C"/>
<path d="M85.84 15.9342V15.8994C85.84 13.1493 87.8257 10.9728 90.6365 10.9728C93.9234 10.9728 95.4329 13.3584 95.4329 16.1272C95.4329 16.3363 95.4329 16.5802 95.4167 16.8054H89.0566C89.3271 17.832 90.0765 18.3546 91.1126 18.3546C91.9025 18.3546 92.5355 18.0571 93.22 17.3977L95.065 18.9122C94.1506 20.0621 92.8331 20.826 90.934 20.826C87.9501 20.8287 85.84 18.8612 85.84 15.9342ZM92.3083 15.1301C92.1866 14.0848 91.5698 13.4227 90.6554 13.4227C89.741 13.4227 89.1783 14.1008 89.0025 15.1301H92.3083Z" fill="#00B62C"/>
<path d="M96.8585 11.1819H100.197V12.506C100.811 11.7233 101.69 10.9728 103.043 10.9728C105.064 10.9728 106.289 12.2969 106.289 14.4386V20.6035H102.937V15.5107C102.937 14.4841 102.396 13.9266 101.601 13.9266C100.805 13.9266 100.194 14.4841 100.194 15.5107V20.6035H96.8585V11.1819Z" fill="#00B62C"/>
<path d="M107.647 15.9342V15.8993C107.647 12.8356 109.581 10.9727 111.829 10.9727C112.388 10.9617 112.942 11.0786 113.448 11.3143C113.954 11.55 114.398 11.8982 114.746 12.3317V7.89295H118.084V20.6008H114.746V19.349C114.096 20.1317 113.269 20.8125 111.846 20.8125C109.598 20.8099 107.647 18.947 107.647 15.9342ZM114.8 15.8993V15.8645C114.8 14.6288 113.94 13.7416 112.866 13.7416C111.792 13.7416 110.915 14.6127 110.915 15.8645V15.8993C110.915 17.1538 111.794 18.0437 112.866 18.0437C113.937 18.0437 114.8 17.1538 114.8 15.902V15.8993Z" fill="#00B62C"/>
<path d="M119.401 17.9043V17.8695C119.401 15.9208 120.895 14.921 123.127 14.921C123.902 14.9216 124.673 15.0447 125.41 15.2855V15.1301C125.41 14.1544 124.796 13.5969 123.516 13.5969C122.613 13.5899 121.717 13.764 120.884 14.1088L120.199 11.7769C121.418 11.2718 122.729 11.0227 124.049 11.0451C125.753 11.0451 126.914 11.4445 127.669 12.195C128.388 12.8919 128.689 13.8676 128.689 15.189V20.6035H125.394V19.6278C125.044 20.0161 124.612 20.3235 124.129 20.5282C123.646 20.7329 123.124 20.83 122.599 20.8126C120.792 20.8099 119.401 19.7833 119.401 17.9043ZM125.448 17.1913V16.7544C125.034 16.5917 124.592 16.509 124.146 16.5105C123.181 16.5105 122.618 16.9796 122.618 17.6765V17.7113C122.618 18.3546 123.11 18.7379 123.795 18.7379C124.763 18.7379 125.448 18.1295 125.448 17.1886V17.1913Z" fill="#00B62C"/>
<path d="M130.401 11.1819H133.739V12.506C134.353 11.7233 135.232 10.9728 136.585 10.9728C138.606 10.9728 139.831 12.2969 139.831 14.4386V20.6035H136.482V15.5107C136.482 14.4841 135.941 13.9266 135.146 13.9266C134.35 13.9266 133.739 14.4841 133.739 15.5107V20.6035H130.401V11.1819Z" fill="#00B62C"/>
<path d="M142.123 17.6765V13.8462H140.997V11.1818H142.123V8.79626H145.461V11.1818H147.666V13.8462H145.453V17.0332C145.453 17.6952 145.75 17.974 146.367 17.974C146.808 17.9651 147.24 17.8579 147.633 17.6604V20.255C146.919 20.6254 146.121 20.8098 145.315 20.7911C143.318 20.7938 142.123 19.9227 142.123 17.6765Z" fill="#00B62C"/>
<path d="M148.975 17.2074H152.454V20.6008H148.975V17.2074Z" fill="#00682A"/>
<path d="M154.107 7.89295H157.586V10.3294H154.107V7.89295ZM154.177 11.1845H157.516V20.6008H154.177V11.1845Z" fill="#CCCCCC"/>
<path d="M158.99 15.9342V15.8994C158.99 13.219 161.203 10.9728 164.263 10.9728C167.322 10.9728 169.5 13.1841 169.5 15.8645V15.8994C169.5 18.5798 167.287 20.826 164.228 20.826C161.168 20.826 158.99 18.6146 158.99 15.9342ZM166.248 15.9342V15.8994C166.257 15.6289 166.212 15.3594 166.115 15.1064C166.018 14.8535 165.871 14.6222 165.683 14.4259C165.495 14.2296 165.27 14.0723 165.02 13.9632C164.77 13.854 164.501 13.7951 164.228 13.7899C163.016 13.7899 162.242 14.7468 162.242 15.8779V15.9128C162.231 16.1844 162.275 16.4553 162.371 16.7098C162.467 16.9644 162.614 17.1973 162.802 17.395C162.99 17.5927 163.216 17.7512 163.467 17.8612C163.718 17.9712 163.988 18.0305 164.263 18.0357C165.475 18.025 166.248 17.0681 166.248 15.9342Z" fill="#CCCCCC"/>
<path d="M15.9415 8.92226L26.6706 2.7868V15.0604L15.9415 8.92226Z" fill="#00B62C"/>
<path d="M8.02865 11.7019L25.3044 0.680008C25.215 0.664859 25.1246 0.656793 25.0339 0.655884H8.02865V11.7019Z" fill="#63D000"/>
<path d="M7.99897 11.7206L0.5 7.43197V7.50702L7.93675 11.7608L7.99897 11.7206Z" fill="#63D000"/>
<path d="M3.42711 26.6559H18.6604L11.459 22.0617L3.42711 26.6559Z" fill="#63D000"/>
<path d="M8.02873 11.7019V0.655884H2.22054C1.76467 0.657298 1.32787 0.837358 1.00551 1.15675C0.683156 1.47615 0.501427 1.90894 0.5 2.36063L0.5 7.43197L7.99897 11.7206L8.02873 11.7019Z" fill="#63D000"/>
<path d="M1.62268 15.7868L7.93675 11.7662L0.5 7.50701V24.9511C0.501427 25.4028 0.683156 25.8356 1.00551 26.155C1.32787 26.4744 1.76467 26.6545 2.22054 26.6559H3.42709L11.459 22.0617L1.62268 15.7868Z" fill="#63D000"/>
<path d="M7.99895 11.7206L7.93673 11.7608L1.62267 15.7814L11.459 22.0616L18.6604 26.6558H25.0204C25.4763 26.6544 25.9131 26.4744 26.2354 26.155C26.5578 25.8356 26.7395 25.4028 26.741 24.9511V2.36058C26.7397 1.95767 26.5949 1.56813 26.3321 1.26066C26.0693 0.953188 25.7054 0.747534 25.3045 0.679962L8.02871 11.7018L7.99895 11.7206Z" fill="#63D000"/>
<path d="M8.02873 11.7019V0.655884H2.22054C1.76467 0.657298 1.32787 0.837358 1.00551 1.15675C0.683156 1.47615 0.501427 1.90894 0.5 2.36063L0.5 7.43197L7.99897 11.7206L8.02873 11.7019Z" fill="#00682A"/>
<path d="M1.62268 15.7868L7.93675 11.7662L0.5 7.50701V24.9511C0.501427 25.4028 0.683156 25.8356 1.00551 26.155C1.32787 26.4744 1.76467 26.6545 2.22054 26.6559H3.42709L11.459 22.0617L1.62268 15.7868Z" fill="#00B62C"/>
<path d="M7.99895 11.7206L7.93673 11.7608L1.62267 15.7814L11.459 22.0616L18.6604 26.6558H25.0204C25.4763 26.6544 25.9131 26.4744 26.2354 26.155C26.5578 25.8356 26.7395 25.4028 26.741 24.9511V2.36058C26.7397 1.95767 26.5949 1.56813 26.3321 1.26066C26.0693 0.953188 25.7054 0.747534 25.3045 0.679962L8.02871 11.7018L7.99895 11.7206Z" fill="#00682A"/>
<path d="M12.0569 5.94703H16.3393V8.94909H12.0569V5.94703ZM12.1326 9.99981H16.2527V21.5953H12.1326V9.99981Z" fill="white"/>
</g>
<defs>
<clipPath id="clip0_5_7">
<rect width="169" height="26" fill="white" transform="translate(0.5 0.655884)"/>
</clipPath>
</defs>
</svg>
