<svg xmlns="http://www.w3.org/2000/svg" width="116" height="216" fill="none" viewBox="0 0 116 216">
  <path fill="#6C6D74" fill-rule="evenodd" d="M54.677 161.756s-5 33.709-.71 34.439c4.29.73 12.35-24.249 13.66-29.139 1.31-4.89-9.07-10.59-9.07-10.59l-3.88 5.29z" clip-rule="evenodd"/>
  <path fill="#032B45" fill-rule="evenodd" d="M53.997 98.487c-8.61.94-30.349 14.14-30.739 20.35-.84 13.36 27.16 54.999 30.35 56.139 3.19 1.14 7.22-16.72 7.22-16.72s-16.11-22.36-14.08-25.549c2.03-3.19 31.319 0 38.859-16 7.54-16-22.9-19.16-31.61-18.22z" clip-rule="evenodd"/>
  <path fill="#032B46" fill-rule="evenodd" d="M53.997 98.487c-8.61.94-30.349 14.14-30.739 20.35-.84 13.36 27.16 54.999 30.35 56.139 3.19 1.14 7.22-16.72 7.22-16.72s-16.11-22.36-14.08-25.549c2.03-3.19 31.319 0 38.859-16 7.54-16-22.9-19.16-31.61-18.22z" clip-rule="evenodd"/>
  <mask id="a" width="64" height="78" x="23" y="98" maskUnits="userSpaceOnUse">
    <path fill="#fff" fill-rule="evenodd" d="M23.24 98.337h63.556v76.691H23.239V98.337z" clip-rule="evenodd"/>
  </mask>
  <g mask="url(#a)">
    <path fill="#032B46" fill-opacity=".31" fill-rule="evenodd" d="M53.997 98.487c-8.61.94-30.349 14.14-30.739 20.35-.84 13.36 27.16 54.999 30.35 56.139 3.19 1.14 7.22-16.72 7.22-16.72s-16.11-22.36-14.08-25.549c2.03-3.19 31.319 0 38.859-16 7.54-16-22.9-19.16-31.61-18.22z" clip-rule="evenodd"/>
  </g>
  <path fill="#FDD2B0" fill-rule="evenodd" d="M63.257 37.309c-8.43-1-9.28 24.07-14.79 30.45-5.51 6.38 9.86 8.999 13.63 4.35 3.77-4.65 6.09-34.22 1.16-34.8z" clip-rule="evenodd"/>
  <path fill="#FDD2B0" fill-rule="evenodd" d="M30.998 69.678c9.73.51 17.25-1.2 19.64-3.41 2.39-2.21 11.27-1 12.63 3.75 1.359 4.75-5.12 9.56-8 10.08-2.88.52-20-3.59-24.25-6s-.02-4.42-.02-4.42z" clip-rule="evenodd"/>
  <path fill="#F9CFAE" fill-rule="evenodd" d="M63.227 69.868c3.05-8.31 4.44-32 0-32.56-8.33-1-9.26 23.44-14.59 30.19-3.45 1.57-9.83 2.59-17.65 2.18 0 0-4.27 2 0 4.44 4.27 2.44 21.34 6.49 24.25 6 2.91-.49 9.39-5.3 8-10.08a.947.947 0 00-.01-.17z" clip-rule="evenodd"/>
  <g>
    <mask id="b" width="38" height="44" x="29" y="37" maskUnits="userSpaceOnUse">
      <path fill="#fff" fill-rule="evenodd" d="M29.09 37.28h36.97v42.879H29.09v-42.88z" clip-rule="evenodd"/>
    </mask>
    <g mask="url(#b)">
      <path fill="#F9CFAE" fill-opacity=".56" fill-rule="evenodd" d="M63.227 69.868c3.05-8.31 4.44-32 0-32.56-8.33-1-9.26 23.44-14.59 30.19-3.45 1.57-9.83 2.59-17.65 2.18 0 0-4.27 2 0 4.44 4.27 2.44 21.34 6.49 24.25 6 2.91-.49 9.39-5.3 8-10.08a.947.947 0 00-.01-.17z" clip-rule="evenodd"/>
    </g>
  </g>
  <g>
    <mask id="c" width="103" height="213" x="7" y="3" maskUnits="userSpaceOnUse">
      <path fill="#fff" fill-rule="evenodd" d="M7.958 3.028h101.268v212.4H7.958V3.028z" clip-rule="evenodd"/>
    </mask>
    <g mask="url(#c)">
      <path fill="#BABEC5" fill-rule="evenodd" d="M51.617 59.778c3.19 3.87 11.38 6.45 16.17 7.28 1.37-10.12-1.29-29.37-4.53-29.75-5.56-.66-9.16 13.29-11.64 22.47z" clip-rule="evenodd"/>
      <path fill="#6C6D74" fill-rule="evenodd" d="M25.678 187.375s-21.68 25.69-17.08 27.89c4.6 2.2 27.07-18.48 27.73-22.11.66-3.63-3.56-9.18-5.46-7.86a18.154 18.154 0 01-5.19 2.08z" clip-rule="evenodd"/>
      <path fill="#032B46" fill-rule="evenodd" d="M77.467 106.607c-15.7 2.86-32.19 10.44-40.31 25.81-8.12 15.369-11.6 54.508-13.629 56.248-2.03 1.74 12.83-5 16.6-7.32 3.77-2.32 7.47-37.619 14.14-41.999 6.67-4.38 31.508 3.69 40.788-5 9.28-8.689 8.51-20.509 6.48-24.859-2.03-4.35-17.69-4.04-24.07-2.88z" clip-rule="evenodd"/>
      <path fill="#022B45" fill-rule="evenodd" d="M89.056 105.897c1.57 12.14-5.65 17.14-9.21 18.76-3.75 1.71-26.289 7.509-30.389 10.589-3.26 2.44-5.92 31.5-9.33 45.409 4.74-9.329 8.25-37.439 14.14-41.279 6.67-4.35 31.51 3.69 40.79-5 9.279-8.689 8.509-20.509 6.479-24.859-1.16-2.52-6.72-3.45-12.48-3.62z" clip-rule="evenodd"/>
      <path fill="#F9CFAE" fill-rule="evenodd" d="M75.647 5.67c3.32-3.45 14-4.85 14.36 4.27.36 9.12-2.52 9.71-.39 15.919 2.13 6.21 5 7 7.19 12.42 2.19 5.42-6.81 9.72-16.11 9.51-9.3-.21-18.06-9.31-14.37-12.79 3.69-3.48 7.7-6.47 8.28-10.35 0-.02-3.72-14.03 1.04-18.98z" clip-rule="evenodd"/>
      <path fill="#BABEC5" fill-rule="evenodd" d="M104.886 42.619c-3.84-4.66-10-8.28-12.41-11.5-1.53 4.36-6.2 9.16-12.76 7.94-7.05-1.31-7.75-6.08-7.92-9.17-2.15 2.35-6.999 1.79-11.419 8.2-7.83 11.31 5.2 39.519 4.33 47.059-.87 7.54-12.47 4.64-11.31 12.18 1.16 7.539 41.18 30.159 48.139 12.179 6.96-17.98 11.46-57.029 3.35-66.888z" clip-rule="evenodd"/>
    </g>
  </g>
  <g>
    <mask id="d" width="36" height="77" x="74" y="40" maskUnits="userSpaceOnUse">
      <path fill="#fff" fill-rule="evenodd" d="M74.617 40.309h34.612v75.983H74.617V40.309z" clip-rule="evenodd"/>
    </mask>
    <g mask="url(#d)">
      <path fill="#BABEC5" fill-opacity=".56" fill-rule="evenodd" d="M87.136 97.567c1.29 4-7.37 11.27-12.52 15.14 11.21 4.57 23.36 6 26.92-3.2 6.32-16.34 10.63-50.089 5.26-63.509l-10.9-5.69c-10.9 7.29-10.58 51.57-8.76 57.26z" clip-rule="evenodd"/>
    </g>
  </g>
  <g>
    <mask id="e" width="116" height="92" x="0" y="0" maskUnits="userSpaceOnUse">
      <path fill="#fff" fill-rule="evenodd" d="M.348.557h115.288v91.038H.349V.557z" clip-rule="evenodd"/>
    </mask>
    <g mask="url(#e)">
      <path fill="#F9CFAE" fill-rule="evenodd" d="M106.756 45.429c-6.38-8.7-11-5.51-11.89 0-2.23 14.11 4.65 32.449 4.65 32.449s-23.32-8.58-28.25-8.88c-4.929-.3-16.659 6-18.109 7.12-.33.27-.11.65 1.59.22l-2.13 1.19s.31 1.46 2.72.46c0 0 1 .91 1.77.76 1.79-.36 4.57-2.41 5.78-3.41l-3.63 4.92c1 .29 3.62-1.45 5.43-3.16 5.69 1.14 8.35-1.89 8.35-1.89s22.38 19.34 32.559 16c16.85-5.44 7.53-37.08 1.16-45.78z" clip-rule="evenodd"/>
      <path fill="#BABEC5" fill-rule="evenodd" d="M115.636 69.918c-.94-10-5.57-22-11.13-27.43-7.72-7.539-12.75-1.68-11.91 4.92 1.15 9 3.2 18.9 4 23.87 3.86 1.41 13.08 1.02 19.04-1.36z" clip-rule="evenodd"/>
      <path fill="#F79237" fill-rule="evenodd" d="M87.996 4.9c-3-4.15-8-.36-10.93-2.49-.92-4.28-3.93-.17-3.59 2.56.34 2.73 1.42 4.68 7.63 4.68s7.35-4.07 6.89-4.75z" clip-rule="evenodd"/>
      <path fill="#F79237" fill-rule="evenodd" d="M87.996 4.9s2.92 1.74 2.53 6.5c-.39 4.76-1.53 5.43-1.53 5.43s-.39-7.28-2.92-9.31c-2.53-2.03.92-3.3 1.92-2.62z" clip-rule="evenodd"/>
      <path fill="#FDD2B0" fill-rule="evenodd" d="M92.136 16.87c0 .993-.976 1.8-2.18 1.8-1.204 0-2.18-.807-2.18-1.8 0-.995.977-1.8 2.18-1.8 1.204 0 2.18.805 2.18 1.8z" clip-rule="evenodd"/>
      <path stroke="#1877BD" stroke-linecap="round" stroke-linejoin="round" stroke-width="1.37" d="M70.457 11l7.3 1.36s.31 4.72-3 4.92c-3.31.2-2.84-5.44-2.84-5.44"/>
      <path fill="#F79237" fill-rule="evenodd" d="M88.677 13.5c-.57 2.14-1.15 7.38-2.22 8.16-1.07.78-3.52-1.3-7-1.82-2.76-.41-5.33-.13-6.12 1.3-.79 1.43-.5 11.239 7.23 11.739s8.19-9.59 8.94-12.3c1-3.49 1.29-7.74.29-7.81-1-.07-1.12.73-1.12.73z" clip-rule="evenodd"/>
      <path stroke="#1877BD" stroke-linecap="round" stroke-linejoin="round" stroke-width="1.37" d="M89.757 13.59l-8.19-.93s-1 5.14 2 5.63c3 .49 4.35-4.7 4.35-4.7"/>
      <path stroke="#1877BD" stroke-width="1.37" d="M77.797 13.42a3 3 0 013.55.26"/>
      <path fill="#6C6D74" fill-rule="evenodd" d="M8.018 70.518l-7.67-33.88 37.68 11.11 6.09 29.86 17.98 6.09-1.45 4.35-52.63-17.53z" clip-rule="evenodd"/>
    </g>
  </g>
</svg>
