<?xml version="1.0" encoding="utf-8"?>
<!-- Generator: Adobe Illustrator 22.1.0, SVG Export Plug-In . SVG Version: 6.00 Build 0)  -->
<svg version="1.1" id="Layer_1" xmlns="http://www.w3.org/2000/svg" xmlns:xlink="http://www.w3.org/1999/xlink" x="0px" y="0px"
	 viewBox="0 0 1200 767" style="enable-background:new 0 0 1200 767;" xml:space="preserve">
<style type="text/css">
	.st0{fill:#F5F6F8;}
	.st1{fill:none;}
	.st2{fill:#4A4A4A;}
	.st3{fill:#FFFFFF;stroke:#ECEEF1;stroke-width:0.79;}
	.st4{fill:#354052;}
	.st5{fill:#8D9096;}
	.st6{fill:#393A3D;}
	.st7{fill:#008481;}
	.st8{fill:none;stroke:#FEFEFE;stroke-width:2.73;}
	.st9{fill:none;stroke:#EBEDEF;stroke-width:1.36;}
	.st10{fill:#00A6A4;}
	.st11{fill:#6B6C72;}
	.st12{fill:#53B447;}
	.st13{fill:#53B700;}
	.st14{fill:#FFFFFF;}
	.st15{fill:#7CD200;}
	.st16{fill:#2CA01C;}
	.st17{fill:#FF8000;}
	.st18{fill:#D4D7DC;}
	.st19{fill:none;stroke:#4A90E2;stroke-width:0.99;stroke-linecap:square;}
	.st20{fill:none;stroke:#D4D7DC;stroke-width:0.79;}
	.st21{fill:none;stroke:#53B700;stroke-width:1.58;}
</style>
<path id="Rectangle-7" d="M287,10.1h302.4c17.1,0,31,13.9,31,31v688.2c0,17.1-13.9,31-31,31H287c-17.1,0-31-13.9-31-31V41.1
	C256,24,269.9,10.1,287,10.1z"/>
<rect id="Rectangle-3" x="268.6" y="84.8" class="st0" width="339.3" height="601"/>
<path class="st1" d="M605,685.3H271.4c-1.6,0-2.8-1.2-2.8-2.8l0,0V87.6c0-1.6,1.2-2.8,2.8-2.8H605c1.6,0,2.8,1.2,2.8,2.8v594.9
	C607.8,683.9,606.6,685.3,605,685.3z"/>
<path id="Accueil" class="st2" d="M419.2,112.4l3.5-8.1h1.2l3.5,8.1h-1.7l-0.7-1.8h-3.5l-0.7,1.8H419.2z M422,109.3h2.6l-1.2-3.3
	L422,109.3z M432.9,107.5l-1,0.9c-0.2-0.4-0.7-0.6-1.1-0.5c-1,0.1-1.7,1-1.6,1.9c0.1,0.9,0.7,1.5,1.6,1.6c0.5,0,0.9-0.1,1.2-0.5
	l0.9,0.9c-0.6,0.5-1.3,0.9-2.1,0.7c-1.6,0-2.9-1.3-2.9-2.9s1.3-2.9,2.9-2.9l0,0C431.7,106.7,432.4,107,432.9,107.5L432.9,107.5z
	 M438.5,107.5l-1,0.9c-0.2-0.4-0.7-0.6-1.1-0.5c-1,0.1-1.7,1-1.6,1.9c0.1,0.9,0.7,1.5,1.6,1.6c0.5,0,0.9-0.1,1.1-0.5l0.9,0.9
	c-0.5,0.5-1.3,0.9-2.1,0.7c-1.6,0-2.9-1.3-2.9-2.9s1.3-2.9,2.9-2.9l0,0C437.3,106.7,438,107,438.5,107.5L438.5,107.5z M444.5,106.9
	v5.5h-1.3v-0.9l0,0c-0.4,0.6-1,1.1-1.7,1.1c-1.1,0-2.1-0.9-2.1-1.9c0-0.1,0-0.1,0-0.2V107h1.3v3c0,0.6,0.1,1.5,1.1,1.5
	c0.7,0,1.3-0.6,1.3-1.5v-0.1v-3C443.1,106.9,444.5,106.9,444.5,106.9z M447.3,109.1h2.8c0.1-0.6-0.4-1.2-1.1-1.3c-0.1,0-0.1,0-0.2,0
	C448,107.6,447.3,108.2,447.3,109.1L447.3,109.1z M451.4,109.7c0,0.1,0,0.2,0,0.4h-4.3c0.1,0.9,0.7,1.3,1.6,1.3
	c0.6,0,1.1-0.2,1.5-0.7l1,0.7c-1.1,1.3-2.9,1.5-4.3,0.4c-0.6-0.5-1.1-1.3-1.1-2.2c-0.1-1.6,1.1-2.9,2.7-2.9c0.1,0,0.1,0,0.2,0
	c1.5,0,2.7,1.1,2.7,2.6C451.4,109.5,451.4,109.6,451.4,109.7L451.4,109.7z M452.8,112.4v-5.5h1.5v5.5H452.8z M452.5,105
	c0-0.5,0.4-1,0.9-1s1,0.4,1,0.9s-0.4,1-0.9,1c0,0,0,0-0.1,0C453,105.8,452.6,105.4,452.5,105C452.6,105,452.5,105,452.5,105z
	 M455.8,112.4v-8.6h1.3v8.8L455.8,112.4z"/>
<path id="Tableau-de-bord" class="st2" d="M323.4,136v7.2h-1.1V136h-2.7v-1h6.3v1H323.4z M329.3,139.7v-0.1c0-0.9-0.5-1.2-1.3-1.2
	c-0.6,0-1.1,0.2-1.6,0.6l-0.6-0.7c0.6-0.5,1.5-0.9,2.2-0.9c1.1-0.1,2.1,0.6,2.3,1.8c0,0.1,0,0.2,0,0.4v2.4c0,0.4,0,0.7,0.1,1.1h-1
	c0-0.2-0.1-0.5-0.1-0.7l0,0c-0.4,0.6-1.1,1-1.8,1c-1,0.1-1.8-0.6-1.9-1.6v-0.1C325.6,139.9,327.5,139.7,329.3,139.7z M329.3,140.5
	h-0.2c-1.1,0-2.4,0.1-2.4,1c0,0.6,0.6,0.9,1.1,0.9c0.9,0,1.6-0.6,1.6-1.3c0-0.1,0-0.1,0-0.2V140.5z M333.2,142.2L333.2,142.2v0.9
	h-1.1v-8.8h1.1v4l0,0c0.5-0.6,1.2-1,1.9-1c1.6,0.1,2.8,1.5,2.7,3c-0.1,1.5-1.2,2.6-2.7,2.7C334.4,143.3,333.7,142.9,333.2,142.2z
	 M336.9,140.3c0.1-1-0.6-1.8-1.7-1.9H335c-1.1,0.1-1.9,1.1-1.8,2.2c0.1,1,0.9,1.7,1.8,1.8C336,142.3,336.9,141.4,336.9,140.3
	C336.9,140.5,336.9,140.3,336.9,140.3L336.9,140.3z M340.6,134.4v8.8h-1.1v-8.8H340.6z M343.3,139.9h3.3c0-0.9-0.5-1.5-1.3-1.6h-0.1
	C344,138.3,343.3,139,343.3,139.9L343.3,139.9z M347.6,140.3c0,0.1,0,0.2,0,0.4h-4.4c0,1,0.9,1.7,1.7,1.7c0.6,0,1.2-0.2,1.6-0.9
	l0.7,0.6c-0.6,0.7-1.5,1.1-2.3,1.1c-1.6-0.1-2.8-1.5-2.7-3c0.1-1.5,1.2-2.6,2.7-2.7c1.5,0,2.6,1.1,2.6,2.6
	C347.6,140.1,347.6,140.2,347.6,140.3L347.6,140.3z M352.4,139.7v-0.1c0-0.9-0.5-1.2-1.3-1.2c-0.6,0-1.1,0.2-1.6,0.6l-0.6-0.7
	c0.6-0.5,1.5-0.9,2.2-0.9c1.1-0.1,2.1,0.6,2.3,1.8c0,0.1,0,0.2,0,0.4v2.4c0,0.4,0,0.7,0.1,1.1h-1c0-0.2-0.1-0.5-0.1-0.7l0,0
	c-0.4,0.6-1.1,1-1.8,1c-1,0.1-1.8-0.6-1.9-1.6v-0.1C348.5,139.9,350.5,139.7,352.4,139.7L352.4,139.7z M352.4,140.5h-0.4
	c-1.1,0-2.4,0.1-2.4,1c0,0.6,0.6,0.9,1.1,0.9c0.9,0,1.6-0.6,1.6-1.3c0-0.1,0-0.1,0-0.2L352.4,140.5z M360.2,143h-1
	c0-0.2,0-0.7,0-0.9l0,0c-0.4,0.6-1.1,1.1-1.8,1.1c-1.1,0-1.9-0.9-2.1-1.9c0-0.1,0-0.2,0-0.4v-3.4h1.1v3c0,0.9,0.2,1.7,1.2,1.7
	c1,0,1.5-0.7,1.5-1.8v-2.9h1.1v4.3C360.1,142.2,360.1,142.8,360.2,143L360.2,143z M369.2,142.2c-0.5,0.6-1.2,1-1.9,1
	c-1.6-0.1-2.8-1.5-2.7-3c0.1-1.5,1.2-2.6,2.7-2.7c0.7,0,1.5,0.4,1.9,1l0,0v-4h1.1v8.8h-1.1V142.2L369.2,142.2z M365.6,140.3
	c-0.1,1,0.6,1.9,1.7,1.9h0.1c1.1-0.1,1.9-1.1,1.8-2.2c-0.1-1-0.9-1.7-1.8-1.8c-1,0-1.8,0.9-1.8,1.8
	C365.6,140.2,365.6,140.3,365.6,140.3L365.6,140.3z M372.9,139.9h3.3c0-0.9-0.6-1.5-1.3-1.6h-0.1C373.7,138.3,373,139,372.9,139.9
	L372.9,139.9z M377.2,140.3c0,0.1,0,0.2,0,0.4h-4.4c0,1,0.9,1.7,1.8,1.7c0.6,0,1.2-0.2,1.6-0.9l0.7,0.6c-0.6,0.7-1.5,1.1-2.3,1.1
	c-1.6-0.1-2.8-1.5-2.7-3c0.1-1.5,1.2-2.6,2.7-2.7c1.5,0,2.6,1.1,2.6,2.6C377.2,140.1,377.2,140.2,377.2,140.3L377.2,140.3z
	 M382.7,142.2L382.7,142.2v0.9h-1.1v-8.8h1.1v4l0,0c0.5-0.6,1.2-1,1.9-1c1.6,0.1,2.8,1.5,2.7,3c-0.1,1.5-1.2,2.6-2.7,2.7
	C383.9,143.3,383.1,142.9,382.7,142.2L382.7,142.2z M386.4,140.3c0.1-1-0.6-1.8-1.7-1.9h-0.1c-1.1,0.1-1.9,1.1-1.8,2.2
	c0.1,1,0.9,1.7,1.8,1.8C385.5,142.3,386.4,141.4,386.4,140.3C386.2,140.3,386.2,140.3,386.4,140.3L386.4,140.3z M394.5,140.3
	c0,1.6-1.3,2.9-2.9,2.9c-1.6,0-2.9-1.3-2.9-2.9c0-1.6,1.3-2.9,2.9-2.9C393.2,137.4,394.5,138.8,394.5,140.3z M393.4,140.3
	c-0.1-1-1-1.7-1.9-1.7s-1.7,1-1.7,1.9c0.1,1,0.9,1.7,1.8,1.7C392.6,142.3,393.3,141.4,393.4,140.3
	C393.3,140.5,393.3,140.3,393.4,140.3L393.4,140.3z M396,138.8c0-0.2,0-0.9,0-1.2h1c0,0.2,0,0.7,0,1l0,0c0.2-0.6,1-1.1,1.7-1.1
	c0.1,0,0.2,0,0.4,0v1c-0.1,0-0.4,0-0.5,0c-0.9,0-1.6,0.7-1.6,1.6c0,0.1,0,0.1,0,0.2v2.8h-1.1L396,138.8z M404.4,142.2
	c-0.5,0.6-1.2,1-1.9,1c-1.6-0.1-2.8-1.5-2.7-3c0.1-1.5,1.2-2.6,2.7-2.7c0.7,0,1.5,0.4,1.9,1l0,0v-4h1.1v8.8h-1.1V142.2L404.4,142.2z
	 M400.7,140.3c-0.1,1,0.6,1.9,1.7,1.9h0.1c1.1-0.1,1.9-1.1,1.8-2.2c-0.1-1-0.9-1.7-1.8-1.8C401.4,138.4,400.7,139.3,400.7,140.3
	C400.7,140.2,400.7,140.3,400.7,140.3L400.7,140.3z"/>
<path id="Activité" class="st2" d="M499.6,141.1l-0.9,2.1h-1.2l3.5-8.1h1.1l3.5,8.1h-1.3l-0.9-2.1H499.6z M501.5,136.2l-1.6,3.8h3
	L501.5,136.2z M511.1,138.3l-0.7,0.6c-0.2-0.4-0.7-0.6-1.2-0.6c-1.1,0.1-1.8,1.1-1.7,2.2c0.1,1,0.9,1.7,1.7,1.7c0.5,0,1-0.2,1.3-0.6
	l0.7,0.6c-0.5,0.6-1.2,0.9-2.1,0.9c-1.6,0.1-2.9-1.1-3-2.7s1.1-2.9,2.7-3c0.1,0,0.2,0,0.4,0C509.9,137.4,510.6,137.8,511.1,138.3
	L511.1,138.3z M514.9,137.6v0.9h-1.5v2.8c0,0.6,0.2,1,0.7,1c0.2,0,0.5,0,0.6-0.1v0.9c-0.2,0.1-0.6,0.1-1,0.1c-1,0-1.6-0.6-1.6-1.7
	v-2.9h-0.9v-0.9h1.1V136h1.1v1.6H514.9z M517.1,137.6v5.5H516v-5.5H517.1z M517.3,135.6c0,0.4-0.4,0.7-0.7,0.7l0,0
	c-0.4,0-0.7-0.2-0.7-0.7l0,0c0-0.4,0.4-0.7,0.7-0.7l0,0C517,134.9,517.3,135.2,517.3,135.6L517.3,135.6L517.3,135.6z M523.8,137.6
	l-2.2,5.5h-1.2l-2.2-5.5h1.2l1.6,4.3l0,0l1.6-4.3H523.8z M525.8,137.6v5.5h-1.1v-5.5H525.8z M526.1,135.6c0,0.4-0.4,0.7-0.7,0.7
	s-0.7-0.4-0.7-0.7c0-0.4,0.4-0.7,0.7-0.7S526.1,135.2,526.1,135.6L526.1,135.6L526.1,135.6z M530.5,137.6v0.9H529v2.8
	c0,0.6,0.2,1,0.7,1c0.2,0,0.5,0,0.6-0.1v0.9c-0.2,0.1-0.6,0.1-1,0.1c-1,0-1.6-0.6-1.6-1.7v-2.9h-1.1v-0.9h1.1V136h1.1v1.6H530.5z
	 M532.3,139.9h3.3c0-0.9-0.6-1.5-1.3-1.6h-0.1C533.1,138.3,532.4,139,532.3,139.9L532.3,139.9z M536.7,140.2c0,0.1,0,0.2,0,0.4h-4.4
	c0,1,0.9,1.7,1.8,1.7c0.6,0,1.2-0.2,1.6-0.9l0.7,0.6c-0.6,0.7-1.5,1.1-2.3,1.1c-1.6-0.1-2.8-1.5-2.7-3c0.1-1.5,1.2-2.6,2.7-2.7
	c1.5,0,2.6,1.1,2.7,2.4C536.7,140,536.7,140.2,536.7,140.2L536.7,140.2z M535.9,134.9l-1.6,1.7h-0.9l1.1-1.7H535.9z"/>
<path id="path-1" d="M289.1,165.2h301.2c1.6,0,2.9,1.3,2.9,2.9v175.5c0,1.6-1.3,2.9-2.9,2.9H289.1c-1.6,0-2.9-1.3-2.9-2.9V168.1
	C286.2,166.5,287.5,165.2,289.1,165.2z"/>
<path class="st3" d="M289.6,165.6h300.2c1.6,0,2.9,1.3,2.9,2.9v174.6c0,1.6-1.3,2.9-2.9,2.9H289.6c-1.6,0-2.9-1.3-2.9-2.9V168.6
	C286.6,167,288,165.6,289.6,165.6z"/>
<path id="Résultat" class="st4" d="M308.7,195.9v5.7h-1.8v-12.9h4.1c2.4,0,4.6,1,4.6,3.5c0,1.8-1.3,3.3-3.2,3.4l3.6,6h-2.2
	l-3.3-5.7L308.7,195.9z M308.7,190.2v4.1h2.1c1.7,0,3-0.5,3-2.1s-1.3-2.1-2.9-2.1H308.7z M319,196.5h5.1c0.1-1.2-0.9-2.3-2.2-2.4
	c-0.1,0-0.2,0-0.2,0C320.3,194.1,319.1,195.1,319,196.5z M325.8,197.1c0,0.2,0,0.4,0,0.6H319c0.1,1.5,1.3,2.7,2.8,2.7
	c1,0,1.9-0.5,2.6-1.3l1.2,1c-0.9,1.1-2.2,1.8-3.6,1.7c-2.6-0.1-4.5-2.2-4.4-4.7c0.1-2.3,1.9-4.3,4.3-4.4
	C324.2,192.8,325.8,194.5,325.8,197.1L325.8,197.1z M324.6,188.6l-2.4,2.6h-1.5l1.8-2.6H324.6z M334.1,194.1l-1.2,1
	c-0.5-0.7-1.2-1.1-2.1-1.1c-0.7,0-1.6,0.2-1.6,1.1s0.6,1,1.9,1.3c1.6,0.4,2.9,1.1,2.9,2.6c0,2.1-1.7,2.8-3.4,2.8
	c-1.3,0-2.6-0.5-3.5-1.6l1.2-1.1c0.5,0.7,1.3,1.2,2.3,1.2c0.9,0,1.7-0.2,1.7-1.2s-0.7-1.1-2.3-1.5c-1.1-0.2-2.6-0.7-2.6-2.4
	c0-1.8,1.6-2.7,3.3-2.7C332.1,192.6,333.3,193.1,334.1,194.1L334.1,194.1z M344,201.6h-1.6c0-0.5-0.1-1.1-0.1-1.5l0,0
	c-0.6,1-1.7,1.7-2.8,1.7c-2.2,0-3.3-1.6-3.3-3.5V193h1.7v4.7c0,1.5,0.4,2.7,1.9,2.7c1.3,0,2.3-1.1,2.3-2.8V193h1.7v6.8
	C343.9,200.2,343.9,201,344,201.6L344,201.6z M348.7,187.8v13.7H347v-13.7H348.7z M355.8,192.9v1.5h-2.3v4.5c0,1.1,0.4,1.5,1.2,1.5
	c0.4,0,0.7-0.1,1-0.2v1.3c-0.5,0.1-1,0.2-1.5,0.2c-1.6,0-2.6-1-2.6-2.7v-4.7h-1.6v-1.5h1.7v-2.4h1.7v2.4L355.8,192.9z M363,196.2
	v-0.2c0-1.3-0.9-1.9-2.2-1.9c-0.9,0-1.8,0.4-2.4,1l-1-1.1c1-0.9,2.2-1.3,3.5-1.3c1.7-0.2,3.4,1,3.6,2.7c0,0.2,0,0.5,0,0.6v3.8
	c0,0.6,0,1.1,0.1,1.7h-1.6c-0.1-0.4-0.1-0.9-0.1-1.2l0,0c-0.6,1-1.7,1.5-2.9,1.5c-1.6,0.2-2.9-1-3.2-2.4c0-0.1,0-0.1,0-0.2
	C357.1,196.5,360.1,196.3,363,196.2L363,196.2z M363,197.4h-0.4c-1.7,0-3.9,0.1-3.9,1.7c0,1,1,1.3,1.7,1.3c1.3,0.1,2.4-0.9,2.6-2.2
	c0-0.1,0-0.2,0-0.2V197.4z M371.5,192.9v1.5h-2.2v4.5c0,1.1,0.4,1.5,1.2,1.5c0.4,0,0.7-0.1,1-0.2v1.3c-0.5,0.1-1,0.2-1.5,0.2
	c-1.6,0-2.6-1-2.6-2.7v-4.7h-1.6v-1.5h1.7v-2.4h1.7v2.4L371.5,192.9z"/>
<path id="RÉSULTAT-2" class="st5" d="M475,224v4.4h-1v-9.5h2.8c1.9,0,3.3,0.7,3.3,2.6c0,1.3-1.1,2.4-2.4,2.4l2.8,4.5h-1.2l-2.7-4.4
	H475z M475,219.8v3.4h1.7c1.6,0,2.4-0.6,2.4-1.7s-1-1.7-2.4-1.7L475,219.8L475,219.8z M483,223.9v3.6h5.1v0.9h-6.1v-9.5h6v0.9h-5
	v3.3h4.6v0.9L483,223.9z M486.9,216.2l-1.8,1.9h-0.7l1.3-1.9H486.9z M495.4,219.9l-0.7,0.6c-0.5-0.6-1.2-1-1.9-1
	c-1-0.1-1.9,0.7-2.1,1.7v0.1c0,1.2,1,1.5,2.1,1.8c1.3,0.5,2.8,0.9,2.8,2.8c0,1.6-1.3,2.8-2.9,2.8c-0.1,0-0.1,0-0.2,0
	c-1.2,0-2.3-0.5-3-1.5l0.9-0.6c0.5,0.7,1.3,1.2,2.2,1.2c1.1,0.1,2.1-0.7,2.1-1.8l0,0c0-1.3-1.1-1.7-2.3-2.1s-2.6-1-2.6-2.7
	c0.1-1.6,1.3-2.7,2.9-2.7h0.1C493.7,218.7,494.7,219.2,495.4,219.9L495.4,219.9z M501.2,228.8c-1.9,0.1-3.5-1.3-3.5-3.3
	c0-0.1,0-0.4,0-0.5v-6h1v5.8c0,1.6,0.6,3,2.6,3c1.9,0,2.6-1.5,2.6-3V219h1v6c0.2,1.8-1.1,3.5-3,3.8
	C501.4,228.8,501.3,228.8,501.2,228.8L501.2,228.8z M508.1,219v8.6h4.4v0.9h-5.4V219H508.1z M517.1,219.9v8.6h-1v-8.6h-3.3V219h7.3
	v0.9H517.1z M522.6,226l-1.1,2.6h-1.1l4.1-9.5h1l4.1,9.5h-1.1l-1.1-2.6H522.6z M525,220l-2.1,5h4.1L525,220z M534.1,219.9v8.6h-1
	v-8.6H530V219h7.3v0.9H534.1z"/>
<path class="st6" d="M477.3,205.2h8.1c0.4,0,0.5,0.1,0.5,0.5v1.2c0,0.4-0.1,0.5-0.5,0.5h-10.2c-0.4,0-0.5-0.1-0.5-0.5v-5.1
	c0-1.2,0.9-2.2,2.1-2.4l5.2-1.9c0.9-0.2,1.3-1,1.3-1.7v-2.2c0-1.5-0.9-2.3-3.2-2.3c-2.3,0-3.2,0.9-3.2,2.3v1.1
	c0,0.4-0.1,0.5-0.5,0.5H475c-0.4,0-0.5-0.1-0.5-0.5V193c0-2.2,1.2-4.1,5.7-4.1c4.5,0,5.8,1.9,5.8,4.1v2.6c0.1,1.6-0.9,3.2-2.4,3.6
	l-4.6,1.7c-0.7,0.2-1.6,0.6-1.6,1.7L477.3,205.2z M492.5,196.7h2.1c2.4,0,3.2-0.7,3.2-2.3v-1.1c0-1.5-0.7-2.3-3-2.3s-3,0.9-3,2.3
	v0.4c0,0.2-0.1,0.5-0.4,0.5h-0.1h-1.6c-0.4,0-0.5-0.1-0.5-0.5v-0.7c0-2.2,1.1-4.1,5.6-4.1s5.6,1.8,5.6,4v1.9
	c0.1,1.5-0.9,2.7-2.2,2.9c1.5,0.2,2.6,1.6,2.4,3v2.7c0,2.2-1.2,4-5.7,4s-5.8-1.9-5.8-4.1v-0.7c0-0.4,0.1-0.5,0.5-0.5h1.6
	c0.4,0,0.5,0.1,0.5,0.5v0.4c0,1.5,0.9,2.3,3.2,2.3s3.2-0.9,3.2-2.3v-1.9c0-1.5-0.7-2.3-3.2-2.3h-2.3c-0.4,0-0.5-0.1-0.5-0.5V197
	C492,196.9,492.2,196.7,492.5,196.7L492.5,196.7z M509.8,194.7V193c0-2.2,1-4.1,5.5-4.1c4.5,0,5.5,1.9,5.5,4.1v1.7
	c0.1,1.5-0.9,2.7-2.3,2.9c1.5,0.2,2.6,1.5,2.6,3v2.7c0,2.2-1.2,4.1-5.7,4.1s-5.7-1.9-5.7-4.1v-2.7c0-1.5,1-2.8,2.6-3
	C510.6,197.5,509.7,196.2,509.8,194.7L509.8,194.7z M518.4,203.1v-1.9c0-1.5-0.7-2.3-3.2-2.3c-2.4,0-3,0.9-3,2.3v1.9
	c0,1.5,0.7,2.3,3,2.3C517.6,205.4,518.4,204.6,518.4,203.1L518.4,203.1z M518.2,194.3v-1c0-1.5-0.6-2.3-2.9-2.3
	c-2.3,0-2.9,0.9-2.9,2.3v1c0,1.5,0.5,2.3,2.9,2.3S518.2,195.8,518.2,194.3L518.2,194.3z M524.5,189.1h11.3c0.4,0,0.5,0.1,0.5,0.5
	v1.1c0,0.2,0,0.4-0.1,0.5l-6.7,15.6c-0.1,0.2-0.2,0.5-0.6,0.5h-1.9c-0.4,0-0.5-0.1-0.4-0.5l6.8-15.6h-8.8c-0.4,0-0.5-0.1-0.5-0.5
	v-1.2C524,189.2,524.1,189.1,524.5,189.1L524.5,189.1z M539.2,203.5V193c0-2.1,1.2-4,5.7-4s5.6,2.1,5.6,4v0.6c0,0.4-0.1,0.5-0.5,0.5
	h-1.6c-0.4,0-0.5-0.1-0.5-0.5v-0.2c0-1.3-0.7-2.2-3-2.2c-2.3,0-3,1-3,2.2v4.1c1-0.9,2.2-1.2,3.4-1.1c4.1,0,5.4,1.9,5.4,4.1v2.9
	c0,2.2-1.2,4.1-5.7,4.1S539.2,205.7,539.2,203.5z M548.1,203.1v-2.2c0-1.5-0.7-2.3-3.2-2.3s-3.2,0.7-3.2,2.2v2.4
	c0,1.5,0.7,2.3,3.2,2.3S548,204.6,548.1,203.1L548.1,203.1z M560.5,199.2h1.1v-1.8h-1.1c-0.4,0-0.5-0.1-0.5-0.5v-0.7
	c0-0.4,0.1-0.5,0.5-0.5h1.1V193c0-2.2,1.3-4.1,6-4.1s6,1.9,6,4.1v1.3c0,0.4-0.1,0.5-0.5,0.5h-1.6c-0.4,0-0.5-0.1-0.5-0.5v-0.9
	c0-1.5-1-2.3-3.4-2.3s-3.3,0.9-3.3,2.3v2.2h3.5c0.4,0,0.5,0.1,0.5,0.5v0.7c0,0.4-0.1,0.5-0.5,0.5h-3.5v1.8h3.5
	c0.4,0,0.5,0.1,0.5,0.5v0.7c0,0.4-0.1,0.5-0.5,0.5h-3.5v2.2c0,1.5,1,2.3,3.3,2.3c2.4,0,3.4-0.9,3.4-2.3v-1.2c0-0.4,0.1-0.5,0.5-0.5
	h1.6c0.4,0,0.5,0.1,0.5,0.5v1.7c0,2.2-1.3,4.1-6,4.1s-6-1.9-6-4.1v-2.7h-1.1c-0.4,0-0.5-0.1-0.5-0.5v-0.7
	C560,199.3,560.1,199.1,560.5,199.2L560.5,199.2z"/>
<polygon class="st7" points="305.4,322.5 402.3,322.5 402.3,299.4 305.4,299.4 "/>
<path id="Stroke-30" class="st8" d="M300.7,330.8l35.5-37.7"/>
<path id="Stroke-31" class="st8" d="M307.1,330.8l35.5-37.7"/>
<path id="Stroke-32" class="st8" d="M313.5,330.8l35.5-37.7"/>
<path id="Stroke-33" class="st8" d="M319.8,330.8l35.5-37.7"/>
<path id="Stroke-34" class="st8" d="M326.2,330.8l35.5-37.7"/>
<path id="Stroke-35" class="st8" d="M275.7,330.8l35.5-37.7"/>
<path id="Stroke-36" class="st8" d="M282,330.8l35.5-37.7"/>
<path id="Stroke-37" class="st8" d="M288.3,330.8l35.5-37.7"/>
<path id="Stroke-38" class="st8" d="M294.8,330.8l35.5-37.7"/>
<path id="Stroke-39" class="st8" d="M332.5,330.8l35.5-37.7"/>
<path id="Stroke-40" class="st8" d="M338.8,330.8l35.5-37.7"/>
<path id="Stroke-41" class="st8" d="M345.3,330.8l35.5-37.7"/>
<path id="Stroke-42" class="st8" d="M351.6,330.8l35.5-37.7"/>
<path id="Stroke-43" class="st8" d="M357.9,330.8l35.5-37.7"/>
<path id="Stroke-44" class="st8" d="M364.2,330.8l35.5-37.7"/>
<path id="Stroke-45" class="st8" d="M370.5,330.8l35.5-37.7"/>
<path id="Stroke-46" class="st8" d="M376.9,330.8l35.5-37.7"/>
<path id="Stroke-47" class="st8" d="M383.3,330.8l35.5-37.7"/>
<path id="Stroke-48" class="st8" d="M389.6,330.8l35.5-37.7"/>
<path id="Stroke-49" class="st8" d="M396,330.8l35.5-37.7"/>
<path id="Stroke-50" class="st8" d="M402.3,330.8l35.5-37.7"/>
<path id="Stroke-51" class="st8" d="M408.7,330.8l35.5-37.7"/>
<path id="Stroke-52" class="st8" d="M415.1,330.8l35.5-37.7"/>
<path id="Stroke-53" class="st8" d="M421.4,330.8l35.5-37.7"/>
<path id="Stroke-54" class="st8" d="M427.7,330.8l35.5-37.7"/>
<path id="Stroke-55" class="st8" d="M434,330.8l35.5-37.7"/>
<path id="Stroke-56" class="st8" d="M440.4,330.8l35.5-37.7"/>
<path id="Stroke-57" class="st8" d="M446.8,330.8l35.5-37.7"/>
<path id="Stroke-58" class="st8" d="M453.1,330.8l35.5-37.7"/>
<path id="Stroke-59" class="st8" d="M459.4,330.8l35.5-37.7"/>
<path id="Stroke-60" class="st8" d="M465.8,330.8l35.5-37.7"/>
<path id="Stroke-61" class="st8" d="M472.1,330.8l35.5-37.7"/>
<path id="Stroke-62" class="st8" d="M478.5,330.8l35.5-37.7"/>
<path id="Stroke-63" class="st8" d="M484.9,330.8l35.5-37.7"/>
<path id="Stroke-64" class="st8" d="M491.2,330.8l35.5-37.7"/>
<path id="Stroke-65" class="st8" d="M497.5,330.8l35.5-37.7"/>
<path id="Stroke-66" class="st8" d="M503.8,330.8l35.5-37.7"/>
<path id="Stroke-67" class="st8" d="M510.2,330.8l35.5-37.7"/>
<path id="Stroke-68" class="st8" d="M516.6,330.8l35.5-37.7"/>
<path id="Stroke-69" class="st8" d="M522.9,330.8l35.5-37.7"/>
<path id="Stroke-70" class="st8" d="M529.2,330.8l35.5-37.7"/>
<path id="Stroke-71" class="st8" d="M535.6,330.8l35.5-37.7"/>
<path id="Stroke-72" class="st8" d="M541.9,330.8l35.5-37.7"/>
<path id="Stroke-73" class="st8" d="M548.3,330.8l35.5-37.7"/>
<path id="Stroke-81" class="st9" d="M285.7,221.9v148.4"/>
<polygon class="st7" points="400.3,322.5 497.3,322.5 497.3,299.4 400.3,299.4 "/>
<path class="st8" d="M395.7,330.8l35.5-37.7"/>
<path class="st8" d="M402,330.8l35.5-37.7"/>
<path class="st8" d="M408.5,330.8l35.5-37.7"/>
<path class="st8" d="M414.8,330.8l35.5-37.7"/>
<path class="st8" d="M421.1,330.8l35.5-37.7"/>
<path class="st8" d="M370.7,330.8l35.5-37.7"/>
<path class="st8" d="M377,330.8l35.5-37.7"/>
<path class="st8" d="M383.3,330.8l35.5-37.7"/>
<path class="st8" d="M389.8,330.8l35.5-37.7"/>
<path class="st8" d="M427.5,330.8l35.5-37.7"/>
<path class="st8" d="M433.8,330.8l35.5-37.7"/>
<path class="st8" d="M440.1,330.8l35.5-37.7"/>
<path class="st8" d="M446.6,330.8l35.5-37.7"/>
<path class="st8" d="M452.9,330.8l35.5-37.7"/>
<path class="st8" d="M459.2,330.8l35.5-37.7"/>
<path class="st8" d="M465.5,330.8l35.5-37.7"/>
<path class="st8" d="M471.8,330.8l35.5-37.7"/>
<path class="st8" d="M478.3,330.8l35.5-37.7"/>
<path class="st8" d="M484.6,330.8l35.5-37.7"/>
<path class="st8" d="M490.9,330.8l35.5-37.7"/>
<path class="st8" d="M497.3,330.8l35.5-37.7"/>
<path class="st8" d="M503.6,330.8l35.5-37.7"/>
<path class="st8" d="M510,330.8l35.5-37.7"/>
<path class="st8" d="M516.4,330.8l35.5-37.7"/>
<path class="st8" d="M522.7,330.8l35.5-37.7"/>
<path class="st8" d="M529,330.8l35.5-37.7"/>
<path class="st8" d="M535.3,330.8l35.5-37.7"/>
<path class="st8" d="M541.7,330.8l35.5-37.7"/>
<path class="st8" d="M548.1,330.8l35.5-37.7"/>
<path class="st8" d="M554.4,330.8l35.5-37.7"/>
<path class="st8" d="M560.7,330.8l35.5-37.7"/>
<rect x="305.4" y="299.4" class="st10" width="101.7" height="23"/>
<path class="st6" d="M510.8,310v-1.7l4.1-4.1c0.6-0.5,1.1-1.3,1.1-2.2c0-0.9-0.7-1.7-1.6-1.7h-0.1c-1,0-1.8,0.9-1.8,1.8l-1.8-0.2
	c0.2-1.8,1.8-3.2,3.6-3.2c1.8-0.2,3.4,1.1,3.6,2.9c0,0.1,0,0.2,0,0.2c-0.1,1.3-0.7,2.6-1.7,3.3l-3.2,3h4.9v1.7h-7.2V310z M523.3,310
	v-8.6l-2.2,1.8l-1.1-1.3l3.4-2.7h1.7V310L523.3,310z M536.5,310v-8.6l-2.2,1.8l-1.1-1.3l3.4-2.7h1.7V310L536.5,310z M542.4,300.7
	V299h7.4v1.7l-4.4,9.2h-2.2l4.6-9.2H542.4z M556.2,310v-2.3h-5v-1.6l4.6-6.9h2.2v7.1h1.5v1.6h-1.5v2.3L556.2,310z M556.2,306.1v-4.9
	l0,0l-3,4.9H556.2z M572.4,308.2l0.6,1.5c-0.9,0.5-1.7,0.7-2.7,0.6c-2.3,0.1-4.3-1.5-4.7-3.6h-1.3l0.5-1.3h0.7c0-0.2,0-0.5,0-0.7
	s0-0.5,0-0.7h-1.1l0.5-1.3h0.9c0.6-2.2,2.6-3.8,4.9-3.6c0.9,0,1.7,0.1,2.4,0.5l-0.6,1.6c-0.6-0.4-1.3-0.5-1.9-0.5
	c-1.3,0-2.4,0.9-2.9,2.1h4.4l-0.5,1.3h-4.1c0,0.2,0,0.5,0,0.7c0,0.2,0,0.5,0,0.6h3.9l-0.4,1.3h-3.3c0.4,1.3,1.6,2.2,2.9,2.1
	C571.2,308.7,571.9,308.5,572.4,308.2L572.4,308.2z"/>
<path id="DÉPENSES" class="st11" d="M510.8,322.5v-8.1h2.7c2.3,0,4.1,1.8,4.1,4c0,2.3-1.8,4.1-4,4.1l0,0H510.8z M511.6,315.1v6.7
	h1.7c1.8,0.2,3.5-1.1,3.6-3s-1.1-3.5-3-3.6c-0.2,0-0.5,0-0.7,0H511.6z M520.2,318.6v3.2h4.4v0.7h-5.2v-8.1h5.1v0.7h-4.3v2.8h3.9v0.7
	H520.2z M523.7,312.1l-1.5,1.7h-0.7l1.2-1.7H523.7z M526.2,322.5v-8.1h2.3c1.7,0,2.8,0.7,2.8,2.2c0,1.5-1.1,2.2-2.8,2.2h-1.5v3.8
	H526.2z M527.1,315v2.9h1.3c1.3,0,1.9-0.5,1.9-1.5c0-1-0.7-1.5-1.9-1.5H527.1z M533.7,318.6v3.2h4.4v0.7h-5.2v-8.1h5.1v0.7h-4.3v2.8
	h3.9v0.7H533.7z M540.8,314.4l4.7,6.9l0,0v-6.9h0.9v8.1h-1.1l-4.7-7.1l0,0v7.1h-0.9v-8.1H540.8z M553.2,315.1l-0.6,0.5
	c-0.4-0.5-1-0.9-1.7-0.9c-0.9-0.1-1.7,0.6-1.7,1.5c0,0,0,0,0,0.1c0,1.1,0.9,1.3,1.8,1.6c1.1,0.4,2.4,0.7,2.4,2.4
	c0,1.3-1.2,2.4-2.6,2.3h-0.1c-1,0-1.9-0.5-2.6-1.2l0.7-0.5c0.4,0.6,1.1,1.1,1.8,1c1,0.1,1.7-0.6,1.8-1.6l0,0c0-1.1-1-1.5-1.9-1.7
	c-1-0.2-2.2-0.9-2.2-2.3c0-1.3,1.2-2.3,2.4-2.2h0.1C551.7,314.1,552.6,314.5,553.2,315.1L553.2,315.1z M555.9,318.6v3.2h4.4v0.7H555
	v-8.1h5v0.7h-4.3v2.8h3.9v0.7H555.9z M566.5,315.1l-0.6,0.5c-0.4-0.5-1-0.9-1.7-0.9c-0.9-0.1-1.7,0.6-1.7,1.5v0.1
	c0,1.1,0.9,1.3,1.7,1.6c1.1,0.4,2.4,0.7,2.4,2.4c0,1.3-1.2,2.4-2.6,2.3h-0.1c-1,0-1.9-0.5-2.6-1.2l0.7-0.5c0.4,0.6,1.1,1.1,1.8,1
	c1,0.1,1.7-0.6,1.8-1.6l0,0c0-1.1-1-1.5-1.9-1.7c-1-0.2-2.2-0.9-2.2-2.3c0-1.3,1.1-2.3,2.4-2.3h0.1
	C565,314.1,565.8,314.4,566.5,315.1L566.5,315.1z"/>
<polygon class="st12" points="305.4,276.3 501.3,276.3 501.3,254.2 305.4,254.2 "/>
<path class="st8" d="M300.7,285.3l35.5-36.1"/>
<path class="st8" d="M307.1,285.3l35.5-36.1"/>
<path class="st8" d="M313.5,285.3l35.5-36.1"/>
<path class="st8" d="M319.8,285.3l35.5-36.1"/>
<path class="st8" d="M326.2,285.3l35.5-36.1"/>
<path class="st8" d="M275.7,285.3l35.5-36.1"/>
<path class="st8" d="M282,285.3l35.5-36.1"/>
<path class="st8" d="M288.3,285.3l35.5-36.1"/>
<path class="st8" d="M294.8,285.3l35.5-36.1"/>
<path class="st8" d="M332.5,285.3l35.5-36.1"/>
<path class="st8" d="M338.8,285.3l35.5-36.1"/>
<path class="st8" d="M345.3,285.3l35.5-36.1"/>
<path class="st8" d="M351.6,285.3l35.5-36.1"/>
<path class="st8" d="M357.9,285.3l35.5-36.1"/>
<path class="st8" d="M364.2,285.3l35.5-36.1"/>
<path class="st8" d="M370.5,285.3l35.5-36.1"/>
<path class="st8" d="M376.9,285.3l35.5-36.1"/>
<path class="st8" d="M383.3,285.3l35.5-36.1"/>
<path class="st8" d="M389.6,285.3l35.5-36.1"/>
<path class="st8" d="M396,285.3l35.5-36.1"/>
<path class="st8" d="M402.3,285.3l35.5-36.1"/>
<path class="st8" d="M408.7,285.3l35.5-36.1"/>
<path class="st8" d="M415.1,285.3l35.5-36.1"/>
<path class="st8" d="M421.4,285.3l35.5-36.1"/>
<path class="st8" d="M427.7,285.3l35.5-36.1"/>
<path class="st8" d="M434,285.3l35.5-36.1"/>
<path class="st8" d="M440.4,285.3l35.5-36.1"/>
<path class="st8" d="M446.8,285.3l35.5-36.1"/>
<path class="st8" d="M453.1,285.3l35.5-36.1"/>
<path class="st8" d="M459.4,285.3l35.5-36.1"/>
<path class="st8" d="M465.8,285.3l35.5-36.1"/>
<path class="st8" d="M472.1,285.3l35.6-36.1"/>
<path class="st8" d="M478.5,285.3l35.5-36.1"/>
<path class="st8" d="M484.9,285.3l35.5-36.1"/>
<path class="st8" d="M491.2,285.3l35.5-36.1"/>
<path class="st8" d="M497.5,285.3l35.5-36.1"/>
<path class="st8" d="M503.8,285.3l35.5-36.1"/>
<path class="st8" d="M510.2,285.3l35.5-36.1"/>
<path class="st8" d="M516.6,285.3l35.5-36.1"/>
<path class="st8" d="M522.9,285.3l35.5-36.1"/>
<path class="st8" d="M529.2,285.3l35.5-36.1"/>
<path class="st8" d="M535.6,285.3l35.5-36.1"/>
<path class="st8" d="M541.9,285.3l35.5-36.1"/>
<path class="st8" d="M548.3,285.3l35.5-36.1"/>
<path class="st9" d="M285.7,180.8v142.5"/>
<rect x="305.4" y="253.4" class="st13" width="196.6" height="23"/>
<path class="st6" d="M515,263.9v-2.3h-5V260l4.6-6.9h2.2v7.1h1.5v1.6h-1.5v2.3H515V263.9z M515,260.1v-4.9l0,0l-3,4.9H515z
	 M526.8,253.1v1.7h-4.5l-0.1,2.3c0.5-0.1,0.9-0.1,1.3-0.1c1.8-0.2,3.5,1.2,3.8,3c0,0.1,0,0.2,0,0.4c0,2.1-1.6,3.8-3.6,3.9
	c-0.1,0-0.2,0-0.4,0c-1.6,0.1-3.2-0.9-3.6-2.4l1.7-0.6c0.2,0.9,1.1,1.5,2.1,1.5c1.1,0,1.9-0.9,1.9-1.9l0,0c0-1.7-1.2-2.2-2.4-2.2
	c-0.9,0-1.7,0.2-2.6,0.6l0.1-6L526.8,253.1z M540.8,258.6c0,3.5-1.3,5.7-3.8,5.7c-2.4,0-3.9-2.2-3.9-5.7c0-3.5,1.3-5.7,3.9-5.7
	C539.6,252.8,540.7,255,540.8,258.6L540.8,258.6z M538.9,258.6c0-1.5-0.2-4.1-1.9-4.1s-1.9,2.7-1.9,4.1c0,1.5,0.4,4.1,1.9,4.1
	C538.5,262.7,538.9,260,538.9,258.6L538.9,258.6z M549.3,253.1v1.7h-4.4l-0.1,2.3c0.4-0.1,0.9-0.1,1.3-0.1c1.8-0.2,3.5,1.1,3.8,3
	c0,0.1,0,0.2,0,0.5c-0.1,2.2-1.9,3.9-4.1,3.8c-1.5-0.1-2.8-1-3.5-2.3l1.7-0.6c0.2,0.9,1.1,1.5,2.1,1.5c1.1,0,1.9-0.9,2.1-1.9v-0.1
	c0-1.7-1.2-2.2-2.4-2.2c-0.9,0-1.7,0.2-2.6,0.6l0.1-6h6.1V253.1z M559.5,258.6c0,3.5-1.3,5.7-3.8,5.7s-3.9-2.2-3.9-5.7
	c0-3.5,1.3-5.7,3.9-5.7C558.3,252.8,559.4,255,559.5,258.6L559.5,258.6z M557.6,258.6c0-1.5-0.2-4.1-1.9-4.1s-1.9,2.7-1.9,4.1
	c0,1.5,0.2,4.1,1.9,4.1S557.6,260,557.6,258.6L557.6,258.6z M572.5,262.1l0.6,1.5c-0.9,0.5-1.7,0.7-2.7,0.6
	c-2.3,0.1-4.3-1.5-4.7-3.6h-1.3l0.5-1.3h0.7c0-0.2,0-0.5,0-0.7c0-0.2,0-0.5,0-0.7h-1.1l0.5-1.3h0.9c0.6-2.2,2.6-3.8,4.9-3.6
	c0.9,0,1.7,0.1,2.4,0.5l-0.6,1.6c-0.6-0.4-1.3-0.5-1.9-0.5c-1.3,0-2.6,0.9-2.9,2.1h4.4l-0.5,1.3h-4.3c0,0.2,0,0.5,0,0.7s0,0.5,0,0.6
	h3.9l-0.4,1.3h-3.3c0.4,1.3,1.6,2.2,2.9,2.1C571.2,262.7,571.9,262.4,572.5,262.1L572.5,262.1z"/>
<path class="st11" d="M517,274.7l0.6,0.4c-0.7,1-1.8,1.6-3,1.5c-2.3-0.2-4-2.3-3.8-4.7c0.2-1.9,1.8-3.5,3.8-3.8
	c1.1,0,2.2,0.5,2.9,1.3l-0.7,0.5c-0.5-0.7-1.3-1.1-2.2-1.1c-1.9,0.1-3.4,1.8-3.4,3.8c0.1,1.8,1.6,3.3,3.4,3.4
	C515.5,275.9,516.5,275.5,517,274.7z M519,276.4v-8.1h0.9v3.5h4.5v-3.5h0.9v8.1h-0.9v-3.9h-4.5v3.9H519z M528.2,268.3v8.1h-0.9v-8.1
	H528.2z M531.1,272.5v3.9h-0.9v-8.1h4.9v0.7h-4.1v2.8h3.8v0.7L531.1,272.5z M537.6,272.5v3.9h-0.9v-8.1h4.9v0.7h-4.1v2.8h3.8v0.7
	L537.6,272.5z M544.1,272.5v3.9h-0.9v-8.1h2.4c1.6,0,2.8,0.6,2.8,2.2c0,1.1-1,2.1-2.1,2.1l2.4,3.9h-1l-2.3-3.8L544.1,272.5z
	 M544.1,268.9v2.9h1.5c1.3,0,2.1-0.5,2.1-1.5c0-1-0.9-1.5-2.1-1.5H544.1z M550.9,272.4v3.2h4.4v0.9H550v-8.1h5v0.7h-4.3v2.8h3.9v0.7
	L550.9,272.4z M561.6,269l-0.6,0.5c-0.4-0.5-1-0.9-1.7-0.9c-0.9-0.1-1.7,0.6-1.7,1.5c0,0.1,0,0.1,0,0.2c0,1.1,0.9,1.3,1.7,1.6
	c1.2,0.4,2.4,0.7,2.4,2.4c0,1.3-1.2,2.4-2.6,2.3H559c-1,0-1.9-0.5-2.6-1.2l0.7-0.5c0.4,0.6,1.1,1,1.8,1c1,0.1,1.7-0.6,1.8-1.6l0,0
	c0-1.1-1-1.5-1.9-1.7c-1-0.2-2.2-0.9-2.2-2.3c0-1.3,1.2-2.3,2.4-2.2h0.1C560.1,268,561,268.4,561.6,269L561.6,269z M510.8,289.8
	v-8.1h2.7c2.3,0,4.1,1.8,4.1,4c0,2.3-1.8,4.1-4,4.1l0,0H510.8z M511.6,282.4v6.7h1.7c1.8,0.2,3.5-1.1,3.6-3c0.1-1.9-1.1-3.5-3-3.6
	c-0.2,0-0.5,0-0.7,0H511.6z M520.5,281.7l-1,2.7h-0.6l0.7-2.7H520.5z M522.9,287.6l-1,2.2h-0.9l3.5-8.1h0.9l3.5,8.1h-1l-0.9-2.2
	H522.9z M525,282.6l-1.8,4.4h3.5L525,282.6z M530.9,285.9v3.9h-0.9v-8.1h4.9v0.7h-4.1v2.8h3.8v0.7L530.9,285.9z M537.4,285.9v3.9
	h-0.9v-8.1h4.9v0.7h-4.1v2.8h3.8v0.7L537.4,285.9z M543.8,287.6l-0.9,2.2h-1l3.5-8.1h0.9l3.5,8.1h-1l-0.9-2.2H543.8z M546,282.6
	l-1.8,4.4h3.6L546,282.6z M552,281.7v8.1h-0.9v-8.1H552z M554.9,286v3.8h-0.9v-8.1h2.4c1.6,0,2.8,0.6,2.8,2.2c0,1.1-1,2.1-2.1,2.1
	l2.4,3.9h-1l-2.3-3.8H554.9z M554.9,282.4v2.9h1.5c1.3,0,2.1-0.5,2.1-1.5c0-1-0.9-1.5-2.1-1.5H554.9z M561.8,285.9v3.2h4.3v0.7h-5.2
	v-8.1h5.1v0.7h-4.3v2.8h3.9v0.7L561.8,285.9L561.8,285.9z M572.4,282.4l-0.6,0.5c-0.4-0.5-1-0.9-1.7-0.9c-0.9-0.1-1.7,0.5-1.8,1.5
	v0.1c0,1.1,0.9,1.3,1.8,1.6c1.2,0.4,2.4,0.7,2.4,2.4c0,1.3-1.2,2.4-2.6,2.3h-0.1c-1,0-1.9-0.5-2.6-1.2l0.7-0.5
	c0.4,0.6,1.1,1.1,1.8,1.1c1,0.1,1.7-0.6,1.8-1.6l0,0c0-1.1-1-1.5-1.9-1.7c-1-0.2-2.2-0.9-2.2-2.3c0.1-1.3,1.2-2.3,2.6-2.3l0,0
	C571,281.5,571.8,281.9,572.4,282.4L572.4,282.4z"/>
<path id="path-9" d="M289.1,356.1h301.2c1.6,0,2.9,1.3,2.9,2.9v301.2c0,1.6-1.3,2.9-2.9,2.9H289.1c-1.6,0-2.9-1.3-2.9-2.9V358.9
	C286.2,357.3,287.5,356.1,289.1,356.1z"/>
<path class="st14" d="M289.1,356.1h301.2c1.6,0,2.9,1.3,2.9,2.9v301.2c0,1.6-1.3,2.9-2.9,2.9H289.1c-1.6,0-2.9-1.3-2.9-2.9V358.9
	C286.2,357.3,287.5,356.1,289.1,356.1z"/>
<path id="Factures-clients" class="st4" d="M308.7,386.7v5.7h-1.8v-12.9h8v1.6h-6.2v4h5.8v1.6L308.7,386.7z M321.7,387.1v-0.2
	c0-1.2-0.9-1.9-2.2-1.9c-0.9,0-1.8,0.4-2.4,1l-1-1.1c1-0.9,2.2-1.3,3.5-1.3c1.8-0.2,3.4,1,3.6,2.8c0,0.2,0,0.4,0,0.6v3.8
	c0,0.6,0,1.1,0.1,1.7h-1.6c-0.1-0.4-0.1-0.9-0.1-1.2l0,0c-0.6,1-1.7,1.5-2.9,1.5c-1.6,0.2-2.9-0.9-3.2-2.4c0-0.1,0-0.1,0-0.2
	C315.7,387.5,318.7,387.1,321.7,387.1z M321.7,388.3h-0.4c-1.7,0-3.9,0.1-3.9,1.7c0,1,1,1.3,1.8,1.3c1.3,0.1,2.4-0.9,2.6-2.2
	c0-0.1,0-0.2,0-0.2v-0.6H321.7z M333.5,385l-1.2,1c-0.5-0.6-1.2-1-1.9-1c-1.7,0.1-3,1.7-2.8,3.4c0.1,1.5,1.3,2.7,2.8,2.8
	c0.9,0,1.6-0.4,2.1-1l1.2,1.1c-0.9,0.9-1.9,1.3-3.3,1.3c-2.6,0-4.6-2.1-4.6-4.6s2.1-4.6,4.6-4.6C331.5,383.6,332.6,384,333.5,385
	L333.5,385z M339.4,383.8v1.3h-2.3v4.5c0,1.1,0.4,1.5,1.2,1.5c0.4,0,0.7-0.1,1-0.2v1.5c-0.5,0.1-1,0.2-1.5,0.2c-1.6,0-2.6-1-2.6-2.7
	v-4.7h-1.6v-1.3h1.7v-2.4h1.7v2.4L339.4,383.8z M348.9,392.4h-1.6c0-0.5-0.1-1.1-0.1-1.5l0,0c-0.6,1-1.7,1.7-2.8,1.7
	c-1.7,0.1-3.2-1.3-3.3-3c0-0.1,0-0.4,0-0.5v-5.4h1.7v4.7c0,1.5,0.4,2.7,1.9,2.7c1.3,0,2.3-1.1,2.3-2.8v-4.6h1.7v6.8
	C348.8,391.1,348.8,392,348.9,392.4L348.9,392.4z M351.8,385.6c0-0.5,0-1.3-0.1-1.8h1.6c0,0.5,0.1,1.1,0.1,1.5l0,0
	c0.5-1.1,1.5-1.7,2.7-1.7c0.2,0,0.5,0,0.7,0.1l-0.1,1.6c-0.2-0.1-0.5-0.1-0.7-0.1c-1.3,0-2.4,1.1-2.4,2.4c0,0.1,0,0.2,0,0.4v4.5
	h-1.7V385.6z M359.2,387.3h5.1c0.1-1.2-0.9-2.3-2.2-2.4c-0.1,0-0.2,0-0.2,0C360.5,384.9,359.4,386,359.2,387.3L359.2,387.3z
	 M366.1,388.1c0,0.1,0,0.4,0,0.6h-6.8c0.1,1.5,1.3,2.7,2.8,2.7c1,0,1.9-0.5,2.6-1.3l1.2,1c-0.9,1.2-2.3,1.8-3.8,1.8
	c-2.6,0-4.6-1.9-4.6-4.5s1.9-4.6,4.5-4.6l0,0C364.5,383.6,366.1,385.4,366.1,388.1L366.1,388.1z M374.3,384.9l-1.2,1
	c-0.5-0.7-1.2-1.1-1.9-1.1c-0.9,0-1.6,0.4-1.6,1.1s0.6,1,1.9,1.3c1.6,0.4,2.9,1.1,2.9,2.6c0,2.1-1.7,2.8-3.4,2.8
	c-1.3,0-2.7-0.5-3.5-1.6l1.2-1.1c0.5,0.7,1.3,1.2,2.3,1.2c0.9,0,1.7-0.4,1.7-1.2c0-0.9-0.7-1.1-2.2-1.5c-1.1-0.2-2.6-0.7-2.6-2.4
	c0-1.8,1.6-2.7,3.3-2.7C372.4,383.4,373.6,384,374.3,384.9L374.3,384.9z M388.4,384.9l-1.2,1c-0.5-0.6-1.2-1-1.9-1
	c-1.7,0.1-3,1.7-2.8,3.4c0.1,1.5,1.3,2.7,2.8,2.8c0.9,0,1.6-0.4,2.1-1l1.2,1.1c-0.9,0.9-1.9,1.3-3.3,1.3c-2.6,0-4.6-2.1-4.6-4.6
	s2.1-4.6,4.6-4.6l0,0C386.5,383.6,387.7,384,388.4,384.9L388.4,384.9z M391.8,378.6v13.7h-1.7v-13.7H391.8z M396.6,383.8v8.6h-1.7
	v-8.6H396.6z M396.9,380.6c0,0.6-0.5,1.2-1.1,1.2s-1.2-0.5-1.2-1.1s0.5-1.2,1.1-1.2l0,0C396.3,379.5,396.9,380,396.9,380.6
	L396.9,380.6L396.9,380.6z M400.8,387.3h5.1c0.1-1.2-0.9-2.3-2.2-2.4c-0.1,0-0.2,0-0.2,0C402,384.9,400.8,386,400.8,387.3
	L400.8,387.3z M407.6,388.1c0,0.1,0,0.4,0,0.6h-6.8c0.1,1.5,1.3,2.7,2.8,2.7c1,0,1.9-0.5,2.6-1.3l1.2,1c-0.9,1.2-2.3,1.8-3.8,1.8
	c-2.6,0-4.6-1.9-4.6-4.5s1.9-4.6,4.5-4.6C406.1,383.6,407.6,385.4,407.6,388.1L407.6,388.1z M410,383.8h1.7c0,0.5,0.1,1.1,0.1,1.5
	h0.1c0.5-1.1,1.6-1.7,2.8-1.7c1.7,0,3.2,1.3,3.2,3c0,0.1,0,0.4,0,0.5v5.4h-1.7v-4.7c0-1.3-0.4-2.7-1.9-2.7c-1.3,0-2.3,1.1-2.3,2.8
	v4.6h-1.7v-6.8C410.1,385.3,410.1,384.4,410,383.8L410,383.8z M424.9,383.8v1.3h-2.3v4.5c0,1.1,0.4,1.5,1.2,1.5c0.4,0,0.7-0.1,1-0.2
	v1.5c-0.5,0.1-1,0.2-1.5,0.2c-1.6,0-2.6-1-2.6-2.7v-4.7h-1.7v-1.3h1.7v-2.4h1.7v2.4L424.9,383.8z M432.4,385l-1.2,1
	c-0.5-0.7-1.2-1.1-1.9-1.1s-1.6,0.4-1.6,1.1s0.6,1,1.9,1.3c1.7,0.4,2.9,1.1,2.9,2.6c0,2.1-1.7,2.8-3.4,2.8c-1.3,0-2.7-0.5-3.5-1.6
	l1.2-1.1c0.5,0.7,1.3,1.2,2.3,1.2c0.9,0,1.7-0.4,1.7-1.2c0-0.9-0.7-1.1-2.3-1.5c-1.1-0.2-2.6-0.7-2.6-2.4c0-1.8,1.6-2.7,3.3-2.7
	C430.5,383.6,431.7,384,432.4,385L432.4,385z"/>
<path class="st6" d="M308.5,561.2v-6.4l-1.6,1.3l-0.9-1l2.6-2.1h1.2v8.1H308.5z M315.6,561.2v-6.4l-1.6,1.3l-0.9-1l2.6-2.1h1.2v8.1
	H315.6z M320.2,561.2V560l3.2-3c0.5-0.4,0.9-1,0.9-1.6c0-0.7-0.5-1.2-1.2-1.2c0,0,0,0-0.1,0c-0.7,0-1.3,0.6-1.3,1.3l-1.3-0.2
	c0.1-1.5,1.3-2.4,2.8-2.4c1.3-0.1,2.6,0.7,2.7,2.1c0,0.1,0,0.2,0,0.4c-0.1,1-0.6,1.8-1.3,2.4l-2.3,2.2h3.6v1.2L320.2,561.2z
	 M326.6,562.8l0.9-3h1.3l-1,3H326.6z M331.9,557.6v-1.1h0.4c0.9,0,1.7-0.2,1.7-1.2c0-0.7-0.5-1.2-1.2-1.2c0,0,0,0-0.1,0
	c-0.6,0-1.2,0.5-1.3,1.1l-1.3-0.4c0.4-1.2,1.5-1.9,2.7-1.8c1.3-0.1,2.4,0.7,2.6,2.1c0,0.1,0,0.1,0,0.2c0,0.9-0.6,1.7-1.5,1.8l0,0
	c1,0.1,1.7,1,1.7,1.9c0,1.5-1.2,2.6-2.7,2.6h-0.1c-1.3,0.1-2.6-0.6-2.9-1.9l1.3-0.4c0.2,0.7,0.9,1.2,1.6,1.2
	c0.7,0.1,1.5-0.5,1.5-1.2v-0.1c0-1.1-1.1-1.3-1.9-1.3L331.9,557.6z M340.4,561.2v-1.7h-3.8v-1.2l3.4-5.2h1.7v5.2h1.1v1.2h-1.1v1.7
	H340.4z M340.4,558.4v-3.6l0,0l-2.3,3.6H340.4z M347.4,561.2v-1.7h-3.8v-1.2l3.5-5.2h1.7v5.2h1.1v1.2h-1.1v1.7H347.4z M347.4,558.4
	v-3.6l0,0l-2.3,3.6H347.4z M359.6,559.9l0.5,1.1c-0.6,0.4-1.3,0.5-2.1,0.5c-1.7,0.1-3.2-1.1-3.5-2.7h-1l0.4-1h0.5c0-0.1,0-0.4,0-0.5
	c0-0.1,0-0.4,0-0.6h-0.9l0.4-1h0.6c0.4-1.7,1.9-2.8,3.6-2.8c0.6,0,1.2,0.1,1.8,0.4l-0.5,1.2c-0.5-0.2-1-0.4-1.5-0.4
	c-1,0-1.8,0.6-2.2,1.6h3.4l-0.4,1h-3.2c0,0.2,0,0.4,0,0.6c0,0.1,0,0.4,0,0.5h2.9l-0.2,1H356c0.2,1,1.2,1.6,2.2,1.6
	C358.6,560.3,359.1,560.1,359.6,559.9L359.6,559.9z M364.1,561.2v-8.1h2.7c1.8,0,3,0.6,3,2.3c0,1.7-1.5,2.4-3.2,2.4h-1.1v3.4
	L364.1,561.2z M365.6,556.7h1.1c1,0,1.8-0.2,1.8-1.2s-0.9-1.1-1.7-1.1h-1.1L365.6,556.7z M369.5,561.2l3.5-8.1h1.2l3.5,8.1h-1.6
	l-0.7-1.8h-3.5l-0.7,1.8H369.5z M372.4,558.2h2.6l-1.2-3.3L372.4,558.2z M379.9,561.2v-3.5l-3-4.6h1.8l2.1,3.4l2.1-3.4h1.7l-3,4.6
	v3.5H379.9z M385,561.2v-8.1h5.4v1.2h-3.9v2.1h3.8v1.2h-3.8v2.3h4.1v1.3H385z M387.1,552.5l1.1-1.7h1.6l-1.6,1.7H387.1z
	 M392.1,561.2v-8.1h5.4v1.2h-4v2.1h3.8v1.2h-3.8v2.3h4.1v1.3H392.1z M404.2,553.8l-1,1.1c-0.4-0.5-1-0.7-1.5-0.7
	c-0.7,0-1.5,0.4-1.5,1.1c0,0.7,0.6,1,1.6,1.2c1,0.2,2.4,0.7,2.4,2.4c0,1.5-1.2,2.7-2.7,2.7c-0.1,0-0.2,0-0.4,0
	c-1.1,0-2.1-0.4-2.8-1.2l1-1c0.5,0.6,1.1,0.9,1.8,0.9c0.7,0,1.5-0.4,1.5-1.2s-0.9-1.1-1.8-1.5c-1-0.4-2.1-0.7-2.1-2.3s1.5-2.4,3-2.4
	C402.8,552.8,403.6,553.2,404.2,553.8L404.2,553.8z M418.1,557.3v-0.7h0.4c1.1,0,1.9-0.4,1.9-1.5c0-0.9-0.7-1.6-1.6-1.6
	c0,0,0,0-0.1,0c-0.6,0-1.2,0.4-1.6,1l-0.7-0.4c0.5-0.9,1.3-1.3,2.3-1.3c1.2-0.1,2.3,0.7,2.4,1.9c0,0.1,0,0.1,0,0.2
	c0,0.9-0.6,1.7-1.5,1.8l0,0c1,0.2,1.6,1.1,1.6,2.1c0,1.3-1.1,2.4-2.4,2.4c-0.1,0-0.1,0-0.2,0c-1.1,0-2.2-0.6-2.6-1.7l0.7-0.2
	c0.2,0.7,1,1.2,1.8,1.2c1,0,1.7-0.7,1.8-1.7v-0.1c0-1.2-1.1-1.7-2.1-1.7L418.1,557.3z M425.6,552.8c2.1,0,2.7,2.2,2.7,4.3
	s-0.6,4.3-2.7,4.3c-2.1,0-2.7-2.2-2.7-4.3S423.6,553,425.6,552.8L425.6,552.8z M425.6,553.6c-1.5,0-1.8,1.9-1.8,3.6
	c0,1.7,0.4,3.5,1.8,3.5c1.5,0,1.8-1.9,1.8-3.5S427.1,553.7,425.6,553.6L425.6,553.6z M432.9,561.2v-8.1h2.7c2.3,0,4.1,1.8,4.1,4.1
	c0,2.3-1.8,4.1-4.1,4.1h-2.7V561.2z M433.8,553.8v6.7h1.7c1.8,0.2,3.5-1.1,3.6-3c0.2-1.8-1.1-3.5-3-3.6c-0.2,0-0.5,0-0.7,0H433.8z
	 M442.5,557.3v3.2h4.4v0.7h-5.2v-8.1h5v0.7h-4.3v2.8h3.9v0.7H442.5z M449.4,557.5v3.8h-0.9v-8.1h2.4c1.6,0,2.8,0.6,2.8,2.2
	c0,1.1-1,2.1-2.1,2.1l2.4,3.9H453l-2.3-3.8H449.4z M449.4,553.8v2.9h1.5c1.3,0,2.1-0.5,2.1-1.5c0-1-0.9-1.5-2.1-1.5H449.4
	L449.4,553.8z M456.4,553.1l4.7,6.9l0,0v-6.9h0.9v8.1h-1.1l-4.7-7.1l0,0v7.1h-0.7v-8.1H456.4z M465,553.1v8.1h-0.9v-8.1H465z
	 M468,557.3v3.2h4.4v0.7h-5.2v-8.1h5.1v0.7H468v2.8h3.9v0.7H468z M474.8,557.5v3.8h-0.9v-8.1h2.4c1.6,0,2.8,0.6,2.8,2.2
	c0,1.1-1,2.1-2.1,2.1l2.4,3.9h-1l-2.3-3.8H474.8z M474.8,553.8v2.9h1.5c1.3,0,2.1-0.5,2.1-1.5c0-1-0.9-1.5-2.1-1.5H474.8
	L474.8,553.8z M485.5,553.8l-0.6,0.5c-0.4-0.5-1-0.9-1.7-0.9c-0.9-0.1-1.7,0.6-1.7,1.5c0,0,0,0,0,0.1c0,1.1,0.9,1.3,1.8,1.6
	c1.2,0.4,2.4,0.7,2.4,2.4c0,1.3-1.2,2.4-2.6,2.3H483c-1,0-1.9-0.5-2.6-1.2l0.7-0.5c0.4,0.6,1.1,1.1,1.8,1.1c1,0.1,1.7-0.6,1.8-1.6
	l0,0c0-1.1-1-1.5-1.9-1.7c-1-0.2-2.2-0.9-2.2-2.3c0.1-1.3,1.2-2.3,2.6-2.3l0,0C484.1,552.8,485,553.2,485.5,553.8L485.5,553.8z
	 M489.4,559.8l0.7-0.2c0.1,0.6,0.6,1.1,1.3,1.1c1.1,0,1.5-1,1.5-1.8v-5.7h0.9v5.8c0,1.1-0.4,2.6-2.2,2.6
	C490.5,561.5,489.6,560.9,489.4,559.8L489.4,559.8z M503.8,557.1c0,2.3-1.9,4.3-4.3,4.3s-4.3-1.9-4.3-4.3c0-2.3,1.9-4.3,4.3-4.3
	s4.1,1.7,4.3,4C503.8,557,503.8,557.1,503.8,557.1L503.8,557.1z M503,557.1c-0.1-1.8-1.7-3.3-3.5-3.2c-1.8,0.1-3.3,1.7-3.2,3.5
	s1.6,3.2,3.4,3.2s3.4-1.5,3.4-3.3C503,557.3,503,557.2,503,557.1L503,557.1z M508.6,561.4c-1.6,0.1-3-1.2-3-2.8c0-0.1,0-0.4,0-0.5
	V553h0.9v5c0,1.3,0.6,2.6,2.2,2.6c1.6,0,2.2-1.3,2.2-2.6v-5h0.9v5.1c0.2,1.6-0.9,3-2.4,3.3C508.9,561.5,508.7,561.5,508.6,561.4
	L508.6,561.4z M514.5,557.3v3.8h-0.9V553h2.4c1.6,0,2.8,0.6,2.8,2.2c0,1.1-1,2.1-2.1,2.1l2.4,3.9h-1l-2.3-3.8H514.5z M514.5,553.7
	v2.9h1.5c1.3,0,2.1-0.5,2.1-1.5s-0.9-1.5-2.1-1.5L514.5,553.7L514.5,553.7z M525.2,553.8l-0.6,0.5c-0.4-0.5-1-0.9-1.7-0.9
	c-0.9-0.1-1.7,0.6-1.7,1.5c0,0,0,0,0,0.1c0,1.1,0.9,1.3,1.7,1.6c1.1,0.4,2.4,0.7,2.4,2.4c0,1.3-1.2,2.4-2.6,2.3h-0.1
	c-1,0-1.9-0.5-2.6-1.2l0.7-0.5c0.4,0.6,1.1,1.1,1.8,1.1c1,0.1,1.7-0.6,1.8-1.6l0,0c0-1.1-1-1.5-1.9-1.7c-1-0.2-2.2-0.9-2.2-2.3
	c0.1-1.3,1.2-2.3,2.6-2.3l0,0c0.9,0,1.7,0.4,2.3,1.1V553.8L525.2,553.8z"/>
<path class="st15" d="M308.5,589.4h5.8c0.1,0,0.2,0,0.2,0.1c0.1,0.1,0.1,0.1,0.1,0.2v0.9c0,0.1,0,0.2-0.1,0.2
	c-0.1,0.1-0.1,0.1-0.2,0.1h-7.3c-0.1,0-0.2,0-0.2-0.1c-0.1-0.1-0.1-0.1-0.1-0.2v-3.2c0-0.6,0.1-1.1,0.5-1.5c0.4-0.2,0.7-0.5,1.1-0.6
	l3.6-1.3c0.2-0.1,0.5-0.2,0.6-0.4c0.2-0.2,0.4-0.5,0.4-0.9v-1.6c0-0.5-0.1-0.9-0.5-1.2c-1.1-0.6-2.4-0.6-3.5,0
	c-0.4,0.4-0.5,0.7-0.5,1.2v0.9c0,0.1,0,0.2-0.1,0.2c-0.1,0.1-0.1,0.1-0.2,0.1h-1.1c-0.1,0-0.2,0-0.2-0.1c-0.1-0.1-0.1-0.1-0.1-0.2
	v-1.1c0-0.7,0.4-1.5,0.9-2.1c1-0.7,2.1-1.1,3.3-0.9c1.2-0.1,2.3,0.2,3.3,0.9c0.6,0.5,0.9,1.3,0.9,2.1v1.8c0,0.7-0.1,1.3-0.6,1.8
	c-0.4,0.4-0.7,0.6-1.1,0.7l-3.3,1.2c-0.2,0.1-0.6,0.2-0.9,0.4c-0.2,0.2-0.4,0.5-0.4,0.7L308.5,589.4z M321.2,588.2v-7.4
	c0-0.7,0.4-1.5,0.9-2.1c1-0.7,2.1-1,3.3-0.9c1.2-0.1,2.3,0.2,3.3,0.9c0.6,0.5,0.9,1.2,0.9,2.1v7.4c0,0.7-0.4,1.6-0.9,2.1
	c-1,0.7-2.1,1-3.3,0.9c-1.2,0.1-2.3-0.2-3.3-0.9C321.5,589.8,321.2,589,321.2,588.2z M327.6,587.9v-6.8c0-0.5-0.1-0.9-0.5-1.2
	c-0.5-0.4-1.2-0.5-1.8-0.5c-0.6-0.1-1.2,0.1-1.8,0.5c-0.4,0.4-0.5,0.7-0.5,1.2v6.8c0,0.5,0.1,0.9,0.5,1.2c0.5,0.4,1.1,0.5,1.8,0.5
	c0.6,0,1.2-0.1,1.8-0.5C327.5,588.8,327.7,588.3,327.6,587.9z M332.1,588.2v-7.4c0-0.7,0.4-1.6,0.9-2.1c1-0.7,2.1-1,3.3-0.9
	c1.2-0.1,2.3,0.2,3.3,0.9c0.6,0.5,0.9,1.2,0.9,2.1v7.4c0,0.7-0.4,1.6-0.9,2.1c-1,0.7-2.1,1-3.3,0.9c-1.2,0.1-2.3-0.2-3.3-0.9
	C332.5,589.8,332.1,589,332.1,588.2z M338.6,587.9v-6.8c0-0.5-0.1-0.9-0.5-1.2c-1.1-0.6-2.4-0.6-3.5,0c-0.4,0.4-0.5,0.7-0.5,1.2v6.8
	c0,0.5,0.1,0.9,0.5,1.2c1.1,0.6,2.4,0.6,3.5,0C338.4,588.8,338.7,588.3,338.6,587.9L338.6,587.9z M343.1,588.2v-7.4
	c0-0.7,0.4-1.6,0.9-2.1c1-0.7,2.1-1,3.3-0.9c1.2-0.1,2.3,0.2,3.3,0.9c0.6,0.5,0.9,1.2,0.9,2.1v7.4c0,0.7-0.4,1.6-0.9,2.1
	c-1,0.7-2.1,1-3.3,0.9c-1.2,0.1-2.3-0.2-3.3-0.9C343.4,589.8,343.1,589,343.1,588.2z M349.6,587.9v-6.8c0-0.5-0.1-0.9-0.5-1.2
	c-0.5-0.4-1.2-0.5-1.8-0.5c-0.6-0.1-1.2,0.1-1.7,0.5c-0.4,0.4-0.5,0.7-0.5,1.2v6.8c0,0.5,0.1,0.9,0.5,1.2c0.5,0.4,1.1,0.5,1.7,0.5
	c0.6,0.1,1.2-0.1,1.8-0.5C349.4,588.8,349.6,588.3,349.6,587.9L349.6,587.9z M367.4,588.2c0,0.7-0.4,1.6-0.9,2.1
	c-1,0.7-2.2,1-3.4,0.9c-1.2,0.1-2.4-0.1-3.4-0.9c-0.6-0.5-0.9-1.3-0.9-2.1v-1.8h-0.7c-0.1,0-0.2,0-0.2-0.1c-0.1-0.1-0.1-0.1-0.1-0.2
	v-0.5c0-0.1,0-0.2,0.1-0.2c0.1,0,0.1-0.1,0.2-0.1h0.7v-1.3h-0.7c-0.1,0-0.4-0.1-0.4-0.2v-0.1V583c0-0.1,0-0.2,0.1-0.2
	c0.1-0.1,0.1-0.1,0.2-0.1h0.7v-1.9c0-0.7,0.4-1.6,0.9-2.1c2.1-1.2,4.6-1.2,6.7,0c0.6,0.5,0.9,1.2,0.9,2.1v1c0,0.1,0,0.2-0.1,0.2
	c-0.1,0.1-0.1,0.1-0.2,0.1h-1.1c-0.1,0-0.2,0-0.2-0.1c0-0.1-0.1-0.2-0.1-0.2v-0.6c0-0.5-0.2-1-0.5-1.2c-0.6-0.4-1.2-0.5-1.8-0.5
	s-1.3,0.1-1.8,0.5c-0.4,0.2-0.6,0.7-0.5,1.2v1.6h2.6c0.1,0,0.2,0,0.2,0.1c0.1,0.1,0.1,0.1,0.1,0.2v0.5c0,0.1,0,0.2-0.1,0.2
	c-0.1,0.1-0.1,0.1-0.2,0.1h-2.6v1.3h2.6c0.1,0,0.2,0,0.2,0.1c0,0.1,0.1,0.1,0.1,0.2v0.5c0,0.1-0.1,0.4-0.2,0.4h-0.1h-2.6v1.6
	c0,0.5,0.2,1,0.5,1.2c0.5,0.4,1.2,0.5,1.8,0.5s1.3-0.1,1.8-0.5c0.4-0.2,0.6-0.7,0.5-1.2v-0.9c0-0.1,0-0.2,0.1-0.2
	c0.1-0.1,0.1-0.1,0.2-0.1h1.1c0.1,0,0.2,0,0.2,0.1c0,0.1,0.1,0.1,0.1,0.2L367.4,588.2z"/>
<path id="PAS-ENCORE-EN-BANQUE" class="st11" d="M306.6,609.3v-9.5h2.7c1.9,0,3.2,0.9,3.2,2.6c0,1.7-1.3,2.6-3.3,2.6h-1.7v4.4
	L306.6,609.3L306.6,609.3z M307.6,600.6v3.4h1.6c1.5,0,2.3-0.6,2.3-1.7c0-1.1-0.9-1.7-2.3-1.7H307.6z M314.6,606.7l-1,2.4h-1.1
	l4.1-9.5h1l4.1,9.5h-1.1l-1.1-2.4H314.6z M317,600.9l-2.1,5h4.3L317,600.9z M328.4,600.6l-0.7,0.6c-0.5-0.6-1.2-1-1.9-1
	c-1-0.1-1.9,0.6-2.1,1.7v0.1c0,1.2,1,1.5,2.1,1.8c1.3,0.5,2.8,0.9,2.8,2.8c0,1.6-1.3,2.8-2.9,2.8c-0.1,0-0.1,0-0.2,0
	c-1.2,0-2.3-0.5-3-1.5l0.9-0.6c0.5,0.7,1.3,1.2,2.2,1.2c1.1,0.1,2.1-0.7,2.1-1.8l0,0c0-1.3-1.1-1.7-2.3-2.1c-1.2-0.4-2.6-1-2.6-2.7
	c0.1-1.6,1.3-2.7,2.9-2.7h0.1C326.6,599.4,327.6,599.9,328.4,600.6L328.4,600.6z M334.9,604.8v3.6h5.1v0.9h-6.1v-9.5h5.8v0.9h-4.9
	v3.3h4.6v0.9L334.9,604.8z M343.1,599.8l5.6,8.1l0,0v-8.1h1v9.5h-1.2l-5.6-8.1l0,0v8.1h-1v-9.5H343.1z M359.4,607.2l0.7,0.5
	c-0.9,1.2-2.2,1.8-3.5,1.8c-2.8,0-5-2.2-5-5s2.2-5,5-5c1.3,0,2.6,0.5,3.4,1.5l-0.9,0.6c-0.6-0.9-1.6-1.2-2.6-1.2
	c-2.3,0-4.1,1.8-4.1,4.1c0,2.3,1.8,4.1,4.1,4.1l0,0C357.7,608.7,358.8,608.2,359.4,607.2z M371,604.4c0,2.8-2.3,5-5,4.9
	c-2.8,0-5-2.3-4.9-5c0-2.7,2.2-5,5-4.9c2.7-0.1,4.9,2.1,5,4.7C371,604.3,371,604.4,371,604.4L371,604.4z M369.9,604.4
	c-0.1-2.2-1.9-3.9-4.1-3.8c-2.2,0.1-3.9,1.9-3.8,4.1c0.1,2.1,1.8,3.8,3.9,3.8c2.2,0,3.9-1.7,4-3.9
	C370.1,604.6,370.1,604.5,369.9,604.4L369.9,604.4z M374,604.8v4.4h-1v-9.5h2.8c1.9,0,3.3,0.7,3.3,2.6c0,1.3-1.1,2.4-2.4,2.4
	l2.8,4.5h-1.2l-2.6-4.4H374L374,604.8z M374,600.5v3.4h1.7c1.6,0,2.4-0.6,2.4-1.7c0-1.1-1-1.7-2.4-1.7H374z M382.1,604.6v3.6h5.1
	v0.9h-6.1v-9.5h5.8v0.9h-4.9v3.3h4.6v0.9L382.1,604.6z M393.3,604.6v3.6h5.1v0.9h-6.1v-9.5h6v0.9h-4.9v3.3h4.6v0.9L393.3,604.6z
	 M401.6,599.7l5.6,8.1l0,0v-8.1h1v9.5h-1.2l-5.5-8l0,0v8.1h-1v-9.5L401.6,599.7z M414,609.1v-9.5h2.8c1.5,0,3,0.5,3,2.4
	c0,1-0.7,1.8-1.7,2.1l0,0c1.2,0.1,2.2,1.1,2.2,2.4l0,0c0,1.6-1.3,2.7-3.5,2.7L414,609.1z M414.9,600.5v3.3h1.9c1,0,2.1-0.4,2.1-1.7
	c0-1.3-1.1-1.7-2.3-1.7h-1.7V600.5z M414.9,604.6v3.8h1.8c1.3,0,2.6-0.5,2.6-1.8c0-1.3-0.9-1.8-2.4-1.8L414.9,604.6z M423.4,606.7
	l-1.1,2.4h-1l4.1-9.5h1l4.1,9.5h-1.1l-1.1-2.4H423.4z M425.9,600.8l-2.1,5.1h4.1L425.9,600.8z M433.1,599.7l5.6,8.1l0,0v-8.1h1v9.5
	h-1.2l-5.5-8l0,0v8.1h-1v-9.5L433.1,599.7z M442.7,604.3c0.1,2.1,1.9,3.6,4,3.5c2.1-0.1,3.6-1.9,3.5-4c-0.1-2.1-1.8-3.6-3.8-3.5
	c-2.1,0-3.8,1.8-3.8,3.9C442.7,604.3,442.7,604.3,442.7,604.3L442.7,604.3z M451.8,608.3v0.9h-5.5c-2.7,0-4.9-2.1-5-4.7
	c0-2.7,2.1-4.9,4.7-5c2.7,0,4.9,2.1,5,4.7c0,0,0,0,0,0.1c0,1.6-0.9,3.2-2.2,4l0,0H451.8z M456.9,609.4c-1.8,0.1-3.5-1.3-3.5-3.3
	c0-0.2,0-0.4,0-0.6v-6h1v5.8c0,1.6,0.6,3,2.6,3s2.6-1.5,2.6-3v-5.8h1v6c0.2,1.8-1.1,3.5-2.9,3.8
	C457.4,609.5,457.1,609.5,456.9,609.4L456.9,609.4z M463.9,604.8v3.6h5.1v0.9H463v-9.5h6v0.9h-4.9v3.3h4.6v0.9L463.9,604.8z"/>
<path class="st16" d="M504.9,583.5h1.6c0.6,0.1,1.2-0.1,1.7-0.4c0.4-0.4,0.5-0.7,0.5-1.2v-0.9c0-0.5-0.1-0.9-0.5-1.2
	c-0.5-0.4-1.1-0.5-1.7-0.5c-0.6-0.1-1.2,0.1-1.7,0.5c-0.4,0.4-0.5,0.7-0.5,1.2v0.2c0,0.1-0.1,0.4-0.2,0.4c0,0,0,0-0.1,0h-1.2
	c-0.1,0-0.2,0-0.2-0.1c0-0.1-0.1-0.1-0.1-0.2v-0.5c0-0.7,0.2-1.5,0.9-2.1c0.9-0.7,2.1-1,3.2-0.9c1.1-0.1,2.3,0.1,3.2,0.9
	c0.5,0.5,0.9,1.2,0.9,2.1v1.3c0,0.5-0.1,0.9-0.4,1.3c-0.2,0.4-0.7,0.7-1.2,0.7c0.5,0.1,1,0.4,1.3,0.9c0.2,0.4,0.4,0.9,0.4,1.3v1.9
	c0,0.7-0.2,1.5-0.9,1.9c-2.1,1.2-4.5,1.2-6.6,0c-0.6-0.5-0.9-1.3-0.9-2.1v-0.5c0-0.1,0-0.2,0.1-0.2c0.1-0.1,0.1-0.1,0.2-0.1h1.1
	c0.1,0,0.2,0,0.2,0.1c0.1,0.1,0.1,0.1,0.1,0.2v0.2c0,0.5,0.1,1,0.5,1.2c0.5,0.4,1.1,0.5,1.8,0.5c0.6,0,1.2-0.1,1.7-0.5
	c0.4-0.2,0.6-0.7,0.5-1.2v-1.3c0-0.5-0.1-0.9-0.5-1.2c-0.5-0.4-1.1-0.5-1.7-0.4h-1.6c-0.1,0-0.2,0-0.2-0.1c-0.1-0.1-0.1-0.1-0.1-0.2
	v-0.9C504.6,583.6,504.7,583.5,504.9,583.5C504.9,583.4,504.9,583.4,504.9,583.5L504.9,583.5z M513.2,588.2v-7.4
	c0-0.7,0.4-1.5,0.9-2.1c2.1-1.2,4.5-1.2,6.6,0c0.6,0.5,0.9,1.2,0.9,2.1v7.4c0,0.7-0.4,1.6-0.9,2.1c-2.1,1.2-4.5,1.2-6.6,0
	C513.4,589.8,513.2,589,513.2,588.2z M519.6,587.9v-6.8c0-0.5-0.1-0.9-0.5-1.2c-1.1-0.6-2.4-0.6-3.5,0c-0.4,0.4-0.5,0.7-0.5,1.2v6.8
	c0,0.5,0.1,0.9,0.5,1.2c1.1,0.6,2.4,0.6,3.5,0C519.5,588.8,519.6,588.3,519.6,587.9L519.6,587.9z M530.5,583.5h1.5
	c0.6,0.1,1.2-0.1,1.7-0.4c0.4-0.4,0.5-0.7,0.5-1.2v-0.9c0-0.5-0.1-0.9-0.5-1.2c-0.5-0.4-1.1-0.5-1.7-0.5s-1.2,0.1-1.7,0.5
	c-0.4,0.4-0.5,0.7-0.5,1.2v0.2c0,0.1-0.1,0.4-0.2,0.4c0,0,0,0-0.1,0h-1c-0.1,0-0.2,0-0.2-0.1c0-0.1-0.1-0.1-0.1-0.2v-0.5
	c0-0.7,0.2-1.5,0.9-2.1c0.9-0.7,2.1-1,3.2-0.9c1.1-0.1,2.3,0.1,3.2,0.9c0.5,0.5,0.9,1.2,0.9,2.1v1.3c0,0.5-0.1,0.9-0.4,1.3
	c-0.2,0.4-0.7,0.7-1.2,0.7c0.5,0.1,1,0.4,1.3,0.9c0.2,0.4,0.4,0.9,0.4,1.3v1.9c0,0.7-0.2,1.5-0.9,1.9c-2.1,1.2-4.5,1.2-6.6,0
	c-0.6-0.5-0.9-1.3-0.9-2.1v-0.5c0-0.1,0-0.2,0.1-0.2c0.1-0.1,0.1-0.1,0.2-0.1h1.1c0.1,0,0.2,0,0.2,0.1c0.1,0.1,0.1,0.1,0.1,0.2v0.2
	c0,0.5,0.1,1,0.5,1.2c0.5,0.4,1.1,0.5,1.8,0.5c0.6,0,1.2-0.1,1.7-0.5c0.4-0.2,0.6-0.7,0.5-1.2v-1.3c0-0.5-0.1-0.9-0.5-1.2
	c-0.5-0.4-1.1-0.5-1.7-0.4h-1.6c-0.1,0-0.2,0-0.2-0.1c-0.1-0.1-0.1-0.1-0.1-0.2v-0.9C530.1,583.6,530.2,583.5,530.5,583.5
	C530.5,583.4,530.5,583.4,530.5,583.5L530.5,583.5z M542.5,578.4l-2.4,7.2h4.5v-7.2c0-0.1,0-0.2,0.1-0.2c0.1-0.1,0.1-0.1,0.2-0.1
	h1.2c0.1,0,0.2,0,0.2,0.1c0,0.1,0.1,0.1,0.1,0.2v12.3c0,0.1,0,0.2-0.1,0.2c-0.1,0.1-0.1,0.1-0.2,0.1h-1.2c-0.1,0-0.2,0-0.2-0.1
	c-0.1-0.1-0.1-0.2-0.1-0.2v-3.5h-6.1c-0.1,0-0.2,0-0.2-0.1c-0.1-0.1-0.1-0.1-0.1-0.2v-0.9c0-0.1,0-0.1,0-0.2v-0.1l2.4-7.2
	c0-0.1,0.1-0.2,0.1-0.2c0.1-0.1,0.1-0.1,0.2-0.1h1.2c0.1,0,0.2,0,0.2,0.1C542.5,578.1,542.5,578.3,542.5,578.4L542.5,578.4z
	 M552.8,578.4l-2.4,7.2h4.5v-7.2c0-0.1,0-0.2,0.1-0.2c0.1-0.1,0.1-0.1,0.2-0.1h1.2c0.1,0,0.2,0,0.2,0.1c0,0.1,0.1,0.1,0.1,0.2v12.3
	c0,0.1,0,0.2-0.1,0.2c-0.1,0.1-0.1,0.1-0.2,0.1h-1.2c-0.1,0-0.2,0-0.2-0.1c-0.1-0.1-0.1-0.2-0.1-0.2v-3.5h-6.1c-0.1,0-0.2,0-0.2-0.1
	c-0.1-0.1-0.1-0.1-0.1-0.2v-0.9c0-0.1,0-0.1,0-0.2v-0.1l2.4-7.2c0-0.1,0.1-0.2,0.1-0.2c0.1-0.1,0.1-0.1,0.2-0.1h1.2
	c0.1,0,0.2,0,0.2,0.1C552.8,578.1,552.8,578.3,552.8,578.4L552.8,578.4z M572.8,588.2c0,0.7-0.4,1.6-0.9,2.1c-2.1,1.2-4.6,1.2-6.7,0
	c-0.6-0.5-0.9-1.3-0.9-2.1v-1.8h-0.7c-0.1,0-0.2,0-0.2-0.1c-0.1-0.1-0.1-0.1-0.1-0.2v-0.5c0-0.1,0-0.2,0.1-0.2
	c0.1,0,0.1-0.1,0.2-0.1h0.7v-1.3h-0.7c-0.1,0-0.4-0.1-0.4-0.2v-0.1V583c0-0.1,0-0.2,0.1-0.2c0.1-0.1,0.1-0.1,0.2-0.1h0.7v-1.9
	c0-0.7,0.4-1.6,0.9-2.1c2.1-1.2,4.6-1.2,6.7,0c0.6,0.5,0.9,1.2,0.9,2.1v1c0,0.1,0,0.2-0.1,0.2c-0.1,0.1-0.1,0.1-0.2,0.1h-1.1
	c-0.1,0-0.2,0-0.2-0.1c-0.1-0.1-0.1-0.2-0.1-0.2v-0.6c0-0.5-0.2-1-0.6-1.2c-0.6-0.4-1.2-0.5-1.8-0.5s-1.3,0.1-1.8,0.5
	c-0.4,0.2-0.6,0.7-0.5,1.2v1.6h2.6c0.1,0,0.2,0,0.2,0.1c0.1,0.1,0.1,0.1,0.1,0.2v0.5c0,0.1,0,0.2-0.1,0.2c-0.1,0.1-0.1,0.1-0.2,0.1
	h-2.6v1.3h2.6c0.1,0,0.2,0,0.2,0.1c0,0.1,0.1,0.1,0.1,0.2v0.5c0,0.1-0.1,0.4-0.2,0.4h-0.1h-2.6v1.6c0,0.5,0.2,1,0.5,1.2
	c0.5,0.4,1.2,0.5,1.8,0.5s1.3-0.1,1.8-0.5c0.4-0.2,0.6-0.7,0.6-1.2v-0.9c0-0.1,0-0.2,0.1-0.2c0.1-0.1,0.1-0.1,0.2-0.1h1.1
	c0.1,0,0.2,0,0.2,0.1c0,0.1,0.1,0.1,0.1,0.2V588.2z"/>
<path id="EN-BANQUE" class="st11" d="M497.6,605.7v3.6h5.1v0.9h-6.1v-9.5h6v0.9h-5v3.3h4.6v0.9L497.6,605.7z M505.8,600.8l5.6,8.1
	l0,0v-8.1h1v9.5h-1.2l-5.5-8.1l0,0v8.1h-1v-9.5H505.8z M518.2,610.2v-9.5h2.8c1.5,0,3,0.5,3,2.4c0,1-0.7,1.8-1.7,2.1l0,0
	c1.2,0.1,2.2,1.1,2.2,2.4l0,0c0,1.6-1.3,2.7-3.5,2.7L518.2,610.2z M519.2,601.6v3.3h1.9c1,0,2.1-0.4,2.1-1.7c0-1.3-1.1-1.7-2.3-1.7
	h-1.7V601.6z M519.2,605.6v3.8h1.8c1.3,0,2.6-0.5,2.6-1.8c0-1.3-0.9-1.8-2.4-1.8h-1.9V605.6z M527.7,607.7l-1.1,2.4h-1.1l4.1-9.5h1
	l4.1,9.5h-1.1l-1.1-2.4H527.7z M530.1,601.8l-2.1,5h4.1L530.1,601.8z M537.3,600.8l5.6,8.1l0,0v-8.1h1v9.5h-1.2l-5.6-8.1l0,0v8.1h-1
	v-9.5H537.3z M546.9,605.4c0.1,2.1,1.9,3.6,4,3.5c2.1-0.1,3.6-1.9,3.5-4c-0.1-2.1-1.8-3.6-3.8-3.5c-2.1,0-3.8,1.7-3.8,3.9
	C546.9,605.3,546.9,605.3,546.9,605.4L546.9,605.4z M556.1,609.4v0.9h-5.5c-2.7,0-4.9-2.1-5-4.7c0-2.7,2.1-4.9,4.7-5
	c2.7,0,4.9,2.1,5,4.7c0,0,0,0,0,0.1c0,1.6-0.9,3.2-2.2,4l0,0H556.1z M561.1,610.5c-1.9,0.1-3.5-1.3-3.5-3.3c0-0.1,0-0.4,0-0.5v-6h1
	v5.8c0,1.6,0.6,3,2.6,3c1.9,0,2.6-1.5,2.6-3v-5.8h1v6c0.2,1.8-1.1,3.5-3,3.8C561.6,610.5,561.4,610.5,561.1,610.5L561.1,610.5z
	 M568.2,605.7v3.6h5.1v0.9h-6.1v-9.5h6v0.9h-4.9v3.3h4.6v0.9L568.2,605.7z"/>
<polygon id="Rectangle-6-Copy" class="st16" points="384,616.9 573.9,616.9 573.9,639.9 384,639.9 "/>
<polygon id="Rectangle-6" class="st15" points="305.4,616.9 382.1,616.9 382.1,639.9 305.4,639.9 "/>
<path class="st6" d="M308.9,430.1c1.2-0.1,2.4,0.7,2.6,2.1c0,0.1,0,0.1,0,0.2c0,0.9-0.5,1.6-1.2,1.8l0,0c0.9,0.2,1.6,1.1,1.5,1.9
	c0,1.5-1.2,2.6-2.6,2.6c-0.1,0-0.1,0-0.2,0c-1.5,0.1-2.7-0.9-2.8-2.2c0-0.1,0-0.1,0-0.2c0-1,0.6-1.7,1.6-1.9l0,0
	c-0.7-0.2-1.2-1-1.2-1.8C306.5,431.1,307.6,430.1,308.9,430.1C308.8,430.1,308.9,430.1,308.9,430.1z M308.9,431.4
	c-0.6-0.1-1.1,0.4-1.2,1v0.1c0,0.6,0.5,1.2,1.1,1.2h0.1c0.7,0,1.2-0.5,1.2-1.2C310.1,431.8,309.6,431.4,308.9,431.4L308.9,431.4
	L308.9,431.4z M308.9,434.8c-0.7,0-1.3,0.6-1.5,1.3v0.1c0,0.7,0.6,1.5,1.5,1.5c0.7,0,1.5-0.6,1.5-1.5
	C310.2,435.5,309.6,434.9,308.9,434.8L308.9,434.8L308.9,434.8z M315.8,430.1c1.2-0.1,2.4,0.7,2.6,2.1c0,0.1,0,0.1,0,0.2
	c0,0.9-0.5,1.6-1.2,1.8l0,0c0.9,0.2,1.6,1.1,1.6,1.9c-0.2,1.6-1.7,2.7-3.2,2.4c-1.3-0.1-2.3-1.2-2.4-2.4c0-1,0.6-1.7,1.6-1.9l0,0
	c-0.7-0.2-1.2-1-1.2-1.8C313.4,431.1,314.5,430.1,315.8,430.1L315.8,430.1z M315.8,431.4c-0.6-0.1-1.1,0.4-1.2,1v0.1
	c0,0.6,0.5,1.2,1.1,1.2h0.1c0.7,0,1.2-0.5,1.2-1.2C317,431.8,316.6,431.4,315.8,431.4L315.8,431.4z M315.8,434.8
	c-0.7,0-1.3,0.6-1.5,1.3c0,0,0,0,0,0.1c0.1,0.7,0.7,1.3,1.6,1.2c0.7-0.1,1.2-0.6,1.2-1.2C317.3,435.5,316.7,434.9,315.8,434.8
	C315.9,434.8,315.9,434.8,315.8,434.8L315.8,434.8z M319.7,440l0.7-3h1.3l-1,3H319.7z M328.7,434.4c0,2.7-1,4.3-2.9,4.3
	s-2.9-1.7-2.9-4.3c0-2.6,1-4.3,2.9-4.3S328.7,431.8,328.7,434.4z M327.4,434.4c0-1.1-0.2-3.2-1.5-3.2c-1.2,0-1.5,1.9-1.5,3.2
	c0,1.2,0.2,3.2,1.5,3.2C327.1,437.6,327.4,435.6,327.4,434.4z M332.9,430.4h1.7l-2.1,3l0,0c0.2-0.1,0.6-0.1,0.9-0.1
	c1.5,0,2.6,1.1,2.6,2.6c0,0,0,0,0,0.1c-0.1,1.7-1.5,2.9-3.2,2.8c-1.5-0.1-2.7-1.2-2.8-2.8c0-0.9,0.4-1.7,0.9-2.4L332.9,430.4z
	 M331.3,436c0,0.9,0.6,1.6,1.5,1.6c0,0,0,0,0.1,0c0.9,0,1.6-0.6,1.6-1.5V436c0-0.9-0.6-1.6-1.5-1.6h-0.1c-0.9,0-1.6,0.6-1.6,1.5
	C331.3,435.9,331.3,435.9,331.3,436z M342.2,430.4v1.2h-3.4l-0.1,1.8c0.4-0.1,0.6-0.1,1-0.1c1.3-0.1,2.7,0.9,2.8,2.3
	c0,0.1,0,0.2,0,0.4c-0.1,1.7-1.5,2.9-3.2,2.9c-1.1,0-2.2-0.7-2.7-1.8l1.2-0.5c0.2,0.6,0.9,1.1,1.6,1.1c0.9,0,1.5-0.6,1.5-1.5v-0.1
	c0-1.2-1-1.6-1.8-1.6c-0.6,0-1.3,0.1-1.9,0.5l0.1-4.5h5V430.4z M347.2,438.5v-8.1h5.4v1.2h-4v2.1h3.8v1.2h-3.8v2.3h4.1v1.3H347.2z
	 M354.3,438.5v-8.1h1.9l3.8,6.1l0,0v-6.1h1.5v8.1h-1.8l-3.9-6.3l0,0v6.3H354.3z M366.2,438.5v-8.1h2.8c1.5,0,3,0.6,3,2.3
	c0,1.1-0.7,2.1-1.8,2.2l2.2,3.6h-1.8l-1.9-3.4h-1.1v3.4L366.2,438.5z M367.6,433.9h1.2c0.9,0,1.7-0.2,1.7-1.2c0-1-0.9-1.1-1.6-1.1
	h-1.3V433.9z M373.3,438.5v-8.1h5.4v1.2h-4v2.1h3.8v1.2h-3.8v2.3h4.1v1.3H373.3z M382,438.5v-6.9h-2.6v-1.2h6.4v1.2h-2.4v6.9H382z
	 M385.3,438.5l3.5-8.1h1.2l3.5,8.1h-1.7l-0.7-1.8h-3.5l-0.7,1.8H385.3z M388.1,435.4h2.6l-1.2-3.3L388.1,435.4z M394.4,438.5v-8.1
	h2.8c1.6,0,3,0.6,3,2.3c0,1.1-0.7,2.1-1.8,2.2l2.2,3.6h-1.7l-1.9-3.4h-1.1v3.4L394.4,438.5z M395.8,433.9h1.2c0.9,0,1.7-0.2,1.7-1.2
	c0-1-0.9-1.1-1.6-1.1h-1.3V433.9z M401.6,438.5v-8.1h2.9c2.2,0,4.5,1,4.5,4.1c0,2.9-2.4,4.1-4.5,4.1h-2.9V438.5z M403,437.3h1.2
	c1.5,0,3.2-0.6,3.2-2.8s-1.7-2.8-3.2-2.8H403V437.3z M417.7,434.6v-0.7h0.4c1.1,0,1.9-0.4,1.9-1.5c0-0.9-0.7-1.6-1.6-1.6
	c0,0,0,0-0.1,0c-0.6,0-1.2,0.4-1.6,1l-0.7-0.4c0.5-0.9,1.3-1.3,2.3-1.3c1.2-0.1,2.3,0.7,2.4,1.9c0,0.1,0,0.1,0,0.2
	c0,0.9-0.6,1.7-1.5,1.8l0,0c1,0.1,1.7,1.1,1.7,2.1c0,1.3-1.1,2.4-2.4,2.4c-0.1,0-0.1,0-0.2,0c-1.1,0-2.2-0.6-2.6-1.7l0.7-0.2
	c0.2,0.7,1,1.2,1.8,1.2c1,0,1.7-0.7,1.8-1.7c0,0,0,0,0-0.1c0-1.2-1.1-1.7-2.1-1.7L417.7,434.6z M426.5,430.4l-2.3,3.5l0,0
	c0.4-0.2,0.9-0.4,1.2-0.2c1.3,0,2.4,1.1,2.4,2.4c0,0,0,0,0,0.1c0,1.5-1.2,2.7-2.7,2.7c-1.5,0-2.7-1.2-2.7-2.7c0-0.9,0.2-1.6,0.7-2.2
	l2.2-3.5L426.5,430.4z M423.4,436.2c0,1,0.9,1.8,1.8,1.8c1,0,1.8-0.9,1.8-1.8s-0.9-1.8-1.8-1.8C424.3,434.4,423.4,435.1,423.4,436.2
	z M434.1,430.4v0.7h-3.4l-0.1,2.6c0.4-0.1,0.7-0.2,1.1-0.1c1.3-0.1,2.6,0.9,2.7,2.2c0,0.1,0,0.2,0,0.4c0,1.5-1.2,2.7-2.8,2.7
	c-1,0-1.9-0.6-2.4-1.5l0.7-0.4c0.2,0.6,1,1.1,1.7,1.1c1.1,0,1.9-1,1.9-1.9c0-1.1-1-1.9-1.9-1.9l0,0c-0.6,0-1.2,0.1-1.7,0.5l0.1-4.3
	L434.1,430.4z M439.3,438.5v-8.1h2.7c2.3,0,4.1,1.8,4.1,4.1s-1.8,4.1-4.1,4.1h-2.7V438.5z M440.1,431.1v6.7h1.7
	c1.8,0.2,3.5-1.1,3.6-3c0.2-1.8-1.1-3.5-3-3.6c-0.2,0-0.5,0-0.7,0H440.1z M448.9,434.6v3.2h4.4v0.7H448v-8.1h5v0.7h-4.3v2.8h3.9v0.7
	H448.9z M455.7,434.8v3.8h-0.9v-8.1h2.4c1.6,0,2.8,0.6,2.8,2.2c0,1.2-1,2.1-2.2,2.1l0,0l2.4,3.9h-1l-2.3-3.8H455.7z M455.7,431.1
	v2.9h1.5c1.3,0,2.1-0.5,2.1-1.5c0-1-0.9-1.5-2.1-1.5L455.7,431.1L455.7,431.1z M462.7,430.4l4.7,6.9l0,0v-6.9h0.9v8.1h-1.1l-4.7-7.1
	l0,0v7.1h-0.9v-8.1H462.7z M471.4,430.4v8.1h-0.9v-8.1H471.4z M474.3,434.6v3.2h4.4v0.7h-5.2v-8.1h5.1v0.7h-4.3v2.8h3.9v0.7H474.3z
	 M481.1,434.6v3.8h-0.9v-8.1h2.4c1.6,0,2.8,0.6,2.8,2.2c0,1.1-1,2.1-2.1,2.1l2.4,3.9h-1l-2.3-3.8H481.1z M481.1,431v2.9h1.5
	c1.3,0,2.1-0.5,2.1-1.5c0-1-0.9-1.5-2.1-1.5L481.1,431L481.1,431z M491.8,431.1l-0.6,0.5c-0.4-0.5-1-0.9-1.7-0.9
	c-0.9-0.1-1.7,0.6-1.7,1.5c0,0,0,0,0,0.1c0,1.1,0.9,1.3,1.8,1.6c1.1,0.4,2.4,0.7,2.4,2.4c0,1.3-1.2,2.4-2.6,2.3h-0.1
	c-1,0-1.9-0.4-2.6-1.2l0.7-0.5c0.4,0.6,1.1,1.1,1.8,1.1c1,0.1,1.7-0.6,1.8-1.6l0,0c0-1.1-1-1.5-1.9-1.7c-1-0.2-2.2-0.9-2.2-2.3
	c0-1.3,1.1-2.3,2.4-2.3h0.1C490.3,430.1,491.2,430.5,491.8,431.1L491.8,431.1z M495.6,437.1l0.7-0.2c0.1,0.6,0.6,1.1,1.3,1.1
	c1.1,0,1.5-1,1.5-1.9v-5.7h0.9v5.8c0,1.1-0.4,2.6-2.2,2.6C496.7,438.8,495.8,438,495.6,437.1z M510,434.4c0,2.3-1.9,4.3-4.3,4.3
	s-4.3-1.9-4.3-4.3c0-2.3,1.9-4.3,4.3-4.3c2.3-0.1,4.1,1.7,4.3,4C510,434.3,510,434.4,510,434.4z M509.2,434.4
	c-0.1-1.8-1.7-3.3-3.5-3.2c-1.8,0.1-3.3,1.7-3.2,3.5c0.1,1.8,1.6,3.2,3.4,3.2s3.4-1.5,3.4-3.3C509.2,434.6,509.2,434.5,509.2,434.4z
	 M514.8,438.8c-1.6,0.1-3-1.2-3-2.8c0-0.1,0-0.4,0-0.5v-5.1h0.9v5c0,1.3,0.6,2.6,2.2,2.6s2.2-1.3,2.2-2.6v-5h0.9v5.1
	c0.1,1.6-1,3-2.6,3.3C515.1,438.8,515,438.8,514.8,438.8z M520.9,434.8v3.8H520v-8.1h2.4c1.6,0,2.8,0.6,2.8,2.2c0,1.1-1,2.1-2.1,2.1
	l2.4,3.9h-1l-2.3-3.8H520.9z M520.9,431.1v2.9h1.5c1.3,0,2.1-0.5,2.1-1.5c0-1-0.9-1.5-2.1-1.5L520.9,431.1L520.9,431.1z
	 M531.4,431.1l-0.6,0.5c-0.4-0.5-1-0.9-1.7-0.9c-0.9-0.1-1.7,0.6-1.7,1.5c0,0,0,0,0,0.1c0,1.1,0.9,1.3,1.8,1.6
	c1.2,0.4,2.4,0.7,2.4,2.4c0,1.3-1.2,2.4-2.6,2.3H529c-1,0-1.9-0.5-2.6-1.2l0.7-0.5c0.4,0.6,1.1,1.1,1.8,1.1c1,0.1,1.7-0.6,1.8-1.6
	l0,0c0-1.1-1-1.5-1.9-1.7c-1-0.2-2.2-0.9-2.2-2.3c0.1-1.3,1.2-2.3,2.6-2.3l0,0C530.1,430.1,530.9,430.5,531.4,431.1L531.4,431.1z"/>
<path class="st17" d="M308.5,466.6h5.8c0.1,0,0.2,0,0.2,0.1c0.1,0.1,0.1,0.1,0.1,0.2v0.9c0,0.1,0,0.2-0.1,0.2
	c-0.1,0.1-0.1,0.1-0.2,0.1h-7.3c-0.1,0-0.4-0.1-0.4-0.2v-0.1v-3.2c0-0.6,0.1-1.1,0.5-1.5c0.4-0.2,0.7-0.5,1.1-0.7l3.6-1.3
	c0.2-0.1,0.5-0.2,0.6-0.4c0.2-0.2,0.4-0.5,0.4-0.9v-1.6c0-0.5-0.1-0.9-0.5-1.2c-1.1-0.6-2.4-0.6-3.5,0c-0.4,0.4-0.5,0.7-0.5,1.2v0.9
	c0,0.1,0,0.2-0.1,0.2c-0.1,0.1-0.1,0.1-0.2,0.1h-1.1c-0.1,0-0.2,0-0.2-0.1c-0.1-0.1-0.1-0.2-0.1-0.2v-1.1c0-0.7,0.4-1.5,0.9-2.1
	c1-0.7,2.1-1,3.3-0.9c1.2-0.1,2.3,0.1,3.3,0.9c0.6,0.5,0.9,1.3,0.9,2.1v1.8c0,0.7-0.1,1.3-0.6,1.8c-0.4,0.4-0.7,0.6-1.1,0.7
	l-3.3,1.2c-0.2,0.1-0.6,0.2-0.9,0.4c-0.2,0.2-0.4,0.5-0.4,0.7L308.5,466.6z M321.2,465.4V458c0-0.7,0.4-1.6,0.9-2.1
	c1-0.7,2.1-1,3.3-0.9c1.2-0.1,2.3,0.2,3.3,0.9c0.6,0.5,0.9,1.3,0.9,2.1v7.4c0,0.7-0.4,1.6-0.9,2.1c-1,0.7-2.1,1-3.3,0.9
	c-1.2,0.1-2.3-0.2-3.3-0.9C321.5,467,321.2,466.3,321.2,465.4L321.2,465.4z M327.6,465.2v-6.8c0-0.5-0.1-0.9-0.5-1.2
	c-0.5-0.4-1.2-0.5-1.8-0.5c-0.6-0.1-1.2,0.1-1.8,0.5c-0.4,0.4-0.5,0.7-0.5,1.2v6.8c0,0.5,0.1,0.9,0.5,1.2c0.5,0.4,1.1,0.5,1.8,0.5
	c0.6,0,1.2-0.1,1.8-0.5C327.5,466,327.7,465.6,327.6,465.2L327.6,465.2z M332.1,465.4V458c0-0.7,0.4-1.6,0.9-2.1
	c1-0.7,2.1-1,3.3-0.9c1.2-0.1,2.3,0.2,3.3,0.9c0.6,0.5,0.9,1.3,0.9,2.1v7.4c0,0.7-0.4,1.6-0.9,2.1c-1,0.7-2.1,1-3.3,0.9
	c-1.2,0.1-2.3-0.2-3.3-0.9C332.5,467,332.1,466.3,332.1,465.4L332.1,465.4z M338.6,465.2v-6.8c0-0.5-0.1-0.9-0.5-1.2
	c-1.1-0.6-2.4-0.6-3.5,0c-0.4,0.4-0.5,0.7-0.5,1.2v6.8c0,0.5,0.1,0.9,0.5,1.2c1.1,0.6,2.4,0.6,3.5,0
	C338.4,466,338.7,465.6,338.6,465.2L338.6,465.2z M343.1,465.4V458c0-0.7,0.4-1.6,0.9-2.1c1-0.7,2.1-1,3.3-0.9
	c1.2-0.1,2.3,0.2,3.3,0.9c0.6,0.5,0.9,1.3,0.9,2.1v7.4c0,0.7-0.4,1.6-0.9,2.1c-1,0.7-2.1,1-3.3,0.9c-1.2,0.1-2.3-0.2-3.3-0.9
	C343.4,467,343.1,466.3,343.1,465.4L343.1,465.4z M349.6,465.2v-6.8c0-0.5-0.1-0.9-0.5-1.2c-0.5-0.4-1.2-0.5-1.8-0.5
	c-0.6-0.1-1.2,0.1-1.7,0.5c-0.4,0.4-0.5,0.7-0.5,1.2v6.8c0,0.5,0.1,0.9,0.5,1.2c0.5,0.4,1.1,0.5,1.7,0.5c0.6,0.1,1.2-0.1,1.8-0.5
	C349.4,466,349.6,465.6,349.6,465.2L349.6,465.2z M367.4,465.4c0,0.7-0.4,1.6-0.9,2.1c-2.1,1.2-4.6,1.2-6.7,0
	c-0.6-0.5-0.9-1.3-0.9-2.1v-1.8h-0.9c-0.1,0-0.2,0-0.2-0.1c-0.1-0.1-0.1-0.1-0.1-0.2v-0.5c0-0.1,0-0.2,0.1-0.2
	c0.1,0,0.1-0.1,0.2-0.1h0.7V461h-0.7c-0.1,0-0.2,0-0.2-0.1c-0.1-0.1-0.1-0.1-0.1-0.2v-0.5c0-0.1,0-0.2,0.1-0.2
	c0.1,0,0.1-0.1,0.2-0.1h0.7v-1.9c0-0.7,0.4-1.6,0.9-2.1c1-0.7,2.2-1,3.4-0.9c1.2-0.1,2.4,0.1,3.4,0.9c0.6,0.5,0.9,1.3,0.9,2.1v1
	c0,0.1,0,0.2-0.1,0.2c-0.1,0.1-0.1,0.1-0.2,0.1h-1.1c-0.1,0-0.2,0-0.2-0.1s-0.1-0.2-0.1-0.2v-0.6c0-0.5-0.2-1-0.5-1.2
	c-0.6-0.4-1.2-0.5-1.8-0.5s-1.3,0.1-1.8,0.5c-0.4,0.2-0.6,0.7-0.5,1.2v1.6h2.6c0.1,0,0.2,0,0.2,0.1s0.1,0.1,0.1,0.2v0.5
	c0,0.1,0,0.2-0.1,0.2c-0.1,0.1-0.1,0.1-0.2,0.1h-2.6v1.3h2.6c0.1,0,0.2,0,0.2,0.1c0.1,0.1,0.1,0.1,0.1,0.2v0.5c0,0.1,0,0.2-0.1,0.2
	c-0.1,0.1-0.1,0.1-0.2,0.1h-2.6v1.6c0,0.5,0.2,1,0.5,1.2c0.5,0.4,1.2,0.5,1.8,0.5s1.3-0.1,1.8-0.5c0.4-0.2,0.6-0.7,0.5-1.2v-0.9
	c0-0.1,0-0.2,0.1-0.2c0.1-0.1,0.1-0.1,0.2-0.1h1.1c0.1,0,0.2,0,0.2,0.1s0.1,0.1,0.1,0.2V465.4z"/>
<path id="EN-RETARD" class="st11" d="M307.6,481.9v3.6h5.1v0.9h-6.1V477h5.8v0.9h-4.9v3.3h4.6v0.9L307.6,481.9z M315.8,477l5.5,8.1
	l0,0V477h1v9.5h-1.2l-5.5-8.1l0,0v8.1h-1V477L315.8,477z M329.2,482.1v4.5h-1v-9.5h2.8c1.8,0,3.3,0.7,3.3,2.6c0,1.3-1.1,2.4-2.4,2.4
	l2.8,4.5h-1.2l-2.7-4.5L329.2,482.1z M329.2,477.8v3.4h1.7c1.6,0,2.4-0.6,2.4-1.7s-1-1.7-2.4-1.7H329.2z M337.2,481.9v3.6h5.1v0.9
	h-6.1V477h5.8v0.9h-4.9v3.3h4.6v0.9L337.2,481.9z M347.2,477.8v8.6h-1v-8.6h-3.2V477h7.3v0.9H347.2z M351.9,484l-1,2.4h-1.1l4.1-9.5
	h1l4.1,9.5H358l-1-2.4H351.9z M354.4,478.1l-2.1,5.1h4.1L354.4,478.1z M361.3,482.1v4.5h-1v-9.5h2.8c1.9,0,3.3,0.7,3.3,2.6
	c0,1.3-1.1,2.4-2.4,2.4l2.8,4.5h-1.2l-2.6-4.4L361.3,482.1z M361.3,477.8v3.4h1.7c1.6,0,2.4-0.6,2.4-1.7s-1-1.7-2.4-1.7H361.3z
	 M368.4,486.4V477h3.2c2.7,0,4.7,2.2,4.7,4.7s-2.2,4.7-4.7,4.7H368.4z M369.3,477.8v7.8h1.9c2.2,0.1,4-1.5,4.3-3.5
	c0.2-2.1-1.5-4-3.5-4.3c-0.2,0-0.4,0-0.6,0H369.3z"/>
<path class="st6" d="M503.7,456l4.4-1c0.1,0,0.1,0,0.2,0c0.1,0,0.1,0.1,0.1,0.2v11.2h2.8c0.1,0,0.2,0,0.2,0.1
	c0.1,0.1,0.1,0.1,0.1,0.2v0.9c0,0.1,0,0.2-0.1,0.2c-0.1,0.1-0.1,0.1-0.2,0.1h-7.5c-0.1,0-0.2,0-0.2-0.1c-0.1-0.1-0.1-0.1-0.1-0.2
	v-0.9c0-0.1,0-0.2,0.1-0.2c0.1-0.1,0.1-0.1,0.2-0.1h2.8V457l-2.9,0.6c-0.1,0-0.1,0-0.2,0c-0.1-0.1-0.1-0.1-0.1-0.2v-1
	c0-0.1,0-0.2,0.1-0.2C503.5,456.2,503.6,456,503.7,456z M513.8,455.2h6.7c0.1,0,0.2,0,0.2,0.1c0.1,0.1,0.1,0.1,0.1,0.2v0.9
	c0,0.1,0,0.2-0.1,0.2c-0.1,0.1-0.1,0.1-0.2,0.1h-5.1v3.3h1.7c1.1-0.1,2.2,0.2,3.2,0.7c0.6,0.5,1,1.2,1,1.9v2.6
	c0,0.7-0.2,1.5-0.9,2.1c-1.9,1.2-4.5,1.2-6.4,0c-0.5-0.5-0.9-1.3-0.9-2.1v-0.4c0-0.1,0-0.2,0.1-0.2c0.1-0.1,0.1-0.1,0.2-0.1h1.1
	c0.1,0,0.2,0,0.2,0.1c0.1,0.1,0.1,0.2,0.1,0.2v0.2c0,0.5,0.1,0.9,0.5,1.2c0.5,0.4,1.1,0.5,1.7,0.5c0.6,0.1,1.2-0.1,1.7-0.5
	c0.4-0.4,0.5-0.7,0.5-1.2v-2.1c0-0.4-0.1-0.9-0.5-1.1c-0.5-0.4-1.1-0.5-1.7-0.5h-3.3c-0.1,0-0.2,0-0.2-0.1s-0.1-0.2-0.1-0.2v-5.7
	c0-0.1,0-0.2,0.1-0.2C513.6,455.2,513.7,455.2,513.8,455.2z M527.7,465.4V458c0-0.7,0.4-1.6,0.9-2.1c1-0.7,2.1-1,3.3-0.9
	c1.2-0.1,2.3,0.2,3.3,0.9c0.6,0.5,0.9,1.3,0.9,2.1v7.4c0,0.7-0.4,1.6-0.9,2.1c-1,0.7-2.1,1-3.3,0.9c-1.2,0.1-2.3-0.2-3.3-0.9
	C527.9,467,527.7,466.3,527.7,465.4L527.7,465.4z M534.1,465.2v-6.8c0-0.5-0.1-0.9-0.5-1.2c-1.1-0.6-2.4-0.6-3.5,0
	c-0.4,0.4-0.5,0.7-0.5,1.2v6.8c0,0.5,0.1,0.9,0.5,1.2c1.1,0.6,2.4,0.6,3.5,0C533.9,466,534.1,465.6,534.1,465.2L534.1,465.2z
	 M538.6,465.4v-7.5c0-0.7,0.4-1.5,0.9-1.9c0.9-0.7,2.1-1.1,3.2-0.9c1.1-0.1,2.3,0.1,3.2,1c0.5,0.5,0.9,1.2,0.9,1.9v0.4
	c0,0.1,0,0.2-0.1,0.2c-0.1,0.1-0.1,0.1-0.2,0.1h-1.1c-0.1,0-0.2,0-0.2-0.1s-0.1-0.1-0.1-0.2v-0.1c0-0.5-0.1-0.9-0.5-1.1
	c-0.5-0.4-1.1-0.5-1.7-0.5c-0.6-0.1-1.2,0.1-1.7,0.5c-0.4,0.4-0.5,0.7-0.5,1.2v3c0.2-0.2,0.6-0.5,1-0.6c0.5-0.1,1-0.2,1.6-0.2
	c1.1-0.1,2.2,0.2,3,0.9c0.5,0.5,0.9,1.3,0.9,2.1v2.1c0,0.7-0.2,1.5-0.9,2.1c-1.9,1.2-4.5,1.2-6.4,0
	C538.9,467,538.6,466.3,538.6,465.4L538.6,465.4z M544.9,465.2v-1.6c0-0.5-0.1-0.9-0.5-1.2c-0.5-0.4-1.1-0.5-1.7-0.5
	s-1.2,0.1-1.7,0.4c-0.4,0.2-0.5,0.7-0.5,1.1v1.7c0,0.5,0.1,0.9,0.5,1.2c1.1,0.6,2.4,0.6,3.5,0C544.7,466.1,544.9,465.6,544.9,465.2
	L544.9,465.2z M549.7,455.2h6.7c0.1,0,0.2,0,0.2,0.1c0.1,0.1,0.1,0.1,0.1,0.2v0.9c0,0.1,0,0.2-0.1,0.2c-0.1,0.1-0.2,0.1-0.2,0.1
	h-5.1v3.3h1.7c1.1-0.1,2.2,0.2,3.2,0.7c0.6,0.5,1,1.2,1,1.9v2.6c0,0.7-0.2,1.5-0.9,2.1c-1.9,1.2-4.5,1.2-6.4,0
	c-0.5-0.5-0.9-1.3-0.9-2.1v-0.4c0-0.1,0-0.2,0.1-0.2c0.1-0.1,0.1-0.1,0.2-0.1h1.1c0.1,0,0.2,0,0.2,0.1c0.1,0.1,0.1,0.2,0.1,0.2v0.2
	c0,0.5,0.1,0.9,0.5,1.2c0.5,0.4,1.1,0.5,1.7,0.5c0.6,0.1,1.2-0.1,1.7-0.5c0.4-0.4,0.5-0.7,0.5-1.2v-2.1c0-0.4-0.1-0.9-0.5-1.1
	c-0.5-0.4-1.1-0.5-1.7-0.5h-3.3c-0.1,0-0.2,0-0.2-0.1s-0.1-0.2-0.1-0.2v-5.7c0-0.1,0-0.2,0.1-0.2
	C549.6,455.2,549.6,455.2,549.7,455.2L549.7,455.2z M572.8,465.4c0,0.7-0.4,1.6-0.9,2.1c-2.1,1.2-4.6,1.2-6.7,0
	c-0.6-0.5-0.9-1.3-0.9-2.1v-1.8h-0.7c-0.1,0-0.2,0-0.2-0.1c-0.1-0.1-0.1-0.1-0.1-0.2v-0.5c0-0.1,0-0.2,0.1-0.2
	c0.1,0,0.1-0.1,0.2-0.1h0.7V461h-0.7c-0.1,0-0.2,0-0.2-0.1c-0.1-0.1-0.1-0.1-0.1-0.2v-0.5c0-0.1,0-0.2,0.1-0.2
	c0.1,0,0.1-0.1,0.2-0.1h0.7v-1.9c0-0.7,0.4-1.6,0.9-2.1c2.1-1.2,4.6-1.2,6.7,0c0.6,0.5,0.9,1.3,0.9,2.1v1c0,0.1,0,0.2-0.1,0.2
	c-0.1,0.1-0.1,0.1-0.2,0.1h-1.1c-0.1,0-0.2,0-0.2-0.1c-0.1-0.1-0.1-0.2-0.1-0.2v-0.6c0-0.5-0.2-1-0.6-1.2c-0.6-0.4-1.2-0.5-1.8-0.5
	s-1.3,0.1-1.8,0.5c-0.4,0.2-0.6,0.7-0.5,1.2v1.6h2.6c0.1,0,0.2,0,0.2,0.1s0.1,0.1,0.1,0.2v0.5c0,0.1,0,0.2-0.1,0.2
	c-0.1,0.1-0.1,0.1-0.2,0.1h-2.6v1.3h2.6c0.1,0,0.2,0,0.2,0.1c0.1,0.1,0.1,0.1,0.1,0.2v0.5c0,0.1,0,0.2-0.1,0.2
	c-0.1,0.1-0.1,0.1-0.2,0.1h-2.6v1.6c0,0.5,0.2,1,0.5,1.2c0.5,0.4,1.2,0.5,1.8,0.5s1.3-0.1,1.8-0.5c0.4-0.2,0.6-0.7,0.6-1.2v-0.9
	c0-0.1,0-0.2,0.1-0.2c0.1-0.1,0.1-0.1,0.2-0.1h1.1c0.1,0,0.2,0,0.2,0.1s0.1,0.1,0.1,0.2V465.4z"/>
<path id="EN-ATTENTE" class="st11" d="M497.1,481.9v3.6h5.1v0.9h-6.1V477h6v0.9h-4.9v3.3h4.6v0.9L497.1,481.9z M505.3,477l5.6,8.1
	l0,0V477h1v9.5h-1.2l-5.5-8.1l0,0v8.1h-1.1V477H505.3z M518.4,484l-1.1,2.4h-1.1l4.1-9.5h1l4.1,9.5h-1.1l-1.1-2.4H518.4z
	 M520.9,478.1l-2.1,5.1h4.1L520.9,478.1z M529.1,477.8v8.6h-1v-8.6H525V477h7.3v0.9H529.1z M536.8,477.8v8.6h-1v-8.6h-3.2V477h7.3
	v0.9H536.8z M542.3,481.9v3.6h5.1v0.9h-6.1V477h5.8v0.9h-4.9v3.3h4.6v0.9L542.3,481.9z M550.5,477l5.6,8.1l0,0V477h1v9.5h-1.2
	l-5.6-8.1l0,0v8.1h-1V477L550.5,477z M562.7,477.8v8.6h-1v-8.6h-3.2V477h7.3v0.9H562.7z M568.3,481.9v3.6h5.1v0.9h-6.1V477h6v0.9
	h-4.9v3.3h4.6v0.9L568.3,481.9z"/>
<polygon class="st18" points="384,494.1 573.9,494.1 573.9,517.2 384,517.2 "/>
<polygon class="st17" points="305.4,494.1 382.1,494.1 382.1,517.2 305.4,517.2 "/>
<path id="Line-4" class="st19" d="M288.1,112.4h10.6"/>
<path id="Line-4-Copy" class="st19" d="M288.1,108.6h10.6"/>
<path id="Line-4-Copy-2" class="st19" d="M288.1,104.7h10.6"/>
<path id="Line-3-Copy" class="st20" d="M288.1,150.8h305"/>
<path id="Line-3" class="st21" d="M312.1,150.8h98.7"/>
</svg>
